<svg width="550" height="484" viewBox="0 0 550 484" fill="none" xmlns="http://www.w3.org/2000/svg">
<rect width="550" height="431.363" rx="37" fill="#1A1634"/>
<path d="M0 381.294H550V447C550 467.435 533.435 484 513 484H37C16.5655 484 0 467.435 0 447V381.294Z" fill="#C5E4EE"/>
<rect x="450" y="332" width="68" height="74" rx="23" fill="#876BD9"/>
<path d="M493.771 408.521H473.021C454.242 408.521 446.219 400.207 446.219 380.75V359.25C446.219 339.792 454.242 331.479 473.021 331.479H493.771C512.55 331.479 520.573 339.792 520.573 359.25V380.75C520.573 400.207 512.584 408.521 493.771 408.521ZM473.021 336.854C457.078 336.854 451.406 342.731 451.406 359.25V380.75C451.406 397.269 457.078 403.146 473.021 403.146H493.771C509.714 403.146 515.385 397.269 515.385 380.75V359.25C515.385 342.731 509.714 336.854 493.771 336.854H473.021Z" fill="white"/>
<path d="M493.771 408.521C492.354 408.521 491.178 407.302 491.178 405.833V334.167C491.178 332.697 492.354 331.479 493.771 331.479C495.189 331.479 496.365 332.697 496.365 334.167V405.833C496.365 407.302 495.224 408.521 493.771 408.521Z" fill="white"/>
<path d="M469.564 381.861C468.907 381.861 468.249 381.61 467.731 381.072C466.728 380.033 466.728 378.313 467.731 377.274L474.751 370L467.731 362.726C466.728 361.686 466.728 359.966 467.731 358.927C468.734 357.888 470.394 357.888 471.397 358.927L480.25 368.101C481.253 369.14 481.253 370.86 480.25 371.899L471.397 381.072C470.912 381.61 470.255 381.861 469.564 381.861Z" fill="white"/>
</svg>
