<svg width="226" height="227" viewBox="0 0 226 227" fill="none" xmlns="http://www.w3.org/2000/svg">
<path d="M78.567 123.063C80.0045 123.471 81.4998 123.642 82.9918 123.627C83.0993 123.627 83.2063 123.622 83.3132 123.62C83.3909 123.989 83.6202 124.333 83.9487 124.525C84.3503 124.7 84.7864 124.741 85.2308 124.747C85.5813 125.229 86.4053 125.328 87.0966 125.429C87.7587 125.635 88.5031 125.592 89.1879 125.66C90.781 125.708 92.3779 125.699 93.9658 125.55C104.651 124.668 114.703 118.144 120.035 108.87C121.777 105.849 123.567 101.204 123.958 97.2409C124.348 94.4168 124.632 90.6627 124.138 87.5252C124.155 101.124 115.968 114.094 104.462 119.833C105.746 119.025 106.992 118.152 108.19 117.225C113.061 113.634 116.838 108.791 119.322 103.287C122.583 96.0652 124.377 87.6515 121.788 79.9476C123.687 89.1263 120.493 96.8315 116.205 104.063C114.6 106.791 113.149 108.867 111.254 110.882C120.316 100.317 124.684 85.4227 118.332 72.3804C119.572 76.2764 120.055 80.0175 119.733 84.1234C119.405 88.4255 117.463 95.0924 115.796 98.6807C110.97 109.35 104.101 115.423 93.9029 118.933C89.4626 120.24 86.1819 120.979 82.0699 120.903C80.7017 120.801 81.1649 120.887 79.943 120.617C79.242 120.4 78.3357 120.213 77.8621 120.937C77.2557 121.632 77.671 122.85 78.567 123.063Z" fill="#6265FE"/>
<path d="M161.591 146.997C161.658 147.047 161.733 147.115 161.77 147.133C161.715 147.074 161.652 147.039 161.591 146.997Z" fill="#6265FE"/>
<path d="M143.69 143.745C144.533 144.718 145.378 145.689 146.225 146.659C145.576 146.74 145.014 147.306 145.022 147.995C145.196 149.169 146.355 150.041 146.974 151.025C147.205 151.323 147.449 151.61 147.687 151.902C146.869 152.263 146.539 153.454 147.319 154.201C147.491 154.445 147.683 154.702 147.874 154.957C147.171 155.228 146.737 156.146 147.216 156.85C147.694 157.554 148.204 158.237 148.731 158.908C148.406 159.031 148.135 159.299 148.046 159.645C147.933 160.072 148.093 160.478 148.369 160.805C148.768 161.351 149.178 161.888 149.616 162.402C149.552 162.362 149.473 162.322 149.368 162.282C148.701 162.074 148.084 162.877 148.461 163.469C148.685 163.769 148.926 164.055 149.172 164.337C148.676 163.899 147.651 164.49 148.485 165.508C149.976 167.476 152.275 169.34 154.806 169.575C152.352 168.613 150.131 165.558 149.311 164.508C151.402 166.846 154.219 168.581 157.13 169.672C154.523 167.907 152.21 165.48 150.146 162.972C152.957 165.903 156.471 168.159 160.228 169.672C158.094 168.107 156.009 166.275 154.16 164.361C157 166.547 160.027 168.623 163.423 169.769C162.17 169.162 161.357 168.396 160.309 167.54C158.393 165.909 156.559 164.182 154.808 162.376C154.733 162.296 154.67 162.225 154.599 162.147C154.885 162.399 155.17 162.651 155.459 162.892C158.879 165.699 163.523 169.009 168.168 171.027C164.374 168.643 161.081 165.281 157.715 162.043C162.548 166.126 167.631 169.53 173.444 173.012C169.356 169.927 165.652 166.308 161.953 162.737C166.639 166.699 171.395 170.092 176.494 174.125C171.925 169.574 167.506 164.87 162.9 160.353C162.249 159.724 161.6 159.091 160.955 158.455C165.161 162.324 169.502 166.047 173.686 169.866C170.436 165.818 167.063 161.814 163.57 157.914C166.448 160.562 169.398 163.132 172.427 165.607C169.014 161.667 165.712 157.625 162.31 153.673C165.227 156.337 168.116 159.034 171.169 161.542C168.857 158.6 166.55 155.563 164.097 152.64C166.383 154.905 168.718 157.12 171.071 159.316C169.384 156.848 167.714 154.329 165.89 151.94C167.697 153.706 169.516 155.46 171.362 157.186C170.026 155.001 168.596 152.863 167.022 150.84C168.611 152.425 170.193 154.02 171.846 155.54C170.535 153.398 169.171 151.279 167.629 149.296C168.974 150.604 170.336 151.908 171.846 153.023C170.435 151.089 169.106 149.087 167.492 147.311C167.294 147.091 167.091 146.812 166.762 146.826C166.406 146.817 166.121 147.13 166.113 147.47C165.966 147.304 165.822 147.136 165.672 146.973C165.15 146.419 164.231 146.874 164.226 147.561C164.126 147.453 164.029 147.343 163.927 147.237C163.377 146.653 162.447 147.054 162.301 147.735C162.054 147.48 161.812 147.22 161.558 146.973C160.851 146.53 159.843 147.112 159.877 147.948C158.71 146.771 157.778 144.964 156.36 146.6C156.311 146.725 156.278 146.833 156.25 146.938C155.585 146.239 154.917 145.543 154.235 144.859C153.356 144.011 152.204 144.639 151.978 145.524C151.539 145.05 151.106 144.57 150.659 144.104C149.998 143.526 149.52 142.495 148.543 142.479C147.821 142.456 147.298 143.046 147.211 143.688C147.147 143.611 147.082 143.537 147.018 143.461C146.388 142.853 145.951 141.958 145.169 141.549C144.335 141.127 143.261 141.865 143.293 142.787C143.318 143.145 143.422 143.491 143.69 143.745Z" fill="#6265FE"/>
<path d="M161.556 146.97L161.558 146.972C161.57 146.979 161.581 146.99 161.592 146.998C161.58 146.989 161.567 146.977 161.556 146.97Z" fill="#6265FE"/>
<path d="M168.143 147.775C169.159 149.121 170.512 150.224 171.702 151.426C170.916 149.966 169.935 148.612 168.841 147.369C168.554 147.065 168.023 147.377 168.143 147.775Z" fill="#6265FE"/>
<path d="M172.428 150.99C171.558 149.663 170.801 148.193 169.809 147.238C168.074 147.069 172.061 150.649 172.428 150.99Z" fill="#6265FE"/>
<path d="M148.888 167.922C150.079 169.16 151.651 170.068 153.354 170.349C151.721 169.502 150.564 168.38 149.28 167.001C149.097 166.731 148.681 166.685 148.507 166.988C148.332 167.45 148.626 167.545 148.888 167.922Z" fill="#6265FE"/>
<path d="M126.246 80.6805C123.961 74.4891 120.263 68.5852 114.992 64.5214C114.419 64.127 113.854 63.4521 113.09 63.6787C112.085 63.932 111.896 65.3823 112.802 65.8836C112.853 65.9173 112.905 65.9574 112.957 65.9918C117.676 78.0962 117.217 89.9331 110.765 100.492C105.429 109.108 96.436 114.503 86.4098 117.327C82.134 118.636 77.5815 118.798 72.915 116.904C73.0802 116.994 72.5762 116.752 72.0722 116.487C71.85 116.299 71.9847 116.282 71.5118 116.181C71.4224 116.13 71.3453 116.082 71.2902 116.044C70.656 115.705 70.6333 115.443 69.977 115.349C69.508 115.338 69.0895 115.759 69.0985 116.228C69.1368 116.93 69.885 117.262 70.3917 117.652C70.7266 118.308 71.6155 118.883 72.0709 119.37C74.2289 121.183 76.5832 122.771 79.1506 123.944C85.5041 126.671 92.7225 128.445 99.604 126.939C110.121 124.161 119.044 116.273 123.868 106.614C127.801 98.6668 129.061 89.1863 126.246 80.6805ZM118.207 111.387C114.308 117.06 104.359 124.549 96.5578 125.15C92.3047 125.489 89.5545 124.928 85.4834 123.764C82.7443 123.034 79.9566 121.817 77.5291 120.397C79.0897 120.681 80.6789 120.814 82.2642 120.863C82.5298 120.871 82.1508 120.831 82.0368 120.814C89.3187 121.863 101.697 115.95 108.982 107.914C113.979 102.252 116.369 96.7444 117.905 89.5476C118.601 85.9574 118.843 80.6533 118.094 76.0287C117.713 73.6198 117.075 71.2498 116.295 68.931C119.086 71.928 121.608 75.9264 122.845 78.9959C127.365 88.81 125.38 101.671 118.207 111.387Z" fill="#6265FE"/>
<path d="M138.431 138.313C142.227 141.727 146.796 144.105 151.576 145.83C158.301 148.325 165.638 149.373 172.749 148.202C172.885 148.897 172.877 149.798 172.953 150.956C173.098 154.716 173.045 158.507 173.698 162.225C175.002 169.742 179.029 177.867 182.795 182.157C183.509 182.988 185.007 182.41 184.967 181.304C184.95 180.485 184.155 180.039 183.71 179.437C183.566 179.282 183.097 178.708 182.937 178.513C180.862 175.926 179.126 172.357 178.277 170.094C176.544 165.456 175.515 161.393 175.398 157.01C175.273 154.439 175.185 151.866 175.045 149.296C175.016 147.47 174.74 145.431 172.367 145.917C171.5 146.171 165.412 146.535 162.376 146.148C160.202 145.939 156.195 145.163 153.202 144.148C149.521 142.917 146.841 141.763 143.339 139.524C141.831 138.487 141.382 138.11 139.884 136.858C139.691 136.665 139.429 136.557 139.157 136.557C138.281 136.532 137.779 137.704 138.431 138.313Z" fill="#6265FE"/>
<path d="M184.671 180.797C180.875 177.383 176.306 175.005 171.526 173.28C164.801 170.786 157.463 169.738 150.353 170.908C150.217 170.213 150.225 169.313 150.149 168.154C150.004 164.394 150.057 160.603 149.404 156.886C148.1 149.368 144.073 141.243 140.307 136.953C139.593 136.122 138.095 136.7 138.135 137.807C138.152 138.625 138.946 139.071 139.392 139.673C139.536 139.828 140.004 140.402 140.165 140.597C142.24 143.185 143.976 146.754 144.825 149.016C146.557 153.654 147.587 157.717 147.703 162.1C147.829 164.671 147.917 167.244 148.057 169.815C148.086 171.64 148.362 173.679 150.735 173.194C151.601 172.94 157.69 172.575 160.726 172.962C162.9 173.171 166.907 173.948 169.9 174.963C173.581 176.193 176.261 177.347 179.763 179.587C181.271 180.623 181.72 181 183.218 182.253C183.411 182.445 183.673 182.554 183.944 182.554C184.822 182.578 185.323 181.406 184.671 180.797Z" fill="#6265FE"/>
<path d="M174.006 116.12C174.018 116.118 174.025 116.116 174.029 116.115C174.027 116.114 174.026 116.115 174.024 116.115C174.018 116.116 174.012 116.117 173.998 116.12C174 116.12 174.003 116.12 174.006 116.12Z" fill="#6265FE"/>
<path d="M174.157 116.148C174.155 116.148 174.154 116.148 174.152 116.149C174.201 116.175 174.238 116.192 174.262 116.202C174.228 116.184 174.193 116.166 174.157 116.148Z" fill="#6265FE"/>
<path d="M159.657 131.244C159.627 131.249 159.596 131.25 159.566 131.255C159.497 131.264 159.428 131.276 159.358 131.284C159.458 131.271 159.557 131.258 159.657 131.244Z" fill="#6265FE"/>
<path d="M131.625 115.782C132.467 120.294 135.074 124.547 138.887 127.144C143.008 129.879 148.247 131.493 153.257 131.164C155.348 131.465 157.465 131.55 159.565 131.254C161.236 131.04 162.89 130.689 164.491 130.162C165.055 129.908 165.78 129.826 166.293 129.469C170.545 127.952 174.523 125.041 176.616 120.774C177.945 118.329 177.178 113.698 173.743 113.841C170.257 114.394 168.133 117.705 166.003 120.207C164.931 121.486 164.014 122.568 163.127 123.497C158.39 124.852 153.119 122.891 149.548 119.874C143.888 114.702 141.948 107.15 143.774 100.042C147.421 98.1958 151.317 97.0604 155.753 96.1451C162.911 94.8316 170.185 94.1839 177.304 92.6527C183.085 91.2608 188.776 89.2678 193.939 86.2896C201.163 82.0756 207.032 75.7112 211.303 68.5657C213.923 64.1535 215.685 59.2768 217.169 54.3814C219.313 46.9088 219.56 39.0385 219.057 31.3229C218.656 23.5349 218.839 17.2417 221.642 10.0353C221.764 9.77168 222.173 8.86943 222.322 8.61811C222.85 7.60769 223.451 6.63608 224.123 5.71504C224.355 5.39572 224.592 5.08097 224.825 4.76229C224.996 4.52912 225.165 4.29397 225.328 4.05497C225.305 4.08606 225.246 4.1618 225.199 4.22203C225.292 4.10868 225.38 3.99148 225.457 3.86647C225.792 3.34442 226.118 2.77964 226.106 2.14164C226.114 1.0645 225.183 0.190743 224.143 0.073507C222.537 -0.195293 220.967 0.312506 219.513 0.957626C217.639 1.69537 215.891 2.71611 214.276 3.91502C212.404 5.32185 210.491 6.72356 208.916 8.46979C206.137 11.5743 204.026 15.2694 202.53 19.1486C198.362 29.9355 200.723 41.6669 199.975 52.906C199.569 59.3157 197.732 65.888 194.567 71.7349C191.221 73.7046 186.315 75.4624 180.242 76.6095C174.846 77.7262 169.297 78.0021 163.964 79.4258C158.684 80.7834 152.804 83.2913 149.525 86.2714C145.738 89.4782 143.034 93.7642 141.676 98.4316C140.451 99.0702 139.275 99.7989 138.206 100.678C136.155 102.37 134.488 104.506 133.184 106.816C131.745 109.532 131.153 112.74 131.625 115.782ZM200.359 65.305C201.782 60.931 202.641 56.3641 202.896 51.7718C203.275 44.9391 202.595 38.0915 203.031 31.2614C203.309 27.7605 203.679 24.5479 205.136 20.5107C205.947 17.9225 208.739 13.0808 210.356 11.2465C213.147 8.15046 215.085 6.76566 218.515 4.63405C220.29 3.65795 221.819 3.13 222.74 2.92985C222.766 2.92921 222.791 2.92338 222.816 2.9195C222.039 4.11646 220.687 5.95338 220.123 7.30127C218.064 11.2963 216.255 18.5896 216.242 24.9877C216.174 31.3372 217.031 37.6834 216.383 44.029C215.734 51.6694 212.989 60.5424 208.907 67.4904C205.268 73.645 199.992 79.3533 194.317 83.1825C190.381 85.7656 186.153 87.596 181.71 88.9647C187.938 85.4683 192.94 80.0353 196.513 73.8076C197.237 72.3593 197.962 70.9045 198.723 69.4717C199.335 68.1031 199.883 66.7119 200.359 65.305ZM147.375 92.4429C151.4 86.721 159.148 83.0976 168.24 81.4304C175.466 80.2367 184.08 79.6227 191.746 76.2533C188.451 80.8475 184.212 84.7442 179.087 87.3927C174.024 90.2879 165.425 91.3981 158.027 93.3464C157.89 93.3827 157.75 93.4124 157.613 93.4474C153.226 94.1877 148.895 95.1937 144.805 96.9949C145.467 95.423 146.321 93.8937 147.375 92.4429ZM161.509 128.45C166.657 124.795 167.347 121.515 171.182 117.835C172.304 116.841 172.767 116.48 173.778 116.168C173.8 116.163 173.813 116.16 173.832 116.156C173.956 116.155 174.09 116.153 174.152 116.148C174.142 116.143 174.132 116.138 174.12 116.132C174.122 116.132 174.125 116.132 174.127 116.133C174.137 116.138 174.147 116.143 174.158 116.147C174.162 116.147 174.164 116.146 174.167 116.146C174.221 116.164 174.263 116.183 174.288 116.198C174.292 116.203 174.296 116.209 174.301 116.214C174.295 116.214 174.282 116.209 174.262 116.2C174.279 116.21 174.295 116.218 174.311 116.227C175.258 117.228 175.305 118.861 174.039 120.897C172.307 123.697 169.7 125.664 165.991 127.316C166.525 127.155 164.765 127.772 164.334 127.889C163.223 128.17 162.119 128.419 161.406 128.511C161.44 128.49 161.475 128.472 161.509 128.45ZM140.138 102.186C140.414 101.999 140.69 101.817 140.968 101.64C140.458 105.008 140.638 108.488 141.628 111.844C144.034 119.984 151.17 126.124 159.648 126.336C158.427 127.042 157.027 127.576 155.221 127.992C150.233 129.031 143.072 126.964 139.19 123.677C135.938 120.76 134.277 117.31 134.029 113.78C133.737 109.162 136.937 104.69 140.138 102.186Z" fill="#6265FE"/>
<path d="M116.145 173.968C116.142 173.98 116.141 173.988 116.139 173.992C116.139 173.99 116.139 173.988 116.139 173.986C116.14 173.98 116.141 173.974 116.144 173.96C116.144 173.963 116.144 173.965 116.145 173.968Z" fill="#6265FE"/>
<path d="M116.173 174.119C116.173 174.117 116.173 174.117 116.174 174.114C116.199 174.163 116.217 174.2 116.227 174.225C116.209 174.191 116.191 174.155 116.173 174.119Z" fill="#6265FE"/>
<path d="M131.272 159.622C131.276 159.592 131.278 159.562 131.282 159.532C131.291 159.462 131.304 159.393 131.312 159.324C131.299 159.424 131.286 159.523 131.272 159.622Z" fill="#6265FE"/>
<path d="M115.806 131.597C120.32 132.439 124.574 135.045 127.171 138.857C129.906 142.978 131.521 148.215 131.192 153.224C131.493 155.315 131.578 157.431 131.282 159.531C131.068 161.202 130.717 162.855 130.19 164.456C129.935 165.02 129.854 165.745 129.497 166.257C127.979 170.508 125.068 174.486 120.799 176.578C118.354 177.906 113.722 177.14 113.865 173.706C114.419 170.22 117.73 168.097 120.232 165.967C121.512 164.896 122.594 163.978 123.523 163.092C124.879 158.356 122.917 153.086 119.899 149.516C114.726 143.857 107.173 141.917 100.063 143.743C98.2164 147.389 97.0807 151.285 96.1652 155.719C94.8514 162.876 94.2036 170.148 92.672 177.266C91.2798 183.046 89.2863 188.735 86.3075 193.897C82.0926 201.12 75.7268 206.988 68.5797 211.257C64.1665 213.877 59.2888 215.638 54.393 217.122C46.9187 219.266 39.0466 219.512 31.3293 219.01C23.5395 218.61 17.245 218.792 10.037 221.594C9.77333 221.716 8.87088 222.125 8.61951 222.274C7.60886 222.801 6.63708 223.403 5.71583 224.074C5.39644 224.306 5.08158 224.543 4.76283 224.776C4.52961 224.947 4.29441 225.116 4.05535 225.28C4.08645 225.256 4.16224 225.197 4.22249 225.15C4.10912 225.243 3.99189 225.331 3.86685 225.409C3.34469 225.743 2.77974 226.069 2.1416 226.058C1.06422 226.065 0.190259 225.135 0.0736453 224.094C-0.195214 222.489 0.312697 220.919 0.957959 219.466C1.69586 217.593 2.71691 215.845 3.91608 214.23C5.32322 212.358 6.72517 210.446 8.47178 208.872C11.5769 206.093 15.2729 203.982 19.1529 202.487C29.9423 198.32 41.6762 200.68 52.9178 199.931C59.3289 199.526 65.9027 197.69 71.7509 194.525C73.721 191.18 75.4793 186.275 76.6266 180.204C77.7435 174.809 78.0195 169.261 79.4435 163.929C80.8014 158.65 83.3099 152.771 86.2906 149.493C89.4982 145.707 93.7851 143.003 98.4535 141.646C99.0923 140.421 99.8211 139.246 100.701 138.177C102.392 136.126 104.53 134.459 106.839 133.156C109.555 131.717 112.763 131.125 115.806 131.597ZM65.3184 200.316C60.9441 201.737 56.3754 202.597 51.7821 202.852C44.9479 203.232 38.0988 202.551 31.2671 202.987C27.7655 203.265 24.5522 203.636 20.5141 205.092C17.9253 205.903 13.0826 208.695 11.2479 210.311C8.15111 213.102 6.76533 215.039 4.63389 218.468C3.65757 220.243 3.12958 221.772 2.9294 222.692C2.92875 222.718 2.92292 222.743 2.91904 222.768C4.11627 221.991 5.95359 220.639 7.30178 220.076C11.2977 218.018 18.5925 216.209 24.992 216.196C31.343 216.128 37.6906 216.985 44.0377 216.337C51.6797 215.688 60.5547 212.943 67.5042 208.863C73.6601 205.225 79.3696 199.95 83.1997 194.276C85.7834 190.341 87.6149 186.113 88.9831 181.672C85.486 187.898 80.0518 192.899 73.8227 196.471C72.3741 197.195 70.919 197.92 69.486 198.681C68.1171 199.292 66.7255 199.84 65.3184 200.316ZM92.4621 147.343C86.739 151.367 83.1149 159.113 81.4473 168.203C80.2533 175.428 79.6391 184.041 76.269 191.705C80.8642 188.411 84.7617 184.173 87.4108 179.049C90.3067 173.986 91.4171 165.39 93.3659 157.994C93.4022 157.856 93.432 157.717 93.4669 157.579C94.2074 153.193 95.2136 148.863 97.0152 144.774C95.4429 145.436 93.9133 146.289 92.4621 147.343ZM128.477 161.474C124.822 166.621 121.541 167.311 117.86 171.145C116.865 172.266 116.505 172.73 116.192 173.741C116.187 173.763 116.185 173.776 116.18 173.794C116.179 173.918 116.178 174.052 116.173 174.114C116.168 174.104 116.163 174.094 116.157 174.083C116.157 174.085 116.157 174.087 116.158 174.089C116.163 174.1 116.168 174.109 116.172 174.12C116.172 174.123 116.172 174.126 116.171 174.129C116.189 174.182 116.209 174.225 116.223 174.25C116.228 174.254 116.234 174.258 116.239 174.263C116.239 174.258 116.234 174.245 116.225 174.225C116.235 174.242 116.243 174.258 116.252 174.274C117.254 175.221 118.887 175.267 120.923 174.002C123.724 172.271 125.691 169.664 127.344 165.955C127.183 166.49 127.799 164.73 127.917 164.298C128.198 163.188 128.447 162.084 128.539 161.371C128.517 161.405 128.5 161.441 128.477 161.474ZM102.207 140.108C102.019 140.384 101.839 140.66 101.662 140.938C105.03 140.428 108.511 140.608 111.867 141.598C120.009 144.003 126.15 151.138 126.363 159.614C127.069 158.393 127.603 156.993 128.019 155.188C129.059 150.201 126.991 143.041 123.704 139.16C120.786 135.909 117.335 134.249 113.804 134C109.185 133.709 104.712 136.908 102.207 140.108Z" fill="#6265FE"/>
<path d="M197.977 183.319C199.053 185.37 200.229 187.321 201.464 189.198C203.85 193.369 206.548 197.351 209.378 201.234C210.169 202.303 210.778 203.57 211.757 204.472C212.154 204.705 212.558 204.667 212.877 204.484C213.197 204.372 213.466 204.121 213.55 203.721C213.72 203.45 213.762 203.103 213.587 202.739C213.804 187.629 213.827 172.512 213.488 157.404C213.688 138.178 213.578 118.949 212.863 99.733C212.811 99.0587 213.01 98.2756 212.472 97.7554C212.339 97.6434 212.204 97.5612 212.07 97.5009C211.852 96.5449 210.366 96.1239 209.756 97.2852C206.133 101.799 202.733 106.498 199.815 111.502C197.252 115.91 194.897 120.466 193.117 125.251C191.302 130.229 190.182 135.444 189.557 140.701C187.595 155.364 191.203 170.303 197.977 183.319ZM195.584 125.301C197.028 121.386 200.567 114.614 203.881 109.556C206.129 105.938 208.32 103.037 210.355 100.378C210.771 110.938 211.317 121.494 211.295 132.065C211.28 145.113 211.518 158.161 211.289 171.207C211.181 177.502 211.005 183.794 210.7 190.081C210.64 192.685 210.471 195.325 210.566 197.934C206.475 193.081 202.503 187.816 199.258 181.367C190.464 163.931 188.515 144.143 195.584 125.301Z" fill="#6265FE"/>
<path d="M185.848 194.524C187.9 195.601 189.851 196.776 191.729 198.011C195.901 200.397 199.883 203.094 203.768 205.924C204.837 206.714 206.105 207.324 207.006 208.302C207.239 208.699 207.202 209.102 207.018 209.422C206.906 209.742 206.655 210.01 206.255 210.095C205.984 210.264 205.637 210.307 205.273 210.132C190.16 210.349 175.04 210.372 159.928 210.033C140.698 210.233 121.464 210.123 102.244 209.408C101.57 209.356 100.786 209.555 100.266 209.018C100.154 208.884 100.072 208.749 100.012 208.615C99.0554 208.397 98.6337 206.912 99.7959 206.302C104.311 202.679 109.011 199.28 114.016 196.363C118.425 193.8 122.982 191.446 127.768 189.666C132.747 187.852 137.964 186.732 143.221 186.107C157.887 184.145 172.83 187.752 185.848 194.524ZM127.818 192.132C123.903 193.576 117.129 197.115 112.07 200.427C108.451 202.675 105.55 204.865 102.89 206.9C113.452 207.315 124.011 207.862 134.584 207.839C147.634 207.825 160.686 208.062 173.735 207.833C180.031 207.725 186.324 207.549 192.613 207.244C195.216 207.185 197.858 207.015 200.467 207.11C195.613 203.02 190.346 199.049 183.896 195.805C166.457 187.013 146.664 185.065 127.818 192.132Z" fill="#6265FE"/>
<path d="M39.2866 207.524C45.6434 207.146 51.9988 206.743 58.3439 206.203C64.0424 205.758 69.8873 205.243 75.2516 203.174C75.1997 203.199 75.1551 203.223 75.0935 203.248C73.1759 204.124 73.5438 204.008 71.669 204.677C60.349 208.267 48.8502 207.58 36.5268 208.632C26.233 209.106 14.9804 210.901 6.46765 218.414C15.7067 212.138 24.8388 211.797 35.4384 211.212C41.9435 210.96 48.4505 210.695 54.9452 210.241C58.27 209.96 61.6285 209.683 64.9268 209.111C64.0126 209.367 63.0959 209.61 62.163 209.79C56.5202 210.941 50.6882 211.197 44.4254 211.629C34.5664 212.248 24.3879 212.033 15.0511 215.699C21.5633 213.949 28.1494 213.668 34.9454 213.646C39.5542 213.567 44.1604 213.337 48.7628 213.089C50.6817 212.942 52.5339 212.82 54.3466 212.679C45.4438 214.514 36.4367 214.721 26.9625 215.086C39.8094 216.626 53.3172 216.431 65.4262 211.446C65.6362 211.301 65.7502 211.105 65.789 210.896C67.1651 210.517 68.3629 210.131 68.764 209.844C69.2699 209.505 69.2039 208.663 68.6739 208.377C68.6409 208.358 68.6072 208.347 68.5735 208.334C69.13 208.19 69.6839 208.039 70.2339 207.869C72.5889 207.151 75.124 205.866 76.6322 204.453C76.9839 204.164 77.4543 203.889 77.44 203.378C77.4485 202.985 77.153 202.631 76.7812 202.534C76.8926 202.483 77.0053 202.438 77.1161 202.385C79.9343 201.121 82.3294 198.641 83.3666 196.955C83.5823 196.512 83.3226 196.019 82.9183 195.824C83.9231 195.037 84.8016 194.167 85.5155 193.197C85.7189 192.837 86.006 192.479 86.0552 192.062C86.085 191.918 86.0707 191.78 86.039 191.646C86.3694 191.169 86.6519 190.72 86.8443 190.408C88.4101 187.676 89.6391 183 89.6961 179.164C89.0062 182.964 87.4461 186.957 85.5071 189.506C85.2713 189.857 84.8437 190.373 84.238 191.012C83.9568 191.177 84.0941 191.187 83.824 191.425C83.5946 191.669 83.3569 191.906 83.1146 192.138C83.0848 192.166 83.0556 192.195 83.0252 192.224C82.7732 192.462 82.516 192.695 82.2536 192.922C77.1906 197.819 65.7651 199.491 58.4515 200.616C50.6358 201.585 42.708 201.375 34.9201 202.585C31.721 203.13 28.6035 204.052 25.4847 204.932C22.9011 205.716 20.2307 206.435 17.9042 207.841C20.8105 206.535 24.0226 206.098 27.1303 205.501C32.4712 204.521 36.8818 204.054 42.8544 203.75C52.7348 203.084 69.6179 202.96 79.6045 197.9C79.267 198.121 78.8355 198.393 78.1915 198.807C74.0096 201.492 67.3523 202.595 62.7461 203.236C55.5951 204.3 49.6102 204.972 41.4602 205.542C34.8456 206.108 28.0969 206.218 21.6877 208.109C19.084 208.862 16.6241 210.033 14.2659 211.356C12.437 212.407 10.5757 213.471 9.09469 214.998C11.6919 212.968 14.7699 211.798 17.7008 210.619C24.9412 207.998 31.2986 208.123 39.2866 207.524Z" fill="#6265FE"/>
<path d="M83.0732 175.018C84.5328 168.806 85.6717 161.3 87.7753 155.297C87.7403 155.457 87.7053 155.616 87.6749 155.768C86.6616 160.296 85.8537 164.871 85.1968 169.465C84.3617 174.644 84.2477 180.463 81.4406 185.674C83.8195 182.407 84.8736 178.454 85.7903 174.576C86.8987 170.034 87.8634 165.462 88.7911 160.88C89.6366 156.998 90.5688 152.909 91.9267 149.603C91.4026 151.427 91.0152 153.296 90.609 155.147C89.6988 158.996 88.8397 163.605 88.5326 166.759C87.8381 170.535 87.5887 176.228 85.4424 180.322C87.7572 177.047 88.4277 173.001 89.5608 169.232C90.482 165.966 91.5419 162.741 92.3653 159.448C93.1324 156.491 93.6559 153.475 94.4741 150.531C95.0915 148.489 95.2852 147.786 96.0931 146.322C96.1838 146.179 96.2829 146.035 96.3755 145.887C97.0629 145.198 97.7626 144.545 98.5737 144.085C97.8883 144.231 97.2651 144.568 96.6956 144.977C96.6949 144.869 96.6839 144.76 96.6464 144.645C96.4695 143.949 95.6811 143.503 94.9917 143.706C94.0705 144.1 93.948 144.632 93.2684 145.891C93.201 146.038 93.1428 146.189 93.0786 146.337C92.7916 145.626 91.8186 145.284 91.1565 146.184C90.9174 146.486 90.6705 146.895 90.4237 147.376C90.0441 147.185 89.5601 147.198 89.2362 147.546C87.3419 149.134 85.1165 153.955 84.2892 157.252C82.7408 163.55 82.1636 168.565 81.5993 174.757C80.9702 179.605 80.8258 184.345 78.509 188.894C81.3777 184.843 81.9977 179.747 83.0732 175.018Z" fill="#6265FE"/>
<path d="M118.975 139.479C114.517 137.238 108.988 136.753 104.345 138.705C106.493 138.014 108.756 138.063 111.017 138.331C114.498 138.697 118.366 140.423 120.782 142.842C121.43 143.484 122.047 144.179 122.632 144.902C117.728 140.035 110.466 137.396 103.092 140.018C112.083 138.05 119.34 142.971 123.177 148.67C124.478 150.629 124.887 151.561 125.553 153.549C126.115 155.398 126.22 155.747 126.194 157.676C126.075 159.321 126.034 158.905 125.982 159.566C125.973 159.858 125.829 159.863 126.112 160.529C126.42 161.083 127.195 161.285 127.737 160.955C127.914 160.894 128.096 160.617 128.198 160.435C128.35 160.102 128.442 159.746 128.496 159.385C128.507 159.327 128.528 159.196 128.542 159.046C128.655 158.124 128.683 157.19 128.57 156.267C128.539 156.051 128.498 155.837 128.459 155.622C128.951 155.655 129.463 155.417 129.711 154.976C130.079 153.946 129.837 154.326 129.777 153.578C129.56 152.618 129.488 152.37 129.239 151.718C129.495 151.609 129.718 151.428 129.857 151.18C130.222 150.239 129.971 150.426 129.951 149.915C129.824 149.292 129.682 148.67 129.482 148.066C129.39 147.796 129.294 147.537 129.198 147.28C129.384 147.094 129.488 146.828 129.4 146.546C128.797 144.799 128.222 143 127.188 141.45C125.17 138.694 122.285 136.538 119.006 135.539C117.933 135.194 116.545 134.951 115.601 134.844C114.202 134.683 112.74 134.501 111.379 134.965C113.347 134.625 115.25 135.273 117.164 135.819C118.641 136.309 119.96 136.982 121.146 137.815C120.871 137.661 120.59 137.508 120.299 137.356C116.076 135.234 110.385 134.944 106.205 137.305C108.386 136.371 110.625 136.297 112.99 136.523C116.66 136.896 119.948 138.663 122.543 141.349C123.179 142.013 123.763 142.749 124.294 143.521C122.791 141.906 120.999 140.44 118.975 139.479Z" fill="#6265FE"/>
<path d="M128.213 160.408C128.208 160.418 128.203 160.426 128.197 160.436C128.186 160.46 128.178 160.486 128.167 160.51C128.184 160.471 128.199 160.438 128.213 160.408Z" fill="#6265FE"/>
<path d="M128.213 160.408C128.291 160.264 128.309 160.201 128.213 160.408V160.408Z" fill="#6265FE"/>
<path d="M115.489 173.495C115.558 173.504 115.614 173.51 115.665 173.516C115.628 173.536 115.586 173.547 115.549 173.571C115.115 173.86 115.026 174.488 115.278 174.927C115.474 175.24 115.751 175.38 116.074 175.41C116.008 175.571 116.015 175.774 116.138 176.038C116.39 176.486 116.943 176.452 117.343 176.235C117.969 175.985 118.56 175.655 119.148 175.327C121.715 173.916 123.719 171.603 125.103 169.048C123.528 171.176 121.436 172.809 119.423 173.838C119.662 173.668 119.884 173.506 120.075 173.373C123.435 170.908 125.961 167.378 127.357 163.462C125.907 166.129 124.21 168.311 121.886 170.294C121.014 171.057 119.511 171.986 118.051 172.679C117.985 172.712 117.878 172.76 117.8 172.795C117.783 172.802 117.768 172.808 117.752 172.815C117.742 172.819 117.732 172.823 117.722 172.827C117.719 172.828 117.691 172.838 117.61 172.868C117.56 172.891 117.506 172.903 117.456 172.923C119.913 171.627 122.858 169.092 124.743 166.468C121.867 169.169 119.13 170.972 115.659 171.929C115.39 172.06 115.348 171.943 115.025 172.358C114.766 172.779 115.012 173.37 115.489 173.495Z" fill="#6265FE"/>
<path d="M207.764 39.0837C207.386 45.4391 206.982 51.7931 206.442 58.1367C205.997 63.834 205.482 69.6777 203.413 75.0407C203.437 74.9889 203.461 74.9442 203.486 74.8826C204.363 72.9654 204.246 73.3333 204.916 71.4588C208.507 60.1414 207.821 48.6452 208.871 36.3245C209.346 26.0337 211.141 14.7829 218.656 6.27197C212.379 15.509 212.037 24.6391 211.452 35.2363C211.2 41.7406 210.935 48.2456 210.481 54.7389C210.2 58.0629 209.923 61.4206 209.351 64.7181C209.606 63.8042 209.85 62.8877 210.03 61.955C211.182 56.3134 211.438 50.4821 211.87 44.2207C212.488 34.3638 212.273 24.1877 215.94 14.8529C214.19 21.3637 213.908 27.9483 213.886 34.7428C213.808 39.3506 213.578 43.9558 213.329 48.5571C213.182 50.4757 213.061 52.3275 212.92 54.1398C214.755 45.2389 214.962 36.2338 215.328 26.7617C216.868 39.6058 216.672 53.1105 211.687 65.2169C211.542 65.4267 211.346 65.5408 211.137 65.5796C210.758 66.9554 210.372 68.153 210.084 68.5546C209.746 69.0604 208.904 68.9937 208.617 68.4645C208.599 68.4315 208.588 68.3978 208.574 68.3641C208.43 68.9198 208.279 69.4743 208.109 70.0242C207.392 72.3786 206.106 74.9131 204.693 76.421C204.404 76.7727 204.129 77.2429 203.618 77.2287C203.225 77.2365 202.871 76.9418 202.773 76.57C202.723 76.6814 202.677 76.7941 202.625 76.9048C201.361 79.7224 198.88 82.1163 197.193 83.1539C196.75 83.3696 196.258 83.1099 196.061 82.7057C195.274 83.7103 194.404 84.5886 193.434 85.3024C193.073 85.5058 192.716 85.7927 192.299 85.8419C192.155 85.8717 192.016 85.8575 191.883 85.8257C191.406 86.1561 190.956 86.4385 190.644 86.6309C187.911 88.1964 183.235 89.4251 179.398 89.4821C183.199 88.7916 187.193 87.2326 189.742 85.294C190.093 85.0582 190.609 84.6307 191.248 84.0251C191.414 83.7433 191.423 83.8813 191.661 83.6106C191.906 83.3813 192.143 83.1435 192.374 82.9013C192.403 82.8715 192.431 82.8424 192.461 82.812C192.699 82.56 192.932 82.3028 193.16 82.0405C198.057 76.9787 199.73 65.5556 200.855 58.2436C201.825 50.429 201.614 42.503 202.825 34.7175C203.37 31.5191 204.292 28.4023 205.172 25.2842C205.957 22.7012 206.676 20.0313 208.082 17.7053C206.776 20.611 206.339 23.8224 205.742 26.9294C204.761 32.2692 204.294 36.6788 203.99 42.65C203.324 52.5276 203.199 69.4076 198.138 79.3914C198.36 79.0539 198.632 78.6225 199.046 77.9787C201.731 73.7977 202.835 67.1419 203.475 62.5367C204.54 55.3873 205.212 49.4037 205.782 41.2555C206.349 34.6423 206.458 27.8951 208.35 21.4873C209.103 18.8842 210.275 16.4249 211.598 14.0672C212.649 12.2387 213.713 10.3778 215.24 8.89713C213.209 11.4938 212.039 14.5711 210.86 17.5014C208.238 24.7415 208.363 31.0975 207.764 39.0837Z" fill="#6265FE"/>
<path d="M175.251 82.8604C169.038 84.3197 161.53 85.4584 155.525 87.5616C155.685 87.5266 155.845 87.4916 155.996 87.4611C160.526 86.4481 165.102 85.6405 169.696 84.9837C174.877 84.1488 180.697 84.0348 185.91 81.2289C182.641 83.6066 178.688 84.6611 174.809 85.5776C170.266 86.6859 165.693 87.6503 161.11 88.5778C157.227 89.4231 153.137 90.3551 149.83 91.7121C151.655 91.1881 153.524 90.8008 155.376 90.3947C159.225 89.4846 163.835 88.6257 166.99 88.3187C170.767 87.6243 176.461 87.375 180.556 85.2291C177.28 87.5434 173.234 88.2138 169.464 89.3466C166.197 90.2677 162.972 91.3273 159.678 92.1506C156.721 92.9174 153.704 93.4408 150.76 94.2589C148.717 94.8761 148.014 95.0698 146.549 95.8775C146.407 95.9688 146.262 96.0673 146.115 96.1599C145.425 96.8471 144.772 97.5466 144.312 98.3576C144.457 97.6723 144.795 97.0492 145.204 96.4798C145.096 96.4798 144.987 96.4682 144.872 96.4307C144.176 96.2538 143.73 95.4655 143.933 94.7763C144.327 93.8553 144.859 93.7323 146.118 93.0535C146.266 92.9861 146.416 92.9278 146.564 92.8637C145.853 92.5767 145.511 91.6039 146.411 90.942C146.713 90.7029 147.122 90.4562 147.603 90.2094C147.412 89.8298 147.426 89.346 147.773 89.0221C149.362 87.1282 154.184 84.9034 157.482 84.0762C163.782 82.5282 168.797 81.951 174.991 81.3869C179.839 80.7586 184.58 80.6136 189.131 78.2974C185.077 81.1654 179.981 81.7852 175.251 82.8604Z" fill="#6265FE"/>
<path d="M139.705 118.754C137.463 114.298 136.977 108.769 138.931 104.127C138.239 106.274 138.288 108.537 138.556 110.798C138.922 114.278 140.648 118.146 143.068 120.561C143.71 121.209 144.405 121.826 145.129 122.41C140.26 117.507 137.621 110.247 140.243 102.875C138.275 111.863 143.197 119.119 148.898 122.956C150.856 124.255 151.789 124.665 153.777 125.331C155.626 125.892 155.976 125.997 157.905 125.971C159.551 125.853 159.135 125.811 159.796 125.759C160.088 125.751 160.093 125.607 160.759 125.89C161.313 126.198 161.515 126.973 161.185 127.514C161.124 127.691 160.847 127.873 160.665 127.975C160.332 128.127 159.976 128.219 159.615 128.273C159.556 128.284 159.425 128.305 159.275 128.318C158.354 128.432 157.419 128.46 156.496 128.347C156.28 128.317 156.066 128.274 155.851 128.236C155.884 128.728 155.646 129.24 155.205 129.488C154.175 129.856 154.554 129.613 153.807 129.554C152.846 129.337 152.598 129.265 151.946 129.017C151.836 129.272 151.656 129.495 151.408 129.635C150.466 129.999 150.653 129.748 150.142 129.728C149.519 129.602 148.897 129.46 148.293 129.26C148.023 129.167 147.764 129.071 147.507 128.975C147.321 129.162 147.055 129.265 146.773 129.177C145.026 128.574 143.225 128 141.676 126.966C138.92 124.948 136.762 122.064 135.763 118.786C135.419 117.713 135.175 116.325 135.068 115.382C134.907 113.983 134.725 112.522 135.189 111.161C134.85 113.128 135.497 115.031 136.044 116.945C136.534 118.422 137.207 119.74 138.04 120.926C137.886 120.652 137.733 120.37 137.581 120.079C135.459 115.857 135.168 110.167 137.53 105.988C136.596 108.169 136.522 110.407 136.747 112.772C137.12 116.441 138.888 119.729 141.574 122.323C142.239 122.958 142.975 123.542 143.747 124.073C142.132 122.57 140.665 120.777 139.705 118.754Z" fill="#6265FE"/>
<path d="M160.638 127.99C160.648 127.985 160.656 127.98 160.666 127.974C160.69 127.963 160.716 127.955 160.74 127.943C160.7 127.961 160.667 127.976 160.638 127.99Z" fill="#6265FE"/>
<path d="M160.638 127.99C160.431 128.086 160.494 128.068 160.638 127.99V127.99Z" fill="#6265FE"/>
<path d="M173.728 115.269C173.736 115.339 173.743 115.395 173.748 115.447C173.769 115.409 173.78 115.367 173.803 115.33C174.093 114.896 174.721 114.807 175.16 115.059C175.473 115.255 175.613 115.532 175.643 115.855C175.804 115.789 176.007 115.797 176.271 115.919C176.719 116.171 176.685 116.724 176.468 117.124C176.218 117.75 175.888 118.341 175.559 118.928C174.149 121.494 171.835 123.498 169.28 124.882C171.408 123.307 173.041 121.216 174.071 119.203C173.9 119.442 173.739 119.665 173.606 119.856C171.14 123.215 167.609 125.74 163.693 127.135C166.36 125.686 168.543 123.989 170.526 121.666C171.289 120.794 172.219 119.292 172.911 117.832C172.944 117.766 172.993 117.659 173.028 117.58C173.034 117.564 173.041 117.549 173.047 117.532C173.051 117.523 173.056 117.512 173.059 117.503C173.059 117.5 173.07 117.472 173.1 117.391C173.124 117.341 173.136 117.287 173.156 117.236C171.86 119.693 169.324 122.638 166.699 124.522C169.401 121.647 171.204 118.911 172.161 115.44C172.292 115.171 172.175 115.129 172.59 114.807C173.011 114.546 173.602 114.793 173.728 115.269Z" fill="#6265FE"/>
<path d="M211.569 193.713C211.57 193.727 211.571 193.739 211.573 193.753C211.577 193.786 211.583 193.82 211.588 193.853C211.583 193.818 211.576 193.765 211.569 193.713Z" fill="#6265FE"/>
<path d="M211.569 193.713C211.566 193.675 211.562 193.649 211.559 193.607C211.536 193.473 211.552 193.591 211.569 193.713Z" fill="#6265FE"/>
<path d="M191.757 162.411C192.49 166.76 193.857 170.974 194.991 175.229C195.086 175.624 195.51 175.8 195.865 175.712C196.51 177.855 197.253 179.969 198.1 182.042C198.53 182.983 198.941 183.957 199.585 184.773C199.521 184.689 199.455 184.605 199.39 184.52C199.601 184.851 199.736 185.263 200.067 185.492C200.419 185.802 200.94 185.816 201.348 185.609C202.014 187.251 202.753 188.862 203.56 190.438C203.814 190.852 203.944 191.381 204.354 191.669C204.653 191.931 205.062 191.998 205.439 191.909C205.698 192.401 205.956 192.894 206.215 193.386C206.833 194.546 207.424 195.721 208.078 196.863C208.091 196.886 208.105 196.911 208.12 196.934C208.134 196.967 208.147 197 208.161 197.032C208.484 197.613 208.6 198.369 209.137 198.789C209.638 199.229 210.449 199.144 210.912 198.683C211.733 197.846 211.038 196.853 210.617 195.96C210.994 195.917 211.356 195.72 211.544 195.372C211.888 194.435 211.648 194.632 211.571 193.753C211.491 193.175 211.394 192.6 211.292 192.025C211.313 191.762 211.299 191.488 211.264 191.225C211.156 189.687 211.06 188.148 210.971 186.609C211.36 186.708 211.801 186.515 212.006 186.166C212.269 185.569 212.117 184.861 212.189 184.223C212.595 174.223 212.255 164.209 212.085 154.207C212.02 148.738 211.809 143.272 211.524 137.81C211.271 133.583 211.111 129.332 210.326 125.161C210.815 133.356 210.146 141.574 210.317 149.779C210.41 158.442 210.68 167.113 210.552 175.777C209.945 157.104 209.907 138.414 209.352 119.74C208.193 131.11 208.282 142.545 208.144 153.959C208.083 158.743 207.984 163.529 207.94 168.315C207.835 167.049 207.737 165.757 207.648 164.421C207.235 157.481 207.374 150.527 207.385 143.578C207.502 132.93 207.494 122.23 209.249 111.696C205.912 122.921 204.919 134.633 204.766 146.295C204.457 154.972 204.747 163.663 205.608 172.297C205.491 171.352 205.375 170.392 205.259 169.388C204.387 163.126 203.932 156.252 204.058 149.106C204.117 141.433 204.672 133.771 205.627 126.158C206.32 120.284 207.411 113.162 209.148 106.298C203.784 120.461 201.913 135.684 201.725 150.757C201.619 156.614 201.887 162.467 202.555 168.287C202.619 168.993 202.689 169.7 202.759 170.406C201.291 161.874 200.995 153.275 201.397 144.027C202.056 131.505 203.38 119.844 207.412 107.717C202.174 118.926 200.279 130.323 199.22 142.198C198.34 151.4 198.443 160.699 199.9 169.837C200.257 172.063 200.717 174.267 201.243 176.456C198.951 167.801 198.165 159.723 197.914 150.439C197.666 144.294 198.621 137.783 199.366 132.476C200.419 125.325 201.62 118.077 204.589 111.435C198.761 121.606 196.826 133.51 195.945 145.055C195.393 152.423 195.558 159.865 196.597 167.172C194.708 157.633 194.534 148.376 195.927 137.534C196.671 131.733 197.801 124.66 200.016 118.473C195.919 126.923 193.868 136.267 193.035 145.584C192.749 148.556 192.626 151.551 192.666 154.546C192.23 147.81 192.418 140.208 193.696 133.887C190.826 143.079 190.249 152.914 191.757 162.411Z" fill="#6265FE"/>
<path d="M198.851 208.979C198.866 208.98 198.879 208.981 198.894 208.982C198.929 208.987 198.964 208.993 198.999 208.997C198.962 208.993 198.906 208.986 198.851 208.979Z" fill="#6265FE"/>
<path d="M198.852 208.978C198.812 208.976 198.784 208.971 198.741 208.969C198.599 208.945 198.723 208.962 198.852 208.978Z" fill="#6265FE"/>
<path d="M165.846 189.172C170.432 189.905 174.874 191.271 179.361 192.405C179.778 192.499 179.964 192.924 179.871 193.279C182.13 193.924 184.359 194.666 186.544 195.513C187.536 195.943 188.563 196.354 189.424 196.999C189.335 196.934 189.246 196.868 189.158 196.804C189.507 197.014 189.941 197.149 190.182 197.48C190.51 197.832 190.525 198.353 190.306 198.761C192.036 199.426 193.736 200.165 195.397 200.972C195.834 201.226 196.391 201.356 196.694 201.767C196.971 202.066 197.041 202.475 196.948 202.852C197.467 203.11 197.987 203.369 198.505 203.627C199.729 204.245 200.968 204.836 202.172 205.489C202.197 205.503 202.223 205.517 202.247 205.531C202.282 205.546 202.317 205.559 202.351 205.573C202.963 205.895 203.761 206.011 204.203 206.549C204.667 207.05 204.578 207.861 204.092 208.323C203.21 209.144 202.162 208.449 201.22 208.028C201.175 208.405 200.967 208.767 200.601 208.955C199.612 209.299 199.821 209.059 198.894 208.982C198.285 208.902 197.677 208.805 197.072 208.703C196.794 208.724 196.505 208.71 196.228 208.675C194.606 208.567 192.984 208.471 191.362 208.383C191.467 208.771 191.262 209.212 190.894 209.417C190.265 209.679 189.518 209.528 188.846 209.6C178.302 210.006 167.743 209.666 157.197 209.497C151.43 209.432 145.667 209.22 139.908 208.936C135.451 208.683 130.969 208.523 126.571 207.738C135.212 208.227 143.877 207.558 152.529 207.729C161.663 207.822 170.805 208.092 179.941 207.964C160.252 207.357 140.546 207.319 120.856 206.764C132.844 205.606 144.901 205.695 156.936 205.556C161.981 205.495 167.028 205.396 172.074 205.353C170.738 205.247 169.376 205.149 167.968 205.061C160.649 204.648 153.317 204.787 145.99 204.798C134.763 204.914 123.481 204.906 112.374 206.662C124.21 203.325 136.559 202.332 148.856 202.179C158.006 201.87 167.169 202.16 176.273 203.021C175.276 202.904 174.264 202.788 173.205 202.672C166.604 201.8 159.354 201.345 151.82 201.472C143.729 201.531 135.651 202.086 127.624 203.04C121.429 203.733 113.921 204.824 106.683 206.561C121.616 201.198 137.668 199.327 153.56 199.139C159.737 199.033 165.907 199.301 172.045 199.969C172.79 200.033 173.535 200.102 174.279 200.173C165.283 198.705 156.215 198.409 146.465 198.81C133.261 199.469 120.966 200.793 108.179 204.824C119.998 199.587 132.015 197.693 144.536 196.634C154.239 195.754 164.044 195.857 173.68 197.314C176.026 197.671 178.351 198.131 180.658 198.656C171.532 196.364 163.014 195.579 153.225 195.328C146.745 195.081 139.88 196.035 134.284 196.78C126.744 197.833 119.102 199.033 112.098 202.002C122.823 196.175 135.374 194.24 147.548 193.36C155.316 192.808 163.162 192.973 170.868 194.011C160.809 192.123 151.049 191.949 139.617 193.342C133.501 194.085 126.043 195.215 119.52 197.43C128.429 193.333 138.282 191.283 148.105 190.451C151.239 190.165 154.397 190.042 157.555 190.082C150.453 189.646 142.437 189.834 135.772 191.111C145.462 188.241 155.833 187.664 165.846 189.172Z" fill="#6265FE"/>
</svg>
