<svg width="227" height="227" viewBox="0 0 227 227" fill="none" xmlns="http://www.w3.org/2000/svg">
<path d="M147.539 123.063C146.102 123.471 144.607 123.642 143.115 123.627C143.008 123.627 142.9 123.622 142.793 123.62C142.716 123.989 142.486 124.333 142.158 124.525C141.756 124.7 141.32 124.741 140.876 124.747C140.525 125.229 139.701 125.328 139.01 125.429C138.348 125.635 137.603 125.592 136.919 125.66C135.326 125.708 133.729 125.699 132.141 125.55C121.456 124.668 111.404 118.144 106.072 108.87C104.33 105.849 102.54 101.204 102.15 97.2409C101.759 94.4168 101.475 90.6627 101.969 87.5252C101.952 101.124 110.139 114.094 121.645 119.833C120.361 119.025 119.116 118.152 117.917 117.225C113.046 113.634 109.269 108.791 106.785 103.287C103.524 96.0652 101.731 87.6515 104.319 79.9476C102.42 89.1263 105.614 96.8315 109.902 104.063C111.507 106.791 112.958 108.867 114.853 110.882C105.791 100.317 101.423 85.4227 107.775 72.3804C106.534 76.2764 106.052 80.0175 106.374 84.1234C106.702 88.4255 108.644 95.0924 110.311 98.6807C115.137 109.35 122.006 115.423 132.204 118.933C136.645 120.24 139.925 120.979 144.037 120.903C145.405 120.801 144.942 120.887 146.164 120.617C146.865 120.4 147.771 120.213 148.245 120.937C148.851 121.632 148.435 122.85 147.539 123.063Z" fill="#6265FE"/>
<path d="M64.5152 146.997C64.4484 147.047 64.3732 147.115 64.3356 147.133C64.3914 147.074 64.4543 147.039 64.5152 146.997Z" fill="#6265FE"/>
<path d="M82.416 143.745C81.5738 144.718 80.7283 145.689 79.8816 146.659C80.5301 146.74 81.0924 147.306 81.084 147.995C80.9104 149.169 79.7514 150.041 79.132 151.025C78.9014 151.323 78.6571 151.61 78.4194 151.902C79.237 152.263 79.5674 153.454 78.7874 154.201C78.6157 154.445 78.4233 154.702 78.2321 154.957C78.9351 155.228 79.3691 156.146 78.8904 156.85C78.4122 157.554 77.9024 158.237 77.375 158.908C77.7003 159.031 77.9717 159.299 78.0605 159.645C78.1732 160.072 78.0138 160.478 77.7365 160.805C77.3381 161.351 76.928 161.888 76.4894 162.402C76.5536 162.362 76.6326 162.322 76.7375 162.282C77.4048 162.074 78.0222 162.877 77.6445 163.469C77.421 163.769 77.18 164.055 76.9338 164.337C77.4301 163.899 78.455 164.49 77.6212 165.508C76.1299 167.476 73.8306 169.34 71.2995 169.575C73.7535 168.613 75.9744 165.558 76.7946 164.508C74.7039 166.846 71.8871 168.581 68.9763 169.672C71.5826 167.907 73.8954 165.48 75.9595 162.972C73.1491 165.903 69.6351 168.159 65.8776 169.672C68.0123 168.107 70.097 166.275 71.946 164.361C69.1058 166.547 66.0784 168.623 62.6824 169.769C63.936 169.162 64.749 168.396 65.7966 167.54C67.7123 165.909 69.5464 164.182 71.2982 162.376C71.3727 162.296 71.4355 162.225 71.5068 162.147C71.2211 162.399 70.936 162.651 70.6471 162.892C67.2271 165.699 62.5832 169.009 57.9381 171.027C61.732 168.643 65.025 165.281 68.3906 162.043C63.557 166.126 58.4739 169.53 52.6614 173.012C56.7493 169.927 60.4531 166.308 64.1523 162.737C59.4658 166.699 54.7099 170.092 49.6113 174.125C54.1806 169.574 58.5996 164.87 63.2045 160.353C63.8563 159.724 64.5041 159.091 65.1494 158.455C60.9435 162.324 56.6023 166.047 52.4184 169.866C55.6687 165.818 59.0414 161.814 62.534 157.914C59.6562 160.562 56.7066 163.132 53.6772 165.607C57.0907 161.667 60.3928 157.625 63.7947 153.673C60.8774 156.337 57.9887 159.034 54.936 161.542C57.2475 158.6 59.5545 155.563 62.0079 152.64C59.721 154.905 57.3862 157.12 55.0332 159.316C56.7202 156.848 58.3903 154.329 60.214 151.94C58.4072 153.706 56.5886 155.46 54.7423 157.186C56.0781 155.001 57.5086 152.863 59.0829 150.84C57.4931 152.425 55.9116 154.02 54.2583 155.54C55.5696 153.398 56.934 151.279 58.4758 149.296C57.1303 150.604 55.7685 151.908 54.2583 153.023C55.6693 151.089 56.9987 149.087 58.6125 147.311C58.8108 147.091 59.0136 146.812 59.3427 146.826C59.699 146.817 59.9834 147.13 59.9918 147.47C60.1389 147.304 60.2821 147.136 60.4324 146.973C60.9545 146.419 61.8732 146.874 61.8784 147.561C61.9788 147.453 62.0753 147.343 62.177 147.237C62.7271 146.653 63.6574 147.054 63.8031 147.735C64.0506 147.48 64.2916 147.22 64.5469 146.973C65.253 146.53 66.2611 147.112 66.2274 147.948C67.3949 146.771 68.3265 144.964 69.7446 146.6C69.7939 146.725 69.8269 146.833 69.8541 146.938C70.5188 146.239 71.1867 145.543 71.8689 144.859C72.7481 144.011 73.9 144.639 74.1261 145.524C74.5646 145.05 74.9974 144.57 75.4444 144.104C76.1059 143.526 76.584 142.495 77.561 142.479C78.2827 142.456 78.8055 143.046 78.893 143.688C78.9565 143.611 79.0219 143.537 79.0854 143.461C79.7157 142.853 80.1517 141.958 80.935 141.549C81.7688 141.127 82.8429 141.865 82.8112 142.787C82.7885 143.145 82.6842 143.491 82.416 143.745Z" fill="#6265FE"/>
<path d="M64.5508 146.97L64.5488 146.972C64.5369 146.979 64.5263 146.99 64.515 146.998C64.5269 146.989 64.5402 146.977 64.5508 146.97Z" fill="#6265FE"/>
<path d="M57.9634 147.775C56.9475 149.121 55.5948 150.224 54.4047 151.426C55.1899 149.966 56.1714 148.612 57.2663 147.369C57.552 147.065 58.0832 147.377 57.9634 147.775Z" fill="#6265FE"/>
<path d="M53.6792 150.99C54.548 149.663 55.306 148.193 56.2978 147.238C58.0321 147.069 54.0459 150.649 53.6792 150.99Z" fill="#6265FE"/>
<path d="M77.2183 167.922C76.0275 169.16 74.4558 170.068 72.752 170.349C74.3852 169.502 75.5423 168.38 76.8263 167.001C77.009 166.731 77.4249 166.685 77.5998 166.988C77.7748 167.45 77.48 167.545 77.2183 167.922Z" fill="#6265FE"/>
<path d="M99.8602 80.6805C102.145 74.4891 105.843 68.5852 111.115 64.5214C111.687 64.127 112.252 63.4521 113.016 63.6787C114.022 63.932 114.21 65.3823 113.304 65.8836C113.253 65.9173 113.201 65.9574 113.15 65.9918C108.431 78.0962 108.89 89.9331 115.343 100.492C120.678 109.108 129.671 114.503 139.697 117.327C143.973 118.636 148.526 118.798 153.192 116.904C153.027 116.994 153.531 116.752 154.035 116.487C154.257 116.299 154.123 116.282 154.595 116.181C154.685 116.13 154.762 116.082 154.817 116.044C155.451 115.705 155.474 115.443 156.13 115.349C156.599 115.338 157.017 115.759 157.008 116.228C156.97 116.93 156.222 117.262 155.715 117.652C155.38 118.308 154.491 118.883 154.036 119.37C151.878 121.183 149.523 122.771 146.956 123.944C140.602 126.671 133.384 128.445 126.503 126.939C115.985 124.161 107.062 116.273 102.238 106.614C98.3067 98.6668 97.0453 89.1863 99.8602 80.6805ZM107.901 111.387C111.8 117.06 121.748 124.549 129.549 125.15C133.803 125.489 136.553 124.928 140.624 123.764C143.363 123.034 146.151 121.817 148.578 120.397C147.017 120.681 145.428 120.814 143.843 120.863C143.577 120.871 143.956 120.831 144.07 120.814C136.788 121.863 124.41 115.95 117.125 107.914C112.128 102.252 109.738 96.7444 108.202 89.5476C107.506 85.9574 107.264 80.6533 108.013 76.0287C108.394 73.6198 109.033 71.2498 109.813 68.931C107.022 71.928 104.5 75.9264 103.263 78.9959C98.742 88.81 100.726 101.671 107.901 111.387Z" fill="#6265FE"/>
<path d="M87.6765 138.313C83.8794 141.727 79.3107 144.105 74.5315 145.83C67.8062 148.325 60.4686 149.373 53.359 148.202C53.223 148.897 53.2307 149.798 53.155 150.956C53.0098 154.716 53.063 158.507 52.4099 162.225C51.1058 169.742 47.0787 177.867 43.3128 182.157C42.5988 182.988 41.1003 182.41 41.1405 181.304C41.1586 180.485 41.9523 180.039 42.3973 179.437C42.5418 179.282 43.0102 178.708 43.1709 178.513C45.246 175.926 46.9816 172.357 47.8302 170.094C49.5626 165.456 50.592 161.393 50.7087 157.01C50.8343 154.439 50.9218 151.866 51.0617 149.296C51.0915 147.47 51.3669 145.431 53.74 145.917C54.6061 146.171 60.6953 146.535 63.7312 146.148C65.9054 145.939 69.9117 145.163 72.9048 144.148C76.5865 142.917 79.266 141.763 82.7683 139.524C84.2759 138.487 84.7255 138.11 86.2227 136.858C86.4157 136.665 86.6781 136.557 86.9496 136.557C87.8268 136.532 88.3282 137.704 87.6765 138.313Z" fill="#6265FE"/>
<path d="M41.4356 180.797C45.2327 177.383 49.8014 175.005 54.5806 173.28C61.306 170.786 68.6436 169.738 75.7531 170.908C75.8892 170.213 75.8814 169.313 75.9578 168.154C76.1029 164.394 76.0498 160.603 76.7029 156.886C78.007 149.368 82.034 141.243 85.8 136.953C86.514 136.122 88.0124 136.7 87.9723 137.807C87.9548 138.625 87.1605 139.071 86.7154 139.673C86.571 139.828 86.1026 140.402 85.9419 140.597C83.8668 143.185 82.1312 146.754 81.2819 149.016C79.5495 153.654 78.5201 157.717 78.4035 162.1C78.2778 164.671 78.1903 167.244 78.0504 169.815C78.0206 171.64 77.7453 173.679 75.3722 173.194C74.506 172.94 68.4168 172.575 65.381 172.962C63.2068 173.171 59.2004 173.948 56.2074 174.963C52.5256 176.193 49.8461 177.347 46.3438 179.587C44.8362 180.623 44.3866 181 42.8894 182.253C42.6964 182.445 42.434 182.554 42.1625 182.554C41.286 182.578 40.7839 181.406 41.4356 180.797Z" fill="#6265FE"/>
<path d="M52.1022 116.12C52.0901 116.118 52.0827 116.116 52.0786 116.115C52.0806 116.114 52.082 116.115 52.084 116.115C52.0901 116.116 52.0961 116.117 52.1103 116.12C52.1076 116.12 52.1049 116.12 52.1022 116.12Z" fill="#6265FE"/>
<path d="M51.9506 116.148C51.9526 116.148 51.9532 116.148 51.9558 116.149C51.9068 116.175 51.8696 116.192 51.8454 116.202C51.8794 116.184 51.9153 116.166 51.9506 116.148Z" fill="#6265FE"/>
<path d="M66.4513 131.244C66.4812 131.249 66.5118 131.25 66.5417 131.255C66.6114 131.264 66.6804 131.276 66.75 131.284C66.6504 131.271 66.5509 131.258 66.4513 131.244Z" fill="#6265FE"/>
<path d="M94.482 115.782C93.6398 120.294 91.0328 124.547 87.2202 127.144C83.0985 129.879 77.86 131.493 72.8502 131.164C70.7589 131.465 68.6417 131.55 66.5413 131.254C64.8705 131.04 63.2166 130.689 61.6157 130.162C61.0514 129.908 60.3265 129.826 59.814 129.469C55.5622 127.952 51.5837 125.041 49.4905 120.774C48.1624 118.329 48.9288 113.698 52.3637 113.841C55.8498 114.394 57.9735 117.705 60.1043 120.207C61.1758 121.486 62.0932 122.568 62.9795 123.497C67.7172 124.852 72.9881 122.891 76.5591 119.874C82.2188 114.702 84.1591 107.15 82.3328 100.042C78.686 98.1958 74.7898 97.0604 70.354 96.1451C63.1958 94.8316 55.9217 94.1839 48.8025 92.6527C43.0217 91.2608 37.3309 89.2678 32.1675 86.2896C24.9433 82.0756 19.0744 75.7112 14.8038 68.5657C12.1838 64.1535 10.4217 59.2768 8.93744 54.3814C6.7937 46.9088 6.54686 39.0385 7.0496 31.3229C7.44997 23.5349 7.26793 17.2417 4.46466 10.0353C4.34287 9.77168 3.93342 8.86943 3.78442 8.61811C3.25707 7.60769 2.65586 6.63608 1.98403 5.71504C1.7521 5.39572 1.51499 5.08097 1.28176 4.76229C1.11073 4.52912 0.941635 4.29397 0.778376 4.05497C0.801699 4.08606 0.860653 4.1618 0.907946 4.22203C0.814655 4.10868 0.726548 3.99148 0.649454 3.86647C0.314513 3.34442 -0.0113575 2.77964 0.00030388 2.14164C-0.00682251 1.0645 0.923495 0.190743 1.96395 0.073507C3.56998 -0.195293 5.13973 0.312506 6.59351 0.957626C8.46775 1.69537 10.2157 2.71611 11.8308 3.91502C13.7031 5.32185 15.6155 6.72356 17.1898 8.46979C19.9691 11.5743 22.0805 15.2694 23.5757 19.1486C27.744 29.9355 25.3832 41.6669 26.1315 52.906C26.537 59.3157 28.3737 65.888 31.5391 71.7349C34.8846 73.7046 39.7915 75.4624 45.8638 76.6095C51.2598 77.7262 56.8086 78.0021 62.1424 79.4258C67.4224 80.7834 73.3024 83.2913 76.5811 86.2714C80.3678 89.4782 83.0726 93.7642 84.4299 98.4316C85.655 99.0702 86.8308 99.7989 87.8998 100.678C89.9515 102.37 91.6185 104.506 92.9219 106.816C94.3621 109.532 94.9536 112.74 94.482 115.782ZM25.7479 65.305C24.3253 60.931 23.4662 56.3641 23.211 51.7718C22.8313 44.9391 23.5122 38.0915 23.0762 31.2614C22.7983 27.7605 22.4277 24.5479 20.9707 20.5107C20.1602 17.9225 17.3673 13.0808 15.7503 11.2465C12.9587 8.15046 11.0209 6.76566 7.59185 4.63405C5.81673 3.65795 4.2878 3.13 3.3672 2.92985C3.34129 2.92921 3.31602 2.92338 3.29075 2.9195C4.06818 4.11646 5.42025 5.95338 5.98388 7.30127C8.04276 11.2963 9.85157 18.5896 9.86517 24.9877C9.9332 31.3372 9.07544 37.6834 9.72394 44.029C10.3724 51.6694 13.118 60.5424 17.1995 67.4904C20.8385 73.645 26.114 79.3533 31.7898 83.1825C35.7255 85.7656 39.9541 87.596 44.3964 88.9647C38.1699 85.4683 33.1665 80.0353 29.5936 73.8076C28.8693 72.3593 28.145 70.9045 27.3838 69.4717C26.7729 68.1031 26.2241 66.7119 25.7479 65.305ZM78.7327 92.4429C74.7075 86.721 66.9599 83.0976 57.8679 81.4304C50.6417 80.2367 42.0272 79.6227 34.3612 76.2533C37.6561 80.8475 41.8951 84.7442 47.0196 87.3927C52.0832 90.2879 60.6815 91.3981 68.0794 93.3464C68.2167 93.3827 68.3566 93.4124 68.494 93.4474C72.8806 94.1877 77.2115 95.1937 81.302 96.9949C80.6399 95.423 79.7861 93.8937 78.7327 92.4429ZM64.5978 128.45C59.4499 124.795 58.7593 121.515 54.9247 117.835C53.8039 116.841 53.34 116.48 52.3287 116.168C52.3067 116.163 52.2938 116.16 52.275 116.156C52.1512 116.155 52.0171 116.153 51.9549 116.148C51.9653 116.143 51.975 116.138 51.9867 116.132C51.9847 116.132 51.9821 116.132 51.9802 116.133C51.9698 116.138 51.9601 116.143 51.9497 116.147C51.9459 116.147 51.9433 116.146 51.94 116.146C51.8869 116.164 51.8435 116.183 51.8195 116.198C51.815 116.203 51.8111 116.209 51.8059 116.214C51.8117 116.214 51.8254 116.209 51.8448 116.2C51.8273 116.21 51.8117 116.218 51.7956 116.227C50.8484 117.228 50.8017 118.861 52.067 120.897C53.7987 123.697 56.4063 125.664 60.1159 127.316C59.5815 127.155 61.3417 127.772 61.7731 127.889C62.8842 128.17 63.9875 128.419 64.7008 128.511C64.6671 128.49 64.6315 128.472 64.5978 128.45ZM85.9698 102.186C85.6938 101.999 85.4172 101.817 85.1393 101.64C85.6498 105.008 85.469 108.488 84.4791 111.844C82.0736 119.984 74.9375 126.124 66.4591 126.336C67.6809 127.042 69.0803 127.576 70.8865 127.992C75.8743 129.031 83.0357 126.964 86.9176 123.677C90.1692 120.76 91.8303 117.31 92.0791 113.78C92.37 109.162 89.1696 104.69 85.9698 102.186Z" fill="#6265FE"/>
<path d="M109.963 173.968C109.966 173.98 109.967 173.988 109.968 173.992C109.969 173.99 109.968 173.988 109.968 173.986C109.968 173.98 109.966 173.974 109.964 173.96C109.963 173.963 109.963 173.965 109.963 173.968Z" fill="#6265FE"/>
<path d="M109.934 174.119C109.934 174.117 109.934 174.117 109.934 174.114C109.908 174.163 109.891 174.2 109.881 174.225C109.898 174.191 109.917 174.155 109.934 174.119Z" fill="#6265FE"/>
<path d="M94.8353 159.622C94.8308 159.592 94.8295 159.562 94.8249 159.532C94.8158 159.462 94.8034 159.393 94.795 159.324C94.8086 159.424 94.8217 159.523 94.8353 159.622Z" fill="#6265FE"/>
<path d="M110.301 131.597C105.787 132.439 101.533 135.045 98.9361 138.857C96.2008 142.978 94.5857 148.215 94.9148 153.224C94.6142 155.315 94.5294 157.431 94.8248 159.531C95.0392 161.202 95.3904 162.855 95.9171 164.456C96.1717 165.02 96.2526 165.745 96.6103 166.257C98.1275 170.508 101.039 174.486 105.308 176.578C107.753 177.906 112.385 177.14 112.242 173.706C111.688 170.22 108.377 168.097 105.875 165.967C104.595 164.896 103.513 163.978 102.584 163.092C101.228 158.356 103.19 153.086 106.208 149.516C111.381 143.857 118.934 141.917 126.044 143.743C127.891 147.389 129.026 151.285 129.942 155.719C131.256 162.876 131.903 170.148 133.435 177.266C134.827 183.046 136.821 188.735 139.799 193.897C144.014 201.12 150.38 206.988 157.527 211.257C161.94 213.877 166.818 215.638 171.714 217.122C179.188 219.266 187.06 219.512 194.778 219.01C202.567 218.61 208.862 218.792 216.07 221.594C216.334 221.716 217.236 222.125 217.487 222.274C218.498 222.801 219.47 223.403 220.391 224.074C220.711 224.306 221.025 224.543 221.344 224.776C221.577 224.947 221.813 225.116 222.052 225.28C222.02 225.256 221.945 225.197 221.884 225.15C221.998 225.243 222.115 225.331 222.24 225.409C222.762 225.743 223.327 226.069 223.965 226.058C225.043 226.065 225.917 225.135 226.033 224.094C226.302 222.489 225.794 220.919 225.149 219.466C224.411 217.593 223.39 215.845 222.191 214.23C220.784 212.358 219.382 210.446 217.635 208.872C214.53 206.093 210.834 203.982 206.954 202.487C196.165 198.32 184.431 200.68 173.189 199.931C166.778 199.526 160.204 197.69 154.356 194.525C152.387 191.18 150.628 186.275 149.48 180.204C148.363 174.809 148.087 169.261 146.663 163.929C145.306 158.65 142.797 152.771 139.816 149.493C136.609 145.707 132.322 143.003 127.653 141.646C127.015 140.421 126.286 139.246 125.406 138.177C123.715 136.126 121.577 134.459 119.268 133.156C116.552 131.717 113.344 131.125 110.301 131.597ZM160.789 200.316C165.163 201.737 169.732 202.597 174.325 202.852C181.159 203.232 188.008 202.551 194.84 202.987C198.341 203.265 201.555 203.636 205.593 205.092C208.182 205.903 213.024 208.695 214.859 210.311C217.956 213.102 219.341 215.039 221.473 218.468C222.449 220.243 222.977 221.772 223.178 222.692C223.178 222.718 223.184 222.743 223.188 222.768C221.991 221.991 220.153 220.639 218.805 220.076C214.809 218.018 207.514 216.209 201.115 216.196C194.764 216.128 188.416 216.985 182.069 216.337C174.427 215.688 165.552 212.943 158.603 208.863C152.446 205.225 146.737 199.95 142.907 194.276C140.324 190.341 138.493 186.113 137.124 181.672C140.621 187.898 146.055 192.899 152.284 196.471C153.733 197.195 155.188 197.92 156.621 198.681C157.99 199.292 159.381 199.84 160.789 200.316ZM133.645 147.343C139.368 151.367 142.992 159.113 144.66 168.203C145.854 175.428 146.467 184.041 149.838 191.705C145.243 188.411 141.345 184.173 138.696 179.049C135.8 173.986 134.69 165.39 132.741 157.994C132.705 157.856 132.675 157.717 132.64 157.579C131.9 153.193 130.893 148.863 129.092 144.774C130.665 145.436 132.194 146.289 133.645 147.343ZM97.63 161.474C101.285 166.621 104.567 167.311 108.247 171.145C109.241 172.266 109.602 172.73 109.915 173.741C109.92 173.763 109.922 173.776 109.927 173.794C109.928 173.918 109.929 174.052 109.934 174.114C109.939 174.104 109.944 174.094 109.95 174.083C109.95 174.085 109.95 174.087 109.949 174.089C109.944 174.1 109.939 174.109 109.934 174.12C109.935 174.123 109.935 174.126 109.935 174.129C109.917 174.182 109.898 174.225 109.883 174.25C109.878 174.254 109.872 174.258 109.867 174.263C109.868 174.258 109.872 174.245 109.881 174.225C109.871 174.242 109.863 174.258 109.855 174.274C108.853 175.221 107.22 175.267 105.184 174.002C102.383 172.271 100.416 169.664 98.7631 165.955C98.9244 166.49 98.3076 164.73 98.1904 164.298C97.9092 163.188 97.6598 162.084 97.5684 161.371C97.5898 161.405 97.6073 161.441 97.63 161.474ZM123.9 140.108C124.088 140.384 124.269 140.66 124.446 140.938C121.077 140.428 117.597 140.608 114.24 141.598C106.099 144.003 99.9571 151.138 99.7439 159.614C99.0384 158.393 98.5039 156.993 98.088 155.188C97.0482 150.201 99.1155 143.041 102.403 139.16C105.321 135.909 108.772 134.249 112.303 134C116.922 133.709 121.395 136.908 123.9 140.108Z" fill="#6265FE"/>
<path d="M28.1308 183.319C27.0541 185.37 25.8782 187.321 24.6434 189.198C22.2574 193.369 19.5591 197.351 16.7286 201.234C15.9382 202.303 15.3286 203.57 14.3503 204.472C13.9525 204.705 13.5496 204.667 13.2295 204.484C12.9101 204.372 12.6413 204.121 12.5564 203.721C12.3873 203.45 12.3446 203.103 12.5195 202.739C12.3031 187.629 12.2798 172.512 12.6186 157.404C12.4191 138.178 12.5286 118.949 13.2438 99.733C13.2963 99.0587 13.0967 98.2756 13.6344 97.7554C13.7679 97.6434 13.9027 97.5612 14.0368 97.5009C14.2551 96.5449 15.7406 96.1239 16.3509 97.2852C19.9743 101.799 23.3743 106.498 26.2916 111.502C28.8551 115.91 31.2101 120.466 32.9897 125.251C34.805 130.229 35.9245 135.444 36.5497 140.701C38.5127 155.364 34.9048 170.303 28.1308 183.319ZM30.5233 125.301C29.0786 121.386 25.5394 114.614 22.2263 109.556C19.9776 105.938 17.7872 103.037 15.7516 100.378C15.3364 110.938 14.7896 121.494 14.8122 132.065C14.8265 145.113 14.5894 158.161 14.8181 171.207C14.9263 177.502 15.1018 183.794 15.407 190.081C15.4666 192.685 15.6363 195.325 15.5411 197.934C19.6323 193.081 23.6036 187.816 26.8487 181.367C35.644 163.931 37.5927 144.143 30.5233 125.301Z" fill="#6265FE"/>
<path d="M40.2587 194.524C38.2076 195.601 36.2556 196.776 34.3781 198.011C30.206 200.397 26.2236 203.094 22.3391 205.924C21.2701 206.714 20.0029 207.324 19.1011 208.302C18.8679 208.699 18.9055 209.102 19.0888 209.422C19.2009 209.742 19.4522 210.01 19.852 210.095C20.1234 210.264 20.47 210.307 20.8341 210.132C35.9472 210.349 51.0675 210.372 66.1793 210.033C85.4096 210.233 104.643 210.123 123.863 209.408C124.537 209.356 125.321 209.555 125.841 209.018C125.953 208.884 126.035 208.749 126.095 208.615C127.052 208.397 127.473 206.912 126.311 206.302C121.796 202.679 117.096 199.28 112.091 196.363C107.682 193.8 103.125 191.446 98.3394 189.666C93.36 187.852 88.1435 186.732 82.8862 186.107C68.2201 184.145 53.2773 187.752 40.2587 194.524ZM98.2896 192.132C102.205 193.576 108.979 197.115 114.038 200.427C117.657 202.675 120.558 204.865 123.218 206.9C112.656 207.315 102.097 207.862 91.5234 207.839C78.4737 207.825 65.422 208.062 52.3729 207.833C46.0771 207.725 39.7838 207.549 33.4945 207.244C30.8908 207.185 28.2495 207.015 25.6405 207.11C30.4943 203.02 35.7607 199.049 42.2107 195.805C59.6503 187.013 79.4429 185.065 98.2896 192.132Z" fill="#6265FE"/>
<path d="M186.82 207.524C180.464 207.146 174.108 206.743 167.763 206.203C162.065 205.758 156.22 205.243 150.855 203.174C150.907 203.199 150.952 203.223 151.014 203.248C152.931 204.124 152.563 204.008 154.438 204.677C165.758 208.267 177.257 207.58 189.58 208.632C199.873 209.106 211.127 210.901 219.639 218.414C210.4 212.138 201.268 211.797 190.669 211.212C184.163 210.96 177.657 210.695 171.162 210.241C167.837 209.96 164.479 209.683 161.18 209.111C162.094 209.367 163.011 209.61 163.944 209.79C169.587 210.941 175.42 211.197 181.682 211.629C191.541 212.248 201.72 212.033 211.057 215.699C204.544 213.949 197.958 213.668 191.162 213.646C186.554 213.567 181.947 213.337 177.345 213.089C175.426 212.942 173.574 212.82 171.761 212.679C180.664 214.514 189.671 214.721 199.145 215.086C186.298 216.626 172.791 216.431 160.681 211.446C160.472 211.301 160.358 211.105 160.319 210.896C158.943 210.517 157.745 210.131 157.343 209.844C156.837 209.505 156.904 208.663 157.433 208.377C157.466 208.358 157.5 208.347 157.534 208.334C156.978 208.19 156.423 208.039 155.873 207.869C153.518 207.151 150.983 205.866 149.475 204.453C149.123 204.164 148.653 203.889 148.667 203.378C148.659 202.985 148.954 202.631 149.326 202.534C149.214 202.483 149.102 202.438 148.991 202.385C146.173 201.121 143.778 198.641 142.74 196.955C142.525 196.512 142.785 196.019 143.189 195.824C142.184 195.037 141.305 194.167 140.592 193.197C140.388 192.837 140.101 192.479 140.052 192.062C140.022 191.918 140.036 191.78 140.068 191.646C139.738 191.169 139.455 190.72 139.263 190.408C137.697 187.676 136.468 183 136.411 179.164C137.101 182.964 138.661 186.957 140.6 189.506C140.836 189.857 141.263 190.373 141.869 191.012C142.15 191.177 142.013 191.187 142.284 191.425C142.513 191.669 142.751 191.906 142.993 192.138C143.023 192.166 143.052 192.195 143.083 192.224C143.335 192.462 143.592 192.695 143.854 192.922C148.917 197.819 160.343 199.491 167.656 200.616C175.473 201.585 183.4 201.375 191.188 202.585C194.387 203.13 197.504 204.052 200.623 204.932C203.207 205.716 205.877 206.435 208.204 207.841C205.297 206.535 202.085 206.098 198.977 205.501C193.637 204.521 189.226 204.054 183.253 203.75C173.374 203.084 156.49 202.96 146.504 197.9C146.841 198.121 147.273 198.393 147.917 198.807C152.099 201.492 158.755 202.595 163.362 203.236C170.513 204.3 176.498 204.972 184.648 205.542C191.263 206.108 198.011 206.218 204.421 208.109C207.024 208.862 209.484 210.033 211.842 211.356C213.671 212.407 215.533 213.471 217.014 214.998C214.416 212.968 211.338 211.798 208.408 210.619C201.165 207.998 194.808 208.123 186.82 207.524Z" fill="#6265FE"/>
<path d="M143.034 175.018C141.574 168.806 140.435 161.3 138.332 155.297C138.367 155.457 138.402 155.616 138.432 155.768C139.445 160.296 140.253 164.871 140.91 169.465C141.746 174.644 141.859 180.463 144.667 185.674C142.288 182.407 141.234 178.454 140.317 174.576C139.208 170.034 138.244 165.462 137.316 160.88C136.471 156.998 135.539 152.909 134.18 149.603C134.704 151.427 135.092 153.296 135.498 155.147C136.408 158.996 137.267 163.605 137.574 166.759C138.269 170.535 138.518 176.228 140.665 180.322C138.35 177.047 137.679 173.001 136.546 169.232C135.625 165.966 134.565 162.741 133.741 159.448C132.974 156.491 132.451 153.475 131.632 150.531C131.015 148.489 130.821 147.786 130.013 146.322C129.922 146.179 129.824 146.035 129.731 145.887C129.044 145.198 128.344 144.545 127.533 144.085C128.218 144.231 128.841 144.568 129.411 144.977C129.411 144.869 129.423 144.76 129.46 144.645C129.637 143.949 130.425 143.503 131.115 143.706C132.036 144.1 132.158 144.632 132.838 145.891C132.905 146.038 132.964 146.189 133.028 146.337C133.315 145.626 134.288 145.284 134.95 146.184C135.189 146.486 135.436 146.895 135.683 147.376C136.062 147.185 136.546 147.198 136.87 147.546C138.765 149.134 140.99 153.955 141.817 157.252C143.366 163.55 143.943 168.565 144.507 174.757C145.136 179.605 145.281 184.345 147.597 188.894C144.729 184.843 144.109 179.747 143.034 175.018Z" fill="#6265FE"/>
<path d="M107.132 139.479C111.589 137.238 117.119 136.753 121.762 138.705C119.614 138.014 117.35 138.063 115.089 138.331C111.609 138.697 107.74 140.423 105.324 142.842C104.677 143.484 104.059 144.179 103.475 144.902C108.379 140.035 115.641 137.396 123.015 140.018C114.024 138.05 106.766 142.971 102.929 148.67C101.629 150.629 101.22 151.561 100.554 153.549C99.9919 155.398 99.8869 155.747 99.9129 157.676C100.031 159.321 100.073 158.905 100.125 159.566C100.133 159.858 100.278 159.863 99.9945 160.529C99.6861 161.083 98.9113 161.285 98.3697 160.955C98.1928 160.894 98.0101 160.617 97.9084 160.435C97.7555 160.102 97.6642 159.746 97.611 159.385C97.5994 159.327 97.5786 159.196 97.565 159.046C97.4517 158.124 97.4232 157.19 97.5365 156.267C97.5676 156.051 97.6091 155.837 97.648 155.622C97.1556 155.655 96.6438 155.417 96.3957 154.976C96.0277 153.946 96.2693 154.326 96.3289 153.578C96.546 152.618 96.6179 152.37 96.8666 151.718C96.6114 151.609 96.3879 151.428 96.2486 151.18C95.8838 150.239 96.1352 150.426 96.1553 149.915C96.2816 149.292 96.4235 148.67 96.6237 148.066C96.7163 147.796 96.8122 147.537 96.9081 147.28C96.7215 147.094 96.6179 146.828 96.706 146.546C97.3091 144.799 97.8838 143 98.9178 141.45C100.935 138.694 103.821 136.538 107.099 135.539C108.173 135.194 109.561 134.951 110.505 134.844C111.904 134.683 113.366 134.501 114.727 134.965C112.759 134.625 110.856 135.273 108.942 135.819C107.465 136.309 106.146 136.982 104.96 137.815C105.234 137.661 105.516 137.508 105.807 137.356C110.03 135.234 115.721 134.944 119.901 137.305C117.72 136.371 115.481 136.297 113.116 136.523C109.445 136.896 106.158 138.663 103.563 141.349C102.927 142.013 102.344 142.749 101.812 143.521C103.315 141.906 105.109 140.44 107.132 139.479Z" fill="#6265FE"/>
<path d="M97.8948 160.408C97.9 160.418 97.9046 160.426 97.9105 160.436C97.9216 160.46 97.9301 160.486 97.9418 160.51C97.9229 160.471 97.9078 160.438 97.8948 160.408Z" fill="#6265FE"/>
<path d="M97.8948 160.408C97.7982 160.201 97.8163 160.264 97.8948 160.408V160.408Z" fill="#6265FE"/>
<path d="M110.618 173.495C110.549 173.504 110.492 173.51 110.44 173.516C110.478 173.536 110.52 173.547 110.557 173.571C110.992 173.86 111.08 174.488 110.828 174.927C110.632 175.24 110.355 175.38 110.032 175.41C110.098 175.571 110.091 175.774 109.968 176.038C109.716 176.486 109.163 176.452 108.763 176.235C108.137 175.985 107.546 175.655 106.958 175.327C104.391 173.916 102.387 171.603 101.003 169.048C102.578 171.176 104.67 172.809 106.683 173.838C106.444 173.668 106.222 173.506 106.031 173.373C102.671 170.908 100.145 167.378 98.7493 163.462C100.199 166.129 101.896 168.311 104.22 170.294C105.092 171.057 106.595 171.986 108.055 172.679C108.121 172.712 108.228 172.76 108.306 172.795C108.323 172.802 108.338 172.808 108.354 172.815C108.364 172.819 108.374 172.823 108.384 172.827C108.387 172.828 108.415 172.838 108.496 172.868C108.546 172.891 108.6 172.903 108.65 172.923C106.193 171.627 103.248 169.092 101.363 166.468C104.239 169.169 106.976 170.972 110.447 171.929C110.716 172.06 110.758 171.943 111.081 172.358C111.34 172.779 111.095 173.37 110.618 173.495Z" fill="#6265FE"/>
<path d="M18.3429 39.0837C18.7206 45.4391 19.1242 51.7931 19.6645 58.1367C20.1089 63.834 20.6246 69.6777 22.6939 75.0407C22.6692 74.9889 22.6453 74.9442 22.62 74.8826C21.7441 72.9654 21.8601 73.3333 21.1902 71.4588C17.5998 60.1414 18.2865 48.6452 17.235 36.3245C16.7608 26.0337 14.9656 14.7829 7.4505 6.27197C13.7276 15.509 14.069 24.6391 14.654 35.2363C14.906 41.7406 15.1716 48.2456 15.6258 54.7389C15.9063 58.0629 16.1836 61.4206 16.7556 64.7181C16.4997 63.8042 16.2568 62.8877 16.076 61.955C14.9248 56.3134 14.6689 50.4821 14.2368 44.2207C13.6181 34.3638 13.8332 24.1877 10.1663 14.8529C11.9168 21.3637 12.198 27.9483 12.22 34.7428C12.2984 39.3506 12.529 43.9558 12.7772 48.5571C12.9249 50.4757 13.0454 52.3275 13.1872 54.1398C11.3519 45.2389 11.1446 36.2338 10.7792 26.7617C9.23858 39.6058 9.43423 53.1105 14.4201 65.2169C14.5652 65.4267 14.7615 65.5408 14.9701 65.5796C15.3491 66.9554 15.7353 68.153 16.0229 68.5546C16.3611 69.0604 17.2033 68.9937 17.4896 68.4645C17.5084 68.4315 17.5194 68.3978 17.533 68.3641C17.6769 68.9198 17.8278 69.4743 17.9982 70.0242C18.7154 72.3786 20.0014 74.9131 21.4143 76.421C21.7033 76.7727 21.978 77.2429 22.4891 77.2287C22.8824 77.2365 23.2361 76.9418 23.3339 76.57C23.3845 76.6814 23.4298 76.7941 23.4823 76.9048C24.7463 79.7224 27.2275 82.1163 28.9139 83.1539C29.357 83.3696 29.8494 83.1099 30.045 82.7057C30.8322 83.7103 31.7023 84.5886 32.6727 85.3024C33.0329 85.5058 33.3906 85.7927 33.8078 85.8419C33.9516 85.8717 34.0902 85.8575 34.2237 85.8257C34.7005 86.1561 35.1501 86.4385 35.4624 86.6309C38.195 88.1964 42.8719 89.4251 46.7085 89.4821C42.9075 88.7916 38.9135 87.2326 36.3642 85.294C36.0131 85.0582 35.4974 84.6307 34.8579 84.0251C34.6927 83.7433 34.683 83.8813 34.4453 83.6106C34.2004 83.3813 33.9639 83.1435 33.732 82.9013C33.7041 82.8715 33.675 82.8424 33.6458 82.812C33.4074 82.56 33.1748 82.3028 32.9468 82.0405C28.0497 76.9787 26.3769 65.5556 25.2509 58.2436C24.2817 50.429 24.4923 42.503 23.2815 34.7175C22.7366 31.5191 21.8141 28.4023 20.9343 25.2842C20.1497 22.7012 19.4306 20.0313 18.0248 17.7053C19.3308 20.611 19.7675 23.8224 20.3648 26.9294C21.3457 32.2692 21.8121 36.6788 22.116 42.65C22.7826 52.5276 22.907 69.4076 27.968 79.3914C27.7465 79.0539 27.4744 78.6225 27.0604 77.9787C24.375 73.7977 23.2717 67.1419 22.631 62.5367C21.5659 55.3873 20.8948 49.4037 20.324 41.2555C19.7578 34.6423 19.6483 27.8951 17.7566 21.4873C17.0038 18.8842 15.8318 16.4249 14.5082 14.0672C13.4568 12.2387 12.3923 10.3778 10.8653 8.89713C12.8964 11.4938 14.0664 14.5711 15.2455 17.5014C17.868 24.7415 17.743 31.0975 18.3429 39.0837Z" fill="#6265FE"/>
<path d="M50.8554 82.8604C57.069 84.3197 64.577 85.4584 70.5813 87.5616C70.4212 87.5266 70.2619 87.4916 70.1103 87.4611C65.5805 86.4481 61.0047 85.6405 56.4101 84.9837C51.2299 84.1488 45.4096 84.0348 40.1969 81.2289C43.4653 83.6066 47.4185 84.6611 51.2979 85.5776C55.8406 86.6859 60.4138 87.6503 64.9968 88.5778C68.8793 89.4231 72.9692 90.3551 76.2765 91.7121C74.4515 91.1881 72.5825 90.8008 70.7309 90.3947C66.8814 89.4846 62.2712 88.6257 59.1168 88.3187C55.3398 87.6243 49.6452 87.375 45.5501 85.2291C48.8263 87.5434 52.8728 88.2138 56.6433 89.3466C59.9098 90.2677 63.1348 91.3273 66.4292 92.1506C69.3866 92.9174 72.403 93.4408 75.3475 94.2589C77.3902 94.8761 78.0931 95.0698 79.5579 95.8775C79.7004 95.9688 79.8449 96.0673 79.9926 96.1599C80.6826 96.8471 81.3356 97.5466 81.7949 98.3576C81.6498 97.6723 81.3123 97.0492 80.9029 96.4798C81.0104 96.4798 81.1205 96.4682 81.2352 96.4307C81.9316 96.2538 82.3774 95.4655 82.1746 94.7763C81.78 93.8553 81.2482 93.7323 79.9887 93.0535C79.8417 92.9861 79.6914 92.9278 79.543 92.8637C80.2544 92.5767 80.5964 91.6039 79.6959 90.942C79.394 90.7029 78.9852 90.4562 78.5039 90.2094C78.695 89.8298 78.6814 89.346 78.3341 89.0221C76.7456 87.1282 71.9236 84.9034 68.6254 84.0762C62.3256 82.5282 57.31 81.951 51.1165 81.3869C46.268 80.7586 41.527 80.6136 36.9764 78.2974C41.0294 81.1654 46.1254 81.7852 50.8554 82.8604Z" fill="#6265FE"/>
<path d="M86.4019 118.754C88.6435 114.298 89.1294 108.769 87.1761 104.127C87.8674 106.274 87.8188 108.537 87.5506 110.798C87.1845 114.278 85.4586 118.146 83.0383 120.561C82.3962 121.209 81.7017 121.826 80.9781 122.41C85.8467 117.507 88.4854 110.247 85.8635 102.875C87.8317 111.863 82.9093 119.119 77.2089 122.956C75.2504 124.255 74.3182 124.665 72.3292 125.331C70.4803 125.892 70.1304 125.997 68.2018 125.971C66.5556 125.853 66.9721 125.811 66.31 125.759C66.0179 125.751 66.0133 125.607 65.3467 125.89C64.7934 126.198 64.5913 126.973 64.921 127.514C64.9819 127.691 65.2592 127.873 65.4413 127.975C65.7743 128.127 66.1299 128.219 66.4914 128.273C66.5497 128.284 66.6806 128.305 66.8309 128.318C67.7522 128.432 68.687 128.46 69.6102 128.347C69.8259 128.317 70.0404 128.274 70.2548 128.236C70.2224 128.728 70.4602 129.24 70.9014 129.488C71.9315 129.856 71.5518 129.613 72.2994 129.554C73.2596 129.337 73.5083 129.265 74.1601 129.017C74.2689 129.272 74.4503 129.495 74.6984 129.635C75.6398 129.999 75.4525 129.748 75.9637 129.728C76.5869 129.602 77.2089 129.46 77.8133 129.26C78.0835 129.167 78.3426 129.071 78.5998 128.975C78.7858 129.162 79.052 129.265 79.3338 129.177C81.0811 128.574 82.8815 128 84.4305 126.966C87.1871 124.948 89.3438 122.064 90.3435 118.786C90.6881 117.713 90.9317 116.325 91.0386 115.382C91.1999 113.983 91.3813 112.522 90.9175 111.161C91.2569 113.128 90.6097 115.031 90.0629 116.945C89.5732 118.422 88.9 119.74 88.0669 120.926C88.2211 120.652 88.374 120.37 88.5256 120.079C90.6479 115.857 90.9382 110.167 88.5768 105.988C89.511 108.169 89.5848 110.407 89.3594 112.772C88.9862 116.441 87.2182 119.729 84.5322 122.323C83.8675 122.958 83.1316 123.542 82.36 124.073C83.9744 122.57 85.4418 120.777 86.4019 118.754Z" fill="#6265FE"/>
<path d="M65.4694 127.99C65.4596 127.985 65.4511 127.98 65.4406 127.974C65.4164 127.963 65.3909 127.955 65.3668 127.943C65.4073 127.961 65.4406 127.976 65.4694 127.99Z" fill="#6265FE"/>
<path d="M65.4686 127.99C65.6126 128.068 65.6761 128.086 65.4686 127.99V127.99Z" fill="#6265FE"/>
<path d="M52.3787 115.269C52.3703 115.339 52.3638 115.395 52.3586 115.447C52.3379 115.409 52.3269 115.367 52.3035 115.33C52.0139 114.896 51.3862 114.807 50.9469 115.059C50.634 115.255 50.4934 115.532 50.4636 115.855C50.3023 115.789 50.0995 115.797 49.8352 115.919C49.3875 116.171 49.4212 116.724 49.6389 117.124C49.889 117.75 50.2187 118.341 50.5472 118.928C51.9576 121.494 54.2717 123.498 56.8269 124.882C54.6987 123.307 53.0654 121.216 52.036 119.203C52.2064 119.442 52.3677 119.665 52.5011 119.856C54.9662 123.215 58.4977 125.74 62.4139 127.135C59.7467 125.686 57.5641 123.989 55.5804 121.666C54.8179 120.794 53.8882 119.292 53.1956 117.832C53.1626 117.766 53.114 117.659 53.079 117.58C53.0725 117.564 53.0661 117.549 53.0596 117.532C53.0557 117.523 53.0512 117.512 53.0473 117.503C53.0466 117.5 53.0363 117.472 53.0065 117.391C52.9831 117.341 52.9708 117.287 52.9507 117.236C54.2477 119.693 56.7834 122.638 59.4079 124.522C56.7057 121.647 54.9027 118.911 53.9458 115.44C53.8143 115.171 53.9316 115.129 53.5163 114.807C53.0952 114.546 52.5044 114.793 52.3787 115.269Z" fill="#6265FE"/>
<path d="M14.5388 193.713C14.5375 193.727 14.5362 193.739 14.5349 193.753C14.5303 193.786 14.5245 193.82 14.52 193.853C14.5239 193.818 14.5316 193.765 14.5388 193.713Z" fill="#6265FE"/>
<path d="M14.5387 193.713C14.5413 193.675 14.5458 193.649 14.5484 193.607C14.5718 193.473 14.5556 193.591 14.5387 193.713Z" fill="#6265FE"/>
<path d="M34.3495 162.411C33.6168 166.76 32.2498 170.974 31.1154 175.229C31.0209 175.624 30.5965 175.8 30.2415 175.712C29.5962 177.855 28.8538 179.969 28.0057 182.042C27.5762 182.983 27.1648 183.957 26.5202 184.773C26.585 184.689 26.6504 184.605 26.7152 184.52C26.5047 184.851 26.3693 185.263 26.0389 185.492C25.6871 185.802 25.1656 185.816 24.7574 185.609C24.0921 187.251 23.3529 188.862 22.5456 190.438C22.2917 190.852 22.1615 191.381 21.7514 191.669C21.4527 191.931 21.0433 191.998 20.6662 191.909C20.4077 192.401 20.1492 192.894 19.8907 193.386C19.2727 194.546 18.6812 195.721 18.0282 196.863C18.0146 196.886 18.0003 196.911 17.986 196.934C17.9718 196.967 17.9588 197 17.9446 197.032C17.622 197.613 17.506 198.369 16.9683 198.789C16.4675 199.229 15.6564 199.144 15.1938 198.683C14.3723 197.846 15.0681 196.853 15.4886 195.96C15.1115 195.917 14.75 195.72 14.5621 195.372C14.2181 194.435 14.4578 194.632 14.5343 193.753C14.6146 193.175 14.7118 192.6 14.8135 192.025C14.7928 191.762 14.8057 191.488 14.842 191.225C14.9496 189.687 15.0461 188.148 15.1342 186.609C14.7455 186.708 14.3049 186.515 14.0996 186.166C13.8372 185.569 13.9888 184.861 13.9162 184.223C13.5107 174.223 13.8508 164.209 14.0199 154.207C14.0847 148.738 14.2965 143.272 14.5809 137.81C14.8336 133.583 14.9943 129.332 15.7795 125.161C15.2903 133.356 15.9589 141.574 15.7885 149.779C15.6946 158.442 15.4251 167.113 15.5534 175.777C16.1604 157.104 16.198 138.414 16.7532 119.74C17.9115 131.11 17.8228 142.545 17.9614 153.959C18.0223 158.743 18.1214 163.529 18.1649 168.315C18.2705 167.049 18.3683 165.757 18.457 164.421C18.8697 157.481 18.7311 150.527 18.7201 143.578C18.6034 132.93 18.6112 122.23 16.8555 111.696C20.1926 122.921 21.1858 134.633 21.3393 146.295C21.6484 154.972 21.3588 163.663 20.4971 172.297C20.6144 171.352 20.7297 170.392 20.8457 169.388C21.7183 163.126 22.1731 156.252 22.0468 149.106C21.9878 141.433 21.4326 133.771 20.4783 126.158C19.7851 120.284 18.6941 113.162 16.9566 106.298C22.3208 120.461 24.1918 135.684 24.3804 150.757C24.486 156.614 24.2177 162.467 23.5498 168.287C23.4857 168.993 23.4164 169.7 23.3457 170.406C24.8144 161.874 25.1098 153.275 24.7088 144.027C24.05 131.505 22.7257 119.844 18.6935 107.717C23.9314 118.926 25.8264 130.323 26.8856 142.198C27.7654 151.4 27.663 160.699 26.2054 169.837C25.8484 172.063 25.3884 174.267 24.863 176.456C27.1551 167.801 27.9403 159.723 28.1917 150.439C28.4392 144.294 27.4842 137.783 26.7398 132.476C25.6864 125.325 24.486 118.077 21.5162 111.435C27.3443 121.606 29.2801 133.51 30.1605 145.055C30.7125 152.423 30.5473 159.865 29.5081 167.172C31.3966 157.633 31.5709 148.376 30.178 137.534C29.4343 131.733 28.3038 124.66 26.0888 118.473C30.1864 126.923 32.2375 136.267 33.0694 145.584C33.3557 148.556 33.4782 151.551 33.4386 154.546C33.8747 147.81 33.6861 140.208 32.4086 133.887C35.2811 143.079 35.8577 152.914 34.3495 162.411Z" fill="#6265FE"/>
<path d="M27.2564 208.979C27.2415 208.98 27.2285 208.981 27.2143 208.982C27.1792 208.987 27.1442 208.993 27.1092 208.997C27.1462 208.993 27.2019 208.986 27.2564 208.979Z" fill="#6265FE"/>
<path d="M27.2563 208.978C27.2959 208.976 27.3237 208.971 27.3672 208.969C27.5086 208.945 27.3854 208.962 27.2563 208.978Z" fill="#6265FE"/>
<path d="M60.2604 189.172C55.6749 189.905 51.2326 191.271 46.7456 192.405C46.329 192.499 46.1431 192.924 46.2363 193.279C43.9766 193.924 41.748 194.666 39.5628 195.513C38.5709 195.943 37.5434 196.354 36.6831 196.999C36.7718 196.934 36.8606 196.868 36.9494 196.804C36.6002 197.014 36.1661 197.149 35.9245 197.48C35.5973 197.832 35.5824 198.353 35.8014 198.761C34.0709 199.426 32.371 200.165 30.7099 200.972C30.2732 201.226 29.7154 201.356 29.4129 201.767C29.1356 202.066 29.0663 202.475 29.1589 202.852C28.64 203.11 28.1204 203.369 27.6015 203.627C26.3777 204.245 25.139 204.836 23.9353 205.489C23.9107 205.503 23.8847 205.517 23.8601 205.531C23.8258 205.546 23.7908 205.559 23.7565 205.573C23.1442 205.895 22.3467 206.011 21.9043 206.549C21.4404 207.05 21.5298 207.861 22.0157 208.323C22.8981 209.144 23.9456 208.449 24.8876 208.028C24.933 208.405 25.1403 208.767 25.507 208.955C26.4956 209.299 26.2863 209.059 27.2141 208.982C27.823 208.902 28.4301 208.805 29.0358 208.703C29.3138 208.724 29.6027 208.71 29.88 208.675C31.5016 208.567 33.1238 208.471 34.7467 208.383C34.6417 208.771 34.8464 209.212 35.2144 209.417C35.8435 209.679 36.5898 209.528 37.2623 209.6C47.8061 210.006 58.3648 209.666 68.9112 209.497C74.6778 209.432 80.4411 209.22 86.1998 208.936C90.6571 208.683 95.1396 208.523 99.5372 207.738C90.8961 208.227 82.2311 207.558 73.5796 207.729C64.4449 207.822 55.3031 208.092 46.167 207.964C65.8559 207.357 85.5617 207.319 105.253 206.764C93.2647 205.606 81.2075 205.695 69.1723 205.556C64.1275 205.495 59.0807 205.396 54.0346 205.353C55.3698 205.247 56.7322 205.149 58.1407 205.061C65.4588 204.648 72.7912 204.787 80.1178 204.798C91.3451 204.914 102.627 204.906 113.734 206.662C101.898 203.325 89.5492 202.332 77.2523 202.179C68.1027 201.87 58.9395 202.16 49.8352 203.021C50.8322 202.904 51.8442 202.788 52.9028 202.672C59.5044 201.8 66.7539 201.345 74.2884 201.472C82.3788 201.531 90.4575 202.086 98.4844 203.04C104.679 203.733 112.187 204.824 119.425 206.561C104.493 201.198 88.4401 199.327 72.5483 199.139C66.3716 199.033 60.2008 199.301 54.0631 199.969C53.3187 200.033 52.5736 200.102 51.8293 200.173C60.8254 198.705 69.8927 198.409 79.6429 198.81C92.8468 199.469 105.142 200.793 117.929 204.824C106.11 199.587 94.0933 197.693 81.5722 196.634C71.8693 195.754 62.0647 195.857 52.4285 197.314C50.082 197.671 47.7575 198.131 45.4498 198.656C54.5762 196.364 63.0941 195.579 72.8826 195.328C79.3624 195.081 86.2277 196.035 91.8239 196.78C99.3636 197.833 107.006 199.033 114.01 202.002C103.285 196.175 90.7335 194.24 78.5597 193.36C70.7913 192.808 62.9451 192.973 55.2396 194.011C65.2981 192.123 75.0587 191.949 86.4907 193.342C92.6065 194.085 100.065 195.215 106.588 197.43C97.6785 193.333 87.826 191.283 78.0026 190.451C74.8682 190.165 71.7106 190.042 68.5536 190.082C75.6554 189.646 83.6713 189.834 90.3364 191.111C80.6445 188.241 70.2743 187.664 60.2604 189.172Z" fill="#6265FE"/>
</svg>
