<svg width="713" height="622" viewBox="0 0 713 622" fill="none" xmlns="http://www.w3.org/2000/svg">
<path d="M356.354 0C553.163 0.000288426 712.708 159.546 712.708 356.354C712.708 553.163 553.163 712.708 356.354 712.708C159.546 712.708 0.000244102 553.163 0 356.354C6.21083e-05 159.545 159.545 0 356.354 0ZM181.799 662.604C232.732 691.697 291.622 708.45 354.398 708.791V687.54C295.493 687.199 240.233 671.48 192.427 644.195L181.799 662.604ZM520.282 644.195C472.475 671.48 417.214 687.2 358.309 687.54V708.791C421.086 708.45 479.977 691.696 530.91 662.603L520.282 644.195ZM194.382 640.809C241.613 667.761 296.206 683.289 354.398 683.63V560.579C318.622 560.243 285.046 550.706 255.919 534.224L194.382 640.809ZM456.789 534.224C427.661 550.706 394.086 560.244 358.309 560.579V683.63C416.502 683.29 471.095 667.761 518.327 640.809L456.789 534.224ZM52.0635 534.295C82.637 586.465 126.243 630.071 178.413 660.645L189.041 642.236C140.096 613.529 99.1778 572.613 70.4707 523.667L52.0635 534.295ZM642.236 523.667C613.529 572.612 572.612 613.529 523.667 642.236L534.295 660.644C586.465 630.07 630.07 586.465 660.644 534.295L642.236 523.667ZM266.204 573.699C267.829 573.699 269.182 574.857 269.487 576.392L296.864 579.108C297.369 577.899 298.564 577.049 299.956 577.049C301.805 577.049 303.305 578.547 303.305 580.397C303.305 581.505 302.768 582.485 301.94 583.095L310.91 608.592C311.247 607.286 311.507 605.68 311.778 603.685C312.354 607.921 312.881 610.405 314.193 611.976C314.329 612.099 314.454 612.233 314.567 612.377C316.118 613.877 318.64 614.432 323.138 615.044C314.023 616.284 313.018 617.289 311.778 626.403C311.306 622.93 310.865 620.635 309.999 619.056L295.513 640.481C295.668 640.773 295.756 641.106 295.756 641.459C295.756 641.893 295.622 642.296 295.395 642.63L297.523 646.672C297.727 646.633 297.938 646.612 298.152 646.612C300.002 646.613 301.501 648.112 301.501 649.961C301.501 651.81 300.002 653.31 298.152 653.311C296.303 653.311 294.803 651.811 294.803 649.961C294.803 649.031 295.181 648.19 295.793 647.583L293.664 643.541C292.519 643.536 291.591 642.607 291.591 641.459C291.591 640.308 292.522 639.376 293.673 639.376C293.747 639.376 293.821 639.38 293.894 639.388L308.716 617.463C307.146 616.147 304.66 615.621 300.419 615.044C304.413 614.501 306.849 614.002 308.431 612.847L268.063 579.833C267.883 579.953 267.692 580.057 267.489 580.142L269.603 601.66C270.36 601.972 270.892 602.716 270.893 603.586C270.893 604.736 269.961 605.669 268.811 605.669C268.591 605.669 268.38 605.634 268.182 605.571L251.428 621.996C253.003 623.255 255.472 623.773 259.629 624.338C250.514 625.578 249.509 626.583 248.27 635.697C247.03 626.583 246.025 625.578 236.91 624.338C246.025 623.098 247.03 622.093 248.27 612.979C248.76 616.587 249.217 618.924 250.152 620.508L266.812 604.174C266.758 603.987 266.728 603.79 266.728 603.586C266.728 602.862 267.096 602.225 267.656 601.852L265.543 580.331C264.01 580.024 262.855 578.672 262.854 577.049C262.854 575.199 264.354 573.699 266.204 573.699ZM460.482 568.058C461.722 577.172 462.727 578.177 471.842 579.417C462.727 580.657 461.722 581.662 460.482 590.776C459.953 586.887 459.467 584.474 458.375 582.89L449.463 593.824C449.568 594.073 449.626 594.345 449.626 594.632C449.626 595.782 448.693 596.715 447.543 596.715C447.075 596.715 446.645 596.558 446.297 596.298L440.766 598.898C440.712 600.002 439.805 600.879 438.688 600.879C438.651 600.879 438.613 600.875 438.576 600.873L430.052 614.995C430.24 615.308 430.35 615.674 430.35 616.065C430.349 616.927 429.826 617.667 429.079 617.983L428.387 625.878C429.725 628.982 432.193 629.706 438.28 630.534C429.166 631.774 428.161 632.779 426.921 641.894C426.247 636.936 425.642 634.378 423.764 632.876L407.232 639.589C407.126 640.639 406.239 641.459 405.161 641.459C404.011 641.459 403.078 640.526 403.078 639.376C403.078 639.005 403.175 638.657 403.345 638.355L402.272 636.684C402.216 636.688 402.16 636.692 402.103 636.692C401.719 636.692 401.36 636.587 401.052 636.406L393.199 641.251C393.271 641.523 393.31 641.808 393.31 642.103C393.31 643.952 391.809 645.452 389.96 645.452C388.111 645.452 386.611 643.952 386.611 642.103C386.611 640.252 388.111 638.754 389.96 638.754C390.808 638.754 391.582 639.069 392.172 639.588L400.026 634.74C400.024 634.697 400.021 634.653 400.021 634.609C400.021 633.458 400.952 632.527 402.103 632.526C403.254 632.526 404.185 633.458 404.186 634.609C404.186 634.98 404.087 635.327 403.918 635.628L404.991 637.301C405.047 637.296 405.104 637.293 405.161 637.293C405.669 637.293 406.134 637.475 406.495 637.777L421.47 631.696C420.009 631.207 418.1 630.879 415.562 630.534C419.566 629.99 422.005 629.489 423.586 628.327L407.796 611.668C407.62 611.716 407.435 611.745 407.244 611.745C406.446 611.745 405.754 611.297 405.404 610.639H400.946C400.596 611.296 399.904 611.745 399.106 611.745C398.492 611.745 397.942 611.477 397.561 611.054L394.062 611.925C393.836 612.831 393.019 613.504 392.043 613.504C391.561 613.504 391.118 613.339 390.765 613.063L377.147 619.162C378.707 619.888 380.895 620.292 384.065 620.724C374.951 621.963 373.946 622.969 372.706 632.083C371.466 622.969 370.461 621.963 361.347 620.724C365.681 620.134 368.18 619.596 369.744 618.216C369.915 617.984 370.115 617.776 370.339 617.596C371.616 616.022 372.137 613.548 372.706 609.364C373.307 613.781 373.853 616.294 375.293 617.852L389.967 611.278C390.04 610.195 390.941 609.338 392.043 609.338C392.657 609.338 393.207 609.605 393.588 610.027L397.088 609.155C397.314 608.25 398.13 607.579 399.106 607.579C399.902 607.579 400.594 608.026 400.944 608.684H405.405C405.755 608.026 406.447 607.579 407.244 607.579C407.396 607.579 407.543 607.596 407.686 607.627L420.833 592.126C420.497 591.604 420.302 590.984 420.302 590.317C420.302 589.628 420.51 588.987 420.867 588.454L413.344 579.246C412.952 579.407 412.523 579.496 412.073 579.496C410.224 579.496 408.724 577.996 408.724 576.147C408.724 574.298 410.224 572.798 412.073 572.798C413.924 572.796 415.422 574.297 415.422 576.147C415.422 576.836 415.213 577.476 414.856 578.009L422.381 587.218C422.773 587.057 423.202 586.968 423.651 586.968C425.501 586.968 427 588.468 427 590.317C427 590.565 426.972 590.805 426.921 591.037L437.568 597.041C437.892 596.834 438.276 596.713 438.688 596.713C439.155 596.714 439.585 596.87 439.933 597.13L445.465 594.527C445.519 593.426 446.428 592.549 447.543 592.549C447.681 592.549 447.816 592.562 447.946 592.588L456.98 581.504C455.396 580.426 452.988 579.943 449.123 579.417C458.238 578.177 459.243 577.172 460.482 568.058ZM73.8584 521.712C102.222 570.064 142.644 610.486 190.996 638.85L252.531 532.268C222.849 514.712 197.995 489.858 180.439 460.176L73.8584 521.712ZM532.269 460.176C514.713 489.858 489.858 514.712 460.176 532.268L521.712 638.85C570.064 610.486 610.486 570.064 638.85 521.712L532.269 460.176ZM425.961 592.74C425.36 593.313 424.547 593.666 423.651 593.666C423.18 593.666 422.731 593.568 422.324 593.393L409.178 608.892C409.273 609.13 409.326 609.39 409.326 609.662C409.326 609.893 409.287 610.115 409.218 610.323L424.923 626.895C425.938 625.309 426.41 622.931 426.921 619.175C426.939 619.308 426.96 619.439 426.978 619.568L427.132 617.81C426.562 617.438 426.184 616.797 426.184 616.065C426.184 614.914 427.116 613.982 428.267 613.982C428.304 613.982 428.341 613.985 428.378 613.987L436.9 599.862C436.714 599.55 436.605 599.186 436.605 598.796C436.605 598.779 436.607 598.762 436.607 598.745L425.961 592.74ZM309.772 611.418C309.785 611.399 309.797 611.379 309.81 611.359L300.095 583.742C300.049 583.744 300.003 583.747 299.956 583.747C298.332 583.747 296.976 582.589 296.671 581.055L269.327 578.34L309.772 611.418ZM581.821 500.418C583.061 509.533 584.066 510.538 593.181 511.777C584.066 513.017 583.061 514.022 581.821 523.137C580.582 514.022 579.576 513.017 570.462 511.777C573.419 511.375 575.521 510.995 577.056 510.357L568.793 507.169C568.428 507.486 567.952 507.679 567.431 507.679C567.295 507.679 567.162 507.664 567.033 507.64L556.206 521.031C556.313 521.282 556.374 521.558 556.374 521.849C556.374 522.515 556.059 523.107 555.571 523.488L557.018 531.698C557.744 531.934 558.292 532.558 558.424 533.324L570.128 537.18C570.735 536.322 571.734 535.762 572.864 535.762C574.713 535.762 576.213 537.261 576.213 539.11C576.213 540.539 575.319 541.757 574.062 542.238L574.977 555.265C575.705 555.589 576.213 556.318 576.213 557.167C576.213 558.316 575.28 559.25 574.131 559.25C573.476 559.25 572.892 558.948 572.51 558.475L527.993 567.033C527.816 568.716 526.392 570.028 524.663 570.028C523.547 570.028 522.56 569.483 521.951 568.645L501.041 575.835C501.042 575.874 501.045 575.914 501.045 575.953C501.045 577.802 499.544 579.302 497.695 579.302C496.581 579.302 495.593 578.757 494.984 577.919L494.69 578.021L494.89 577.781C494.546 577.255 494.347 576.628 494.347 575.953C494.347 574.104 495.846 572.604 497.695 572.604C498.158 572.604 498.6 572.697 499.001 572.867L514.995 553.755C513.414 552.584 510.973 552.082 506.953 551.535C516.068 550.296 517.073 549.29 518.312 540.176C518.969 545.003 519.56 547.556 521.324 549.073L554.296 533.574C554.327 532.951 554.63 532.399 555.092 532.038L553.646 523.828C552.812 523.557 552.208 522.775 552.208 521.849C552.208 520.698 553.14 519.766 554.291 519.766C554.426 519.766 554.558 519.779 554.686 519.804L565.513 506.412C565.406 506.162 565.348 505.885 565.348 505.596C565.348 504.445 566.28 503.513 567.431 503.513C568.497 503.513 569.373 504.312 569.497 505.345L578.873 508.962C579.135 508.628 579.459 508.345 579.828 508.131C580.84 506.545 581.311 504.168 581.821 500.418ZM202.316 503C203.556 512.114 204.561 513.12 213.676 514.359C207.459 515.205 205.016 515.942 203.697 519.216V524.258C204.355 524.608 204.803 525.3 204.803 526.097C204.803 526.823 204.429 527.462 203.865 527.835L204.45 534.022C205.978 534.333 207.128 535.685 207.128 537.305C207.128 539.154 205.629 540.654 203.779 540.654C201.93 540.654 200.43 539.154 200.43 537.305C200.43 535.907 201.286 534.709 202.503 534.207L201.919 528.02C201.166 527.706 200.637 526.963 200.637 526.097C200.637 525.3 201.084 524.608 201.741 524.258V522.115C201.253 519.652 200.632 518.073 199.491 516.991L186.666 523.992C186.666 524 186.668 524.007 186.668 524.015C186.668 525.165 185.735 526.097 184.585 526.097C183.979 526.097 183.435 525.837 183.055 525.424L179.942 526.234C179.87 528.02 178.401 529.446 176.598 529.446C176.154 529.446 175.73 529.359 175.343 529.202L173.081 532C173.188 532.251 173.248 532.527 173.248 532.817C173.248 533.967 172.314 534.899 171.165 534.899C171.065 534.899 170.968 534.89 170.872 534.876L164.603 543.471C166.131 545.149 168.677 545.729 173.401 546.372C164.287 547.612 163.282 548.617 162.042 557.731C161.724 555.392 161.419 553.588 160.99 552.176L155.999 570.315C156.4 570.695 156.651 571.232 156.651 571.828C156.651 572.979 155.719 573.911 154.569 573.911C153.883 573.911 153.276 573.579 152.896 573.067L142.617 574.606C142.331 575.415 141.563 575.994 140.656 575.994C139.86 575.994 139.169 575.547 138.818 574.89H129.017C128.598 576.262 127.323 577.261 125.813 577.261C123.964 577.261 122.464 575.761 122.464 573.911C122.464 573.273 122.642 572.676 122.952 572.169L115.77 564.104C115.612 564.142 115.448 564.164 115.278 564.164C114.127 564.164 113.195 563.232 113.195 562.081C113.195 560.932 114.127 559.998 115.278 559.998C115.617 559.998 115.936 560.081 116.219 560.225L119.139 558.171C119.128 558.087 119.122 558.002 119.122 557.916C119.122 556.765 120.054 555.833 121.205 555.833C121.335 555.833 121.462 555.845 121.585 555.868L124.832 551.796C123.297 550.162 120.757 549.588 116.088 548.953C125.202 547.714 126.208 546.708 127.447 537.594C128.687 546.708 129.692 547.714 138.807 548.953C134.967 549.475 132.567 549.956 130.981 551.019C130.692 551.422 130.316 551.759 129.879 552.001C128.554 553.57 128.026 556.058 127.447 560.312C127.029 557.235 126.635 555.083 125.948 553.533L123.115 557.088C123.226 557.342 123.288 557.622 123.288 557.916C123.288 559.065 122.356 559.999 121.205 559.999C120.866 559.999 120.547 559.915 120.264 559.771L117.344 561.824C117.354 561.908 117.361 561.994 117.361 562.081C117.361 562.335 117.314 562.578 117.23 562.803L124.412 570.869C124.838 570.672 125.313 570.562 125.813 570.562C127.323 570.562 128.598 571.561 129.017 572.934H138.817C139.168 572.277 139.859 571.828 140.656 571.828C141.342 571.828 141.949 572.161 142.328 572.672L152.607 571.132C152.844 570.465 153.411 569.954 154.112 569.797L159.692 549.521C158.189 547.65 155.632 547.045 150.683 546.372C154.807 545.811 157.27 545.297 158.847 544.06C159.11 543.6 159.478 543.209 159.919 542.919C161.021 541.335 161.511 538.919 162.042 535.013C162.45 538.015 162.836 540.136 163.491 541.677L169.292 533.725C169.159 533.45 169.082 533.143 169.082 532.817C169.082 531.666 170.016 530.734 171.165 530.734C171.3 530.734 171.432 530.748 171.56 530.772L173.822 527.973C173.46 527.438 173.248 526.792 173.248 526.098C173.248 524.248 174.748 522.748 176.598 522.748C177.804 522.748 178.861 523.386 179.45 524.343L182.561 523.531C182.779 522.614 183.601 521.932 184.585 521.932C185.008 521.932 185.401 522.058 185.729 522.274L197.595 515.798C196.056 515.149 193.942 514.765 190.957 514.359C195.288 513.77 197.786 513.233 199.351 511.854L195.271 507.353C195.108 507.393 194.937 507.418 194.762 507.418C193.612 507.418 192.68 506.485 192.68 505.335C192.68 504.185 193.612 503.252 194.762 503.252C195.912 503.252 196.845 504.185 196.845 505.335C196.845 505.582 196.799 505.819 196.72 506.039L200.57 510.288C201.415 508.71 201.85 506.43 202.316 503ZM557.812 535.182C557.439 535.54 556.933 535.762 556.374 535.762C555.905 535.762 555.474 535.605 555.126 535.344L523.418 550.249C524.92 550.807 526.928 551.162 529.672 551.535C520.557 552.775 519.552 553.78 518.312 562.895C517.805 559.161 517.335 556.789 516.333 555.203L500.7 573.885L521.316 566.795C521.315 566.756 521.313 566.718 521.313 566.679C521.314 564.83 522.814 563.33 524.663 563.33C525.947 563.33 527.061 564.052 527.623 565.113L572.14 556.553C572.288 556.071 572.607 555.666 573.025 555.403L572.11 542.373C570.623 542.031 569.515 540.7 569.515 539.11C569.515 539.086 569.516 539.061 569.517 539.037L557.812 535.182ZM257.874 530.836C286.426 546.986 319.334 556.332 354.398 556.667V527.256L353.941 527.253C324.384 526.879 296.608 519.11 272.377 505.716L257.874 530.836ZM440.248 505.574C415.924 519.074 388.015 526.897 358.309 527.254V556.667C393.373 556.332 426.281 546.986 454.833 530.836L440.248 505.574ZM3.91602 358.31C4.25706 421.086 21.0112 479.976 50.1045 530.909L68.5117 520.282C41.2269 472.476 25.5085 417.215 25.168 358.31H3.91602ZM687.541 358.31C687.201 417.215 671.48 472.475 644.195 520.282L662.603 530.909C691.696 479.976 708.451 421.086 708.792 358.31H687.541ZM183.827 458.22C201.039 487.309 225.399 511.668 254.487 528.88L268.975 503.786C244.078 489.281 223.12 468.757 208.097 444.206L183.827 458.22ZM504.355 444.06C489.377 468.591 468.479 489.113 443.646 503.639L458.22 528.88C487.309 511.668 511.668 487.309 528.88 458.22L504.355 444.06ZM291.406 473.54L290.288 474.695L273.878 503.117C297.793 516.326 325.217 523.956 354.398 524.256V488.754L338.425 424.938L291.406 473.54ZM358.639 490.537L358.309 491.855V524.254C387.468 523.898 414.865 516.219 438.747 502.975L421.269 472.701L375.059 424.937L358.639 490.537ZM29.0781 358.31C29.4186 416.502 44.9473 471.095 71.8994 518.326L178.483 456.788C162.002 427.661 152.465 394.086 152.13 358.31H29.0781ZM560.579 358.31C560.244 394.086 550.707 427.662 534.225 456.789L640.809 518.326C667.761 471.095 683.29 416.502 683.631 358.31H560.579ZM241.679 425.201L240.368 425.575L210.698 442.704C225.458 466.8 246.035 486.945 270.476 501.187L288.693 469.634L306.7 406.62L241.679 425.201ZM425.366 471.643L425.555 472.304L442.145 501.038C466.523 486.777 487.042 466.636 501.757 442.56L471.579 425.136L406.783 406.62L425.366 471.643ZM341.364 292.586L340.51 296.001L338.062 293.471L294.027 247.953L311.429 308.848L312.396 312.232L309.011 311.266L248.116 293.862L293.634 337.899L296.163 340.347L292.749 341.201L231.31 356.578L292.749 371.957L296.164 372.812L293.634 375.259L248.116 419.293L309.011 401.893L312.396 400.926L311.429 404.311L294.229 464.498L294.537 464.676L338.062 419.688L340.51 417.157L341.364 420.572L356.741 482.009L372.12 420.572L372.975 417.157L375.422 419.688L419.458 465.205L402.056 404.311L401.088 400.926L404.474 401.893L464.018 418.907L464.357 418.316L419.851 375.259L417.32 372.812L420.735 371.957L482.174 356.578L420.735 341.201L417.32 340.347L419.851 337.899L465.367 293.862L404.474 311.266L401.088 312.232L402.056 308.848L419.458 247.952L375.422 293.471L372.975 296.001L372.12 292.586L356.741 231.146L341.364 292.586ZM577.69 381.661C578.93 390.776 579.935 391.781 589.05 393.021C584.486 393.641 581.955 394.203 580.41 395.753L598.817 418.946C599.197 418.797 599.61 418.715 600.042 418.715C601.892 418.715 603.392 420.214 603.392 422.063C603.392 422.984 603.019 423.816 602.418 424.422L606.085 431.252C606.297 431.21 606.516 431.188 606.74 431.188C608.587 431.186 610.086 432.683 610.089 434.531L647.417 445.859C649.231 444.349 649.83 441.794 650.494 436.909C651.105 441.399 651.659 443.92 653.153 445.472C653.21 445.524 653.265 445.579 653.318 445.636C654.872 447.11 657.391 447.662 661.854 448.269C652.739 449.508 651.734 450.513 650.494 459.628C649.255 450.513 648.249 449.508 639.135 448.269C641.602 447.933 643.475 447.611 644.919 447.145L609.521 436.402C608.939 437.268 607.964 437.846 606.852 437.883L600.864 460.13C602.314 462.384 604.869 463.031 610.22 463.759C601.105 464.998 600.1 466.004 598.86 475.118C597.621 466.004 596.615 464.998 587.501 463.759C596.615 462.519 597.621 461.514 598.86 452.399C599.115 454.268 599.361 455.796 599.667 457.055L604.963 437.375C604.019 436.783 603.392 435.733 603.392 434.537C603.392 433.617 603.762 432.783 604.363 432.178L600.696 425.348C600.485 425.39 600.266 425.413 600.042 425.413C598.192 425.413 596.693 423.913 596.693 422.063C596.693 421.357 596.912 420.701 597.285 420.161L579.259 397.445C578.528 399.006 578.123 401.198 577.69 404.38C576.451 395.265 575.446 394.26 566.331 393.021C575.446 391.781 576.451 390.776 577.69 381.661ZM122.801 378.563C124.04 387.678 125.045 388.683 134.16 389.923C125.045 391.163 124.04 392.168 122.801 401.282C122.469 398.841 122.151 396.983 121.692 395.545L117.146 408.688C117.492 409.059 117.705 409.557 117.705 410.104C117.705 410.579 117.544 411.015 117.276 411.365L121.349 420.243C122.093 420.286 122.734 420.719 123.066 421.343H132.634C132.984 420.686 133.675 420.237 134.473 420.237C134.676 420.237 134.872 420.268 135.058 420.322L144.397 410.773C144.136 410.296 143.987 409.749 143.987 409.167C143.987 407.317 145.486 405.818 147.336 405.817C149.186 405.817 150.686 407.317 150.686 409.167C150.685 411.017 149.186 412.516 147.336 412.516C146.78 412.516 146.257 412.379 145.796 412.14L136.457 421.688C136.52 421.888 136.556 422.1 136.556 422.32C136.556 423.471 135.622 424.403 134.473 424.403C133.675 424.403 132.984 423.956 132.634 423.299H123.065C122.822 423.756 122.412 424.109 121.918 424.283L121.111 429.601C121.575 429.983 121.871 430.562 121.871 431.21C121.871 431.47 121.82 431.717 121.733 431.946L125.516 436.259C126.484 434.674 126.948 432.319 127.447 428.647C128.687 437.762 129.692 438.767 138.807 440.007C129.692 441.246 128.687 442.252 127.447 451.366C126.208 442.252 125.202 441.246 116.088 440.007C120.172 439.451 122.628 438.942 124.206 437.73L120.264 433.235C120.111 433.271 119.952 433.292 119.788 433.292C118.638 433.292 117.705 432.36 117.705 431.21C117.705 430.267 118.332 429.47 119.192 429.214L119.984 423.99C119.475 423.611 119.145 423.005 119.145 422.32C119.145 421.846 119.305 421.41 119.572 421.06L115.498 412.18C115.076 412.155 114.689 412.007 114.371 411.768L107.822 414.827C107.766 415.926 106.861 416.802 105.746 416.802C105.516 416.802 105.295 416.763 105.088 416.694L100.753 420.82C100.98 421.272 101.108 421.781 101.108 422.32C101.108 424.171 99.6086 425.67 97.7598 425.67C95.9107 425.67 94.4102 424.169 94.4102 422.32C94.4102 421.76 94.5482 421.231 94.792 420.767L90.6768 416.706C90.4804 416.767 90.2721 416.802 90.0557 416.802C89.1125 416.802 88.3173 416.177 88.0605 415.317L76.8789 413.085C74.6107 414.532 73.962 417.088 73.2324 422.452C72.7104 418.614 72.2297 416.214 71.168 414.629L63.3379 421.8C63.3808 421.966 63.4062 422.14 63.4062 422.32C63.4062 423.471 62.4744 424.403 61.3232 424.403C61.2819 424.403 61.241 424.399 61.2002 424.396L58.3955 428.985C58.9212 429.577 59.2412 430.356 59.2412 431.21C59.2412 431.901 59.0302 432.544 58.6709 433.077L68.1064 444.675C69.1422 443.089 69.6189 440.702 70.1348 436.909C71.3744 446.024 72.3794 447.029 81.4941 448.269C76.8638 448.898 74.3266 449.468 72.7881 451.07L76.4502 456.704C76.5101 456.699 76.5706 456.695 76.6318 456.695C76.9601 456.695 77.2698 456.772 77.5459 456.907L85.9111 450.841C85.8983 450.747 85.8897 450.652 85.8896 450.555C85.8896 449.404 86.8216 448.472 87.9727 448.472C89.122 448.472 90.0557 449.404 90.0557 450.555C90.0556 451.706 89.1238 452.638 87.9727 452.638C87.6451 452.638 87.3364 452.559 87.0605 452.424L78.7236 458.469L93.5557 463.628C94.165 462.796 95.1492 462.255 96.2598 462.255C98.1093 462.255 99.6084 463.755 99.6084 465.604C99.6081 467.454 98.1091 468.953 96.2598 468.953C94.4102 468.953 92.9104 467.454 92.9102 465.604C92.9102 465.561 92.9115 465.518 92.9131 465.475L78.0439 460.305C77.6727 460.648 77.178 460.86 76.6318 460.86C75.4809 460.86 74.549 459.929 74.5488 458.778C74.5488 458.412 74.6438 458.068 74.8096 457.769L71.624 452.868C70.9432 454.416 70.5515 456.564 70.1348 459.628C68.8951 450.513 67.8897 449.508 58.7754 448.269C62.734 447.73 65.1623 447.235 66.7451 446.102L57.1533 434.312C56.7637 434.47 56.3381 434.559 55.8916 434.559C54.0408 434.559 52.5431 433.059 52.543 431.21C52.543 429.361 54.0426 427.86 55.8916 427.86C56.1805 427.86 56.4611 427.896 56.7285 427.965L59.5312 423.378C59.3479 423.068 59.2412 422.707 59.2412 422.32C59.2413 421.171 60.1724 420.238 61.3232 420.237C61.5669 420.237 61.8004 420.282 62.0176 420.358L69.8027 413.23C68.2191 412.117 65.7982 411.627 61.873 411.093C70.9875 409.853 71.9928 408.848 73.2324 399.733C74.472 408.848 75.4771 409.853 84.5918 411.093C82.9426 411.317 81.5592 411.535 80.3916 411.793L88.4443 413.4C88.8265 412.934 89.4064 412.637 90.0557 412.637C91.205 412.639 92.1387 413.57 92.1387 414.72C92.1386 414.926 92.1071 415.126 92.0508 415.314L96.165 419.374C96.6391 419.117 97.1828 418.972 97.7598 418.972C98.3575 418.972 98.9184 419.129 99.4043 419.403L103.74 415.276C103.691 415.099 103.663 414.913 103.663 414.72C103.663 414.696 103.665 414.671 103.666 414.647L98.8594 411.869C98.5399 412.069 98.1642 412.186 97.7598 412.187C96.6096 412.187 95.677 411.255 95.6768 410.104C95.6768 409.643 95.828 409.217 96.082 408.872L90.7412 397.755C90.2821 397.736 89.862 397.571 89.5264 397.302L86.333 398.68C86.2464 399.75 85.3517 400.593 84.2588 400.593C83.1085 400.593 82.1758 399.66 82.1758 398.51C82.1758 398.457 82.1798 398.405 82.1836 398.354L72.2295 392.054C71.9257 392.227 71.5751 392.328 71.2002 392.328C70.0491 392.328 69.1173 391.396 69.1172 390.245C69.1172 389.094 70.049 388.162 71.2002 388.162C72.3495 388.162 73.2832 389.094 73.2832 390.245C73.2832 390.298 73.2783 390.35 73.2744 390.401L83.2275 396.7C83.5316 396.527 83.8836 396.427 84.2588 396.427C84.7505 396.427 85.2013 396.599 85.5576 396.884L88.752 395.507C88.8385 394.436 89.7342 393.594 90.8271 393.594C91.3101 393.594 91.7542 393.759 92.1074 394.035L96.2666 392.182C96.3416 391.099 97.2417 390.245 98.3418 390.245C99.493 390.245 100.425 391.177 100.425 392.328C100.425 393.477 99.491 394.41 98.3418 394.41C97.8592 394.41 97.4158 394.245 97.0625 393.969L92.9023 395.822C92.8744 396.228 92.7309 396.6 92.5039 396.908L97.8447 408.025C98.9554 408.07 99.8418 408.983 99.8418 410.104C99.8418 410.128 99.8387 410.152 99.8379 410.176L104.644 412.953C104.963 412.753 105.341 412.637 105.746 412.637C106.215 412.638 106.646 412.794 106.994 413.056L113.544 409.995C113.595 409.004 114.336 408.199 115.298 408.049L120.471 393.096C118.97 391.206 116.412 390.599 111.441 389.923C120.556 388.683 121.561 387.678 122.801 378.563ZM156.04 358.31C156.375 393.374 165.722 426.281 181.871 454.833L206.094 440.847C191.927 416.477 183.525 388.343 182.755 358.31H156.04ZM529.613 358.31C528.845 388.283 520.471 416.364 506.355 440.699L530.836 454.833C546.986 426.281 556.333 393.374 556.668 358.31H529.613ZM185.755 358.31C186.524 387.796 194.782 415.418 208.694 439.346L241.104 420.634L288.383 374.896L222.782 358.476L222.119 358.31H185.755ZM490.702 358.476L425.101 374.896L473.528 421.746L503.758 439.199C517.618 415.305 525.845 387.736 526.612 358.31H491.365L490.702 358.476ZM356.354 316.028C378.625 316.028 396.681 334.083 396.681 356.354C396.68 378.626 378.625 396.682 356.354 396.682C334.082 396.681 316.028 378.626 316.027 356.354C316.027 334.083 334.082 316.029 356.354 316.028ZM356.354 319.938C336.242 319.939 319.938 336.243 319.938 356.354C319.938 376.466 336.242 392.77 356.354 392.771C376.465 392.771 392.769 376.466 392.77 356.354C392.769 336.243 376.465 319.938 356.354 319.938ZM356.354 326.028C373.102 326.028 386.679 339.605 386.68 356.354C386.68 373.102 373.102 386.68 356.354 386.68C339.605 386.679 326.028 373.102 326.028 356.354C326.029 339.605 339.605 326.029 356.354 326.028ZM382.766 356.542C361.841 359.474 358.876 362.239 355.945 382.763C356.081 382.765 356.217 382.769 356.354 382.769C370.879 382.769 382.664 371.044 382.766 356.542ZM329.943 356.738C330.145 370.827 341.374 382.245 355.387 382.749C352.522 362.696 349.62 359.606 329.943 356.738ZM355.943 329.943C358.875 350.481 361.836 353.247 382.766 356.18C382.672 341.671 370.884 329.938 356.354 329.938C356.217 329.938 356.08 329.941 355.943 329.943ZM355.389 329.957C341.37 330.461 330.137 341.887 329.942 355.982C349.625 353.114 352.523 350.024 355.389 329.957ZM50.1045 181.799C21.011 232.732 4.25703 291.623 3.91602 354.399H25.168C25.5084 295.494 41.2267 240.233 68.5117 192.426L50.1045 181.799ZM71.8994 194.382C44.9471 241.613 29.4185 296.207 29.0781 354.399H152.13C152.465 318.622 162.002 285.046 178.484 255.918L71.8994 194.382ZM206.503 272.095C193.238 296.351 185.695 324.184 185.695 353.779C185.695 353.986 185.698 354.193 185.699 354.399H223.91L288.383 338.262L239.953 291.407L206.503 272.095ZM508.543 270.744C522.013 295.407 529.672 323.698 529.672 353.779L529.668 354.399H556.668C556.333 319.335 546.986 286.426 530.836 257.874L508.543 270.744ZM534.224 255.918C550.707 285.046 560.244 318.622 560.579 354.399H683.631C683.29 296.206 667.761 241.613 640.809 194.382L534.224 255.918ZM644.195 192.426C671.481 240.233 687.201 295.494 687.541 354.399H708.792C708.451 291.623 691.696 232.732 662.603 181.799L644.195 192.426ZM474.68 290.296L473.703 291.241L425.101 338.262L489.574 354.399H526.668C526.669 354.193 526.672 353.986 526.672 353.779C526.672 324.245 519.16 296.465 505.945 272.244L474.68 290.296ZM181.871 257.874C165.721 286.426 156.375 319.335 156.04 354.399H182.699L182.695 353.779C182.695 323.638 190.384 295.292 203.904 270.595L181.871 257.874ZM587.501 254.127C588.741 263.241 589.746 264.247 598.86 265.486C596.933 265.749 595.368 266.001 594.087 266.321L601.592 268.4C601.971 268.001 602.507 267.751 603.102 267.751C604.253 267.751 605.185 268.683 605.185 269.834C605.185 269.879 605.181 269.923 605.178 269.968L612.907 274.751C613.215 274.571 613.573 274.467 613.955 274.467C615.081 274.467 615.997 275.361 616.034 276.479L628.075 282.378C628.418 282.129 628.839 281.982 629.296 281.982C630.35 281.982 631.217 282.763 631.356 283.778L643.667 288.288C644.035 287.958 644.522 287.756 645.056 287.756C645.867 287.756 646.567 288.22 646.911 288.896L652.076 288.992C652.755 288.742 653.331 288.452 653.824 288.098C654.084 287.738 654.414 287.431 654.793 287.198C656.104 285.628 656.63 283.145 657.206 278.911C658.446 288.025 659.451 289.031 668.565 290.271C659.451 291.51 658.446 292.515 657.206 301.63C656.171 294.02 655.299 292.064 649.734 290.903L646.876 290.851C646.624 291.303 646.208 291.651 645.708 291.815L644.479 298.979C645.572 299.531 646.322 300.663 646.322 301.971C646.322 303.82 644.822 305.32 642.973 305.32C642.625 305.32 642.29 305.267 641.975 305.169L637.339 311.966C637.8 312.54 638.077 313.268 638.077 314.062C638.077 315.843 636.684 317.299 634.929 317.403L632.758 326.426C633.188 326.807 633.462 327.362 633.462 327.983C633.462 329.133 632.53 330.066 631.379 330.066C630.228 330.066 629.296 329.135 629.296 327.983C629.296 327.013 629.959 326.2 630.857 325.969L633.027 316.947C632.041 316.364 631.379 315.29 631.379 314.062C631.379 313.852 631.399 313.647 631.436 313.448L617.393 306.13C615.604 307.644 615.011 310.199 614.351 315.055C613.111 305.94 612.105 304.935 602.991 303.695C604.92 303.433 606.485 303.179 607.767 302.858L600.516 301.242C600.134 301.687 599.568 301.971 598.936 301.971C597.877 301.97 597.005 301.181 596.872 300.158L583.718 295.227C583.105 296.023 582.144 296.537 581.062 296.537C579.214 296.537 577.714 295.037 577.714 293.188C577.714 292.024 578.307 290.998 579.208 290.398L577.693 285.33C575.853 285.319 574.364 283.825 574.364 281.982C574.364 280.133 575.863 278.633 577.713 278.633C577.955 278.633 578.192 278.659 578.42 278.708L584.441 267.908C582.871 266.59 580.386 266.064 576.142 265.486C585.256 264.247 586.261 263.241 587.501 254.127ZM132.033 237.668C133.882 237.668 135.382 239.167 135.382 241.018C135.382 242.729 134.096 244.14 132.438 244.34L130.708 254.137C131.194 254.518 131.508 255.109 131.508 255.775C131.508 256.698 130.909 257.478 130.078 257.752L121.812 305.822C122.303 306.203 122.621 306.798 122.621 307.468C122.621 308.53 121.825 309.404 120.796 309.531L119.243 313.604C120.031 314.217 120.538 315.173 120.538 316.249C120.538 318.098 119.037 319.598 117.188 319.598C115.641 319.598 114.339 318.547 113.955 317.121L87.8848 316.277C87.4351 317.596 86.187 318.546 84.7158 318.546C82.9237 318.546 81.4595 317.138 81.3701 315.368L68.749 312.211C68.368 312.633 67.8188 312.899 67.2051 312.899C66.3054 312.899 65.5415 312.33 65.25 311.531L55.8867 310.228C53.4749 311.655 52.8107 314.2 52.0625 319.701C50.8229 310.587 49.8177 309.581 40.7031 308.342C49.8177 307.102 50.8228 306.097 52.0625 296.982C52.6415 301.24 53.17 303.728 54.4971 305.297L59.4268 300.71C59.2109 300.267 59.0899 299.77 59.0898 299.244C59.0898 297.395 60.5889 295.895 62.4385 295.895C63.4839 295.895 64.418 296.374 65.0322 297.124L90.1455 286.842C88.6648 286.322 86.7085 285.981 84.0752 285.623C93.1898 284.383 94.1949 283.378 95.4346 274.264C95.977 278.252 96.4752 280.688 97.627 282.27L127.398 256.249C127.363 256.097 127.342 255.939 127.342 255.775C127.342 254.848 127.947 254.064 128.783 253.794L130.513 244.001C129.428 243.447 128.684 242.319 128.684 241.018C128.684 239.169 130.184 237.668 132.033 237.668ZM99.0586 283.615C100.644 284.637 103.026 285.111 106.794 285.623C97.6794 286.863 96.6742 287.868 95.4346 296.982C94.8666 292.807 94.3472 290.334 93.0752 288.76C92.785 288.571 92.5252 288.339 92.3066 288.071L65.7725 298.934C65.7819 299.036 65.7881 299.139 65.7881 299.244C65.788 301.094 64.2881 302.593 62.4385 302.593C61.8264 302.593 61.2535 302.427 60.7598 302.141L56.0322 306.539C57.6132 307.421 59.9174 307.865 63.4219 308.342C62.1984 308.508 61.1213 308.671 60.1699 308.85L65.5195 309.595C65.8979 309.074 66.5113 308.733 67.2051 308.733C68.1825 308.733 68.9996 309.406 69.2246 310.313L81.8447 313.47C82.4308 312.497 83.4977 311.848 84.7158 311.848C86.2628 311.848 87.5637 312.897 87.9482 314.322L114.019 315.167C114.469 313.849 115.718 312.9 117.188 312.899C117.264 312.899 117.34 312.903 117.414 312.908L118.969 308.834C118.65 308.468 118.455 307.991 118.455 307.468C118.455 306.547 119.053 305.765 119.883 305.49L127.995 258.323L99.0586 283.615ZM591.085 267.52C588.867 268.974 588.224 271.531 587.501 276.846C587.035 273.419 586.601 271.138 585.758 269.561L580.127 279.661C580.706 280.263 581.062 281.081 581.062 281.982C581.062 283.146 580.468 284.17 579.567 284.771L581.082 289.839C582.922 289.849 584.412 291.346 584.412 293.188C584.412 293.258 584.409 293.327 584.404 293.396L597.56 298.327C597.927 298.003 598.408 297.806 598.936 297.806C599.893 297.806 600.698 298.452 600.941 299.333L610.918 301.558C611.009 301.494 611.098 301.428 611.184 301.359C611.416 301.016 611.71 300.719 612.051 300.482C613.279 298.905 613.792 296.445 614.351 292.336C615.59 301.45 616.595 302.456 625.71 303.695C622.953 304.07 620.938 304.425 619.434 304.988L632.339 311.715C632.947 311.096 633.793 310.713 634.729 310.713C635.075 310.713 635.41 310.765 635.725 310.863L640.36 304.065C639.9 303.492 639.624 302.763 639.624 301.971C639.624 300.264 640.901 298.856 642.551 298.648L643.781 291.484C643.361 291.159 643.07 290.677 642.994 290.124L630.683 285.614C630.314 285.944 629.83 286.147 629.296 286.147C628.168 286.147 627.253 285.254 627.216 284.135L615.174 278.236C614.831 278.484 614.411 278.633 613.955 278.633C612.804 278.633 611.872 277.701 611.872 276.55C611.872 276.504 611.875 276.46 611.878 276.415L604.149 271.631C603.841 271.811 603.484 271.917 603.102 271.917C602.105 271.917 601.275 271.218 601.069 270.284L591.085 267.52ZM268.261 207.685C243.519 222.607 222.875 243.635 208.418 268.685L241.908 288.021L306.7 306.537L288.438 242.632L268.261 207.685ZM425.809 239.964L425.366 241.516L406.783 306.537L470.039 288.459L504.033 268.832C489.621 243.802 469.037 222.777 444.357 207.835L425.809 239.964ZM358.309 221.3L358.639 222.619L375.059 288.221L420.626 241.121L440.99 205.848C416.587 191.827 388.385 183.671 358.309 183.304V221.3ZM354.398 183.302C324.299 183.611 296.07 191.719 271.633 205.702L290.93 239.126L291.406 239.618L338.425 288.22L354.398 224.401V183.302ZM445.858 205.236C470.992 220.442 491.955 241.848 506.63 267.332L528.88 254.487C511.668 225.399 487.309 201.039 458.22 183.827L445.858 205.236ZM254.487 183.827C225.399 201.039 201.039 225.399 183.827 254.487L205.82 267.185C220.54 241.68 241.563 220.271 266.761 205.085L254.487 183.827ZM190.997 73.8574C142.644 102.221 102.221 142.644 73.8574 190.997L180.439 252.531C197.995 222.849 222.85 197.995 252.532 180.439L190.997 73.8574ZM460.176 180.439C489.858 197.995 514.712 222.849 532.268 252.531L638.85 190.996C610.486 142.644 570.064 102.222 521.712 73.8584L460.176 180.439ZM187.342 114.717C188.581 123.831 189.587 124.837 198.701 126.076C189.587 127.316 188.581 128.321 187.342 137.436C186.766 133.198 186.24 130.714 184.927 129.144L143.211 155.701C144.732 156.301 146.792 156.667 149.65 157.056C146.641 157.465 144.516 157.851 142.975 158.51L156.774 164.407C157.131 164.12 157.586 163.947 158.08 163.947C158.779 163.947 159.397 164.294 159.774 164.823L170.828 163.39C171.094 161.806 172.472 160.599 174.131 160.599C175.98 160.599 177.48 162.098 177.48 163.947C177.48 165.796 175.98 167.297 174.131 167.297C172.773 167.297 171.606 166.489 171.08 165.329L160.027 166.763C159.731 167.551 158.973 168.113 158.08 168.113C156.99 168.113 156.096 167.275 156.006 166.207L141.005 159.794C140.276 160.528 139.769 161.484 139.369 162.771V168.914C140.027 169.264 140.475 169.957 140.475 170.754C140.475 171.904 139.542 172.837 138.392 172.837C137.595 172.837 136.903 172.389 136.553 171.731H132.515C132.32 172.097 132.018 172.397 131.652 172.592V178.113C133.025 178.531 134.024 179.808 134.024 181.317C134.024 182.114 133.746 182.845 133.281 183.42L145.832 201.946C146.144 201.85 146.477 201.799 146.82 201.799C146.902 201.799 146.983 201.803 147.063 201.809L150.579 192.73C149.8 192.117 149.299 191.167 149.299 190.099C149.299 188.25 150.799 186.749 152.647 186.749C153.976 186.749 155.124 187.523 155.665 188.646L162.902 187.534C163.136 185.912 164.531 184.667 166.217 184.667C168.066 184.667 169.566 186.165 169.566 188.016C169.566 188.152 169.557 188.287 169.541 188.419L182.091 193.978C183.991 192.479 184.6 189.921 185.277 184.938C186.517 194.053 187.522 195.058 196.637 196.298C187.522 197.538 186.517 198.543 185.277 207.657C184.038 198.543 183.032 197.537 173.918 196.298C176.473 195.95 178.39 195.62 179.854 195.126L168.748 190.206C168.134 190.915 167.228 191.365 166.217 191.365C164.888 191.365 163.738 190.59 163.197 189.467L155.962 190.577C155.73 192.201 154.334 193.448 152.647 193.448C152.565 193.448 152.483 193.443 152.401 193.438L148.888 202.515C149.668 203.128 150.169 204.08 150.169 205.148C150.169 206.997 148.669 208.497 146.82 208.497C144.971 208.497 143.471 206.997 143.471 205.148C143.471 204.352 143.749 203.619 144.214 203.044L131.662 184.518C131.35 184.614 131.018 184.667 130.675 184.667C128.825 184.667 127.326 183.167 127.326 181.317C127.326 179.808 128.325 178.532 129.697 178.113V172.592C129.04 172.241 128.592 171.551 128.592 170.754C128.592 169.604 129.525 168.671 130.675 168.671C131.471 168.671 132.163 169.118 132.514 169.775H136.554C136.749 169.41 137.048 169.109 137.413 168.914V163.472C136.211 158.845 134.032 158.021 126.932 157.056C136.046 155.816 137.051 154.811 138.291 145.696C138.948 150.527 139.538 153.081 141.306 154.598L183.319 127.848C181.74 126.986 179.448 126.547 175.983 126.076C185.097 124.837 186.102 123.831 187.342 114.717ZM358.309 180.305L358.426 180.306C389.005 180.693 417.676 188.994 442.489 203.251L454.834 181.871C426.282 165.721 393.373 156.375 358.309 156.04V180.305ZM354.398 156.04C319.334 156.375 286.426 165.721 257.874 181.871L270.132 203.104C295.01 188.865 323.753 180.611 354.398 180.302V156.04ZM514.182 114.717C515.421 123.831 516.426 124.837 525.541 126.076C521.567 126.617 519.134 127.112 517.552 128.255C517.512 128.374 517.466 128.49 517.414 128.603L533.559 143.072C533.782 142.991 534.022 142.944 534.273 142.944C535.424 142.944 536.356 143.877 536.356 145.027C536.356 145.353 536.279 145.659 536.146 145.934L541.392 153.122C541.487 153.109 541.584 153.1 541.684 153.1C542.835 153.1 543.767 154.031 543.767 155.183C543.767 155.927 543.376 156.577 542.79 156.945L543.046 160.579C543.471 160.768 543.821 161.095 544.039 161.504H547.06C547.41 160.846 548.102 160.398 548.898 160.398C550.049 160.398 550.981 161.331 550.981 162.481C550.981 163.136 550.679 163.72 550.206 164.102L550.8 167.19C551.651 167.452 552.27 168.244 552.27 169.182C552.27 169.314 552.255 169.442 552.231 169.567L558.927 174.936C560.113 173.356 560.618 170.909 561.168 166.866C562.408 175.981 563.413 176.986 572.527 178.226C570.572 178.492 568.99 178.747 567.698 179.074L583.075 184.147C583.449 183.79 583.956 183.569 584.515 183.569C585.664 183.57 586.597 184.503 586.597 185.652C586.597 186.141 586.427 186.589 586.146 186.944L588.841 193.119C589.915 193.201 590.763 194.099 590.763 195.194C590.763 196.345 589.831 197.277 588.68 197.277C587.529 197.277 586.597 196.345 586.597 195.194C586.597 194.705 586.766 194.256 587.048 193.9L584.353 187.726C583.396 187.652 582.622 186.934 582.463 186.004L564.852 180.193C562.553 181.636 561.902 184.191 561.168 189.585C559.928 180.47 558.923 179.465 549.809 178.226C553.514 177.722 555.878 177.256 557.464 176.269L551.009 171.094C550.756 171.202 550.479 171.265 550.187 171.265C549.389 171.265 548.697 170.817 548.347 170.159H544.47C544.12 170.817 543.427 171.265 542.63 171.265C541.51 171.265 540.6 170.383 540.551 169.275L535.108 166.687C534.762 166.944 534.334 167.099 533.869 167.099C532.72 167.099 531.786 166.167 531.786 165.016C531.786 164.988 531.789 164.961 531.79 164.935L507.82 150.962C507.502 151.159 507.128 151.275 506.727 151.275C505.577 151.275 504.644 150.344 504.644 149.193C504.644 148.042 505.575 147.11 506.727 147.11C507.878 147.11 508.81 148.042 508.81 149.193C508.81 149.22 508.806 149.246 508.805 149.272L532.774 163.244C533.092 163.047 533.467 162.933 533.869 162.933C534.988 162.933 535.897 163.813 535.947 164.92L541.391 167.509C541.737 167.252 542.165 167.099 542.63 167.099C543.426 167.099 544.118 167.546 544.469 168.203H548.348C548.48 167.955 548.661 167.736 548.879 167.561L548.285 164.472C547.755 164.309 547.316 163.94 547.06 163.459H544.039C543.689 164.116 542.997 164.564 542.2 164.564C541.049 164.564 540.117 163.631 540.117 162.481C540.117 161.738 540.508 161.085 541.096 160.717L540.84 157.085C540.11 156.761 539.602 156.033 539.602 155.183C539.602 154.856 539.678 154.548 539.812 154.272L534.566 147.087C534.471 147.1 534.373 147.11 534.273 147.11C533.123 147.11 532.191 146.177 532.19 145.027C532.19 144.855 532.214 144.688 532.253 144.528L516.109 130.06C516.045 130.098 515.98 130.134 515.913 130.169C515.077 131.746 514.646 134.022 514.182 137.436C513.673 133.694 513.202 131.319 512.195 129.733C511.882 129.464 511.618 129.138 511.422 128.771C509.873 127.25 507.347 126.692 502.822 126.076C511.937 124.837 512.942 123.831 514.182 114.717ZM178.414 52.0635C126.244 82.6371 82.6362 126.243 52.0625 178.413L70.4707 189.041C99.1779 140.095 140.095 99.1779 189.041 70.4707L178.414 52.0635ZM523.667 70.4707C572.613 99.1778 613.529 140.096 642.236 189.041L660.645 178.413C630.071 126.243 586.465 82.637 534.295 52.0635L523.667 70.4707ZM354.398 29.0781C296.206 29.4187 241.613 44.9473 194.382 71.8994L255.919 178.484C285.046 162.002 318.622 152.465 354.398 152.13V29.0781ZM358.309 152.13C394.085 152.465 427.661 162.002 456.789 178.484L518.327 71.8994C471.095 44.9469 416.502 29.4184 358.309 29.0781V152.13ZM281.318 55.8887C282.049 54.9984 283.36 54.8684 284.25 55.5967C284.722 55.9829 284.977 56.5339 285.007 57.0986L288.811 58.874C289.561 58.3102 290.623 58.3062 291.382 58.9268C292.272 59.6553 292.401 60.9681 291.673 61.8584C291.59 61.9595 291.499 62.0495 291.402 62.1309L292.444 66.9922C292.711 67.0677 292.966 67.1973 293.194 67.3838C294.085 68.1122 294.215 69.4251 293.486 70.3154C292.895 71.0381 291.919 71.2595 291.096 70.9277L288.164 73.3965C288.292 73.9949 288.159 74.644 287.741 75.1543C287.013 76.0444 285.7 76.1736 284.81 75.4453C284.465 75.1637 284.235 74.7946 284.124 74.3965L281.812 73.8926C281.714 74.0077 281.606 74.1088 281.491 74.1973L282.623 80.9473C283.45 81.2231 284.047 82.0025 284.047 82.9229C284.047 83.3018 283.943 83.6559 283.767 83.9619L289.994 93.9277C290.774 92.3584 291.194 90.1263 291.642 86.835C292.881 95.9494 293.886 96.9547 303.001 98.1943C296.717 99.0489 294.288 99.7917 292.979 103.157L293.317 105.793C294.105 106.09 294.666 106.85 294.666 107.74C294.666 107.975 294.625 108.199 294.554 108.409L307.259 121.92C307.433 121.873 307.616 121.846 307.806 121.846C308.955 121.846 309.889 122.779 309.889 123.929C309.889 124.226 309.824 124.509 309.712 124.765L313.525 129.59C313.903 129.442 314.315 129.36 314.745 129.36C316.595 129.361 318.094 130.86 318.094 132.71C318.094 134.559 316.595 136.058 314.745 136.059C313.003 136.059 311.571 134.728 311.411 133.027L303.916 131.501C303.534 131.964 302.956 132.261 302.309 132.261C301.329 132.261 300.51 131.583 300.287 130.673L287.425 127.41C287.044 127.829 286.496 128.095 285.885 128.095C285.089 128.095 284.396 127.647 284.046 126.989H271.32C270.97 127.647 270.279 128.095 269.481 128.095C269.255 128.095 269.038 128.057 268.834 127.99L264.524 132.139C264.576 132.32 264.606 132.512 264.606 132.71C264.606 133.861 263.675 134.793 262.523 134.793C261.374 134.793 260.44 133.861 260.44 132.71C260.44 132.661 260.444 132.613 260.447 132.564L254.543 128.872C253.049 130.424 252.494 132.946 251.884 137.436C250.644 128.321 249.639 127.316 240.524 126.076C249.639 124.837 250.644 123.831 251.884 114.717C253.123 123.831 254.129 124.837 263.243 126.076C260.046 126.511 257.848 126.918 256.286 127.655L261.483 130.905C261.789 130.729 262.144 130.627 262.523 130.627C262.748 130.627 262.965 130.664 263.168 130.73L267.479 126.58C267.427 126.399 267.398 126.209 267.398 126.012C267.398 124.861 268.33 123.929 269.481 123.929C270.277 123.929 270.969 124.377 271.319 125.033H284.047C284.397 124.376 285.089 123.929 285.885 123.929C286.863 123.929 287.682 124.605 287.905 125.515L300.769 128.777C301.149 128.359 301.697 128.095 302.309 128.095C303.253 128.095 304.048 128.724 304.304 129.584L311.801 131.11C311.859 131.004 311.922 130.901 311.991 130.802L308.177 125.977C308.056 125.998 307.932 126.012 307.806 126.012C306.656 126.012 305.723 125.08 305.723 123.929C305.723 123.694 305.763 123.47 305.834 123.26L293.129 109.748C292.955 109.795 292.772 109.823 292.583 109.823C291.434 109.823 290.5 108.891 290.5 107.74C290.5 107.158 290.741 106.634 291.125 106.257C289.976 100.161 288.154 99.265 280.282 98.1943C284.681 97.5961 287.19 97.0516 288.749 95.625L282.107 84.9971C282.06 85.0003 282.012 85.0049 281.964 85.0049C280.815 85.0049 279.881 84.0738 279.881 82.9229C279.881 82.2512 280.201 81.6545 280.695 81.2734L279.562 74.5195C279.329 74.4414 279.106 74.322 278.904 74.1572C278.378 73.7262 278.119 73.0906 278.146 72.459L275.262 70.7676C274.526 71.2204 273.556 71.184 272.85 70.6064C271.96 69.8779 271.83 68.565 272.559 67.6748C272.84 67.3327 273.207 67.1029 273.604 66.9912L274.306 63.7568C273.44 63.024 273.32 61.7297 274.041 60.8486C274.678 60.0702 275.763 59.8721 276.62 60.3232L280.859 57.4355C280.801 56.8987 280.949 56.3396 281.318 55.8887ZM378.902 67.2139C380.142 76.3284 381.147 77.3336 390.262 78.5732C389.75 78.6429 389.263 78.7126 388.801 78.7822L444.664 86.8311C447.603 85.4725 448.313 82.9808 449.123 77.0244C450.363 86.1388 451.368 87.1442 460.482 88.3838C457.491 88.7906 455.374 89.1748 453.835 89.8262L470.597 98.3418C470.935 98.1037 471.348 97.9629 471.793 97.9629C472.943 97.9629 473.876 98.8956 473.876 100.046C473.876 100.607 473.653 101.115 473.292 101.489L475.837 109.282C476.329 107.819 476.659 105.906 477.006 103.357C478.246 112.472 479.25 113.477 488.365 114.717C479.25 115.956 478.246 116.962 477.006 126.076C475.766 116.962 474.761 115.956 465.646 114.717C469.884 114.14 472.367 113.613 473.938 112.3C474.026 111.939 474.208 111.615 474.457 111.355L471.433 102.096C470.467 101.927 469.73 101.095 469.712 100.085L451.917 91.0449C450.321 92.5843 449.752 95.1208 449.123 99.7432C447.883 90.6288 446.879 89.6234 437.765 88.3838C438.468 88.2881 439.124 88.1925 439.734 88.0957L383.623 80.0117C380.464 81.344 379.736 83.8035 378.902 89.9326C377.663 80.8182 376.657 79.8129 367.543 78.5732C376.657 77.3336 377.663 76.3284 378.902 67.2139ZM284.182 58.8711C283.541 59.3542 282.671 59.4285 281.958 59.0518L277.722 61.9375C277.782 62.4759 277.634 63.0369 277.264 63.4893C276.982 63.8331 276.614 64.0616 276.216 64.1729L275.514 67.4053C276.024 67.8356 276.274 68.4594 276.249 69.0811L279.134 70.7725C279.87 70.3194 280.839 70.3556 281.545 70.9346C281.888 71.2155 282.117 71.5835 282.229 71.9805L284.542 72.4854C285.134 71.7866 286.093 71.5745 286.904 71.8994L289.838 69.4297C289.711 68.8321 289.846 68.1843 290.263 67.6748C290.345 67.5743 290.436 67.4843 290.532 67.4033L289.49 62.54C289.224 62.4643 288.969 62.3355 288.741 62.1494C288.269 61.7627 288.013 61.211 287.983 60.6455L284.182 58.8711ZM358.309 25.168C417.214 25.5083 472.475 41.2276 520.282 68.5127L530.91 50.1055C479.977 21.0116 421.086 4.25694 358.309 3.91602V25.168ZM354.398 3.91602C291.622 4.25715 232.732 21.0112 181.799 50.1045L192.426 68.5117C240.232 41.2269 295.493 25.5086 354.398 25.168V3.91602Z" fill="url(#paint0_linear_58_5702)"/>
<defs>
<linearGradient id="paint0_linear_58_5702" x1="356" y1="-238" x2="356" y2="798" gradientUnits="userSpaceOnUse">
<stop stop-color="#CFE7FF"/>
<stop offset="0.8125" stop-color="#6265FE"/>
</linearGradient>
</defs>
</svg>
