<svg width="552" height="562" viewBox="0 0 552 562" fill="none" xmlns="http://www.w3.org/2000/svg">
<path d="M350.887 154.72L243.161 154.531L233.894 135.524L350.919 135.725" stroke="#CFE7FF" stroke-width="4" stroke-miterlimit="10" stroke-linecap="round" stroke-linejoin="round"/>
<path d="M350.849 175.202L258.183 175.038L250.492 154.543" stroke="#CFE7FF" stroke-width="4" stroke-miterlimit="10" stroke-linecap="round" stroke-linejoin="round"/>
<path d="M350.724 246.497L281.22 246.371C281.22 246.371 289.957 231.972 263.921 175.038" stroke="#CFE7FF" stroke-width="4" stroke-miterlimit="10" stroke-linecap="round" stroke-linejoin="round"/>
<path d="M346.261 498.313L308.587 498.25C308.587 498.25 189.21 376.679 199.669 325.621C210.127 274.563 257.964 246.333 257.964 246.333L417.473 246.617C417.473 246.617 465.209 275.017 475.485 326.107C485.761 377.196 365.955 498.344 365.955 498.344L328.281 498.275" stroke="#CFE7FF" stroke-width="4" stroke-miterlimit="10" stroke-linecap="round" stroke-linejoin="round"/>
<path d="M346.236 512.472L308.562 512.409L308.588 498.25" stroke="#CFE7FF" stroke-width="4" stroke-miterlimit="10" stroke-linecap="round" stroke-linejoin="round"/>
<path d="M346.19 537.758L264.267 537.613L272.45 521.317L308.56 512.409" stroke="#CFE7FF" stroke-width="4" stroke-miterlimit="10" stroke-linecap="round" stroke-linejoin="round"/>
<path d="M218.448 283.73L346.638 283.956" stroke="#CFE7FF" stroke-width="4" stroke-miterlimit="10" stroke-linecap="round" stroke-linejoin="round"/>
<path d="M225.403 396.418L346.438 396.632" stroke="#CFE7FF" stroke-width="4" stroke-miterlimit="10" stroke-linecap="round" stroke-linejoin="round"/>
<path d="M394.476 362.003L443.932 362.091L443.995 325.653L430.826 325.627L430.542 348.071L411.138 348.039L411.453 306.526L457.543 306.608L457.449 362.116L468.468 362.135" stroke="#CFE7FF" stroke-width="4" stroke-miterlimit="10" stroke-linecap="round" stroke-linejoin="round"/>
<path d="M336.835 135.706L453.861 135.908L444.524 154.884L336.804 154.695" stroke="#CFE7FF" stroke-width="4" stroke-miterlimit="10" stroke-linecap="round" stroke-linejoin="round"/>
<path d="M336.767 175.177L429.439 175.341L437.193 154.871" stroke="#CFE7FF" stroke-width="4" stroke-miterlimit="10" stroke-linecap="round" stroke-linejoin="round"/>
<path d="M336.642 246.472L406.146 246.591C406.146 246.591 397.458 232.167 423.697 175.322" stroke="#CFE7FF" stroke-width="4" stroke-miterlimit="10" stroke-linecap="round" stroke-linejoin="round"/>
<path d="M328.249 512.441L365.923 512.51L365.948 498.35" stroke="#CFE7FF" stroke-width="4" stroke-miterlimit="10" stroke-linecap="round" stroke-linejoin="round"/>
<path d="M328.205 537.727L410.122 537.872L402.002 521.55L365.923 512.51" stroke="#CFE7FF" stroke-width="4" stroke-miterlimit="10" stroke-linecap="round" stroke-linejoin="round"/>
<path d="M456.843 284.152L328.653 283.925" stroke="#CFE7FF" stroke-width="4" stroke-miterlimit="10" stroke-linecap="round" stroke-linejoin="round"/>
<path d="M449.492 396.815L328.457 396.6" stroke="#CFE7FF" stroke-width="4" stroke-miterlimit="10" stroke-linecap="round" stroke-linejoin="round"/>
<path d="M437.004 261.772C437.004 261.772 459.39 200.697 516.645 226.317C575.382 252.599 561.563 423.185 431.034 422.952" stroke="#CFE7FF" stroke-width="4" stroke-miterlimit="10" stroke-linecap="round" stroke-linejoin="round"/>
<path d="M394.476 362.003L394.57 306.501L348.48 306.419L348.165 347.925L367.569 347.957L367.853 325.514L381.022 325.539L380.96 361.978L331.503 361.889" stroke="#CFE7FF" stroke-width="4" stroke-miterlimit="10" stroke-linecap="round" stroke-linejoin="round"/>
<path d="M331.503 361.889L331.598 306.387L285.508 306.305L285.192 347.812L304.597 347.85L304.88 325.407L318.05 325.426L317.987 361.87L268.53 361.782" stroke="#CFE7FF" stroke-width="4" stroke-miterlimit="10" stroke-linecap="round" stroke-linejoin="round"/>
<path d="M268.531 361.782L268.626 306.274L222.535 306.192L222.22 347.705L241.625 347.736L241.908 325.293L255.078 325.319L255.015 361.757L207.821 361.675" stroke="#CFE7FF" stroke-width="4" stroke-miterlimit="10" stroke-linecap="round" stroke-linejoin="round"/>
<path d="M46.7473 404.424C25.7164 419.838 24.3736 446.713 24.3736 446.713C24.3736 446.713 23.0309 419.844 2 404.424C23.0309 389.01 24.3736 362.135 24.3736 362.135C24.3736 362.135 25.7101 389.004 46.7473 404.424Z" stroke="#CFE7FF" stroke-width="4" stroke-miterlimit="10" stroke-linecap="round" stroke-linejoin="round"/>
<path d="M512.799 146.884C491.768 162.298 490.425 189.172 490.425 189.172C490.425 189.172 489.083 162.304 468.052 146.884C489.083 131.464 490.425 104.595 490.425 104.595C490.425 104.595 491.768 131.464 512.799 146.884Z" stroke="#CFE7FF" stroke-width="4" stroke-miterlimit="10" stroke-linecap="round" stroke-linejoin="round"/>
<path d="M256.817 479.646C234.128 459.372 198.78 460.771 177.838 483.857C155.546 508.437 116.914 508.437 94.6155 483.857C72.3238 459.277 33.6916 459.277 11.3936 483.857" stroke="#CFE7FF" stroke-width="4" stroke-miterlimit="10" stroke-linecap="round" stroke-linejoin="round"/>
<path d="M254.239 507.788C231.55 487.514 196.202 488.913 175.26 511.999C152.968 536.579 114.335 536.579 92.0374 511.999C69.7457 487.419 31.1135 487.419 8.81543 511.999" stroke="#CFE7FF" stroke-width="4" stroke-miterlimit="10" stroke-linecap="round" stroke-linejoin="round"/>
<path d="M254.239 537.21C231.55 516.935 196.202 518.335 175.26 541.421C152.968 566.001 114.335 566.001 92.0374 541.421C69.7457 516.841 31.1135 516.841 8.81543 541.421" stroke="#CFE7FF" stroke-width="4" stroke-miterlimit="10" stroke-linecap="round" stroke-linejoin="round"/>
<path d="M284.613 135.524L283.869 133.62C271.532 102.067 241.12 81.3009 207.241 81.3009H182.289C115.137 81.3009 60.6934 135.744 60.6934 202.897V465.424" stroke="#CFE7FF" stroke-width="4" stroke-miterlimit="10" stroke-linecap="round" stroke-linejoin="round"/>
<path d="M80.2744 310.321V471.091" stroke="#CFE7FF" stroke-width="4" stroke-miterlimit="10" stroke-linecap="round" stroke-linejoin="round"/>
<path d="M105.206 408.673V491.094" stroke="#CFE7FF" stroke-width="4" stroke-miterlimit="10" stroke-linecap="round" stroke-linejoin="round"/>
<path d="M129.982 357.092V500.702" stroke="#CFE7FF" stroke-width="4" stroke-miterlimit="10" stroke-linecap="round" stroke-linejoin="round"/>
<path d="M154.001 407.986V498.25" stroke="#CFE7FF" stroke-width="4" stroke-miterlimit="10" stroke-linecap="round" stroke-linejoin="round"/>
<path d="M233.894 135.524C205.387 135.524 182.275 158.635 182.275 187.143V478.429" stroke="#CFE7FF" stroke-width="4" stroke-miterlimit="10" stroke-linecap="round" stroke-linejoin="round"/>
<path d="M383.356 97.3452C391.564 97.3452 399.11 94.6911 405.162 90.2151C394.962 107.463 376.226 118.988 354.836 118.988C322.501 118.988 296.301 92.7872 296.301 60.5347C296.301 28.2004 322.501 2 354.836 2C376.226 2 394.968 13.5243 405.162 30.7726C399.11 26.2966 391.564 23.6425 383.356 23.6425C362.962 23.6425 346.457 40.1406 346.457 60.5411C346.457 80.847 362.955 97.3452 383.356 97.3452Z" stroke="#CFE7FF" stroke-width="4" stroke-miterlimit="10" stroke-linecap="round" stroke-linejoin="round"/>
</svg>
