<svg width="636" height="514" viewBox="0 0 636 514" fill="none" xmlns="http://www.w3.org/2000/svg">
<path d="M236.597 306.124C218.099 299.756 209.235 281.946 209.235 281.946C209.235 281.946 203.71 224.15 202.48 206.233C201.213 188.273 206.738 183.091 206.738 183.091C280.147 175.263 304.519 126.912 304.519 126.912" stroke="#CFE7FF" stroke-width="4" stroke-miterlimit="10" stroke-linecap="round" stroke-linejoin="round"/>
<path d="M202.469 206.212C186.625 193.148 164.358 191.22 146.505 201.368L113.57 220.081L148.712 245.558C162.28 255.395 179.902 257.703 195.543 251.69L206.024 247.663" stroke="#CFE7FF" stroke-width="4" stroke-miterlimit="10" stroke-linecap="round" stroke-linejoin="round"/>
<path d="M206.738 183.097C206.738 183.097 192.515 99.8882 147.708 96.1512C102.901 92.4195 92.2317 165.491 88.5001 183.097C84.7684 200.703 70.1584 316.605 70.1584 316.605" stroke="#CFE7FF" stroke-width="4" stroke-miterlimit="10" stroke-linecap="round" stroke-linejoin="round"/>
<path d="M102.052 133.124C102.052 133.124 122.891 54.5335 196.262 64.6654C228.457 69.1166 253.29 81.7023 270.977 94.3685" stroke="#CFE7FF" stroke-width="4" stroke-miterlimit="10" stroke-linecap="round" stroke-linejoin="round"/>
<path d="M158.382 251.008L119.535 357.933C107.255 391.732 59.5326 391.958 46.9308 358.282L2.00024 238.213L67.7423 313.824C81.4609 329.604 105.381 331.258 121.14 317.512L140.287 300.819" stroke="#CFE7FF" stroke-width="4" stroke-miterlimit="10" stroke-linecap="round" stroke-linejoin="round"/>
<path d="M259.986 358.362L261.216 355.135C268.883 334.995 284.572 318.941 304.53 310.811L317.685 254.987" stroke="#CFE7FF" stroke-width="4" stroke-miterlimit="10" stroke-linecap="round" stroke-linejoin="round"/>
<path d="M317.684 361.433C317.684 350.765 306.484 353.519 295.992 351.119C285.501 348.719 288.835 335.118 288.835 335.118C288.835 335.118 281.06 338.05 281.946 356.81C282.837 375.571 298.124 356.81 307.37 361.433C316.616 366.056 317.684 373.525 317.684 373.525" stroke="#CFE7FF" stroke-width="4" stroke-miterlimit="10" stroke-linecap="round" stroke-linejoin="round"/>
<path d="M243.217 261.687C249.347 261.687 254.315 256.719 254.315 250.589C254.315 244.46 249.347 239.491 243.217 239.491C237.088 239.491 232.119 244.46 232.119 250.589C232.119 256.719 237.088 261.687 243.217 261.687Z" stroke="#CFE7FF" stroke-width="4" stroke-miterlimit="10" stroke-linecap="round" stroke-linejoin="round"/>
<path d="M74.2229 293.184L105.526 324.487" stroke="#CFE7FF" stroke-width="4" stroke-miterlimit="10" stroke-linecap="round" stroke-linejoin="round"/>
<path d="M80.1882 248.844L136.083 304.739" stroke="#CFE7FF" stroke-width="4" stroke-miterlimit="10" stroke-linecap="round" stroke-linejoin="round"/>
<path d="M85.187 203.543L151.525 269.881" stroke="#CFE7FF" stroke-width="4" stroke-miterlimit="10" stroke-linecap="round" stroke-linejoin="round"/>
<path d="M93.1179 161.174L138.091 206.147" stroke="#CFE7FF" stroke-width="4" stroke-miterlimit="10" stroke-linecap="round" stroke-linejoin="round"/>
<path d="M105.526 123.282L177.148 194.904" stroke="#CFE7FF" stroke-width="4" stroke-miterlimit="10" stroke-linecap="round" stroke-linejoin="round"/>
<path d="M131.277 98.7284L204.236 171.687" stroke="#CFE7FF" stroke-width="4" stroke-miterlimit="10" stroke-linecap="round" stroke-linejoin="round"/>
<path d="M209.31 379.378L158.387 317.099L190.657 253.279" stroke="#CFE7FF" stroke-width="4" stroke-miterlimit="10" stroke-linecap="round" stroke-linejoin="round"/>
<path d="M330.882 126.912C330.882 126.912 355.21 175.3 428.663 183.129C428.663 183.129 434.15 188.273 432.921 206.233C431.691 224.193 426.166 281.983 426.166 281.983C426.166 281.983 417.264 299.751 398.766 306.162" stroke="#CFE7FF" stroke-width="4" stroke-miterlimit="10" stroke-linecap="round" stroke-linejoin="round"/>
<path d="M432.92 206.222C448.765 193.159 471.031 191.231 488.884 201.379L521.82 220.091L486.678 245.569C473.109 255.405 455.487 257.714 439.846 251.7L429.365 247.673" stroke="#CFE7FF" stroke-width="4" stroke-miterlimit="10" stroke-linecap="round" stroke-linejoin="round"/>
<path d="M428.652 183.113C428.652 183.113 442.875 99.9043 487.682 96.1673C532.489 92.4356 543.158 165.507 546.89 183.113C550.622 200.713 565.232 316.621 565.232 316.621" stroke="#CFE7FF" stroke-width="4" stroke-miterlimit="10" stroke-linecap="round" stroke-linejoin="round"/>
<path d="M364.424 94.4061C382.078 81.7023 406.906 69.1542 439.138 64.703C512.472 54.5711 533.311 133.162 533.311 133.162" stroke="#CFE7FF" stroke-width="4" stroke-miterlimit="10" stroke-linecap="round" stroke-linejoin="round"/>
<path d="M477.014 251.019L515.861 357.943C528.141 391.743 575.864 391.969 588.466 358.292L633.396 238.223L567.654 313.834C553.935 329.615 530.015 331.269 514.256 317.523L495.109 300.83" stroke="#CFE7FF" stroke-width="4" stroke-miterlimit="10" stroke-linecap="round" stroke-linejoin="round"/>
<path d="M375.405 358.373L374.176 355.146C366.508 335.006 350.819 318.951 330.861 310.822L317.706 254.997" stroke="#CFE7FF" stroke-width="4" stroke-miterlimit="10" stroke-linecap="round" stroke-linejoin="round"/>
<path d="M317.706 373.536C317.706 373.536 309.813 418.139 286.746 418.139" stroke="#CFE7FF" stroke-width="4" stroke-miterlimit="10" stroke-linecap="round" stroke-linejoin="round"/>
<path d="M317.706 361.444C317.706 350.775 328.907 353.53 339.398 351.13C349.89 348.73 346.556 335.129 346.556 335.129C346.556 335.129 354.33 338.061 353.445 356.821C352.553 375.582 337.267 356.821 328.021 361.444C318.775 366.067 317.706 373.536 317.706 373.536" stroke="#CFE7FF" stroke-width="4" stroke-miterlimit="10" stroke-linecap="round" stroke-linejoin="round"/>
<path d="M392.178 261.698C398.308 261.698 403.277 256.729 403.277 250.6C403.277 244.47 398.308 239.501 392.178 239.501C386.049 239.501 381.08 244.47 381.08 250.6C381.08 256.729 386.049 261.698 392.178 261.698Z" stroke="#CFE7FF" stroke-width="4" stroke-miterlimit="10" stroke-linecap="round" stroke-linejoin="round"/>
<path d="M561.166 293.195L529.863 324.498" stroke="#CFE7FF" stroke-width="4" stroke-miterlimit="10" stroke-linecap="round" stroke-linejoin="round"/>
<path d="M555.201 248.855L499.306 304.749" stroke="#CFE7FF" stroke-width="4" stroke-miterlimit="10" stroke-linecap="round" stroke-linejoin="round"/>
<path d="M550.203 203.554L483.87 269.892" stroke="#CFE7FF" stroke-width="4" stroke-miterlimit="10" stroke-linecap="round" stroke-linejoin="round"/>
<path d="M542.272 161.184L497.299 206.158" stroke="#CFE7FF" stroke-width="4" stroke-miterlimit="10" stroke-linecap="round" stroke-linejoin="round"/>
<path d="M529.863 123.293L458.241 194.915" stroke="#CFE7FF" stroke-width="4" stroke-miterlimit="10" stroke-linecap="round" stroke-linejoin="round"/>
<path d="M504.112 98.7445L431.159 171.698" stroke="#CFE7FF" stroke-width="4" stroke-miterlimit="10" stroke-linecap="round" stroke-linejoin="round"/>
<path d="M314.366 181.287L297.533 169.314L309.829 185.916L272.528 189.352L309.893 192.391L297.925 209.229L314.522 196.928L317.958 245.52L320.997 196.869L337.835 208.837L325.539 192.241L362.84 188.804L325.475 185.76L337.443 168.927L320.847 181.223L317.41 132.636L314.366 181.287Z" stroke="#CFE7FF" stroke-width="4" stroke-miterlimit="10" stroke-linecap="round" stroke-linejoin="round"/>
<path d="M364.424 94.4061C341.862 110.562 330.881 126.912 330.881 126.912H304.518C304.518 126.912 293.543 110.562 270.976 94.3685L317.678 2L364.424 94.4061Z" stroke="#CFE7FF" stroke-width="4" stroke-miterlimit="10" stroke-linecap="round" stroke-linejoin="round"/>
<path d="M444.739 253.317L477.014 317.099L426.091 379.415" stroke="#CFE7FF" stroke-width="4" stroke-miterlimit="10" stroke-linecap="round" stroke-linejoin="round"/>
<path d="M426.091 379.415L317.722 512L209.31 379.378L236.597 306.119L260.007 358.346L286.757 418.133C286.757 418.133 296.159 430.606 317.69 430.606H317.727C339.215 430.606 348.66 418.171 348.66 418.171L375.41 358.384L398.783 306.156L426.091 379.415Z" stroke="#CFE7FF" stroke-width="4" stroke-miterlimit="10" stroke-linecap="round" stroke-linejoin="round"/>
<path d="M332.821 99.0613C336.622 99.0613 340.112 97.8317 342.915 95.7592C338.196 103.743 329.524 109.075 319.623 109.075C304.659 109.075 292.53 96.9512 292.53 82.0191C292.53 67.0548 304.653 54.9255 319.623 54.9255C329.524 54.9255 338.196 60.2572 342.915 68.2414C340.112 66.1688 336.622 64.9392 332.821 64.9392C323.382 64.9392 315.746 72.5744 315.746 82.0137C315.741 91.4261 323.382 99.0613 332.821 99.0613Z" stroke="#CFE7FF" stroke-width="4" stroke-miterlimit="10" stroke-linecap="round" stroke-linejoin="round"/>
<path d="M518.809 219.646H433.222C399.825 219.646 369.177 238.138 353.606 267.68L330.866 310.817" stroke="#CFE7FF" stroke-width="4" stroke-miterlimit="10" stroke-linecap="round" stroke-linejoin="round"/>
<path d="M317.685 373.536C317.685 373.536 325.578 418.139 348.644 418.139" stroke="#CFE7FF" stroke-width="4" stroke-miterlimit="10" stroke-linecap="round" stroke-linejoin="round"/>
<path d="M268.007 31.7353C253.215 42.576 252.27 61.4707 252.27 61.4707C252.27 61.4707 251.325 42.576 236.532 31.7353C251.325 20.8947 252.27 2 252.27 2C252.27 2 253.215 20.8947 268.007 31.7353Z" stroke="#CFE7FF" stroke-width="4" stroke-miterlimit="10" stroke-linecap="round" stroke-linejoin="round"/>
<path d="M162.049 401.741C147.256 412.582 146.311 431.476 146.311 431.476C146.311 431.476 145.366 412.582 130.574 401.741C145.366 390.9 146.311 372.006 146.311 372.006C146.311 372.006 147.256 390.9 162.049 401.741Z" stroke="#CFE7FF" stroke-width="4" stroke-miterlimit="10" stroke-linecap="round" stroke-linejoin="round"/>
<path d="M504.86 401.741C490.067 412.582 489.122 431.476 489.122 431.476C489.122 431.476 488.177 412.582 473.385 401.741C488.177 390.9 489.122 372.006 489.122 372.006C489.122 372.006 490.067 390.9 504.86 401.741Z" stroke="#CFE7FF" stroke-width="4" stroke-miterlimit="10" stroke-linecap="round" stroke-linejoin="round"/>
<path d="M115.336 219.646H200.923C234.32 219.646 264.968 238.138 280.539 267.68L303.278 310.817" stroke="#CFE7FF" stroke-width="4" stroke-miterlimit="10" stroke-linecap="round" stroke-linejoin="round"/>
</svg>
