<svg width="521" height="563" viewBox="0 0 521 563" fill="none" xmlns="http://www.w3.org/2000/svg">
<path d="M149.945 412.504C147.722 409.841 145.454 407.1 143.23 404.237" stroke="#CFE7FF" stroke-width="4" stroke-miterlimit="10" stroke-linecap="round" stroke-linejoin="round"/>
<path d="M126.903 380.4C125.991 378.849 125.074 377.342 124.201 375.791" stroke="#CFE7FF" stroke-width="4" stroke-miterlimit="10" stroke-linecap="round" stroke-linejoin="round"/>
<path d="M112.082 349.446C111.287 347.1 110.57 344.838 109.975 342.575" stroke="#CFE7FF" stroke-width="4" stroke-miterlimit="10" stroke-linecap="round" stroke-linejoin="round"/>
<path d="M109.219 313.968C109.658 312.539 110.214 311.105 110.887 309.754C111.443 308.603 112.038 307.447 112.677 306.335" stroke="#CFE7FF" stroke-width="4" stroke-miterlimit="10" stroke-linecap="round" stroke-linejoin="round"/>
<path d="M112.677 306.341C106.401 299.864 102.587 291.042 102.587 281.308C102.587 261.362 118.798 245.151 138.783 245.151C148.678 245.151 157.617 249.126 164.171 255.603C144.703 265.692 125.752 281.586 112.677 306.341Z" stroke="#CFE7FF" stroke-width="4" stroke-miterlimit="10" stroke-linecap="round" stroke-linejoin="round"/>
<path d="M124.201 375.791C122.572 376.23 120.782 376.386 118.998 376.186C110.893 375.391 104.972 368.158 105.806 360.092C106.245 355.6 108.624 351.826 112.082 349.446C115.023 358.068 119.231 367.008 124.201 375.791Z" stroke="#CFE7FF" stroke-width="4" stroke-miterlimit="10" stroke-linecap="round" stroke-linejoin="round"/>
<path d="M170.609 433.245C167.707 435.507 163.971 436.741 160.002 436.341C151.897 435.507 146.015 428.314 146.81 420.208C147.088 417.268 148.239 414.644 149.951 412.498C157.178 421.003 164.372 428.236 170.609 433.245Z" stroke="#CFE7FF" stroke-width="4" stroke-miterlimit="10" stroke-linecap="round" stroke-linejoin="round"/>
<path d="M109.975 342.575C102.743 341.024 97.7396 334.231 98.4956 326.721C99.1294 320.483 103.543 315.558 109.225 313.968C106.64 322.19 107.235 332.046 109.975 342.575Z" stroke="#CFE7FF" stroke-width="4" stroke-miterlimit="10" stroke-linecap="round" stroke-linejoin="round"/>
<path d="M126.903 380.399C131.912 388.744 137.51 396.81 143.236 404.237C141.012 405.193 138.505 405.627 135.925 405.388C127.82 404.554 121.939 397.322 122.734 389.255C123.089 385.764 124.635 382.701 126.903 380.399Z" stroke="#CFE7FF" stroke-width="4" stroke-miterlimit="10" stroke-linecap="round" stroke-linejoin="round"/>
<path d="M104.199 316.514L53.1997 300.648C53.1997 300.648 53.1996 332.496 104.199 339.857" stroke="#CFE7FF" stroke-width="4" stroke-miterlimit="10" stroke-linecap="round" stroke-linejoin="round"/>
<path d="M53.1941 300.648L70.5942 220.018L78.6939 308.581L53.1941 300.648Z" stroke="#CFE7FF" stroke-width="4" stroke-miterlimit="10" stroke-linecap="round" stroke-linejoin="round"/>
<path d="M115.006 375.213L31.3857 382.984C31.3857 382.984 55.4957 350.447 106.929 353.604" stroke="#CFE7FF" stroke-width="4" stroke-miterlimit="10" stroke-linecap="round" stroke-linejoin="round"/>
<path d="M31.3802 382.984L13.1963 450.422L57.9641 380.399L31.3802 382.984Z" stroke="#CFE7FF" stroke-width="4" stroke-miterlimit="10" stroke-linecap="round" stroke-linejoin="round"/>
<path d="M136.426 405.56L59.5762 437.125C59.5762 437.125 73.1015 398.956 123.212 386.92" stroke="#CFE7FF" stroke-width="4" stroke-miterlimit="10" stroke-linecap="round" stroke-linejoin="round"/>
<path d="M59.5762 437.125L61.9275 506.937L84.2364 426.874L59.5762 437.125Z" stroke="#CFE7FF" stroke-width="4" stroke-miterlimit="10" stroke-linecap="round" stroke-linejoin="round"/>
<path d="M146.81 420.209C146.81 420.209 73.196 456.104 85.2315 490.07L160.002 436.341" stroke="#CFE7FF" stroke-width="4" stroke-miterlimit="10" stroke-linecap="round" stroke-linejoin="round"/>
<path d="M85.2261 490.07L102.532 514.186C102.532 514.186 118.17 509.427 110.442 471.953" stroke="#CFE7FF" stroke-width="4" stroke-miterlimit="10" stroke-linecap="round" stroke-linejoin="round"/>
<path d="M102.52 513.352C102.287 519.906 102.115 526.511 103.243 532.97C104.372 539.43 106.896 545.801 111.426 550.543C115.668 554.984 121.449 557.747 127.431 559.137C133.413 560.527 139.628 560.61 145.759 560.299C148.622 560.154 151.747 559.804 153.765 557.77C155.321 556.196 155.899 553.923 156.244 551.738C158.24 539.146 154.293 525.743 145.787 516.243C137.282 506.742 124.401 501.339 111.665 501.928" stroke="#CFE7FF" stroke-width="4" stroke-miterlimit="10" stroke-linecap="round" stroke-linejoin="round"/>
<path d="M102.587 281.308C102.587 281.308 66.2136 198.966 111.882 186.263L128.326 246.697" stroke="#CFE7FF" stroke-width="4" stroke-miterlimit="10" stroke-linecap="round" stroke-linejoin="round"/>
<path d="M111.882 186.263C111.882 186.263 150.446 73.9687 249.115 145.948L204.503 154.065C204.503 154.065 190.944 157.361 185.791 171.721C185.791 171.721 187.425 231.253 118.681 211.241" stroke="#CFE7FF" stroke-width="4" stroke-miterlimit="10" stroke-linecap="round" stroke-linejoin="round"/>
<path d="M120.26 217.072C120.26 217.072 144.547 233.399 183.945 215.354C223.343 197.309 239.17 166.934 239.17 166.934L185.424 177.563" stroke="#CFE7FF" stroke-width="4" stroke-miterlimit="10" stroke-linecap="round" stroke-linejoin="round"/>
<path d="M260.5 130.372C295.949 130.372 324.686 101.635 324.686 66.1858C324.686 30.737 295.949 2 260.5 2C225.051 2 196.314 30.737 196.314 66.1858C196.314 101.635 225.051 130.372 260.5 130.372Z" stroke="#CFE7FF" stroke-width="4" stroke-miterlimit="10" stroke-linecap="round" stroke-linejoin="round"/>
<path d="M280.457 109.541C304.881 109.541 324.68 89.7422 324.68 65.3185C324.68 40.8949 304.881 21.0956 280.457 21.0956C256.034 21.0956 236.234 40.8949 236.234 65.3185C236.234 89.7422 256.034 109.541 280.457 109.541Z" stroke="#CFE7FF" stroke-width="4" stroke-miterlimit="10" stroke-linecap="round" stroke-linejoin="round"/>
<path d="M350.386 433.245C344.349 438.092 339.223 440.911 335.804 440.911C316.492 440.911 204.497 440.911 185.185 440.911C181.766 440.911 176.64 438.092 170.603 433.245" stroke="#CFE7FF" stroke-width="4" stroke-miterlimit="10" stroke-linecap="round" stroke-linejoin="round"/>
<path d="M377.765 404.237C375.541 407.1 373.273 409.841 371.049 412.504" stroke="#CFE7FF" stroke-width="4" stroke-miterlimit="10" stroke-linecap="round" stroke-linejoin="round"/>
<path d="M396.793 375.791C395.92 377.342 395.003 378.849 394.092 380.4" stroke="#CFE7FF" stroke-width="4" stroke-miterlimit="10" stroke-linecap="round" stroke-linejoin="round"/>
<path d="M411.019 342.575C410.425 344.838 409.708 347.106 408.913 349.446" stroke="#CFE7FF" stroke-width="4" stroke-miterlimit="10" stroke-linecap="round" stroke-linejoin="round"/>
<path d="M408.317 306.341C408.951 307.453 409.552 308.603 410.108 309.76C410.78 311.111 411.342 312.539 411.775 313.974" stroke="#CFE7FF" stroke-width="4" stroke-miterlimit="10" stroke-linecap="round" stroke-linejoin="round"/>
<path d="M356.823 255.603C317.57 235.139 203.424 235.139 164.171 255.603" stroke="#CFE7FF" stroke-width="4" stroke-miterlimit="10" stroke-linecap="round" stroke-linejoin="round"/>
<path d="M408.318 306.341C414.594 299.864 418.407 291.042 418.407 281.308C418.407 261.362 402.197 245.151 382.212 245.151C372.317 245.151 363.377 249.126 356.823 255.603C376.291 265.692 395.242 281.586 408.318 306.341Z" stroke="#CFE7FF" stroke-width="4" stroke-miterlimit="10" stroke-linecap="round" stroke-linejoin="round"/>
<path d="M396.793 375.791C398.422 376.23 400.212 376.386 401.997 376.186C410.102 375.391 416.023 368.158 415.189 360.092C414.75 355.6 412.365 351.826 408.913 349.446C405.972 358.068 401.763 367.013 396.793 375.791Z" stroke="#CFE7FF" stroke-width="4" stroke-miterlimit="10" stroke-linecap="round" stroke-linejoin="round"/>
<path d="M350.386 433.245C353.288 435.507 357.023 436.741 360.993 436.341C369.098 435.507 374.979 428.314 374.184 420.208C373.906 417.268 372.756 414.644 371.044 412.498C363.817 421.003 356.623 428.236 350.386 433.245Z" stroke="#CFE7FF" stroke-width="4" stroke-miterlimit="10" stroke-linecap="round" stroke-linejoin="round"/>
<path d="M411.02 342.575C418.252 341.024 423.255 334.231 422.499 326.721C421.865 320.483 417.451 315.558 411.77 313.968C414.355 322.195 413.76 332.046 411.02 342.575Z" stroke="#CFE7FF" stroke-width="4" stroke-miterlimit="10" stroke-linecap="round" stroke-linejoin="round"/>
<path d="M394.092 380.399C389.083 388.744 383.485 396.81 377.759 404.237C379.983 405.193 382.49 405.627 385.069 405.388C393.175 404.554 399.056 397.322 398.261 389.255C397.905 385.764 396.36 382.707 394.092 380.399Z" stroke="#CFE7FF" stroke-width="4" stroke-miterlimit="10" stroke-linecap="round" stroke-linejoin="round"/>
<path d="M416.795 316.514L467.795 300.648C467.795 300.648 467.795 332.496 416.795 339.857" stroke="#CFE7FF" stroke-width="4" stroke-miterlimit="10" stroke-linecap="round" stroke-linejoin="round"/>
<path d="M467.8 300.648L450.4 220.018L442.301 308.581L467.8 300.648Z" stroke="#CFE7FF" stroke-width="4" stroke-miterlimit="10" stroke-linecap="round" stroke-linejoin="round"/>
<path d="M405.988 375.213L489.609 382.984C489.609 382.984 465.499 350.447 414.066 353.604" stroke="#CFE7FF" stroke-width="4" stroke-miterlimit="10" stroke-linecap="round" stroke-linejoin="round"/>
<path d="M489.615 382.984L507.799 450.428L463.031 380.399L489.615 382.984Z" stroke="#CFE7FF" stroke-width="4" stroke-miterlimit="10" stroke-linecap="round" stroke-linejoin="round"/>
<path d="M384.308 405.455L461.418 437.125C461.418 437.125 447.893 398.956 397.783 386.92" stroke="#CFE7FF" stroke-width="4" stroke-miterlimit="10" stroke-linecap="round" stroke-linejoin="round"/>
<path d="M461.418 437.131L459.067 506.937L436.758 426.88L461.418 437.131Z" stroke="#CFE7FF" stroke-width="4" stroke-miterlimit="10" stroke-linecap="round" stroke-linejoin="round"/>
<path d="M374.184 420.214C374.184 420.214 447.798 456.11 435.763 490.076L360.992 436.347" stroke="#CFE7FF" stroke-width="4" stroke-miterlimit="10" stroke-linecap="round" stroke-linejoin="round"/>
<path d="M435.769 490.07L418.463 514.186C418.463 514.186 402.825 509.427 410.552 471.953" stroke="#CFE7FF" stroke-width="4" stroke-miterlimit="10" stroke-linecap="round" stroke-linejoin="round"/>
<path d="M418.474 513.352C418.708 519.906 418.88 526.511 417.751 532.97C416.623 539.43 414.099 545.801 409.568 550.543C405.327 554.984 399.545 557.747 393.564 559.137C387.582 560.527 381.372 560.61 375.235 560.299C372.372 560.154 369.248 559.804 367.23 557.77C365.673 556.196 365.095 553.923 364.751 551.738C362.755 539.146 366.702 525.743 375.207 516.243C383.707 506.742 396.593 501.339 409.329 501.928" stroke="#CFE7FF" stroke-width="4" stroke-miterlimit="10" stroke-linecap="round" stroke-linejoin="round"/>
<path d="M418.407 281.308C418.407 281.308 454.781 198.966 409.113 186.263L392.669 246.697" stroke="#CFE7FF" stroke-width="4" stroke-miterlimit="10" stroke-linecap="round" stroke-linejoin="round"/>
<path d="M409.112 186.263C409.112 186.263 370.549 73.9687 271.879 145.948L316.492 154.065C316.492 154.065 330.05 157.361 335.204 171.721C335.204 171.721 333.569 231.253 402.314 211.241" stroke="#CFE7FF" stroke-width="4" stroke-miterlimit="10" stroke-linecap="round" stroke-linejoin="round"/>
<path d="M400.735 217.072C400.735 217.072 376.447 233.399 337.049 215.354C297.657 197.309 281.825 166.934 281.825 166.934L335.57 177.563" stroke="#CFE7FF" stroke-width="4" stroke-miterlimit="10" stroke-linecap="round" stroke-linejoin="round"/>
<path d="M257.137 328.999L233.683 312.322L250.816 335.448L198.838 340.24L250.905 344.476L234.222 367.936L257.348 350.802L262.14 418.507L266.382 350.713L289.836 367.391L272.702 344.265L324.68 339.473L272.613 335.237L289.296 311.777L266.165 328.911L261.378 261.206L257.137 328.999Z" stroke="#CFE7FF" stroke-width="4" stroke-miterlimit="10" stroke-linecap="round" stroke-linejoin="round"/>
<path d="M199.383 297.574C182.833 309.704 181.777 330.845 181.777 330.845C181.777 330.845 180.721 309.704 164.171 297.574C180.721 285.444 181.777 264.302 181.777 264.302C181.777 264.302 182.833 285.444 199.383 297.574Z" stroke="#CFE7FF" stroke-width="4" stroke-miterlimit="10" stroke-linecap="round" stroke-linejoin="round"/>
<path d="M348.551 392.93C332.002 405.06 330.945 426.201 330.945 426.201C330.945 426.201 329.889 405.06 313.34 392.93C329.889 380.8 330.945 359.659 330.945 359.659C330.945 359.659 332.002 380.8 348.551 392.93Z" stroke="#CFE7FF" stroke-width="4" stroke-miterlimit="10" stroke-linecap="round" stroke-linejoin="round"/>
<path d="M112.082 349.446H178.052" stroke="#CFE7FF" stroke-width="4" stroke-miterlimit="10" stroke-linecap="round" stroke-linejoin="round"/>
<path d="M126.903 380.399H161.486" stroke="#CFE7FF" stroke-width="4" stroke-miterlimit="10" stroke-linecap="round" stroke-linejoin="round"/>
<path d="M143.23 404.237H155.966" stroke="#CFE7FF" stroke-width="4" stroke-miterlimit="10" stroke-linecap="round" stroke-linejoin="round"/>
<path d="M411.775 313.968H356.823" stroke="#CFE7FF" stroke-width="4" stroke-miterlimit="10" stroke-linecap="round" stroke-linejoin="round"/>
<path d="M408.913 349.452H371.049" stroke="#CFE7FF" stroke-width="4" stroke-miterlimit="10" stroke-linecap="round" stroke-linejoin="round"/>
<path d="M394.092 380.399H379.443" stroke="#CFE7FF" stroke-width="4" stroke-miterlimit="10" stroke-linecap="round" stroke-linejoin="round"/>
<path d="M222.281 229.38C228.839 229.38 234.155 224.064 234.155 217.506C234.155 210.948 228.839 205.631 222.281 205.631C215.723 205.631 210.407 210.948 210.407 217.506C210.407 224.064 215.723 229.38 222.281 229.38Z" stroke="#CFE7FF" stroke-width="4" stroke-miterlimit="10" stroke-linecap="round" stroke-linejoin="round"/>
<path d="M298.714 229.38C305.272 229.38 310.588 224.064 310.588 217.506C310.588 210.948 305.272 205.631 298.714 205.631C292.156 205.631 286.839 210.948 286.839 217.506C286.839 224.064 292.156 229.38 298.714 229.38Z" stroke="#CFE7FF" stroke-width="4" stroke-miterlimit="10" stroke-linecap="round" stroke-linejoin="round"/>
<path d="M182.561 57.8361C166.039 43.071 140.306 44.0939 125.057 60.9047C108.824 78.7996 80.7006 78.7996 64.4679 60.9047C48.2352 43.0099 20.1116 43.0099 3.87891 60.9047" stroke="#CFE7FF" stroke-width="4" stroke-miterlimit="10" stroke-linecap="round" stroke-linejoin="round"/>
<path d="M180.682 78.3269C164.16 63.5618 138.427 64.5847 123.178 81.3955C106.945 99.2904 78.8218 99.2904 62.5892 81.3955C46.3565 63.5007 18.2327 63.5007 2 81.3955" stroke="#CFE7FF" stroke-width="4" stroke-miterlimit="10" stroke-linecap="round" stroke-linejoin="round"/>
<path d="M180.682 99.7464C164.16 84.9813 138.427 86.0042 123.178 102.815C106.945 120.71 78.8218 120.71 62.5892 102.815C46.3565 84.9202 18.2327 84.9202 2 102.815" stroke="#CFE7FF" stroke-width="4" stroke-miterlimit="10" stroke-linecap="round" stroke-linejoin="round"/>
<path d="M519 60.8769C502.478 46.1118 476.745 47.1347 461.496 63.9456C445.264 81.8404 417.14 81.8404 400.907 63.9456C384.675 46.0507 356.551 46.0507 340.318 63.9456" stroke="#CFE7FF" stroke-width="4" stroke-miterlimit="10" stroke-linecap="round" stroke-linejoin="round"/>
<path d="M517.121 81.3678C500.599 66.6027 474.866 67.6256 459.617 84.4364C443.385 102.331 415.261 102.331 399.028 84.4364C382.796 66.5415 354.672 66.5415 338.439 84.4364" stroke="#CFE7FF" stroke-width="4" stroke-miterlimit="10" stroke-linecap="round" stroke-linejoin="round"/>
<path d="M517.121 102.787C500.599 88.0223 474.866 89.0451 459.617 105.856C443.385 123.751 415.261 123.751 399.028 105.856C382.796 87.9611 354.672 87.9611 338.439 105.856" stroke="#CFE7FF" stroke-width="4" stroke-miterlimit="10" stroke-linecap="round" stroke-linejoin="round"/>
</svg>
