<svg width="400" height="571" viewBox="0 0 400 571" fill="none" xmlns="http://www.w3.org/2000/svg">
<path d="M158.115 487.853L179.3 516.675H199.828V537.694" stroke="#CFE7FF" stroke-width="4" stroke-miterlimit="10" stroke-linecap="round" stroke-linejoin="round"/>
<path d="M199.807 263.061H189.58" stroke="#CFE7FF" stroke-width="4" stroke-miterlimit="10" stroke-linecap="round" stroke-linejoin="round"/>
<path d="M145.327 283.701C145.327 283.701 116.815 305.429 113.281 321.5C113.046 322.536 112.902 323.619 112.902 324.612C112.902 340.827 121.101 350.157 121.101 350.157C121.101 350.157 125.766 410.108 126.662 429.29C127.559 448.425 148.53 460.349 148.53 460.349" stroke="#CFE7FF" stroke-width="4" stroke-miterlimit="10" stroke-linecap="round" stroke-linejoin="round"/>
<path d="M170.033 445.452C171.181 449.552 174.613 452.588 178.13 454.985C181.648 457.381 185.496 459.452 188.261 462.692C191.943 467.016 193.235 473.26 191.57 478.694" stroke="#CFE7FF" stroke-width="4" stroke-miterlimit="10" stroke-linecap="round" stroke-linejoin="round"/>
<path d="M171.529 449.578C169.469 455.727 170.776 462.89 174.87 467.923C178.964 472.956 185.716 475.678 192.158 474.91" stroke="#CFE7FF" stroke-width="4" stroke-miterlimit="10" stroke-linecap="round" stroke-linejoin="round"/>
<path d="M179.299 516.675C179.299 516.675 174.848 521.234 173.978 534.252C173.103 547.27 199.827 568.646 199.827 568.646" stroke="#CFE7FF" stroke-width="4" stroke-miterlimit="10" stroke-linecap="round" stroke-linejoin="round"/>
<path d="M186.889 531.962L192.157 516.675" stroke="#CFE7FF" stroke-width="4" stroke-miterlimit="10" stroke-linecap="round" stroke-linejoin="round"/>
<path d="M114.146 321.613C114.146 321.613 199.828 316.547 199.828 397.234L148.513 460.339C148.513 460.339 143.71 485.232 168.166 493.532C192.622 501.832 199.828 487.853 199.828 487.853" stroke="#CFE7FF" stroke-width="4" stroke-miterlimit="10" stroke-linecap="round" stroke-linejoin="round"/>
<path d="M141.37 353.808C147.071 353.808 151.693 349.186 151.693 343.485C151.693 337.784 147.071 333.163 141.37 333.163C135.669 333.163 131.048 337.784 131.048 343.485C131.048 349.186 135.669 353.808 141.37 353.808Z" stroke="#CFE7FF" stroke-width="4" stroke-miterlimit="10" stroke-linecap="round" stroke-linejoin="round"/>
<path d="M189.58 263.061L145.322 283.706L107.052 146.512C101.821 127.799 90.0361 111.589 73.8262 100.887L2 53.3304L97.4392 85.7554C121.474 93.911 140.283 112.95 148.198 137.081L189.58 263.061Z" stroke="#CFE7FF" stroke-width="4" stroke-miterlimit="10" stroke-linecap="round" stroke-linejoin="round"/>
<path d="M19.4541 269.487L120.305 308.114M19.4541 269.487C19.4541 269.487 35.9896 343.79 120.305 308.114M19.4541 269.487C108.654 232.584 120.305 308.114 120.305 308.114" stroke="#CFE7FF" stroke-width="4" stroke-miterlimit="10" stroke-linecap="round" stroke-linejoin="round"/>
<path d="M170.563 551.977C87.4903 538.046 24.1934 465.799 24.1934 378.771C24.1934 355.783 28.6074 333.825 36.6403 313.702" stroke="#CFE7FF" stroke-width="4" stroke-miterlimit="10" stroke-linecap="round" stroke-linejoin="round"/>
<path d="M50.016 69.6417L40.7021 78.9501" stroke="#CFE7FF" stroke-width="4" stroke-miterlimit="10" stroke-linecap="round" stroke-linejoin="round"/>
<path d="M103.471 88.0879L83.3223 108.232" stroke="#CFE7FF" stroke-width="4" stroke-miterlimit="10" stroke-linecap="round" stroke-linejoin="round"/>
<path d="M141.462 121.986L109.213 154.235" stroke="#CFE7FF" stroke-width="4" stroke-miterlimit="10" stroke-linecap="round" stroke-linejoin="round"/>
<path d="M160.582 174.768L124.896 210.454" stroke="#CFE7FF" stroke-width="4" stroke-miterlimit="10" stroke-linecap="round" stroke-linejoin="round"/>
<path d="M177.802 229.44L140.578 266.669" stroke="#CFE7FF" stroke-width="4" stroke-miterlimit="10" stroke-linecap="round" stroke-linejoin="round"/>
<path d="M103.29 397.196C83.6584 411.586 82.4041 436.667 82.4041 436.667C82.4041 436.667 81.1497 411.586 61.5186 397.196C81.1497 382.806 82.4041 357.726 82.4041 357.726C82.4041 357.726 83.6584 382.806 103.29 397.196Z" stroke="#CFE7FF" stroke-width="4" stroke-miterlimit="10" stroke-linecap="round" stroke-linejoin="round"/>
<path d="M241.535 487.853L220.351 516.675H199.828V537.694" stroke="#CFE7FF" stroke-width="4" stroke-miterlimit="10" stroke-linecap="round" stroke-linejoin="round"/>
<path d="M210.07 263.061H199.844" stroke="#CFE7FF" stroke-width="4" stroke-miterlimit="10" stroke-linecap="round" stroke-linejoin="round"/>
<path d="M251.119 460.349C251.119 460.349 272.09 448.425 272.987 429.29C273.883 410.108 278.548 350.157 278.548 350.157C278.548 350.157 286.747 340.827 286.747 324.612C286.747 323.625 286.608 322.536 286.368 321.5C282.834 305.429 254.322 283.701 254.322 283.701" stroke="#CFE7FF" stroke-width="4" stroke-miterlimit="10" stroke-linecap="round" stroke-linejoin="round"/>
<path d="M229.62 445.452C228.473 449.552 225.041 452.588 221.523 454.985C218.006 457.381 214.158 459.452 211.393 462.692C207.71 467.016 206.418 473.26 208.084 478.694" stroke="#CFE7FF" stroke-width="4" stroke-miterlimit="10" stroke-linecap="round" stroke-linejoin="round"/>
<path d="M228.122 449.578C230.183 455.727 228.875 462.89 224.781 467.923C220.687 472.956 213.935 475.678 207.493 474.91" stroke="#CFE7FF" stroke-width="4" stroke-miterlimit="10" stroke-linecap="round" stroke-linejoin="round"/>
<path d="M220.35 516.675C220.35 516.675 224.802 521.234 225.672 534.252C226.547 547.27 199.822 568.646 199.822 568.646" stroke="#CFE7FF" stroke-width="4" stroke-miterlimit="10" stroke-linecap="round" stroke-linejoin="round"/>
<path d="M212.761 531.962L207.498 516.675" stroke="#CFE7FF" stroke-width="4" stroke-miterlimit="10" stroke-linecap="round" stroke-linejoin="round"/>
<path d="M285.504 321.613C285.504 321.613 199.822 316.547 199.822 397.234L251.137 460.339C251.137 460.339 255.94 485.232 231.484 493.532C207.028 501.832 199.822 487.853 199.822 487.853" stroke="#CFE7FF" stroke-width="4" stroke-miterlimit="10" stroke-linecap="round" stroke-linejoin="round"/>
<path d="M258.279 353.808C263.98 353.808 268.601 349.186 268.601 343.485C268.601 337.784 263.98 333.163 258.279 333.163C252.578 333.163 247.956 337.784 247.956 343.485C247.956 349.186 252.578 353.808 258.279 353.808Z" stroke="#CFE7FF" stroke-width="4" stroke-miterlimit="10" stroke-linecap="round" stroke-linejoin="round"/>
<path d="M210.07 263.061L254.329 283.706L292.598 146.512C297.829 127.799 309.614 111.589 325.824 100.887L397.65 53.3304L302.211 85.7554C278.176 93.911 259.367 112.95 251.452 137.081L210.07 263.061Z" stroke="#CFE7FF" stroke-width="4" stroke-miterlimit="10" stroke-linecap="round" stroke-linejoin="round"/>
<path d="M380.196 269.487L279.345 308.114M380.196 269.487C380.196 269.487 363.666 343.79 279.345 308.114M380.196 269.487C290.996 232.584 279.345 308.114 279.345 308.114" stroke="#CFE7FF" stroke-width="4" stroke-miterlimit="10" stroke-linecap="round" stroke-linejoin="round"/>
<path d="M229.088 551.977C312.16 538.046 375.457 465.799 375.457 378.771C375.457 355.783 371.043 333.825 363.01 313.702" stroke="#CFE7FF" stroke-width="4" stroke-miterlimit="10" stroke-linecap="round" stroke-linejoin="round"/>
<path d="M349.634 69.6417L358.948 78.9501" stroke="#CFE7FF" stroke-width="4" stroke-miterlimit="10" stroke-linecap="round" stroke-linejoin="round"/>
<path d="M296.185 88.0879L316.328 108.232" stroke="#CFE7FF" stroke-width="4" stroke-miterlimit="10" stroke-linecap="round" stroke-linejoin="round"/>
<path d="M258.188 121.986L290.436 154.235" stroke="#CFE7FF" stroke-width="4" stroke-miterlimit="10" stroke-linecap="round" stroke-linejoin="round"/>
<path d="M239.069 174.768L274.756 210.454" stroke="#CFE7FF" stroke-width="4" stroke-miterlimit="10" stroke-linecap="round" stroke-linejoin="round"/>
<path d="M221.85 229.44L259.078 266.669" stroke="#CFE7FF" stroke-width="4" stroke-miterlimit="10" stroke-linecap="round" stroke-linejoin="round"/>
<path d="M296.361 397.196C315.993 411.586 317.247 436.667 317.247 436.667C317.247 436.667 318.501 411.586 338.132 397.196C318.501 382.806 317.247 357.726 317.247 357.726C317.247 357.726 315.993 382.806 296.361 397.196Z" stroke="#CFE7FF" stroke-width="4" stroke-miterlimit="10" stroke-linecap="round" stroke-linejoin="round"/>
<path d="M201.439 93.7083C226.764 93.7083 247.293 73.1787 247.293 47.8541C247.293 22.5296 226.764 2 201.439 2C176.114 2 155.585 22.5296 155.585 47.8541C155.585 73.1787 176.114 93.7083 201.439 93.7083Z" stroke="#CFE7FF" stroke-width="4" stroke-miterlimit="10" stroke-linecap="round" stroke-linejoin="round"/>
<path d="M247.422 23.2271C262.816 21.4017 273.314 22.7895 275.065 27.8014C278.438 37.4302 248.212 56.7891 207.552 71.0401C166.891 85.2911 131.189 89.0434 127.815 79.4146C125.969 74.1518 134.167 65.9802 148.621 57.3228" stroke="#CFE7FF" stroke-width="4" stroke-miterlimit="10" stroke-linecap="round" stroke-linejoin="round"/>
<path d="M201.44 155.137C212.535 155.137 221.53 146.142 221.53 135.047C221.53 123.951 212.535 114.957 201.44 114.957C190.344 114.957 181.35 123.951 181.35 135.047C181.35 146.142 190.344 155.137 201.44 155.137Z" stroke="#CFE7FF" stroke-width="4" stroke-miterlimit="10" stroke-linecap="round" stroke-linejoin="round"/>
<path d="M201.44 193.62C205.435 193.62 208.673 190.382 208.673 186.388C208.673 182.394 205.435 179.156 201.44 179.156C197.446 179.156 194.208 182.394 194.208 186.388C194.208 190.382 197.446 193.62 201.44 193.62Z" stroke="#CFE7FF" stroke-width="4" stroke-miterlimit="10" stroke-linecap="round" stroke-linejoin="round"/>
</svg>
