<svg width="497" height="662" viewBox="0 0 497 662" fill="none" xmlns="http://www.w3.org/2000/svg">
<path d="M248.296 421.678C248.296 421.678 212.729 426.017 199.024 399.823M199.024 399.823C199.024 399.823 165.193 430.877 164.672 455.683C164.152 480.489 201.101 502.525 201.101 502.525L248.289 484.828V462.625C248.289 462.625 199.371 416.825 199.024 399.823ZM199.024 399.823C198.677 382.82 248.289 326.96 248.289 326.96" stroke="#CFE7FF" stroke-width="4" stroke-miterlimit="10" stroke-linecap="round" stroke-linejoin="round"/>
<path d="M248.295 544.507L206.487 527.504L201.106 502.518" stroke="#CFE7FF" stroke-width="4" stroke-miterlimit="10" stroke-linecap="round" stroke-linejoin="round"/>
<path d="M175.185 338.012C181.764 338.012 187.098 332.678 187.098 326.098C187.098 319.519 181.764 314.185 175.185 314.185C168.605 314.185 163.271 319.519 163.271 326.098C163.271 332.678 168.605 338.012 175.185 338.012Z" stroke="#CFE7FF" stroke-width="4" stroke-miterlimit="10" stroke-linecap="round" stroke-linejoin="round"/>
<path d="M248.294 174.528L235.6 157.953C226.935 146.641 211.079 143.796 199.023 151.395" stroke="#CFE7FF" stroke-width="4" stroke-miterlimit="10" stroke-linecap="round" stroke-linejoin="round"/>
<path d="M229.712 193.743L202.302 157.953C193.637 146.641 177.781 143.796 165.725 151.395L134.045 171.366" stroke="#CFE7FF" stroke-width="4" stroke-miterlimit="10" stroke-linecap="round" stroke-linejoin="round"/>
<path d="M194.059 231.231C194.059 231.231 159.589 152.895 102.154 174.522C102.154 174.522 69.8416 213.844 88.4618 261.957" stroke="#CFE7FF" stroke-width="4" stroke-miterlimit="10" stroke-linecap="round" stroke-linejoin="round"/>
<path d="M116.683 193.743C116.683 193.743 143.746 189.447 160.63 219.398" stroke="#CFE7FF" stroke-width="4" stroke-miterlimit="10" stroke-linecap="round" stroke-linejoin="round"/>
<path d="M85.2271 272.488C85.2271 272.488 91.4751 236.171 134.052 223.334C176.629 210.497 197.351 234.262 197.351 234.262L138.887 292.496C218.804 292.496 208.719 377.83 208.719 377.83" stroke="#CFE7FF" stroke-width="4" stroke-miterlimit="10" stroke-linecap="round" stroke-linejoin="round"/>
<path d="M143.975 519.639C143.975 519.639 130.326 588.572 172.655 616.328C214.984 644.085 248.295 659.817 248.295 659.817" stroke="#CFE7FF" stroke-width="4" stroke-miterlimit="10" stroke-linecap="round" stroke-linejoin="round"/>
<path d="M116.219 465.049C116.219 465.049 62.714 571.049 160.594 605.717" stroke="#CFE7FF" stroke-width="4" stroke-miterlimit="10" stroke-linecap="round" stroke-linejoin="round"/>
<path d="M93.5512 412.312C93.5512 412.312 23.3104 477.105 105.613 553.885" stroke="#CFE7FF" stroke-width="4" stroke-miterlimit="10" stroke-linecap="round" stroke-linejoin="round"/>
<path d="M90.7738 356.799C90.7738 356.799 22.6032 397.889 65.6205 479.857" stroke="#CFE7FF" stroke-width="4" stroke-miterlimit="10" stroke-linecap="round" stroke-linejoin="round"/>
<path d="M138.886 292.49C138.886 292.49 46.331 304.106 53.8621 407.936" stroke="#CFE7FF" stroke-width="4" stroke-miterlimit="10" stroke-linecap="round" stroke-linejoin="round"/>
<path d="M104.423 265.893C104.423 265.893 47.6082 273.188 61.0402 352.814" stroke="#CFE7FF" stroke-width="4" stroke-miterlimit="10" stroke-linecap="round" stroke-linejoin="round"/>
<path d="M60.2344 314.185L2 418.325L85.2266 531.161" stroke="#CFE7FF" stroke-width="4" stroke-miterlimit="10" stroke-linecap="round" stroke-linejoin="round"/>
<path d="M248.296 421.678C248.296 421.678 283.863 426.017 297.567 399.823M297.567 399.823C297.567 399.823 331.399 430.877 331.919 455.683C332.44 480.489 295.491 502.525 295.491 502.525L248.302 484.828V462.625C248.302 462.625 297.22 416.825 297.567 399.823ZM297.567 399.823C297.915 382.82 248.302 326.96 248.302 326.96" stroke="#CFE7FF" stroke-width="4" stroke-miterlimit="10" stroke-linecap="round" stroke-linejoin="round"/>
<path d="M248.296 544.507L290.111 527.504L295.485 502.518" stroke="#CFE7FF" stroke-width="4" stroke-miterlimit="10" stroke-linecap="round" stroke-linejoin="round"/>
<path d="M321.412 338.012C327.992 338.012 333.326 332.678 333.326 326.098C333.326 319.519 327.992 314.185 321.412 314.185C314.833 314.185 309.499 319.519 309.499 326.098C309.499 332.678 314.833 338.012 321.412 338.012Z" stroke="#CFE7FF" stroke-width="4" stroke-miterlimit="10" stroke-linecap="round" stroke-linejoin="round"/>
<path d="M248.296 174.528L260.99 157.953C269.656 146.641 285.511 143.796 297.567 151.395" stroke="#CFE7FF" stroke-width="4" stroke-miterlimit="10" stroke-linecap="round" stroke-linejoin="round"/>
<path d="M266.878 193.743L294.288 157.953C302.953 146.641 318.809 143.796 330.865 151.395L362.545 171.366" stroke="#CFE7FF" stroke-width="4" stroke-miterlimit="10" stroke-linecap="round" stroke-linejoin="round"/>
<path d="M302.538 231.231C302.538 231.231 337.008 152.895 394.443 174.522C394.443 174.522 426.755 213.844 408.135 261.957" stroke="#CFE7FF" stroke-width="4" stroke-miterlimit="10" stroke-linecap="round" stroke-linejoin="round"/>
<path d="M379.913 193.743C379.913 193.743 352.851 189.447 335.966 219.398" stroke="#CFE7FF" stroke-width="4" stroke-miterlimit="10" stroke-linecap="round" stroke-linejoin="round"/>
<path d="M411.37 272.488C411.37 272.488 405.122 236.171 362.545 223.334C319.961 210.497 299.246 234.262 299.246 234.262L357.71 292.496C277.793 292.496 287.878 377.83 287.878 377.83" stroke="#CFE7FF" stroke-width="4" stroke-miterlimit="10" stroke-linecap="round" stroke-linejoin="round"/>
<path d="M352.616 519.639C352.616 519.639 366.265 588.572 323.936 616.328C281.606 644.085 248.296 659.817 248.296 659.817" stroke="#CFE7FF" stroke-width="4" stroke-miterlimit="10" stroke-linecap="round" stroke-linejoin="round"/>
<path d="M380.372 465.049C380.372 465.049 433.877 571.049 335.997 605.717" stroke="#CFE7FF" stroke-width="4" stroke-miterlimit="10" stroke-linecap="round" stroke-linejoin="round"/>
<path d="M403.04 412.312C403.04 412.312 473.281 477.105 390.978 553.885" stroke="#CFE7FF" stroke-width="4" stroke-miterlimit="10" stroke-linecap="round" stroke-linejoin="round"/>
<path d="M405.817 356.799C405.817 356.799 473.987 397.889 430.97 479.857" stroke="#CFE7FF" stroke-width="4" stroke-miterlimit="10" stroke-linecap="round" stroke-linejoin="round"/>
<path d="M357.704 292.49C357.704 292.49 450.259 304.106 442.728 407.936" stroke="#CFE7FF" stroke-width="4" stroke-miterlimit="10" stroke-linecap="round" stroke-linejoin="round"/>
<path d="M392.167 265.893C392.167 265.893 448.982 273.188 435.55 352.814" stroke="#CFE7FF" stroke-width="4" stroke-miterlimit="10" stroke-linecap="round" stroke-linejoin="round"/>
<path d="M436.356 314.185L494.597 418.325L411.37 531.161" stroke="#CFE7FF" stroke-width="4" stroke-miterlimit="10" stroke-linecap="round" stroke-linejoin="round"/>
<path d="M248.004 109.996C265.874 109.996 280.36 95.5093 280.36 77.6396C280.36 59.77 265.874 45.2837 248.004 45.2837C230.134 45.2837 215.648 59.77 215.648 77.6396C215.648 95.5093 230.134 109.996 248.004 109.996Z" stroke="#CFE7FF" stroke-width="4" stroke-miterlimit="10" stroke-linecap="round" stroke-linejoin="round"/>
<path d="M248.004 2V38.5151" stroke="#CFE7FF" stroke-width="4" stroke-miterlimit="10" stroke-linecap="round" stroke-linejoin="round"/>
<path d="M248.004 116.77V153.285" stroke="#CFE7FF" stroke-width="4" stroke-miterlimit="10" stroke-linecap="round" stroke-linejoin="round"/>
<path d="M323.643 77.6397H287.134" stroke="#CFE7FF" stroke-width="4" stroke-miterlimit="10" stroke-linecap="round" stroke-linejoin="round"/>
<path d="M208.873 77.6397H172.364" stroke="#CFE7FF" stroke-width="4" stroke-miterlimit="10" stroke-linecap="round" stroke-linejoin="round"/>
<path d="M301.491 24.1532L275.674 49.976" stroke="#CFE7FF" stroke-width="4" stroke-miterlimit="10" stroke-linecap="round" stroke-linejoin="round"/>
<path d="M220.334 105.31L194.518 131.126" stroke="#CFE7FF" stroke-width="4" stroke-miterlimit="10" stroke-linecap="round" stroke-linejoin="round"/>
<path d="M301.491 131.126L275.674 105.31" stroke="#CFE7FF" stroke-width="4" stroke-miterlimit="10" stroke-linecap="round" stroke-linejoin="round"/>
<path d="M220.334 49.976L194.518 24.1532" stroke="#CFE7FF" stroke-width="4" stroke-miterlimit="10" stroke-linecap="round" stroke-linejoin="round"/>
<path d="M262.458 41.2795L270.913 20.0064" stroke="#CFE7FF" stroke-width="4" stroke-miterlimit="10" stroke-linecap="round" stroke-linejoin="round"/>
<path d="M225.095 135.279L233.549 114" stroke="#CFE7FF" stroke-width="4" stroke-miterlimit="10" stroke-linecap="round" stroke-linejoin="round"/>
<path d="M284.365 92.0945L305.638 100.555" stroke="#CFE7FF" stroke-width="4" stroke-miterlimit="10" stroke-linecap="round" stroke-linejoin="round"/>
<path d="M190.371 54.7302L211.644 63.1849" stroke="#CFE7FF" stroke-width="4" stroke-miterlimit="10" stroke-linecap="round" stroke-linejoin="round"/>
<path d="M283.936 62.1498L304.961 53.0876" stroke="#CFE7FF" stroke-width="4" stroke-miterlimit="10" stroke-linecap="round" stroke-linejoin="round"/>
<path d="M191.047 102.192L212.072 93.1295" stroke="#CFE7FF" stroke-width="4" stroke-miterlimit="10" stroke-linecap="round" stroke-linejoin="round"/>
<path d="M263.494 113.572L272.556 134.597" stroke="#CFE7FF" stroke-width="4" stroke-miterlimit="10" stroke-linecap="round" stroke-linejoin="round"/>
<path d="M223.453 20.6883L232.515 41.7134" stroke="#CFE7FF" stroke-width="4" stroke-miterlimit="10" stroke-linecap="round" stroke-linejoin="round"/>
<path d="M248.296 300.207C263.93 300.207 276.604 287.533 276.604 271.899C276.604 256.265 263.93 243.591 248.296 243.591C232.661 243.591 219.987 256.265 219.987 271.899C219.987 287.533 232.661 300.207 248.296 300.207Z" stroke="#CFE7FF" stroke-width="4" stroke-miterlimit="10" stroke-linecap="round" stroke-linejoin="round"/>
<path d="M68.6268 261.963C51.5501 274.478 50.4592 296.29 50.4592 296.29C50.4592 296.29 49.3682 274.478 32.2915 261.963C49.3682 249.448 50.4592 227.636 50.4592 227.636C50.4592 227.636 51.5501 249.442 68.6268 261.963Z" stroke="#CFE7FF" stroke-width="4" stroke-miterlimit="10" stroke-linecap="round" stroke-linejoin="round"/>
<path d="M463.71 261.963C446.633 274.478 445.542 296.29 445.542 296.29C445.542 296.29 444.451 274.478 427.375 261.963C444.451 249.448 445.542 227.636 445.542 227.636C445.542 227.636 446.633 249.442 463.71 261.963Z" stroke="#CFE7FF" stroke-width="4" stroke-miterlimit="10" stroke-linecap="round" stroke-linejoin="round"/>
</svg>
