<svg width="576" height="651" viewBox="0 0 576 651" fill="none" xmlns="http://www.w3.org/2000/svg">
<path d="M288.735 648.467H193.961V640.132H288.735" stroke="#CFE7FF" stroke-width="4" stroke-miterlimit="10" stroke-linecap="round" stroke-linejoin="round"/>
<path d="M273.379 604.588L200.984 640.132" stroke="#CFE7FF" stroke-width="4" stroke-miterlimit="10" stroke-linecap="round" stroke-linejoin="round"/>
<path d="M288.735 604.588H262.413V590.986H288.735" stroke="#CFE7FF" stroke-width="4" stroke-miterlimit="10" stroke-linecap="round" stroke-linejoin="round"/>
<path d="M266.8 590.986L279.964 415.436C279.964 415.436 291.592 386.477 279.964 361.03L266.8 342.598V294.77L257.147 282.043C257.147 282.043 259.704 271.516 272.358 267.56V231.035C272.358 231.035 254.901 223.052 254.901 212.279C254.901 201.507 273.167 193.848 273.167 193.848H287.57" stroke="#CFE7FF" stroke-width="4" stroke-miterlimit="10" stroke-linecap="round" stroke-linejoin="round"/>
<path d="M272.358 267.574H287.57" stroke="#CFE7FF" stroke-width="4" stroke-miterlimit="10" stroke-linecap="round" stroke-linejoin="round"/>
<path d="M272.358 231.042H287.57" stroke="#CFE7FF" stroke-width="4" stroke-miterlimit="10" stroke-linecap="round" stroke-linejoin="round"/>
<path d="M266.8 342.605H287.57" stroke="#CFE7FF" stroke-width="4" stroke-miterlimit="10" stroke-linecap="round" stroke-linejoin="round"/>
<path d="M279.963 415.443H288.735" stroke="#CFE7FF" stroke-width="4" stroke-miterlimit="10" stroke-linecap="round" stroke-linejoin="round"/>
<path d="M279.963 361.03H287.569" stroke="#CFE7FF" stroke-width="4" stroke-miterlimit="10" stroke-linecap="round" stroke-linejoin="round"/>
<path d="M273.16 193.861H48.0664L58.2694 206.363L260.141 222.681" stroke="#CFE7FF" stroke-width="4" stroke-miterlimit="10" stroke-linecap="round" stroke-linejoin="round"/>
<path d="M81.3651 229.286C81.3651 241.854 71.1754 252.051 58.6007 252.051C46.0325 252.051 35.8364 241.861 35.8364 229.286C35.8364 216.711 46.0259 206.522 58.6007 206.522" stroke="#CFE7FF" stroke-width="4" stroke-miterlimit="10" stroke-linecap="round" stroke-linejoin="round"/>
<path d="M317.907 122.196C317.907 115.438 315.721 109.23 312.037 104.248C326.235 112.642 335.722 128.066 335.722 145.675C335.722 172.296 314.157 193.861 287.603 193.861C260.983 193.861 239.417 172.296 239.417 145.675C239.417 128.066 248.905 112.642 263.103 104.248C259.419 109.23 257.233 115.438 257.233 122.196C257.233 138.984 270.814 152.566 287.603 152.566C304.325 152.566 317.907 138.984 317.907 122.196Z" stroke="#CFE7FF" stroke-width="4" stroke-miterlimit="10" stroke-linecap="round" stroke-linejoin="round"/>
<path d="M283.568 60.6601L263.274 46.2236L278.102 66.2385L233.129 70.3793L278.175 74.0497L263.745 94.3429L283.753 79.5222L287.9 138.103L291.564 79.4427L311.864 93.8792L297.037 73.8642L342.009 69.7169L296.964 66.053L311.394 45.7599L291.385 60.5806L287.238 2L283.568 60.6601Z" stroke="#CFE7FF" stroke-width="4" stroke-miterlimit="10" stroke-linecap="round" stroke-linejoin="round"/>
<path d="M2.00049 518.989L58.6001 252.051" stroke="#CFE7FF" stroke-width="4" stroke-miterlimit="10" stroke-linecap="round" stroke-linejoin="round"/>
<path d="M64.0853 518.989H2.0398C2.0398 518.989 -1.67704 577.344 64.0853 577.344" stroke="#CFE7FF" stroke-width="4" stroke-miterlimit="10" stroke-linecap="round" stroke-linejoin="round"/>
<path d="M126.171 518.989L69.5713 252.051" stroke="#CFE7FF" stroke-width="4" stroke-miterlimit="10" stroke-linecap="round" stroke-linejoin="round"/>
<path d="M64.0859 518.989H126.132C126.132 518.989 129.848 577.344 64.0859 577.344" stroke="#CFE7FF" stroke-width="4" stroke-miterlimit="10" stroke-linecap="round" stroke-linejoin="round"/>
<path d="M65.3975 356.862V505.387" stroke="#CFE7FF" stroke-width="4" stroke-miterlimit="10" stroke-linecap="round" stroke-linejoin="round"/>
<path d="M65.3973 491.567C65.3973 491.567 42.7986 478.621 39.0685 460.634C35.3385 442.646 65.3973 356.862 65.3973 356.862" stroke="#CFE7FF" stroke-width="4" stroke-miterlimit="10" stroke-linecap="round" stroke-linejoin="round"/>
<path d="M39.7979 446.317L65.3977 474.673" stroke="#CFE7FF" stroke-width="4" stroke-miterlimit="10" stroke-linecap="round" stroke-linejoin="round"/>
<path d="M43.9653 426.461L65.398 450.206" stroke="#CFE7FF" stroke-width="4" stroke-miterlimit="10" stroke-linecap="round" stroke-linejoin="round"/>
<path d="M49.332 409.043L65.3982 426.845" stroke="#CFE7FF" stroke-width="4" stroke-miterlimit="10" stroke-linecap="round" stroke-linejoin="round"/>
<path d="M55.3472 390.426L65.3977 401.556" stroke="#CFE7FF" stroke-width="4" stroke-miterlimit="10" stroke-linecap="round" stroke-linejoin="round"/>
<path d="M65.3975 491.567C65.3975 491.567 87.9962 478.621 91.7262 460.634C95.4563 442.646 65.3975 356.862 65.3975 356.862" stroke="#CFE7FF" stroke-width="4" stroke-miterlimit="10" stroke-linecap="round" stroke-linejoin="round"/>
<path d="M91.0042 446.317L65.3975 474.673" stroke="#CFE7FF" stroke-width="4" stroke-miterlimit="10" stroke-linecap="round" stroke-linejoin="round"/>
<path d="M86.837 426.461L65.3975 450.206" stroke="#CFE7FF" stroke-width="4" stroke-miterlimit="10" stroke-linecap="round" stroke-linejoin="round"/>
<path d="M81.4705 409.043L65.3975 426.845" stroke="#CFE7FF" stroke-width="4" stroke-miterlimit="10" stroke-linecap="round" stroke-linejoin="round"/>
<path d="M75.4546 390.426L65.3975 401.556" stroke="#CFE7FF" stroke-width="4" stroke-miterlimit="10" stroke-linecap="round" stroke-linejoin="round"/>
<path d="M286.675 648.467H381.456V640.132H286.675" stroke="#CFE7FF" stroke-width="4" stroke-miterlimit="10" stroke-linecap="round" stroke-linejoin="round"/>
<path d="M302.032 604.588L374.433 640.132" stroke="#CFE7FF" stroke-width="4" stroke-miterlimit="10" stroke-linecap="round" stroke-linejoin="round"/>
<path d="M286.675 604.588H313.004V590.986H286.675" stroke="#CFE7FF" stroke-width="4" stroke-miterlimit="10" stroke-linecap="round" stroke-linejoin="round"/>
<path d="M308.618 590.986L295.454 415.436C295.454 415.436 283.826 386.477 295.454 361.03L308.618 342.598V294.77L318.271 282.043C318.271 282.043 315.714 271.516 303.06 267.56V231.035C303.06 231.035 320.517 223.052 320.517 212.279C320.517 201.507 302.251 193.848 302.251 193.848H287.848" stroke="#CFE7FF" stroke-width="4" stroke-miterlimit="10" stroke-linecap="round" stroke-linejoin="round"/>
<path d="M303.06 267.574H287.848" stroke="#CFE7FF" stroke-width="4" stroke-miterlimit="10" stroke-linecap="round" stroke-linejoin="round"/>
<path d="M303.06 231.042H287.848" stroke="#CFE7FF" stroke-width="4" stroke-miterlimit="10" stroke-linecap="round" stroke-linejoin="round"/>
<path d="M308.618 342.605H287.848" stroke="#CFE7FF" stroke-width="4" stroke-miterlimit="10" stroke-linecap="round" stroke-linejoin="round"/>
<path d="M295.454 415.443H286.675" stroke="#CFE7FF" stroke-width="4" stroke-miterlimit="10" stroke-linecap="round" stroke-linejoin="round"/>
<path d="M295.454 361.03H287.848" stroke="#CFE7FF" stroke-width="4" stroke-miterlimit="10" stroke-linecap="round" stroke-linejoin="round"/>
<path d="M302.25 193.861H527.344L517.147 206.363L315.276 222.681" stroke="#CFE7FF" stroke-width="4" stroke-miterlimit="10" stroke-linecap="round" stroke-linejoin="round"/>
<path d="M494.052 229.286C494.052 241.854 504.242 252.051 516.817 252.051C529.385 252.051 539.581 241.861 539.581 229.286C539.581 216.711 529.391 206.522 516.817 206.522" stroke="#CFE7FF" stroke-width="4" stroke-miterlimit="10" stroke-linecap="round" stroke-linejoin="round"/>
<path d="M573.416 518.989L516.817 252.051" stroke="#CFE7FF" stroke-width="4" stroke-miterlimit="10" stroke-linecap="round" stroke-linejoin="round"/>
<path d="M511.331 518.989H573.377C573.377 518.989 577.093 577.344 511.331 577.344" stroke="#CFE7FF" stroke-width="4" stroke-miterlimit="10" stroke-linecap="round" stroke-linejoin="round"/>
<path d="M449.246 518.989L505.845 252.051" stroke="#CFE7FF" stroke-width="4" stroke-miterlimit="10" stroke-linecap="round" stroke-linejoin="round"/>
<path d="M511.33 518.989H449.285C449.285 518.989 445.568 577.344 511.33 577.344" stroke="#CFE7FF" stroke-width="4" stroke-miterlimit="10" stroke-linecap="round" stroke-linejoin="round"/>
<path d="M511.331 511.105C469.009 489.334 471.97 459.335 471.97 459.335C471.97 448.059 481.113 438.916 492.389 438.916C500.969 438.916 508.323 444.23 511.331 451.716C514.332 444.23 521.693 438.916 530.273 438.916C541.549 438.916 550.692 448.059 550.692 459.335C550.692 459.335 553.614 489.334 511.331 511.105Z" stroke="#CFE7FF" stroke-width="4" stroke-miterlimit="10" stroke-linecap="round" stroke-linejoin="round"/>
<path d="M254.893 533.624C210.908 519.625 179.041 478.436 179.041 429.813C179.041 381.184 210.908 340.001 254.893 325.995" stroke="#CFE7FF" stroke-width="4" stroke-miterlimit="10" stroke-linecap="round" stroke-linejoin="round"/>
<path d="M320.517 325.83C364.773 339.67 396.893 380.992 396.893 429.813C396.893 478.449 365.018 519.645 321.013 533.637" stroke="#CFE7FF" stroke-width="4" stroke-miterlimit="10" stroke-linecap="round" stroke-linejoin="round"/>
<path d="M199.897 288.741C181.644 302.118 180.478 325.432 180.478 325.432C180.478 325.432 179.312 302.118 161.06 288.741C179.312 275.365 180.478 252.051 180.478 252.051C180.478 252.051 181.644 275.365 199.897 288.741Z" stroke="#CFE7FF" stroke-width="4" stroke-miterlimit="10" stroke-linecap="round" stroke-linejoin="round"/>
<path d="M412.29 288.741C394.037 302.118 392.871 325.432 392.871 325.432C392.871 325.432 391.705 302.118 373.453 288.741C391.705 275.365 392.871 252.051 392.871 252.051C392.871 252.051 394.037 275.365 412.29 288.741Z" stroke="#CFE7FF" stroke-width="4" stroke-miterlimit="10" stroke-linecap="round" stroke-linejoin="round"/>
</svg>
