<svg width="590" height="486" viewBox="0 0 590 486" fill="none" xmlns="http://www.w3.org/2000/svg">
<path d="M474.284 75.0327C474.284 75.0327 558.298 154.074 535.079 277.626C511.861 401.177 444.166 445.155 444.166 445.155C444.166 445.155 430.712 480.465 400.208 470.6C400.208 470.6 371.97 491.094 344.232 461.514C321.99 437.796 340.443 415.987 340.443 415.987C340.443 415.987 329.016 395.268 367.969 378.537C367.969 378.537 530.825 255.909 474.284 75.0327Z" stroke="#CFE7FF" stroke-width="4" stroke-miterlimit="10" stroke-linecap="round" stroke-linejoin="round"/>
<path d="M587.147 401.077L561.342 329.607L491.161 393.293" stroke="#CFE7FF" stroke-width="4" stroke-miterlimit="10" stroke-linecap="round" stroke-linejoin="round"/>
<path d="M378.411 368.752L376.962 244.403L444.637 248.917L399.768 349.13" stroke="#CFE7FF" stroke-width="4" stroke-miterlimit="10" stroke-linecap="round" stroke-linejoin="round"/>
<path d="M539.061 240.528C539.061 240.528 554.55 192.641 553.918 184.685C553.293 176.728 527.954 164.803 527.954 164.803" stroke="#CFE7FF" stroke-width="4" stroke-miterlimit="10" stroke-linecap="round" stroke-linejoin="round"/>
<path d="M484.813 161.493C484.813 161.493 465.995 174.468 462.405 184.246C458.816 194.024 470.156 234.705 470.156 234.705" stroke="#CFE7FF" stroke-width="4" stroke-miterlimit="10" stroke-linecap="round" stroke-linejoin="round"/>
<path d="M577.189 373.498L462.232 429.554L568.089 348.292" stroke="#CFE7FF" stroke-width="4" stroke-miterlimit="10" stroke-linecap="round" stroke-linejoin="round"/>
<path d="M587.146 401.077L461.075 431.169" stroke="#CFE7FF" stroke-width="4" stroke-miterlimit="10" stroke-linecap="round" stroke-linejoin="round"/>
<path d="M388.083 358.961L423.459 247.501" stroke="#CFE7FF" stroke-width="4" stroke-miterlimit="10" stroke-linecap="round" stroke-linejoin="round"/>
<path d="M392.961 245.473L385.35 361.786" stroke="#CFE7FF" stroke-width="4" stroke-miterlimit="10" stroke-linecap="round" stroke-linejoin="round"/>
<path d="M474.281 75.0327C474.281 75.0327 429.16 17.0693 338.845 8.28168L419.336 140.714L484.857 133.142" stroke="#CFE7FF" stroke-width="4" stroke-miterlimit="10" stroke-linecap="round" stroke-linejoin="round"/>
<path d="M480.824 100.864C480.824 100.864 442.915 55.5963 365.814 52.6516" stroke="#CFE7FF" stroke-width="4" stroke-miterlimit="10" stroke-linecap="round" stroke-linejoin="round"/>
<path d="M482.784 120.034C482.784 120.034 440.561 94.2762 397.035 104.001" stroke="#CFE7FF" stroke-width="4" stroke-miterlimit="10" stroke-linecap="round" stroke-linejoin="round"/>
<path d="M420.952 460.43C426.026 460.43 430.139 456.317 430.139 451.244C430.139 446.17 426.026 442.057 420.952 442.057C415.879 442.057 411.766 446.17 411.766 451.244C411.766 456.317 415.879 460.43 420.952 460.43Z" stroke="#CFE7FF" stroke-width="4" stroke-miterlimit="10" stroke-linecap="round" stroke-linejoin="round"/>
<path d="M359.279 413.946C364.353 413.946 368.465 409.833 368.465 404.76C368.465 399.686 364.353 395.574 359.279 395.574C354.206 395.574 350.093 399.686 350.093 404.76C350.093 409.833 354.206 413.946 359.279 413.946Z" stroke="#CFE7FF" stroke-width="4" stroke-miterlimit="10" stroke-linecap="round" stroke-linejoin="round"/>
<path d="M114.863 410.762C114.863 410.762 30.8494 331.721 54.068 208.169C77.2866 84.618 144.982 40.6402 144.982 40.6402C144.982 40.6402 158.435 5.33031 188.939 15.1947C188.939 15.1947 217.177 -5.29851 244.915 24.2815C267.157 47.9986 248.704 69.8081 248.704 69.8081C248.704 69.8081 260.131 90.5274 221.178 107.258C221.178 107.258 58.3222 229.886 114.863 410.762Z" stroke="#CFE7FF" stroke-width="4" stroke-miterlimit="10" stroke-linecap="round" stroke-linejoin="round"/>
<path d="M2.00098 84.7177L27.8053 156.188L97.9864 92.5017" stroke="#CFE7FF" stroke-width="4" stroke-miterlimit="10" stroke-linecap="round" stroke-linejoin="round"/>
<path d="M210.737 117.043L212.186 241.385L144.511 236.879L189.379 136.659" stroke="#CFE7FF" stroke-width="4" stroke-miterlimit="10" stroke-linecap="round" stroke-linejoin="round"/>
<path d="M50.0873 245.267C50.0873 245.267 34.5992 293.154 35.2307 301.11C35.8555 309.067 61.1947 320.992 61.1947 320.992" stroke="#CFE7FF" stroke-width="4" stroke-miterlimit="10" stroke-linecap="round" stroke-linejoin="round"/>
<path d="M104.335 324.302C104.335 324.302 123.153 311.32 126.743 301.549C130.332 291.778 118.992 251.09 118.992 251.09" stroke="#CFE7FF" stroke-width="4" stroke-miterlimit="10" stroke-linecap="round" stroke-linejoin="round"/>
<path d="M11.958 112.29L126.915 56.2411L21.0581 137.503" stroke="#CFE7FF" stroke-width="4" stroke-miterlimit="10" stroke-linecap="round" stroke-linejoin="round"/>
<path d="M2.00098 84.7177L128.072 54.626" stroke="#CFE7FF" stroke-width="4" stroke-miterlimit="10" stroke-linecap="round" stroke-linejoin="round"/>
<path d="M201.065 126.834L165.688 238.288" stroke="#CFE7FF" stroke-width="4" stroke-miterlimit="10" stroke-linecap="round" stroke-linejoin="round"/>
<path d="M196.184 240.322L203.795 124.009" stroke="#CFE7FF" stroke-width="4" stroke-miterlimit="10" stroke-linecap="round" stroke-linejoin="round"/>
<path d="M114.865 410.762C114.865 410.762 159.986 468.726 250.301 477.513L169.81 345.081L104.289 352.653" stroke="#CFE7FF" stroke-width="4" stroke-miterlimit="10" stroke-linecap="round" stroke-linejoin="round"/>
<path d="M108.322 384.931C108.322 384.931 146.231 430.199 223.332 433.144" stroke="#CFE7FF" stroke-width="4" stroke-miterlimit="10" stroke-linecap="round" stroke-linejoin="round"/>
<path d="M106.362 365.754C106.362 365.754 148.585 391.512 192.111 381.787" stroke="#CFE7FF" stroke-width="4" stroke-miterlimit="10" stroke-linecap="round" stroke-linejoin="round"/>
<path d="M168.194 43.7379C173.268 43.7379 177.381 39.6249 177.381 34.5514C177.381 29.4778 173.268 25.365 168.194 25.365C163.121 25.365 159.008 29.4778 159.008 34.5514C159.008 39.6249 163.121 43.7379 168.194 43.7379Z" stroke="#CFE7FF" stroke-width="4" stroke-miterlimit="10" stroke-linecap="round" stroke-linejoin="round"/>
<path d="M229.868 90.2148C234.941 90.2148 239.054 86.102 239.054 81.0285C239.054 75.955 234.941 71.8422 229.868 71.8422C224.794 71.8422 220.682 75.955 220.682 81.0285C220.682 86.102 224.794 90.2148 229.868 90.2148Z" stroke="#CFE7FF" stroke-width="4" stroke-miterlimit="10" stroke-linecap="round" stroke-linejoin="round"/>
<path d="M329.874 274.774C337.379 274.774 344.272 272.348 349.803 268.253C340.483 284.014 323.353 294.55 303.804 294.55C274.25 294.55 250.301 270.6 250.301 241.119C250.301 211.566 274.25 187.616 303.804 187.616C323.353 187.616 340.483 198.152 349.803 213.912C344.272 209.818 337.372 207.398 329.874 207.398C311.229 207.398 296.153 222.481 296.153 241.119C296.153 259.692 311.229 274.774 329.874 274.774Z" stroke="#CFE7FF" stroke-width="4" stroke-miterlimit="10" stroke-linecap="round" stroke-linejoin="round"/>
<path d="M300.056 393.945V483.788" stroke="#CFE7FF" stroke-width="4" stroke-miterlimit="10" stroke-linecap="round" stroke-linejoin="round"/>
<path d="M300.056 380.784C305.423 380.784 309.774 376.432 309.774 371.065C309.774 365.698 305.423 361.347 300.056 361.347C294.689 361.347 290.338 365.698 290.338 371.065C290.338 376.432 294.689 380.784 300.056 380.784Z" stroke="#CFE7FF" stroke-width="4" stroke-miterlimit="10" stroke-linecap="round" stroke-linejoin="round"/>
<path d="M300.054 351.024C310.807 351.024 319.524 342.307 319.524 331.554C319.524 320.802 310.807 312.085 300.054 312.085C289.302 312.085 280.585 320.802 280.585 331.554C280.585 342.307 289.302 351.024 300.054 351.024Z" stroke="#CFE7FF" stroke-width="4" stroke-miterlimit="10" stroke-linecap="round" stroke-linejoin="round"/>
<path d="M300.056 91.8436V2" stroke="#CFE7FF" stroke-width="4" stroke-miterlimit="10" stroke-linecap="round" stroke-linejoin="round"/>
<path d="M300.056 124.441C305.423 124.441 309.774 120.09 309.774 114.723C309.774 109.356 305.423 105.005 300.056 105.005C294.689 105.005 290.338 109.356 290.338 114.723C290.338 120.09 294.689 124.441 300.056 124.441Z" stroke="#CFE7FF" stroke-width="4" stroke-miterlimit="10" stroke-linecap="round" stroke-linejoin="round"/>
<path d="M300.054 173.704C310.807 173.704 319.524 164.987 319.524 154.234C319.524 143.481 310.807 134.764 300.054 134.764C289.302 134.764 280.585 143.481 280.585 154.234C280.585 164.987 289.302 173.704 300.054 173.704Z" stroke="#CFE7FF" stroke-width="4" stroke-miterlimit="10" stroke-linecap="round" stroke-linejoin="round"/>
<path d="M249.004 337.57C228.224 352.799 226.902 379.341 226.902 379.341C226.902 379.341 225.579 352.799 204.8 337.57C225.579 322.341 226.902 295.799 226.902 295.799C226.902 295.799 228.231 322.341 249.004 337.57Z" stroke="#CFE7FF" stroke-width="4" stroke-miterlimit="10" stroke-linecap="round" stroke-linejoin="round"/>
<path d="M395.302 157.438C374.523 172.667 373.2 199.209 373.2 199.209C373.2 199.209 371.871 172.667 351.099 157.438C371.878 142.209 373.2 115.667 373.2 115.667C373.2 115.667 374.53 142.209 395.302 157.438Z" stroke="#CFE7FF" stroke-width="4" stroke-miterlimit="10" stroke-linecap="round" stroke-linejoin="round"/>
</svg>
