<svg width="540" height="535" viewBox="0 0 540 535" fill="none" xmlns="http://www.w3.org/2000/svg">
<path d="M269.919 124.404C269.919 124.404 197.433 122.427 159.84 156.06L170.225 177.331C170.225 177.331 190.057 169.373 206.515 165.593C206.515 165.593 229.855 124.447 269.919 162.893" stroke="#CFE7FF" stroke-width="4" stroke-miterlimit="10" stroke-linecap="round" stroke-linejoin="round"/>
<path d="M170.231 177.331L62.9765 239.285C18.4581 261.588 2 227.596 2 227.596C30.6686 252.229 72.1453 227.541 94.9857 193.273L159.841 156.066" stroke="#CFE7FF" stroke-width="4" stroke-miterlimit="10" stroke-linecap="round" stroke-linejoin="round"/>
<path d="M32.6084 246.786L269.92 427.603" stroke="#CFE7FF" stroke-width="4" stroke-miterlimit="10" stroke-linecap="round" stroke-linejoin="round"/>
<path d="M269.92 108.158V477.96" stroke="#CFE7FF" stroke-width="4" stroke-miterlimit="10" stroke-linecap="round" stroke-linejoin="round"/>
<path d="M269.921 432.638L238.955 462.496V533L269.921 497.748" stroke="#CFE7FF" stroke-width="4" stroke-miterlimit="10" stroke-linecap="round" stroke-linejoin="round"/>
<path d="M269.919 449.362L250.202 467.531" stroke="#CFE7FF" stroke-width="4" stroke-miterlimit="10" stroke-linecap="round" stroke-linejoin="round"/>
<path d="M269.921 470.59L254.44 487.134" stroke="#CFE7FF" stroke-width="4" stroke-miterlimit="10" stroke-linecap="round" stroke-linejoin="round"/>
<path d="M269.92 94.9369L236.347 116.523L269.92 20.4733" stroke="#CFE7FF" stroke-width="4" stroke-miterlimit="10" stroke-linecap="round" stroke-linejoin="round"/>
<path d="M269.92 124.404C269.92 124.404 342.406 122.427 379.999 156.06L369.614 177.331C369.614 177.331 349.783 169.373 333.324 165.593C333.324 165.593 309.984 124.447 269.92 162.893" stroke="#CFE7FF" stroke-width="4" stroke-miterlimit="10" stroke-linecap="round" stroke-linejoin="round"/>
<path d="M369.613 177.331L476.868 239.285C521.387 261.588 537.845 227.596 537.845 227.596C509.176 252.229 467.699 227.541 444.859 193.273L380.004 156.066" stroke="#CFE7FF" stroke-width="4" stroke-miterlimit="10" stroke-linecap="round" stroke-linejoin="round"/>
<path d="M507.232 246.786L269.92 427.603" stroke="#CFE7FF" stroke-width="4" stroke-miterlimit="10" stroke-linecap="round" stroke-linejoin="round"/>
<path d="M269.92 432.638L300.886 462.496V533L269.92 497.748" stroke="#CFE7FF" stroke-width="4" stroke-miterlimit="10" stroke-linecap="round" stroke-linejoin="round"/>
<path d="M269.92 449.362L289.643 467.531" stroke="#CFE7FF" stroke-width="4" stroke-miterlimit="10" stroke-linecap="round" stroke-linejoin="round"/>
<path d="M269.92 470.59L285.406 487.134" stroke="#CFE7FF" stroke-width="4" stroke-miterlimit="10" stroke-linecap="round" stroke-linejoin="round"/>
<path d="M269.92 94.9369L303.493 116.523L269.92 20.4733" stroke="#CFE7FF" stroke-width="4" stroke-miterlimit="10" stroke-linecap="round" stroke-linejoin="round"/>
<path d="M213.55 288.806C220.253 288.806 226.418 286.639 231.361 282.983C223.028 297.068 207.727 306.481 190.253 306.481C163.844 306.481 142.443 285.08 142.443 258.736C142.443 232.327 163.844 210.926 190.253 210.926C207.727 210.926 223.028 220.339 231.361 234.424C226.418 230.768 220.253 228.601 213.55 228.601C196.891 228.601 183.415 242.077 183.415 258.736C183.415 275.33 196.891 288.806 213.55 288.806Z" stroke="#CFE7FF" stroke-width="4" stroke-miterlimit="10" stroke-linecap="round" stroke-linejoin="round"/>
<path d="M353.448 294.314C370.385 294.314 384.115 280.583 384.115 263.646C384.115 246.709 370.385 232.979 353.448 232.979C336.511 232.979 322.78 246.709 322.78 263.646C322.78 280.583 336.511 294.314 353.448 294.314Z" stroke="#CFE7FF" stroke-width="4" stroke-miterlimit="10" stroke-linecap="round" stroke-linejoin="round"/>
<path d="M353.449 191.947V226.558" stroke="#CFE7FF" stroke-width="4" stroke-miterlimit="10" stroke-linecap="round" stroke-linejoin="round"/>
<path d="M353.449 300.729V335.339" stroke="#CFE7FF" stroke-width="4" stroke-miterlimit="10" stroke-linecap="round" stroke-linejoin="round"/>
<path d="M425.141 263.646H390.535" stroke="#CFE7FF" stroke-width="4" stroke-miterlimit="10" stroke-linecap="round" stroke-linejoin="round"/>
<path d="M316.361 263.646H281.756" stroke="#CFE7FF" stroke-width="4" stroke-miterlimit="10" stroke-linecap="round" stroke-linejoin="round"/>
<path d="M404.144 212.946L379.674 237.422" stroke="#CFE7FF" stroke-width="4" stroke-miterlimit="10" stroke-linecap="round" stroke-linejoin="round"/>
<path d="M327.225 289.871L302.755 314.34" stroke="#CFE7FF" stroke-width="4" stroke-miterlimit="10" stroke-linecap="round" stroke-linejoin="round"/>
<path d="M404.144 314.34L379.674 289.871" stroke="#CFE7FF" stroke-width="4" stroke-miterlimit="10" stroke-linecap="round" stroke-linejoin="round"/>
<path d="M327.225 237.422L302.755 212.946" stroke="#CFE7FF" stroke-width="4" stroke-miterlimit="10" stroke-linecap="round" stroke-linejoin="round"/>
<path d="M367.153 229.182L375.165 209.019" stroke="#CFE7FF" stroke-width="4" stroke-miterlimit="10" stroke-linecap="round" stroke-linejoin="round"/>
<path d="M331.732 318.273L339.75 298.105" stroke="#CFE7FF" stroke-width="4" stroke-miterlimit="10" stroke-linecap="round" stroke-linejoin="round"/>
<path d="M387.913 277.345L408.076 285.362" stroke="#CFE7FF" stroke-width="4" stroke-miterlimit="10" stroke-linecap="round" stroke-linejoin="round"/>
<path d="M298.822 241.925L318.985 249.942" stroke="#CFE7FF" stroke-width="4" stroke-miterlimit="10" stroke-linecap="round" stroke-linejoin="round"/>
<path d="M387.506 248.964L407.435 240.371" stroke="#CFE7FF" stroke-width="4" stroke-miterlimit="10" stroke-linecap="round" stroke-linejoin="round"/>
<path d="M299.469 286.916L319.392 278.323" stroke="#CFE7FF" stroke-width="4" stroke-miterlimit="10" stroke-linecap="round" stroke-linejoin="round"/>
<path d="M368.131 297.703L376.718 317.627" stroke="#CFE7FF" stroke-width="4" stroke-miterlimit="10" stroke-linecap="round" stroke-linejoin="round"/>
<path d="M330.179 209.66L338.766 229.589" stroke="#CFE7FF" stroke-width="4" stroke-miterlimit="10" stroke-linecap="round" stroke-linejoin="round"/>
<path d="M269.92 293.059L170.231 435.696L238.954 487.135" stroke="#CFE7FF" stroke-width="4" stroke-miterlimit="10" stroke-linecap="round" stroke-linejoin="round"/>
<path d="M269.92 293.059L369.614 435.696L300.886 487.135" stroke="#CFE7FF" stroke-width="4" stroke-miterlimit="10" stroke-linecap="round" stroke-linejoin="round"/>
<path d="M167.522 394.1C151.351 405.952 150.319 426.609 150.319 426.609C150.319 426.609 149.287 405.952 133.117 394.1C149.287 382.248 150.319 361.591 150.319 361.591C150.319 361.591 151.351 382.248 167.522 394.1Z" stroke="#CFE7FF" stroke-width="4" stroke-miterlimit="10" stroke-linecap="round" stroke-linejoin="round"/>
<path d="M397.202 394.1C381.032 405.952 380 426.609 380 426.609C380 426.609 378.968 405.952 362.798 394.1C378.968 382.248 380 361.591 380 361.591C380 361.591 381.032 382.248 397.202 394.1Z" stroke="#CFE7FF" stroke-width="4" stroke-miterlimit="10" stroke-linecap="round" stroke-linejoin="round"/>
<path d="M230.489 97.1855C220.397 87.0933 214.156 73.1557 214.156 57.7567C214.156 26.9643 239.12 2 269.913 2C300.705 2 325.67 26.9643 325.67 57.7567C325.67 73.1557 319.429 87.0933 309.336 97.1855" stroke="#CFE7FF" stroke-width="4" stroke-miterlimit="10" stroke-linecap="round" stroke-linejoin="round"/>
</svg>
