<svg width="320" height="609" viewBox="0 0 320 609" fill="none" xmlns="http://www.w3.org/2000/svg">
<path d="M159.706 302.568H127.658L120.479 288.484" stroke="#CFE7FF" stroke-width="4" stroke-miterlimit="10" stroke-linecap="round" stroke-linejoin="round"/>
<path d="M121.851 262.829L119.771 269.141" stroke="#CFE7FF" stroke-width="4" stroke-miterlimit="10" stroke-linecap="round" stroke-linejoin="round"/>
<path d="M128.125 243.608L133.109 228.305L159.707 218.502" stroke="#CFE7FF" stroke-width="4" stroke-miterlimit="10" stroke-linecap="round" stroke-linejoin="round"/>
<path d="M128.514 242.34C128.514 242.34 101.856 220.824 128.514 199.149L150.332 221.96" stroke="#CFE7FF" stroke-width="4" stroke-miterlimit="10" stroke-linecap="round" stroke-linejoin="round"/>
<path d="M128.515 199.149H81.5642C81.5642 199.149 72.4968 227.284 117.927 227.284" stroke="#CFE7FF" stroke-width="4" stroke-miterlimit="10" stroke-linecap="round" stroke-linejoin="round"/>
<path d="M81.5641 199.149L51.0304 156.617C51.0304 156.617 20.903 162.754 40.9423 195.604C60.9816 228.454 86.5919 218.503 86.5919 218.503" stroke="#CFE7FF" stroke-width="4" stroke-miterlimit="10" stroke-linecap="round" stroke-linejoin="round"/>
<path d="M34.0644 173.116C20.2932 160.168 13.4872 137.67 18.3063 119.393C20.1121 112.537 23.2737 106.127 26.4132 99.7761C29.1905 94.1556 31.9677 88.5351 34.7505 82.9147C37.6485 77.0473 40.5521 71.1798 43.8124 65.5045C56.3431 43.6978 74.2089 24.9813 95.4118 11.4461C78.1882 27.0945 65.3775 47.5399 58.813 69.8625C57.2762 75.0823 56.0796 80.6698 57.5286 85.9116C59.5979 93.3872 66.4424 98.3709 70.9266 104.699C77.2112 113.569 78.6658 125.661 74.6536 135.766C70.6468 145.87 61.6836 154.466 51.0245 156.617" stroke="#CFE7FF" stroke-width="4" stroke-miterlimit="10" stroke-linecap="round" stroke-linejoin="round"/>
<path d="M110.984 354.782C109.102 385.81 114.552 424.609 114.552 424.609C114.552 424.609 125.771 505.694 159.702 505.694" stroke="#CFE7FF" stroke-width="4" stroke-miterlimit="10" stroke-linecap="round" stroke-linejoin="round"/>
<path d="M116.204 324.808C115.342 327.788 114.48 331.202 113.651 335.044" stroke="#CFE7FF" stroke-width="4" stroke-miterlimit="10" stroke-linecap="round" stroke-linejoin="round"/>
<path d="M127.658 302.568C127.658 302.568 126.209 303.155 124.047 306.295" stroke="#CFE7FF" stroke-width="4" stroke-miterlimit="10" stroke-linecap="round" stroke-linejoin="round"/>
<path d="M116.67 325.017H159.701" stroke="#CFE7FF" stroke-width="4" stroke-miterlimit="10" stroke-linecap="round" stroke-linejoin="round"/>
<path d="M110.594 365.457H159.701" stroke="#CFE7FF" stroke-width="4" stroke-miterlimit="10" stroke-linecap="round" stroke-linejoin="round"/>
<path d="M112.466 405.898H159.702" stroke="#CFE7FF" stroke-width="4" stroke-miterlimit="10" stroke-linecap="round" stroke-linejoin="round"/>
<path d="M118.894 446.345H159.702" stroke="#CFE7FF" stroke-width="4" stroke-miterlimit="10" stroke-linecap="round" stroke-linejoin="round"/>
<path d="M134.316 486.785H159.702" stroke="#CFE7FF" stroke-width="4" stroke-miterlimit="10" stroke-linecap="round" stroke-linejoin="round"/>
<path d="M109.771 334.303C111.143 334.303 112.477 334.578 113.657 335.05C113.459 335.714 113.344 336.384 113.185 337.092C112.087 342.388 111.379 348.426 110.99 354.782C110.594 354.82 110.166 354.859 109.771 354.859C104.085 354.859 99.4521 350.27 99.4521 344.578C99.4521 338.892 104.079 334.303 109.771 334.303Z" stroke="#CFE7FF" stroke-width="4" stroke-miterlimit="10" stroke-linecap="round" stroke-linejoin="round"/>
<path d="M118.239 304.45C120.396 304.45 122.4 305.114 124.046 306.295C121.928 309.396 119.062 314.923 116.203 324.808C111.493 323.864 107.926 319.709 107.926 314.725C107.926 309.039 112.553 304.45 118.239 304.45Z" stroke="#CFE7FF" stroke-width="4" stroke-miterlimit="10" stroke-linecap="round" stroke-linejoin="round"/>
<path d="M106.396 278.95C106.396 273.263 110.984 268.631 116.676 268.631C117.774 268.631 118.794 268.79 119.777 269.141L116.209 280.124L120.485 288.478C119.31 288.95 118.054 289.225 116.681 289.225C110.984 289.23 106.396 284.642 106.396 278.95Z" stroke="#CFE7FF" stroke-width="4" stroke-miterlimit="10" stroke-linecap="round" stroke-linejoin="round"/>
<path d="M112.905 252.631C112.905 246.945 117.532 242.351 123.224 242.351C124.991 242.351 126.676 242.785 128.125 243.608L121.846 262.829C116.791 262.16 112.905 257.846 112.905 252.631Z" stroke="#CFE7FF" stroke-width="4" stroke-miterlimit="10" stroke-linecap="round" stroke-linejoin="round"/>
<path d="M117.267 244.245L79.6533 259.586C79.6533 259.586 87.5242 276.271 116.664 260.568" stroke="#CFE7FF" stroke-width="4" stroke-miterlimit="10" stroke-linecap="round" stroke-linejoin="round"/>
<path d="M79.6533 259.586L65.0205 235.232C65.0205 235.232 75.1087 230.852 92.3762 254.399" stroke="#CFE7FF" stroke-width="4" stroke-miterlimit="10" stroke-linecap="round" stroke-linejoin="round"/>
<path d="M65.0207 235.227L36.9404 252.587C36.9404 252.587 40.0634 260.217 70.8057 244.859" stroke="#CFE7FF" stroke-width="4" stroke-miterlimit="10" stroke-linecap="round" stroke-linejoin="round"/>
<path d="M108.866 272.237L44.708 298.934C44.708 298.934 50.2956 314.626 81.7185 299.917L109.821 286.595" stroke="#CFE7FF" stroke-width="4" stroke-miterlimit="10" stroke-linecap="round" stroke-linejoin="round"/>
<path d="M44.7129 298.934L30.0801 274.581C30.0801 274.581 40.1682 270.201 57.4357 293.747" stroke="#CFE7FF" stroke-width="4" stroke-miterlimit="10" stroke-linecap="round" stroke-linejoin="round"/>
<path d="M30.0803 274.581L2 291.941C2 291.941 5.12299 299.571 35.8653 284.213" stroke="#CFE7FF" stroke-width="4" stroke-miterlimit="10" stroke-linecap="round" stroke-linejoin="round"/>
<path d="M110.39 308.029L46.2324 334.726C46.2324 334.726 51.8199 350.418 83.2483 335.709L111.35 322.387" stroke="#CFE7FF" stroke-width="4" stroke-miterlimit="10" stroke-linecap="round" stroke-linejoin="round"/>
<path d="M46.2326 334.726L31.5996 310.373C31.5996 310.373 41.6879 305.993 58.9554 329.539" stroke="#CFE7FF" stroke-width="4" stroke-miterlimit="10" stroke-linecap="round" stroke-linejoin="round"/>
<path d="M31.5998 310.373L3.51953 327.733C3.51953 327.733 6.64269 335.363 37.385 320.005" stroke="#CFE7FF" stroke-width="4" stroke-miterlimit="10" stroke-linecap="round" stroke-linejoin="round"/>
<path d="M99.7208 341.999L58.4072 397.874C58.4072 397.874 71.2674 408.462 90.6645 379.695L107.29 354.776" stroke="#CFE7FF" stroke-width="4" stroke-miterlimit="10" stroke-linecap="round" stroke-linejoin="round"/>
<path d="M58.4058 397.874L33.3389 384.498C33.3389 384.498 39.7442 375.557 66.6554 386.88" stroke="#CFE7FF" stroke-width="4" stroke-miterlimit="10" stroke-linecap="round" stroke-linejoin="round"/>
<path d="M33.3394 384.498L5.72559 437.881C5.72559 437.881 24.766 418.758 43.252 389.789" stroke="#CFE7FF" stroke-width="4" stroke-miterlimit="10" stroke-linecap="round" stroke-linejoin="round"/>
<path d="M199.456 288.484L192.277 302.568H160.229" stroke="#CFE7FF" stroke-width="4" stroke-miterlimit="10" stroke-linecap="round" stroke-linejoin="round"/>
<path d="M200.163 269.141L198.083 262.829" stroke="#CFE7FF" stroke-width="4" stroke-miterlimit="10" stroke-linecap="round" stroke-linejoin="round"/>
<path d="M160.229 218.502L186.827 228.305L191.811 243.608" stroke="#CFE7FF" stroke-width="4" stroke-miterlimit="10" stroke-linecap="round" stroke-linejoin="round"/>
<path d="M191.421 242.34C191.421 242.34 218.08 220.824 191.421 199.149L169.604 221.96" stroke="#CFE7FF" stroke-width="4" stroke-miterlimit="10" stroke-linecap="round" stroke-linejoin="round"/>
<path d="M191.42 199.149H238.37C238.37 199.149 247.438 227.284 202.008 227.284" stroke="#CFE7FF" stroke-width="4" stroke-miterlimit="10" stroke-linecap="round" stroke-linejoin="round"/>
<path d="M238.371 199.149L268.905 156.617C268.905 156.617 299.033 162.754 278.993 195.604C258.954 228.454 233.344 218.503 233.344 218.503" stroke="#CFE7FF" stroke-width="4" stroke-miterlimit="10" stroke-linecap="round" stroke-linejoin="round"/>
<path d="M285.87 173.116C299.641 160.168 306.447 137.67 301.628 119.393C299.822 112.537 296.661 106.127 293.521 99.7761C290.744 94.1556 287.967 88.5351 285.184 82.9147C282.286 77.0473 279.382 71.1798 276.122 65.5045C263.591 43.6978 245.725 24.9813 224.522 11.4461C241.746 27.0945 254.557 47.5399 261.116 69.8625C262.653 75.0823 263.849 80.6698 262.4 85.9116C260.331 93.3872 253.486 98.3709 249.002 104.699C242.718 113.569 241.263 125.661 245.275 135.766C249.282 145.87 258.245 154.466 268.904 156.617" stroke="#CFE7FF" stroke-width="4" stroke-miterlimit="10" stroke-linecap="round" stroke-linejoin="round"/>
<path d="M160.229 505.689C194.16 505.689 205.379 424.604 205.379 424.604C205.379 424.604 210.829 385.81 208.946 354.776" stroke="#CFE7FF" stroke-width="4" stroke-miterlimit="10" stroke-linecap="round" stroke-linejoin="round"/>
<path d="M206.285 335.05C205.461 331.208 204.6 327.794 203.732 324.813" stroke="#CFE7FF" stroke-width="4" stroke-miterlimit="10" stroke-linecap="round" stroke-linejoin="round"/>
<path d="M195.888 306.295C193.731 303.155 192.276 302.568 192.276 302.568" stroke="#CFE7FF" stroke-width="4" stroke-miterlimit="10" stroke-linecap="round" stroke-linejoin="round"/>
<path d="M203.266 325.017H160.234" stroke="#CFE7FF" stroke-width="4" stroke-miterlimit="10" stroke-linecap="round" stroke-linejoin="round"/>
<path d="M209.342 365.457H160.234" stroke="#CFE7FF" stroke-width="4" stroke-miterlimit="10" stroke-linecap="round" stroke-linejoin="round"/>
<path d="M207.47 405.898H160.234" stroke="#CFE7FF" stroke-width="4" stroke-miterlimit="10" stroke-linecap="round" stroke-linejoin="round"/>
<path d="M201.043 446.345H160.234" stroke="#CFE7FF" stroke-width="4" stroke-miterlimit="10" stroke-linecap="round" stroke-linejoin="round"/>
<path d="M185.62 486.785H160.234" stroke="#CFE7FF" stroke-width="4" stroke-miterlimit="10" stroke-linecap="round" stroke-linejoin="round"/>
<path d="M210.164 334.303C208.792 334.303 207.458 334.578 206.278 335.05C206.476 335.714 206.591 336.384 206.75 337.092C207.848 342.388 208.556 348.426 208.946 354.782C209.341 354.82 209.769 354.859 210.164 354.859C215.851 354.859 220.483 350.27 220.483 344.578C220.483 338.892 215.856 334.303 210.164 334.303Z" stroke="#CFE7FF" stroke-width="4" stroke-miterlimit="10" stroke-linecap="round" stroke-linejoin="round"/>
<path d="M201.696 304.45C199.539 304.45 197.535 305.114 195.889 306.295C198.007 309.396 200.873 314.923 203.732 324.808C208.441 323.864 212.009 319.709 212.009 314.725C212.009 309.039 207.382 304.45 201.696 304.45Z" stroke="#CFE7FF" stroke-width="4" stroke-miterlimit="10" stroke-linecap="round" stroke-linejoin="round"/>
<path d="M213.541 278.95C213.541 273.263 208.952 268.631 203.26 268.631C202.163 268.631 201.142 268.79 200.159 269.141L203.727 280.124L199.451 288.478C200.626 288.95 201.883 289.225 203.255 289.225C208.952 289.23 213.541 284.642 213.541 278.95Z" stroke="#CFE7FF" stroke-width="4" stroke-miterlimit="10" stroke-linecap="round" stroke-linejoin="round"/>
<path d="M207.031 252.631C207.031 246.945 202.404 242.351 196.712 242.351C194.944 242.351 193.26 242.785 191.811 243.608L198.09 262.829C203.145 262.16 207.031 257.846 207.031 252.631Z" stroke="#CFE7FF" stroke-width="4" stroke-miterlimit="10" stroke-linecap="round" stroke-linejoin="round"/>
<path d="M202.667 244.245L240.281 259.586C240.281 259.586 232.41 276.271 203.265 260.568" stroke="#CFE7FF" stroke-width="4" stroke-miterlimit="10" stroke-linecap="round" stroke-linejoin="round"/>
<path d="M240.281 259.586L254.914 235.232C254.914 235.232 244.826 230.852 227.559 254.399" stroke="#CFE7FF" stroke-width="4" stroke-miterlimit="10" stroke-linecap="round" stroke-linejoin="round"/>
<path d="M254.915 235.227L282.995 252.587C282.995 252.587 279.872 260.217 249.13 244.859" stroke="#CFE7FF" stroke-width="4" stroke-miterlimit="10" stroke-linecap="round" stroke-linejoin="round"/>
<path d="M211.07 272.237L275.228 298.934C275.228 298.934 269.64 314.626 238.217 299.917L210.115 286.595" stroke="#CFE7FF" stroke-width="4" stroke-miterlimit="10" stroke-linecap="round" stroke-linejoin="round"/>
<path d="M275.222 298.934L289.855 274.581C289.855 274.581 279.767 270.201 262.499 293.747" stroke="#CFE7FF" stroke-width="4" stroke-miterlimit="10" stroke-linecap="round" stroke-linejoin="round"/>
<path d="M289.854 274.581L317.935 291.941C317.935 291.941 314.812 299.571 284.069 284.213" stroke="#CFE7FF" stroke-width="4" stroke-miterlimit="10" stroke-linecap="round" stroke-linejoin="round"/>
<path d="M209.55 308.029L273.707 334.726C273.707 334.726 268.12 350.418 236.697 335.709L208.595 322.387" stroke="#CFE7FF" stroke-width="4" stroke-miterlimit="10" stroke-linecap="round" stroke-linejoin="round"/>
<path d="M273.702 334.726L288.335 310.373C288.335 310.373 278.247 305.993 260.979 329.539" stroke="#CFE7FF" stroke-width="4" stroke-miterlimit="10" stroke-linecap="round" stroke-linejoin="round"/>
<path d="M288.335 310.373L316.415 327.733C316.415 327.733 313.292 335.363 282.55 320.005" stroke="#CFE7FF" stroke-width="4" stroke-miterlimit="10" stroke-linecap="round" stroke-linejoin="round"/>
<path d="M220.214 341.999L261.528 397.874C261.528 397.874 248.668 408.462 229.271 379.695L212.646 354.776" stroke="#CFE7FF" stroke-width="4" stroke-miterlimit="10" stroke-linecap="round" stroke-linejoin="round"/>
<path d="M261.529 397.874L286.596 384.498C286.596 384.498 280.19 375.557 253.279 386.88" stroke="#CFE7FF" stroke-width="4" stroke-miterlimit="10" stroke-linecap="round" stroke-linejoin="round"/>
<path d="M286.594 384.498L314.208 437.881C314.208 437.881 295.168 418.758 276.682 389.789" stroke="#CFE7FF" stroke-width="4" stroke-miterlimit="10" stroke-linecap="round" stroke-linejoin="round"/>
<path d="M177.413 497.807C177.413 497.807 180.515 527.737 163.565 531.189L155.678 531.03C139.475 526.913 142.538 497.801 142.538 497.801" stroke="#CFE7FF" stroke-width="4" stroke-miterlimit="10" stroke-linecap="round" stroke-linejoin="round"/>
<path d="M157.082 301.569L136.363 251.402L125.852 280.305L132.18 293.835L140.089 286.595" stroke="#CFE7FF" stroke-width="4" stroke-miterlimit="10" stroke-linecap="round" stroke-linejoin="round"/>
<path d="M142.373 242.351C145.493 242.351 148.021 239.822 148.021 236.703C148.021 233.584 145.493 231.055 142.373 231.055C139.254 231.055 136.726 233.584 136.726 236.703C136.726 239.822 139.254 242.351 142.373 242.351Z" stroke="#CFE7FF" stroke-width="4" stroke-miterlimit="10" stroke-linecap="round" stroke-linejoin="round"/>
<path d="M163.279 302.557L183.999 252.395L194.51 281.293L188.182 294.829L180.267 287.589" stroke="#CFE7FF" stroke-width="4" stroke-miterlimit="10" stroke-linecap="round" stroke-linejoin="round"/>
<path d="M177.99 243.339C181.109 243.339 183.638 240.81 183.638 237.691C183.638 234.572 181.109 232.043 177.99 232.043C174.871 232.043 172.342 234.572 172.342 237.691C172.342 240.81 174.871 243.339 177.99 243.339Z" stroke="#CFE7FF" stroke-width="4" stroke-miterlimit="10" stroke-linecap="round" stroke-linejoin="round"/>
<path d="M159.97 91.8119C175.515 91.8119 188.117 79.2104 188.117 63.6657C188.117 48.1211 175.515 35.5197 159.97 35.5197C144.426 35.5197 131.824 48.1211 131.824 63.6657C131.824 79.2104 144.426 91.8119 159.97 91.8119Z" stroke="#CFE7FF" stroke-width="4" stroke-miterlimit="10" stroke-linecap="round" stroke-linejoin="round"/>
<path d="M189.044 119.59C189.044 113.114 186.953 107.164 183.418 102.389C197.024 110.435 206.114 125.216 206.114 142.094C206.114 167.606 185.443 188.276 159.998 188.276C134.486 188.276 113.815 167.606 113.815 142.094C113.815 125.216 122.905 110.435 136.511 102.389C132.982 107.164 130.885 113.114 130.885 119.59C130.885 135.683 143.905 148.697 159.992 148.697C176.025 148.697 189.044 135.683 189.044 119.59Z" stroke="#CFE7FF" stroke-width="4" stroke-miterlimit="10" stroke-linecap="round" stroke-linejoin="round"/>
<path d="M159.97 20.8812C165.184 20.8812 169.41 16.6545 169.41 11.4406C169.41 6.22671 165.184 2 159.97 2C154.756 2 150.529 6.22671 150.529 11.4406C150.529 16.6545 154.756 20.8812 159.97 20.8812Z" stroke="#CFE7FF" stroke-width="4" stroke-miterlimit="10" stroke-linecap="round" stroke-linejoin="round"/>
<path d="M289.883 510.376C282.429 518.066 271.029 520.805 260.271 520.64C251.989 520.503 243.64 518.823 236.455 514.74C223.837 507.582 215.862 492.96 216.685 478.508C217.508 464.018 227.081 450.401 240.429 444.753C236.455 448.09 233.914 453.167 234.041 458.365C234.161 463.557 237.081 468.645 241.697 471.044C246.346 473.442 252 472.954 257.071 471.565C262.104 470.177 266.951 467.679 272.182 467.279C287.1 466.126 297.325 472.806 298.961 486.791C299.954 495.37 298.066 503.268 289.883 510.376Z" stroke="#CFE7FF" stroke-width="4" stroke-miterlimit="10" stroke-linecap="round" stroke-linejoin="round"/>
<path d="M146.011 522.621C143.179 544.269 152.971 570.609 168.526 585.934C184.075 601.258 206.826 608.876 228.496 606.22C250.165 603.569 270.331 590.764 282.148 572.404C293.965 554.044 297.269 530.492 291.177 509.525" stroke="#CFE7FF" stroke-width="4" stroke-miterlimit="10" stroke-linecap="round" stroke-linejoin="round"/>
<path d="M175.114 523.082C176.239 534.12 179.099 545.087 184.489 554.785C189.879 564.484 197.909 572.871 207.882 577.734C220.149 583.722 234.908 584.002 247.686 579.188C260.458 574.38 271.194 564.692 277.973 552.848C284.752 540.998 287.66 527.1 287.002 513.466" stroke="#CFE7FF" stroke-width="4" stroke-miterlimit="10" stroke-linecap="round" stroke-linejoin="round"/>
<path d="M188.644 562.014C181.168 568.886 173.692 575.758 166.217 582.635" stroke="#CFE7FF" stroke-width="4" stroke-miterlimit="10" stroke-linecap="round" stroke-linejoin="round"/>
<path d="M223.233 582.47C223.063 590.012 222.893 597.553 222.723 605.095" stroke="#CFE7FF" stroke-width="4" stroke-miterlimit="10" stroke-linecap="round" stroke-linejoin="round"/>
<path d="M263.872 572.294C265.678 576.932 267.489 581.57 269.295 586.208" stroke="#CFE7FF" stroke-width="4" stroke-miterlimit="10" stroke-linecap="round" stroke-linejoin="round"/>
<path d="M50.1083 393.45L30.0801 444.753L150.953 558.139" stroke="#CFE7FF" stroke-width="4" stroke-miterlimit="10" stroke-linecap="round" stroke-linejoin="round"/>
<path d="M70.8113 340.418L54.3232 382.648" stroke="#CFE7FF" stroke-width="4" stroke-miterlimit="10" stroke-linecap="round" stroke-linejoin="round"/>
<path d="M225.369 505.129L180.889 546.854" stroke="#CFE7FF" stroke-width="4" stroke-miterlimit="10" stroke-linecap="round" stroke-linejoin="round"/>
<path d="M269.706 393.45L289.734 444.753L263.416 469.436" stroke="#CFE7FF" stroke-width="4" stroke-miterlimit="10" stroke-linecap="round" stroke-linejoin="round"/>
<path d="M249.003 340.418L265.491 382.648" stroke="#CFE7FF" stroke-width="4" stroke-miterlimit="10" stroke-linecap="round" stroke-linejoin="round"/>
<path d="M120.38 69.5332C104.04 81.5096 102.997 102.383 102.997 102.383C102.997 102.383 101.954 81.5096 85.6143 69.5332C101.954 57.5568 102.997 36.6832 102.997 36.6832C102.997 36.6832 104.04 57.5568 120.38 69.5332Z" stroke="#CFE7FF" stroke-width="4" stroke-miterlimit="10" stroke-linecap="round" stroke-linejoin="round"/>
<path d="M234.319 69.5332C217.979 81.5096 216.936 102.383 216.936 102.383C216.936 102.383 215.894 81.5096 199.554 69.5332C215.894 57.5568 216.936 36.6832 216.936 36.6832C216.936 36.6832 217.979 57.5568 234.319 69.5332Z" stroke="#CFE7FF" stroke-width="4" stroke-miterlimit="10" stroke-linecap="round" stroke-linejoin="round"/>
</svg>
