<svg width="430" height="648" viewBox="0 0 430 648" fill="none" xmlns="http://www.w3.org/2000/svg">
<path d="M222.673 324.98H190.156L137.391 374.831L123.281 431.893L158.867 586.028" stroke="#CFE7FF" stroke-width="4" stroke-miterlimit="10" stroke-linecap="round" stroke-linejoin="round"/>
<path d="M222.673 592.332H193.527C193.527 592.332 176.349 588.417 176.349 561.655C176.349 561.655 169.211 578.748 169.931 601.184C170.302 612.797 179.875 622.02 191.493 622.02H222.667" stroke="#CFE7FF" stroke-width="4" stroke-miterlimit="10" stroke-linecap="round" stroke-linejoin="round"/>
<path d="M193.459 611.082C193.459 611.082 171.028 603.059 178.229 595.852C185.429 588.646 193.459 611.082 193.459 611.082Z" stroke="#CFE7FF" stroke-width="4" stroke-miterlimit="10" stroke-linecap="round" stroke-linejoin="round"/>
<path d="M123.28 431.893L114.268 447.129C104.307 463.971 85.9796 474.069 66.4177 473.486L2 471.566" stroke="#CFE7FF" stroke-width="4" stroke-miterlimit="10" stroke-linecap="round" stroke-linejoin="round"/>
<path d="M129.435 407.005L111.359 400.553C90.9573 393.273 68.178 398.959 53.588 414.966L2.00586 471.566L129.435 407.005ZM129.435 407.005C193.67 407.005 189.338 478.927 189.338 478.927" stroke="#CFE7FF" stroke-width="4" stroke-miterlimit="10" stroke-linecap="round" stroke-linejoin="round"/>
<path d="M137.39 374.831C137.39 374.831 19.1846 336.021 22.865 266.975C26.5453 197.928 58.7656 166.788 80.7335 135.345C119.6 79.7163 99.3524 2.0002 99.3524 2.0002C154.775 81.5565 114.691 150.478 102.627 170.519C90.563 190.561 72.3612 214.901 85.0367 257.642C97.7179 300.384 190.156 324.974 190.156 324.974" stroke="#CFE7FF" stroke-width="4" stroke-miterlimit="10" stroke-linecap="round" stroke-linejoin="round"/>
<path d="M118.239 367.373L167.827 317.791" stroke="#CFE7FF" stroke-width="4" stroke-miterlimit="10" stroke-linecap="round" stroke-linejoin="round"/>
<path d="M75.9214 344.988L123.429 297.475" stroke="#CFE7FF" stroke-width="4" stroke-miterlimit="10" stroke-linecap="round" stroke-linejoin="round"/>
<path d="M41.021 315.174L89.2028 266.992" stroke="#CFE7FF" stroke-width="4" stroke-miterlimit="10" stroke-linecap="round" stroke-linejoin="round"/>
<path d="M22.8076 268.678L83.9622 207.523" stroke="#CFE7FF" stroke-width="4" stroke-miterlimit="10" stroke-linecap="round" stroke-linejoin="round"/>
<path d="M52.9248 173.851L127.418 99.3583" stroke="#CFE7FF" stroke-width="4" stroke-miterlimit="10" stroke-linecap="round" stroke-linejoin="round"/>
<path d="M104.461 57.5999L120.114 41.9527" stroke="#CFE7FF" stroke-width="4" stroke-miterlimit="10" stroke-linecap="round" stroke-linejoin="round"/>
<path d="M160.867 469.32C160.867 469.32 132.042 462.479 131.424 427.916L142.723 432.111C151.243 435.288 157.335 442.883 158.524 451.93L160.867 469.32Z" stroke="#CFE7FF" stroke-width="4" stroke-miterlimit="10" stroke-linecap="round" stroke-linejoin="round"/>
<path d="M67.6294 339.307L13.3784 459.09" stroke="#CFE7FF" stroke-width="4" stroke-miterlimit="10" stroke-linecap="round" stroke-linejoin="round"/>
<path d="M15.3037 471.966L162.341 635.588" stroke="#CFE7FF" stroke-width="4" stroke-miterlimit="10" stroke-linecap="round" stroke-linejoin="round"/>
<path d="M206.826 324.98H239.343L292.108 374.831L306.218 431.893L270.632 586.028" stroke="#CFE7FF" stroke-width="4" stroke-miterlimit="10" stroke-linecap="round" stroke-linejoin="round"/>
<path d="M274.09 597.55L267.158 635.599C267.158 635.599 253.476 651.355 234.452 642.131C225.799 637.936 219.267 635.776 214.764 634.673C210.261 635.776 203.774 637.942 195.076 642.131C176.052 651.355 162.325 635.599 162.325 635.599L155.393 597.55C155.393 597.55 183.424 497.746 189.339 478.944C193.179 466.76 206.026 463.845 214.587 463.274H214.896C223.456 463.845 236.303 466.76 240.144 478.944C246.104 497.746 274.09 597.55 274.09 597.55Z" stroke="#CFE7FF" stroke-width="4" stroke-miterlimit="10" stroke-linecap="round" stroke-linejoin="round"/>
<path d="M206.826 592.332H235.971C235.971 592.332 253.15 588.417 253.15 561.655C253.15 561.655 260.288 578.748 259.568 601.184C259.197 612.797 249.624 622.02 238.006 622.02H206.831" stroke="#CFE7FF" stroke-width="4" stroke-miterlimit="10" stroke-linecap="round" stroke-linejoin="round"/>
<path d="M236.046 611.082C236.046 611.082 258.477 603.059 251.276 595.852C244.07 588.646 236.046 611.082 236.046 611.082Z" stroke="#CFE7FF" stroke-width="4" stroke-miterlimit="10" stroke-linecap="round" stroke-linejoin="round"/>
<path d="M306.219 431.893L315.231 447.129C325.192 463.971 343.52 474.069 363.081 473.486L427.499 471.566" stroke="#CFE7FF" stroke-width="4" stroke-miterlimit="10" stroke-linecap="round" stroke-linejoin="round"/>
<path d="M300.064 407.005L318.14 400.553C338.542 393.273 361.321 398.959 375.911 414.966L427.493 471.566L300.064 407.005ZM300.064 407.005C235.829 407.005 240.161 478.927 240.161 478.927" stroke="#CFE7FF" stroke-width="4" stroke-miterlimit="10" stroke-linecap="round" stroke-linejoin="round"/>
<path d="M292.108 374.831C292.108 374.831 410.314 336.021 406.634 266.975C402.953 197.928 370.733 166.788 348.765 135.345C309.899 79.7163 330.146 2.0002 330.146 2.0002C274.724 81.5565 314.808 150.478 326.872 170.519C338.936 190.561 357.138 214.901 344.462 257.642C331.781 300.384 239.343 324.974 239.343 324.974" stroke="#CFE7FF" stroke-width="4" stroke-miterlimit="10" stroke-linecap="round" stroke-linejoin="round"/>
<path d="M311.258 367.373L261.676 317.791" stroke="#CFE7FF" stroke-width="4" stroke-miterlimit="10" stroke-linecap="round" stroke-linejoin="round"/>
<path d="M353.583 344.988L306.069 297.475" stroke="#CFE7FF" stroke-width="4" stroke-miterlimit="10" stroke-linecap="round" stroke-linejoin="round"/>
<path d="M388.478 315.174L340.296 266.992" stroke="#CFE7FF" stroke-width="4" stroke-miterlimit="10" stroke-linecap="round" stroke-linejoin="round"/>
<path d="M406.691 268.678L345.536 207.523" stroke="#CFE7FF" stroke-width="4" stroke-miterlimit="10" stroke-linecap="round" stroke-linejoin="round"/>
<path d="M376.573 173.851L302.08 99.3583" stroke="#CFE7FF" stroke-width="4" stroke-miterlimit="10" stroke-linecap="round" stroke-linejoin="round"/>
<path d="M325.036 57.5999L309.383 41.9527" stroke="#CFE7FF" stroke-width="4" stroke-miterlimit="10" stroke-linecap="round" stroke-linejoin="round"/>
<path d="M250.076 399.359L225.531 412.246L214.764 437.58L203.946 412.246L179.406 399.359L203.946 386.512L214.764 361.172L225.531 386.512L250.076 399.359Z" stroke="#CFE7FF" stroke-width="4" stroke-miterlimit="10" stroke-linecap="round" stroke-linejoin="round"/>
<path d="M268.632 469.32C268.632 469.32 297.457 462.479 298.075 427.916L286.776 432.111C278.256 435.288 272.164 442.883 270.975 451.93L268.632 469.32Z" stroke="#CFE7FF" stroke-width="4" stroke-miterlimit="10" stroke-linecap="round" stroke-linejoin="round"/>
<path d="M361.87 339.307L416.126 459.09" stroke="#CFE7FF" stroke-width="4" stroke-miterlimit="10" stroke-linecap="round" stroke-linejoin="round"/>
<path d="M414.194 471.966L267.157 635.588" stroke="#CFE7FF" stroke-width="4" stroke-miterlimit="10" stroke-linecap="round" stroke-linejoin="round"/>
<path d="M219.627 304.91C257.697 304.91 288.559 274.048 288.559 235.977C288.559 197.907 257.697 167.045 219.627 167.045C181.556 167.045 150.694 197.907 150.694 235.977C150.694 274.048 181.556 304.91 219.627 304.91Z" stroke="#CFE7FF" stroke-width="4" stroke-miterlimit="10" stroke-linecap="round" stroke-linejoin="round"/>
<path d="M219.627 196.996C244.839 196.996 265.277 176.558 265.277 151.346C265.277 126.134 244.839 105.696 219.627 105.696C194.415 105.696 173.977 126.134 173.977 151.346C173.977 176.558 194.415 196.996 219.627 196.996Z" stroke="#CFE7FF" stroke-width="4" stroke-miterlimit="10" stroke-linecap="round" stroke-linejoin="round"/>
<path d="M239.417 39.7868C239.417 35.3806 237.994 31.3288 235.588 28.077C244.846 33.5519 251.036 43.61 251.036 55.0968C251.036 72.4585 236.971 86.5227 219.655 86.5227C202.294 86.5227 188.229 72.4585 188.229 55.0968C188.229 43.61 194.419 33.5519 203.677 28.077C201.271 31.3288 199.848 35.3749 199.848 39.7868C199.848 50.7364 208.706 59.5944 219.655 59.5944C230.559 59.5944 239.417 50.7364 239.417 39.7868Z" stroke="#CFE7FF" stroke-width="4" stroke-miterlimit="10" stroke-linecap="round" stroke-linejoin="round"/>
<path d="M71.4864 97.9295C54.4733 110.399 53.3874 132.133 53.3874 132.133C53.3874 132.133 52.3017 110.399 35.2886 97.9295C52.3017 85.4597 53.3874 63.7262 53.3874 63.7262C53.3874 63.7262 54.4733 85.4597 71.4864 97.9295Z" stroke="#CFE7FF" stroke-width="4" stroke-miterlimit="10" stroke-linecap="round" stroke-linejoin="round"/>
<path d="M394.672 581.051C377.659 593.521 376.573 615.254 376.573 615.254C376.573 615.254 375.487 593.521 358.474 581.051C375.487 568.581 376.573 546.847 376.573 546.847C376.573 546.847 377.659 568.581 394.672 581.051Z" stroke="#CFE7FF" stroke-width="4" stroke-miterlimit="10" stroke-linecap="round" stroke-linejoin="round"/>
</svg>
