<svg width="421" height="622" viewBox="0 0 421 622" fill="none" xmlns="http://www.w3.org/2000/svg">
<path d="M210.413 210.426C210.413 210.426 180.154 316.905 84.8237 316.905C84.8237 316.905 72.9955 300.754 61.1609 310.533C49.3326 320.319 55.2435 402.45 93.0145 402.45" stroke="#CFE7FF" stroke-width="4" stroke-miterlimit="10" stroke-linecap="round" stroke-linejoin="round"/>
<path d="M92.0977 341.478C92.0977 341.478 91.8672 388.727 101.198 431.499C108.434 464.672 134.915 496.295 170.733 522.167C178.578 527.835 188.088 530.755 197.764 530.755H210.406" stroke="#CFE7FF" stroke-width="4" stroke-miterlimit="10" stroke-linecap="round" stroke-linejoin="round"/>
<path d="M133.046 488.802C133.046 488.802 144.201 550.345 99.8344 585.836C55.4673 621.327 2 619.963 2 619.963L68.1472 385.986" stroke="#CFE7FF" stroke-width="4" stroke-miterlimit="10" stroke-linecap="round" stroke-linejoin="round"/>
<path d="M89.9851 402.771L31.2666 616.832" stroke="#CFE7FF" stroke-width="4" stroke-miterlimit="10" stroke-linecap="round" stroke-linejoin="round"/>
<path d="M106.655 448.604L63.1265 607.277" stroke="#CFE7FF" stroke-width="4" stroke-miterlimit="10" stroke-linecap="round" stroke-linejoin="round"/>
<path d="M128.044 483.032L99.8345 585.836" stroke="#CFE7FF" stroke-width="4" stroke-miterlimit="10" stroke-linecap="round" stroke-linejoin="round"/>
<path d="M165.744 468.694C169.708 471.934 174.998 473.144 180.121 473.253C185.244 473.362 190.323 472.478 195.42 471.998C200.518 471.518 205.385 471.556 210.214 473.26" stroke="#CFE7FF" stroke-width="4" stroke-miterlimit="10" stroke-linecap="round" stroke-linejoin="round"/>
<path d="M172.232 472.062C172.232 472.062 173.769 457.397 210.221 457.397" stroke="#CFE7FF" stroke-width="4" stroke-miterlimit="10" stroke-linecap="round" stroke-linejoin="round"/>
<path d="M186.352 483.679C186.352 483.679 193.307 493.919 210.22 493.919" stroke="#CFE7FF" stroke-width="4" stroke-miterlimit="10" stroke-linecap="round" stroke-linejoin="round"/>
<path d="M115.582 339.742C124.355 330.431 136.708 324.308 149.504 324.02C162.299 323.732 175.299 329.617 182.728 340.037C190.201 350.52 191.527 364.142 191.303 377.014C190.989 395.105 188.088 413.145 182.721 430.423C182.721 430.423 190.112 439.984 210.412 439.984" stroke="#CFE7FF" stroke-width="4" stroke-miterlimit="10" stroke-linecap="round" stroke-linejoin="round"/>
<path d="M121.506 357.404C121.506 357.404 143.517 374.81 175.94 357.404" stroke="#CFE7FF" stroke-width="4" stroke-miterlimit="10" stroke-linecap="round" stroke-linejoin="round"/>
<path d="M210.413 171.066C188.057 293.415 69.8063 307.402 69.8063 307.402C69.8063 307.402 51.715 214.748 126.456 151.95" stroke="#CFE7FF" stroke-width="4" stroke-miterlimit="10" stroke-linecap="round" stroke-linejoin="round"/>
<path d="M74.878 209.74C86.8535 177.534 56.5111 161.409 56.5111 161.409C56.5111 161.409 44.5357 193.615 74.878 209.74Z" stroke="#CFE7FF" stroke-width="4" stroke-miterlimit="10" stroke-linecap="round" stroke-linejoin="round"/>
<path d="M91.4897 177.81C114.128 151.957 91.4897 126.104 91.4897 126.104C91.4897 126.104 68.8514 151.957 91.4897 177.81Z" stroke="#CFE7FF" stroke-width="4" stroke-miterlimit="10" stroke-linecap="round" stroke-linejoin="round"/>
<path d="M139.142 211.162C110.766 191.783 87.8071 217.348 87.8071 217.348C87.8071 217.348 116.19 236.727 139.142 211.162Z" stroke="#CFE7FF" stroke-width="4" stroke-miterlimit="10" stroke-linecap="round" stroke-linejoin="round"/>
<path d="M158.131 183.548C131.228 162.178 106.489 186.02 106.489 186.02C106.489 186.02 133.392 207.396 158.131 183.548Z" stroke="#CFE7FF" stroke-width="4" stroke-miterlimit="10" stroke-linecap="round" stroke-linejoin="round"/>
<path d="M181.358 106.533C188.741 115.3 177.637 129.133 177.637 129.133C188.588 136.798 183.413 146.667 183.413 146.667L134.025 146.392L142.159 97.6763C142.159 97.6763 152.764 94.2565 158.45 106.354C158.45 106.354 173.967 97.7659 181.358 106.533Z" stroke="#CFE7FF" stroke-width="4" stroke-miterlimit="10" stroke-linecap="round" stroke-linejoin="round"/>
<path d="M210.221 210.458C210.221 210.458 240.48 316.937 335.81 316.937C335.81 316.937 347.638 300.786 359.473 310.565C371.301 320.351 365.39 402.482 327.619 402.482" stroke="#CFE7FF" stroke-width="4" stroke-miterlimit="10" stroke-linecap="round" stroke-linejoin="round"/>
<path d="M328.529 341.51C328.529 341.51 328.759 388.759 319.429 431.531C312.192 464.704 285.711 496.327 249.894 522.199C242.049 527.867 232.539 530.787 222.862 530.787H210.221" stroke="#CFE7FF" stroke-width="4" stroke-miterlimit="10" stroke-linecap="round" stroke-linejoin="round"/>
<path d="M287.582 488.834C287.582 488.834 276.426 550.377 320.793 585.868C365.16 621.359 418.627 619.995 418.627 619.995L352.48 386.018" stroke="#CFE7FF" stroke-width="4" stroke-miterlimit="10" stroke-linecap="round" stroke-linejoin="round"/>
<path d="M330.642 402.809L389.361 616.864" stroke="#CFE7FF" stroke-width="4" stroke-miterlimit="10" stroke-linecap="round" stroke-linejoin="round"/>
<path d="M313.972 448.636L357.5 607.315" stroke="#CFE7FF" stroke-width="4" stroke-miterlimit="10" stroke-linecap="round" stroke-linejoin="round"/>
<path d="M292.583 483.071L320.792 585.868" stroke="#CFE7FF" stroke-width="4" stroke-miterlimit="10" stroke-linecap="round" stroke-linejoin="round"/>
<path d="M254.882 468.726C250.918 471.966 245.628 473.176 240.505 473.285C235.382 473.394 230.303 472.51 225.206 472.03C220.108 471.55 215.241 471.588 210.413 473.292" stroke="#CFE7FF" stroke-width="4" stroke-miterlimit="10" stroke-linecap="round" stroke-linejoin="round"/>
<path d="M248.395 472.094C248.395 472.094 246.858 457.429 210.406 457.429" stroke="#CFE7FF" stroke-width="4" stroke-miterlimit="10" stroke-linecap="round" stroke-linejoin="round"/>
<path d="M234.28 483.711C234.28 483.711 227.326 493.951 210.413 493.951" stroke="#CFE7FF" stroke-width="4" stroke-miterlimit="10" stroke-linecap="round" stroke-linejoin="round"/>
<path d="M305.045 339.78C296.272 330.469 283.918 324.347 271.123 324.059C258.328 323.771 245.328 329.656 237.899 340.075C230.425 350.559 229.1 364.18 229.324 377.052C229.638 395.143 232.539 413.184 237.905 430.462C237.905 430.462 230.515 440.023 210.214 440.023" stroke="#CFE7FF" stroke-width="4" stroke-miterlimit="10" stroke-linecap="round" stroke-linejoin="round"/>
<path d="M299.122 357.436C299.122 357.436 277.111 374.843 244.688 357.436" stroke="#CFE7FF" stroke-width="4" stroke-miterlimit="10" stroke-linecap="round" stroke-linejoin="round"/>
<path d="M210.221 171.098C232.577 293.447 350.828 307.434 350.828 307.434C350.828 307.434 368.919 214.78 294.178 151.982" stroke="#CFE7FF" stroke-width="4" stroke-miterlimit="10" stroke-linecap="round" stroke-linejoin="round"/>
<path d="M345.749 209.772C333.773 177.566 364.115 161.441 364.115 161.441C364.115 161.441 376.091 193.647 345.749 209.772Z" stroke="#CFE7FF" stroke-width="4" stroke-miterlimit="10" stroke-linecap="round" stroke-linejoin="round"/>
<path d="M329.137 177.842C306.499 151.989 329.137 126.136 329.137 126.136C329.137 126.136 351.775 151.989 329.137 177.842Z" stroke="#CFE7FF" stroke-width="4" stroke-miterlimit="10" stroke-linecap="round" stroke-linejoin="round"/>
<path d="M281.484 211.194C309.861 191.815 332.819 217.38 332.819 217.38C332.819 217.38 304.436 236.759 281.484 211.194Z" stroke="#CFE7FF" stroke-width="4" stroke-miterlimit="10" stroke-linecap="round" stroke-linejoin="round"/>
<path d="M262.497 183.58C289.4 162.21 314.139 186.052 314.139 186.052C314.139 186.052 287.236 207.428 262.497 183.58Z" stroke="#CFE7FF" stroke-width="4" stroke-miterlimit="10" stroke-linecap="round" stroke-linejoin="round"/>
<path d="M239.275 106.571C231.891 115.339 242.996 129.171 242.996 129.171C232.045 136.837 237.22 146.706 237.22 146.706L286.607 146.43L278.474 97.7147C278.474 97.7147 267.869 94.2949 262.183 106.392C262.183 106.392 246.659 97.7979 239.275 106.571Z" stroke="#CFE7FF" stroke-width="4" stroke-miterlimit="10" stroke-linecap="round" stroke-linejoin="round"/>
<path d="M55.6594 287.703C36.9724 258.77 26.124 224.297 26.124 187.294C26.124 84.9578 109.082 2 211.418 2C313.755 2 396.712 84.9578 396.712 187.294C396.712 224.649 385.659 259.416 366.645 288.516" stroke="#CFE7FF" stroke-width="4" stroke-miterlimit="10" stroke-linecap="round" stroke-linejoin="round"/>
<path d="M46.2515 307.44C27.3212 321.311 26.1173 345.493 26.1173 345.493C26.1173 345.493 24.9068 321.311 5.98291 307.44C24.9132 293.569 26.1173 269.387 26.1173 269.387C26.1173 269.387 27.3276 293.563 46.2515 307.44Z" stroke="#CFE7FF" stroke-width="4" stroke-miterlimit="10" stroke-linecap="round" stroke-linejoin="round"/>
<path d="M416.84 307.44C397.91 321.311 396.706 345.493 396.706 345.493C396.706 345.493 395.496 321.311 376.572 307.44C395.502 293.569 396.706 269.387 396.706 269.387C396.706 269.387 397.91 293.563 416.84 307.44Z" stroke="#CFE7FF" stroke-width="4" stroke-miterlimit="10" stroke-linecap="round" stroke-linejoin="round"/>
</svg>
