<svg width="510" height="865" viewBox="0 0 510 865" fill="none" xmlns="http://www.w3.org/2000/svg">
<path d="M69.1087 833C48.6473 833 32 816.345 32 795.867L32 69.1351C32 48.6605 48.6448 32 69.1087 32L440.889 32C461.355 32 478 48.6605 478 69.1351V795.867C478 816.342 461.355 833 440.889 833H69.1087Z" fill="#CFE7FF" stroke="#B6BBFF" stroke-width="0.5755" stroke-miterlimit="10"/>
<path d="M363.324 771.873C363.324 773.075 363.367 774.19 363.453 775.22C363.567 776.222 363.71 777.023 363.881 777.623C364.167 778.596 364.625 779.354 365.254 779.898C365.883 780.441 366.583 780.87 367.356 781.185C368.156 781.471 368.985 781.671 369.843 781.786C370.701 781.9 371.487 782 372.202 782.086C376.377 782.601 379.365 783.702 381.166 785.39C382.967 787.049 383.868 789.381 383.868 792.384C383.868 794.015 383.611 795.431 383.096 796.632C382.581 797.834 381.767 798.85 380.651 799.679C379.536 800.48 378.092 801.081 376.32 801.481C374.547 801.882 372.402 802.082 369.886 802.082C369.686 802.082 369.185 802.082 368.385 802.082C367.613 802.082 366.655 802.082 365.511 802.082C364.368 802.082 363.109 802.096 361.737 802.125C360.364 802.125 358.992 802.125 357.619 802.125C356.276 802.125 354.989 802.125 353.759 802.125C352.53 802.125 351.5 802.125 350.671 802.125C350.099 802.125 349.813 801.839 349.813 801.267V767.196C349.813 766.624 350.099 766.338 350.671 766.338H362.466C363.038 766.338 363.324 766.624 363.324 767.196V771.873ZM363.324 799.121C363.324 799.693 363.61 799.979 364.182 799.979C366.784 799.922 368.642 799.336 369.757 798.22C370.872 797.076 371.43 795.245 371.43 792.728C371.43 791.469 371.33 790.411 371.13 789.552C370.93 788.665 370.644 787.907 370.272 787.278C369.929 786.649 369.514 786.119 369.028 785.69C368.571 785.261 368.085 784.861 367.57 784.489C367.055 784.117 366.526 783.745 365.983 783.373C365.44 783.001 364.925 782.558 364.439 782.043C364.039 781.728 363.781 781.571 363.667 781.571C363.438 781.571 363.324 781.857 363.324 782.429V799.121ZM385.841 767.196C385.841 766.624 386.141 766.338 386.742 766.338H398.451C399.051 766.338 399.351 766.624 399.351 767.196V801.267C399.351 801.839 399.051 802.125 398.451 802.125H386.742C386.141 802.125 385.841 801.839 385.841 801.267V767.196Z" fill="#6265FE"/>
<path d="M332.875 783.545C333.447 783.402 333.733 783.059 333.733 782.515V767.196C333.733 766.624 334.019 766.338 334.591 766.338H346.386C346.958 766.338 347.244 766.624 347.244 767.196V801.267C347.244 801.839 346.958 802.125 346.386 802.125H334.162C333.59 802.125 333.304 801.839 333.304 801.267C333.304 800.323 333.447 799.393 333.733 798.478C334.048 797.534 334.391 796.59 334.763 795.646C335.134 794.702 335.463 793.757 335.749 792.813C336.064 791.841 336.221 790.868 336.221 789.896C336.221 788.694 335.949 787.836 335.406 787.321C334.891 786.777 334.091 786.506 333.004 786.506C329.001 786.506 326.999 789.996 326.999 796.976V801.267C326.999 801.839 326.714 802.125 326.142 802.125H314.776C314.204 802.125 313.918 801.839 313.918 801.267V767.196C313.918 766.624 314.204 766.338 314.776 766.338H326.571C327.142 766.338 327.428 766.624 327.428 767.196V772.903C327.428 775.077 327.228 777.065 326.828 778.868C326.456 780.641 326.027 782.386 325.541 784.103C325.084 785.819 324.655 787.564 324.254 789.338C323.854 791.083 323.625 793.028 323.568 795.174C323.568 795.631 323.797 795.86 324.254 795.86C324.626 795.86 324.841 795.617 324.898 795.131C325.012 793.357 325.227 791.812 325.541 790.496C325.884 789.18 326.37 788.065 326.999 787.149C327.628 786.205 328.415 785.447 329.358 784.875C330.331 784.274 331.503 783.831 332.875 783.545Z" fill="#6265FE"/>
<path d="M303.39 788.351C302.532 790.382 301.417 792.27 300.044 794.015C298.672 795.76 297.156 797.276 295.498 798.563C293.84 799.851 292.11 800.866 290.308 801.61C288.507 802.325 286.734 802.683 284.99 802.683C284.018 802.683 283.074 802.554 282.159 802.297C281.931 802.239 281.745 802.125 281.602 801.953C281.459 801.782 281.387 801.581 281.387 801.353V790.067C281.387 789.495 281.673 789.209 282.245 789.209C282.531 789.209 282.874 789.352 283.274 789.638C283.703 789.896 284.175 790.239 284.69 790.668C285.233 791.068 285.819 791.512 286.448 791.998C287.106 792.484 287.778 792.942 288.464 793.371C289.179 793.772 289.922 794.115 290.694 794.401C291.466 794.659 292.253 794.787 293.053 794.787C293.94 794.787 294.74 794.601 295.455 794.23C296.17 793.858 296.856 793.386 297.514 792.813C297.8 792.556 297.914 792.341 297.857 792.17C297.8 791.998 297.571 791.912 297.171 791.912H289.536C288.964 791.912 288.564 791.626 288.335 791.054L278.042 767.196C277.927 766.939 277.927 766.738 278.042 766.595C278.156 766.424 278.342 766.338 278.599 766.338H290.48C290.737 766.338 291.038 766.424 291.381 766.595C291.752 766.738 291.981 766.939 292.067 767.196L299.873 787.149C300.159 787.893 300.43 788.265 300.688 788.265C301.002 788.265 301.26 787.993 301.46 787.45C301.66 786.878 301.76 786.162 301.76 785.304C301.76 784.045 301.574 782.887 301.202 781.828C300.831 780.741 300.445 779.468 300.044 778.009C299.673 776.522 299.358 775.034 299.101 773.547C298.872 772.031 298.872 770.586 299.101 769.213C299.301 768.126 299.644 767.382 300.13 766.982C300.616 766.552 301.36 766.338 302.36 766.338H312.397C312.626 766.338 312.783 766.395 312.869 766.51C312.954 766.624 312.954 766.781 312.869 766.982C311.954 769.156 311.11 771.144 310.338 772.946C309.595 774.748 308.865 776.508 308.151 778.224C307.436 779.912 306.692 781.485 305.92 782.944C305.177 784.374 304.333 786.177 303.39 788.351Z" fill="#6265FE"/>
<path d="M266.326 802.125H253.674C253.102 802.125 252.816 801.839 252.816 801.267C252.873 799.007 253.03 796.575 253.288 793.972C253.545 791.34 253.817 788.737 254.103 786.162C254.388 783.588 254.631 781.142 254.832 778.825C255.06 776.479 255.175 774.462 255.175 772.774C255.175 771.144 255.046 770.028 254.789 769.427C254.56 768.798 254.174 768.483 253.631 768.483C253.087 768.483 252.687 768.741 252.43 769.256C252.201 769.771 252.001 770.429 251.829 771.23C251.686 772.002 251.501 772.846 251.272 773.761C251.072 774.677 250.7 775.535 250.157 776.336C249.613 777.108 248.841 777.752 247.841 778.267C246.84 778.782 245.496 779.039 243.809 779.039C243.208 779.039 242.908 778.753 242.908 778.181V767.196C242.908 766.624 243.208 766.338 243.809 766.338H276.191C276.791 766.338 277.092 766.624 277.092 767.196V778.181C277.092 778.753 276.791 779.039 276.191 779.039C274.504 779.039 273.16 778.782 272.159 778.267C271.158 777.752 270.386 777.108 269.843 776.336C269.3 775.535 268.914 774.677 268.685 773.761C268.485 772.846 268.299 772.002 268.128 771.23C267.985 770.429 267.799 769.771 267.57 769.256C267.341 768.741 266.941 768.483 266.369 768.483C265.826 768.483 265.425 768.798 265.168 769.427C264.939 770.028 264.825 771.144 264.825 772.774C264.825 774.462 264.939 776.479 265.168 778.825C265.397 781.142 265.64 783.588 265.897 786.162C266.183 788.737 266.455 791.34 266.712 793.972C266.97 796.575 267.127 799.007 267.184 801.267C267.184 801.839 266.898 802.125 266.326 802.125Z" fill="#6265FE"/>
<path d="M220.874 796.59V801.267C220.874 801.839 220.588 802.125 220.016 802.125H208.221C207.649 802.125 207.363 801.839 207.363 801.267V767.196C207.363 766.624 207.649 766.338 208.221 766.338C209.05 766.338 210.08 766.338 211.309 766.338C212.539 766.338 213.825 766.338 215.169 766.338C216.542 766.338 217.914 766.352 219.287 766.381C220.659 766.381 221.917 766.381 223.061 766.381C224.205 766.381 225.163 766.381 225.935 766.381C226.735 766.381 227.236 766.381 227.436 766.381C229.952 766.381 232.097 766.581 233.869 766.982C235.642 767.382 237.086 767.997 238.201 768.827C239.316 769.628 240.131 770.629 240.646 771.83C241.161 773.032 241.418 774.448 241.418 776.079C241.418 779.082 240.517 781.428 238.716 783.116C236.915 784.775 233.927 785.862 229.752 786.377C229.037 786.463 228.251 786.563 227.393 786.677C226.535 786.792 225.706 787.006 224.905 787.321C224.133 787.607 223.433 788.022 222.804 788.565C222.175 789.109 221.717 789.867 221.431 790.84C221.26 791.44 221.117 792.256 221.002 793.285C220.917 794.287 220.874 795.388 220.874 796.59ZM220.874 786.034C220.874 786.606 220.988 786.892 221.217 786.892C221.331 786.892 221.588 786.735 221.989 786.42C222.475 785.934 222.99 785.504 223.533 785.133C224.076 784.732 224.605 784.346 225.12 783.974C225.634 783.602 226.121 783.202 226.578 782.772C227.064 782.343 227.479 781.814 227.822 781.185C228.194 780.555 228.479 779.812 228.68 778.953C228.88 778.067 228.98 776.994 228.98 775.735C228.98 773.218 228.422 771.401 227.307 770.286C226.192 769.141 224.333 768.541 221.731 768.483C221.16 768.483 220.874 768.769 220.874 769.342V786.034Z" fill="#6265FE"/>
<path d="M178.897 802.125C177.524 802.125 176.252 801.596 175.079 800.537C173.907 799.45 172.892 798.034 172.034 796.289C171.205 794.544 170.547 792.584 170.061 790.41C169.575 788.208 169.332 785.991 169.332 783.759C169.332 780.784 169.761 778.167 170.619 775.907C171.477 773.618 172.692 771.701 174.264 770.157C175.837 768.612 177.71 767.453 179.883 766.681C182.056 765.88 184.472 765.479 187.131 765.479C189.733 765.479 192.121 765.88 194.294 766.681C196.467 767.453 198.326 768.612 199.87 770.157C201.442 771.701 202.658 773.618 203.515 775.907C204.373 778.167 204.802 780.784 204.802 783.759C204.802 785.991 204.559 788.208 204.073 790.41C203.587 792.584 202.915 794.544 202.057 796.289C201.199 798.034 200.184 799.45 199.012 800.537C197.868 801.596 196.61 802.125 195.238 802.125H178.897ZM184.644 794.358C184.873 794.987 185.216 795.459 185.673 795.774C186.159 796.06 186.645 796.203 187.131 796.203C187.617 796.203 188.075 796.06 188.504 795.774C188.961 795.488 189.305 795.059 189.533 794.487C189.848 793.714 190.091 792.298 190.262 790.239C190.434 788.15 190.52 785.662 190.52 782.772C190.52 779.196 190.434 776.379 190.262 774.319C190.119 772.259 189.905 770.843 189.619 770.071C189.39 769.356 189.033 768.826 188.547 768.483C188.061 768.14 187.546 767.968 187.003 767.968C186.517 767.968 186.059 768.111 185.63 768.397C185.201 768.683 184.873 769.127 184.644 769.728C184.358 770.471 184.115 771.873 183.915 773.933C183.743 775.964 183.657 778.782 183.657 782.386C183.657 783.845 183.686 785.218 183.743 786.505C183.8 787.764 183.872 788.923 183.958 789.981C184.043 791.011 184.143 791.898 184.258 792.642C184.372 793.385 184.501 793.958 184.644 794.358Z" fill="#6265FE"/>
<path d="M133.102 802.125C132.501 802.125 132.201 801.839 132.201 801.267V789.767C131.772 791.397 131.172 792.799 130.399 793.972C129.627 795.145 128.741 796.118 127.74 796.89C126.768 797.634 125.696 798.192 124.524 798.563C123.38 798.907 122.193 799.078 120.964 799.078C119.362 799.078 117.976 798.678 116.803 797.877C115.631 797.076 114.659 796.017 113.887 794.702C113.115 793.357 112.529 791.827 112.128 790.11C111.728 788.394 111.485 786.606 111.399 784.746C111.313 782.486 111.514 780.284 112 778.138C112.514 775.964 113.258 774.033 114.23 772.345C115.231 770.658 116.446 769.299 117.876 768.269C119.305 767.239 120.906 766.724 122.679 766.724C124.138 766.724 125.424 767.067 126.539 767.754C127.683 768.412 128.584 769.342 129.241 770.543C129.928 771.745 130.342 773.161 130.485 774.791C130.657 776.393 130.514 778.138 130.056 780.026C129.942 780.656 129.556 780.942 128.898 780.884H128.684C128.427 780.884 128.198 780.799 127.998 780.627C127.797 780.455 127.655 780.241 127.569 779.983C127.397 779.383 127.14 778.911 126.797 778.567C126.454 778.224 126.053 778.052 125.596 778.052C125.024 778.052 124.538 778.424 124.138 779.168C123.737 779.912 123.437 780.842 123.237 781.957C123.037 783.044 122.922 784.246 122.894 785.562C122.894 786.849 122.994 788.05 123.194 789.166C123.394 790.253 123.694 791.169 124.095 791.912C124.524 792.656 125.053 793.028 125.682 793.028C126.311 793.028 126.968 792.728 127.655 792.127C128.369 791.498 129.041 790.611 129.67 789.466C130.299 788.294 130.843 786.878 131.3 785.218C131.758 783.559 132.058 781.7 132.201 779.64V767.196C132.201 766.624 132.501 766.338 133.102 766.338H145.239C145.84 766.338 146.14 766.624 146.14 767.196V776.465C147.341 773.318 148.899 771.029 150.815 769.599C152.731 768.14 154.918 767.411 157.377 767.411C158.979 767.411 160.365 767.811 161.538 768.612C162.71 769.413 163.682 770.486 164.454 771.83C165.226 773.146 165.812 774.662 166.213 776.379C166.613 778.095 166.856 779.883 166.942 781.743C167.028 784.003 166.813 786.22 166.298 788.394C165.812 790.539 165.069 792.456 164.068 794.144C163.096 795.831 161.895 797.19 160.465 798.22C159.036 799.25 157.435 799.765 155.662 799.765C154.203 799.765 152.902 799.436 151.759 798.778C150.644 798.091 149.743 797.147 149.057 795.946C148.399 794.744 147.984 793.343 147.813 791.741C147.67 790.11 147.827 788.351 148.285 786.463C148.399 785.833 148.785 785.547 149.443 785.605H149.657C149.914 785.605 150.143 785.69 150.343 785.862C150.544 786.034 150.686 786.248 150.772 786.506C150.944 787.106 151.201 787.578 151.544 787.922C151.887 788.265 152.288 788.437 152.745 788.437C153.317 788.437 153.803 788.05 154.203 787.278C154.604 786.506 154.904 785.547 155.104 784.403C155.304 783.259 155.404 782.014 155.404 780.67C155.433 779.297 155.347 778.038 155.147 776.894C154.947 775.75 154.632 774.791 154.203 774.019C153.803 773.246 153.288 772.86 152.659 772.86C152.03 772.86 151.358 773.204 150.644 773.89C149.929 774.577 149.257 775.535 148.628 776.765C148.027 777.995 147.498 779.468 147.041 781.185C146.583 782.901 146.283 784.789 146.14 786.849V801.267C146.14 801.839 145.84 802.125 145.239 802.125H133.102Z" fill="#6265FE"/>
<path d="M335.106 760.344C333.734 760.344 332.462 759.815 331.289 758.756C330.117 757.669 329.102 756.253 328.244 754.508C327.415 752.763 326.757 750.804 326.271 748.63C325.785 746.427 325.542 744.21 325.542 741.978C325.542 739.003 325.971 736.386 326.829 734.126C327.686 731.837 328.902 729.921 330.474 728.376C332.047 726.831 333.92 725.673 336.093 724.9C338.266 724.099 340.682 723.699 343.341 723.699C345.943 723.699 348.331 724.099 350.504 724.9C352.677 725.673 354.536 726.831 356.08 728.376C357.652 729.921 358.868 731.837 359.725 734.126C360.583 736.386 361.012 739.003 361.012 741.978C361.012 744.21 360.769 746.427 360.283 748.63C359.797 750.804 359.125 752.763 358.267 754.508C357.409 756.253 356.394 757.669 355.222 758.756C354.078 759.815 352.82 760.344 351.448 760.344H335.106ZM340.854 752.577C341.082 753.207 341.426 753.679 341.883 753.993C342.369 754.279 342.855 754.422 343.341 754.422C343.827 754.422 344.285 754.279 344.714 753.993C345.171 753.707 345.514 753.278 345.743 752.706C346.058 751.934 346.301 750.518 346.472 748.458C346.644 746.37 346.73 743.881 346.73 740.992C346.73 737.416 346.644 734.598 346.472 732.538C346.329 730.479 346.115 729.063 345.829 728.29C345.6 727.575 345.243 727.046 344.757 726.702C344.271 726.359 343.756 726.188 343.213 726.188C342.727 726.188 342.269 726.331 341.84 726.617C341.411 726.903 341.082 727.346 340.854 727.947C340.568 728.691 340.325 730.092 340.125 732.152C339.953 734.183 339.867 737.001 339.867 740.605C339.867 742.064 339.896 743.437 339.953 744.725C340.01 745.983 340.082 747.142 340.168 748.2C340.253 749.23 340.353 750.117 340.468 750.861C340.582 751.605 340.711 752.177 340.854 752.577Z" fill="#6265FE"/>
<path d="M308.279 727.561C307.164 727.561 306.135 727.789 305.191 728.247C304.248 728.705 303.433 729.363 302.746 730.221C302.089 731.051 301.574 732.052 301.202 733.225C300.831 734.369 300.645 735.642 300.645 737.044C300.645 738.846 300.959 740.505 301.588 742.021C302.217 743.509 303.104 744.782 304.248 745.84C305.42 746.899 306.807 747.728 308.408 748.329C310.009 748.901 311.796 749.187 313.769 749.187C315.542 749.187 317.043 748.944 318.273 748.458C319.502 747.972 320.417 747.271 321.018 746.355C321.332 745.869 321.747 745.697 322.261 745.84L322.562 745.926C323.105 746.069 323.376 746.427 323.376 746.999C323.234 751.576 321.89 755.095 319.345 757.555C316.829 759.986 313.297 761.202 308.751 761.202C306.006 761.202 303.518 760.759 301.288 759.872C299.086 758.985 297.185 757.726 295.584 756.096C294.011 754.437 292.796 752.449 291.938 750.131C291.08 747.814 290.651 745.24 290.651 742.408C290.651 739.919 290.966 737.587 291.595 735.413C292.253 733.239 293.139 731.351 294.254 729.749C295.398 728.147 296.727 726.888 298.243 725.973C299.758 725.029 301.388 724.557 303.132 724.557H317.415C319.13 724.557 320.474 725 321.446 725.887C322.419 726.774 322.905 727.818 322.905 729.02C322.905 729.964 322.619 730.936 322.047 731.937C321.504 732.939 320.803 733.868 319.945 734.727C319.087 735.556 318.144 736.243 317.115 736.786C316.085 737.33 315.113 737.602 314.198 737.602C313.912 737.602 313.683 737.501 313.512 737.301C313.34 737.072 313.254 736.829 313.254 736.572C313.254 736.314 313.312 736.1 313.426 735.928C313.54 735.756 313.655 735.57 313.769 735.37C313.912 735.141 314.026 734.87 314.112 734.555C314.227 734.212 314.284 733.768 314.284 733.225C314.284 732.395 314.127 731.637 313.812 730.951C313.526 730.264 313.111 729.678 312.568 729.191C312.054 728.676 311.424 728.276 310.681 727.99C309.966 727.704 309.166 727.561 308.279 727.561Z" fill="#6265FE"/>
<path d="M273.12 755.452C273.177 756.453 273.449 757.169 273.935 757.598C274.421 757.998 275.064 758.198 275.865 758.198C276.866 758.198 277.638 757.941 278.181 757.426C278.724 756.911 279.182 756.268 279.554 755.495C279.925 754.694 280.268 753.836 280.583 752.921C280.898 752.005 281.312 751.161 281.827 750.389C282.342 749.588 283.028 748.93 283.886 748.415C284.743 747.9 285.887 747.643 287.317 747.643C287.831 747.643 288.089 747.929 288.089 748.501V759.486C288.089 760.058 287.831 760.344 287.317 760.344H260.682C260.11 760.344 259.824 760.058 259.824 759.486V725.415C259.824 724.843 260.11 724.557 260.682 724.557H286.845C287.674 724.557 288.089 724.986 288.089 725.844C288.089 727.475 287.731 728.862 287.017 730.006C286.33 731.122 285.458 732.08 284.4 732.881C283.371 733.682 282.241 734.355 281.012 734.898C279.782 735.442 278.639 735.942 277.581 736.4C276.551 736.829 275.679 737.258 274.964 737.687C274.278 738.117 273.935 738.603 273.935 739.146C273.935 739.49 274.064 739.776 274.321 740.005C274.578 740.233 274.922 740.348 275.35 740.348C275.779 740.348 276.28 740.233 276.852 740.005C277.423 739.747 277.995 739.49 278.567 739.232C279.139 738.946 279.682 738.689 280.197 738.46C280.74 738.202 281.183 738.074 281.527 738.074C282.098 738.074 282.384 738.431 282.384 739.146V746.87C282.384 747.07 282.27 747.285 282.041 747.514C281.841 747.714 281.555 747.9 281.183 748.072C280.84 748.243 280.44 748.386 279.983 748.501C279.525 748.587 279.068 748.629 278.61 748.629C277.009 748.629 275.608 748.143 274.407 747.171C273.206 746.169 272.377 744.853 271.919 743.223C272.148 745.225 272.362 747.271 272.563 749.359C272.791 751.447 272.977 753.478 273.12 755.452ZM271.576 740.133C271.662 738.732 271.991 737.573 272.563 736.658C273.163 735.742 273.806 734.913 274.493 734.169C275.179 733.425 275.794 732.681 276.337 731.937C276.88 731.165 277.152 730.25 277.152 729.191C277.152 727.532 276.18 726.702 274.235 726.702C273.006 726.702 272.148 727.06 271.662 727.775C271.204 728.462 270.976 729.735 270.976 731.594C270.976 732.681 271.033 733.954 271.147 735.413C271.262 736.872 271.405 738.445 271.576 740.133Z" fill="#6265FE"/>
<path d="M247.579 724.557C249.008 724.557 250.309 724.857 251.482 725.458C252.682 726.059 253.712 726.874 254.57 727.904C255.427 728.905 256.085 730.078 256.543 731.423C257.029 732.738 257.272 734.126 257.272 735.585C257.272 737.215 256.986 738.631 256.414 739.833C255.871 741.034 255.17 742.136 254.312 743.137C253.454 744.11 252.539 745.025 251.567 745.883C250.595 746.741 249.68 747.628 248.822 748.544C247.965 749.459 247.25 750.46 246.678 751.547C246.135 752.634 245.863 753.907 245.863 755.366C245.863 756.253 245.977 756.954 246.206 757.469C246.463 757.955 246.864 758.198 247.407 758.198C247.95 758.198 248.322 757.941 248.522 757.426C248.751 756.911 248.922 756.268 249.037 755.495C249.18 754.694 249.337 753.836 249.509 752.921C249.709 752.005 250.066 751.161 250.581 750.389C251.096 749.588 251.839 748.93 252.811 748.415C253.783 747.9 255.113 747.643 256.8 747.643C257.4 747.643 257.701 747.929 257.701 748.501V759.486C257.701 760.058 257.4 760.344 256.8 760.344H243.547C242.975 760.344 242.689 760.058 242.689 759.486V734.126C242.689 733.096 242.66 732.224 242.603 731.508C242.575 730.765 242.489 730.192 242.346 729.792C242.174 729.334 241.888 728.991 241.488 728.762C241.116 728.533 240.702 728.419 240.244 728.419C239.815 728.419 239.401 728.533 239.001 728.762C238.6 728.991 238.314 729.334 238.143 729.792C238 730.192 237.9 730.765 237.842 731.508C237.814 732.224 237.8 733.096 237.8 734.126V759.486C237.8 760.058 237.514 760.344 236.942 760.344H223.689C223.088 760.344 222.788 760.058 222.788 759.486V748.501C222.788 747.929 223.088 747.643 223.689 747.643C225.376 747.643 226.705 747.9 227.678 748.415C228.65 748.93 229.393 749.588 229.908 750.389C230.423 751.161 230.766 752.005 230.937 752.921C231.137 753.836 231.295 754.694 231.409 755.495C231.552 756.268 231.724 756.911 231.924 757.426C232.152 757.941 232.538 758.198 233.082 758.198C233.625 758.198 234.011 757.955 234.24 757.469C234.497 756.954 234.626 756.253 234.626 755.366C234.626 753.907 234.34 752.634 233.768 751.547C233.225 750.46 232.524 749.459 231.666 748.544C230.809 747.628 229.894 746.741 228.921 745.883C227.949 745.025 227.034 744.11 226.176 743.137C225.319 742.136 224.604 741.034 224.032 739.833C223.489 738.631 223.217 737.215 223.217 735.585C223.217 734.126 223.446 732.738 223.903 731.423C224.389 730.078 225.061 728.905 225.919 727.904C226.777 726.874 227.792 726.059 228.964 725.458C230.165 724.857 231.48 724.557 232.91 724.557H247.579Z" fill="#6265FE"/>
<path d="M194.75 760.344C193.378 760.344 192.105 759.815 190.933 758.756C189.76 757.669 188.745 756.253 187.888 754.508C187.058 752.763 186.401 750.804 185.915 748.63C185.429 746.427 185.186 744.21 185.186 741.978C185.186 739.003 185.614 736.386 186.472 734.126C187.33 731.837 188.545 729.921 190.118 728.376C191.691 726.831 193.563 725.673 195.737 724.9C197.91 724.099 200.326 723.699 202.985 723.699C205.587 723.699 207.974 724.099 210.148 724.9C212.321 725.673 214.179 726.831 215.723 728.376C217.296 729.921 218.511 731.837 219.369 734.126C220.227 736.386 220.656 739.003 220.656 741.978C220.656 744.21 220.413 746.427 219.926 748.63C219.44 750.804 218.768 752.763 217.911 754.508C217.053 756.253 216.038 757.669 214.865 758.756C213.722 759.815 212.464 760.344 211.091 760.344H194.75ZM200.497 752.577C200.726 753.207 201.069 753.679 201.527 753.993C202.013 754.279 202.499 754.422 202.985 754.422C203.471 754.422 203.929 754.279 204.357 753.993C204.815 753.707 205.158 753.278 205.387 752.706C205.701 751.934 205.944 750.518 206.116 748.458C206.287 746.37 206.373 743.881 206.373 740.992C206.373 737.416 206.287 734.598 206.116 732.538C205.973 730.479 205.758 729.063 205.473 728.29C205.244 727.575 204.886 727.046 204.4 726.702C203.914 726.359 203.4 726.188 202.856 726.188C202.37 726.188 201.913 726.331 201.484 726.617C201.055 726.903 200.726 727.346 200.497 727.947C200.211 728.691 199.968 730.092 199.768 732.152C199.597 734.183 199.511 737.001 199.511 740.605C199.511 742.064 199.539 743.437 199.597 744.725C199.654 745.983 199.725 747.142 199.811 748.2C199.897 749.23 199.997 750.117 200.111 750.861C200.226 751.605 200.354 752.177 200.497 752.577Z" fill="#6265FE"/>
<path d="M165.186 744.167C164.671 745.969 164.285 747.786 164.028 749.616C163.771 751.419 163.613 753.006 163.556 754.38V759.486C163.556 760.058 163.27 760.344 162.698 760.344H150.818C150.246 760.344 149.96 760.058 149.96 759.486V725.415C149.96 724.843 150.246 724.557 150.818 724.557H163.041C163.613 724.557 163.899 724.843 163.899 725.415V731.122C163.899 733.296 163.699 735.284 163.299 737.087C162.927 738.86 162.498 740.605 162.012 742.322C161.555 744.01 161.126 745.74 160.725 747.514C160.325 749.288 160.096 751.247 160.039 753.393C160.039 753.85 160.268 754.079 160.725 754.079C161.183 754.079 161.412 753.836 161.412 753.35C161.555 751.004 161.883 748.644 162.398 746.269C162.941 743.895 163.628 741.607 164.457 739.404C165.286 737.201 166.23 735.156 167.288 733.268C168.346 731.351 169.475 729.692 170.676 728.29C171.877 726.86 173.121 725.744 174.407 724.943C175.694 724.114 176.966 723.699 178.225 723.699C178.51 723.699 178.825 723.727 179.168 723.785C179.54 723.813 179.883 723.885 180.197 723.999C180.541 724.114 180.827 724.285 181.055 724.514C181.284 724.743 181.398 725.043 181.398 725.415V736.486C181.398 737.058 181.284 737.459 181.055 737.687C180.855 737.888 180.569 737.988 180.197 737.988C179.711 737.988 179.111 737.845 178.396 737.559C177.71 737.244 176.981 736.915 176.209 736.572C175.437 736.2 174.665 735.871 173.893 735.585C173.121 735.27 172.434 735.113 171.834 735.113C170.519 735.342 169.389 736.043 168.446 737.215C167.531 738.36 166.744 739.761 166.087 741.421C167.002 740.477 168.16 739.862 169.561 739.575C170.99 739.261 172.42 739.247 173.85 739.533C175.308 739.79 176.638 740.319 177.839 741.12C179.039 741.921 179.869 742.937 180.326 744.167C180.698 745.168 180.927 746.484 181.012 748.115C181.098 749.717 181.055 751.505 180.884 753.478C180.798 754.508 180.755 755.324 180.755 755.924C180.784 756.496 180.855 756.94 180.969 757.254C181.112 757.541 181.313 757.741 181.57 757.855C181.856 757.941 182.199 758.013 182.599 758.07C182.885 758.127 183.114 758.27 183.286 758.499C183.457 758.728 183.543 758.971 183.543 759.228C183.571 759.486 183.514 759.743 183.371 760.001C183.228 760.23 183.014 760.387 182.728 760.473C181.27 760.959 179.497 761.202 177.41 761.202C173.807 761.202 171.176 760.587 169.518 759.357C167.888 758.098 167.073 756.053 167.073 753.221C167.073 752.563 167.102 751.876 167.159 751.161C167.245 750.417 167.33 749.688 167.416 748.973C167.502 748.258 167.573 747.571 167.631 746.913C167.716 746.255 167.759 745.669 167.759 745.154C167.759 743.666 167.316 742.922 166.43 742.922C166.144 742.922 165.915 742.994 165.744 743.137C165.601 743.251 165.415 743.595 165.186 744.167Z" fill="#6265FE"/>
<path d="M68.1182 696.937V87.5971C68.1182 73.7316 79.3475 62.491 93.1992 62.491H417.759C431.61 62.491 442.842 73.7316 442.842 87.5971V696.937C442.842 698.902 441.25 700.495 439.287 700.495H71.6706C69.7077 700.495 68.1182 698.902 68.1182 696.937Z" fill="#6265FE"/>
<mask id="mask0_358_9857" style="mask-type:luminance" maskUnits="userSpaceOnUse" x="68" y="62" width="375" height="639">
<path d="M68.1182 696.937V87.5971C68.1182 73.7316 79.3475 62.491 93.1992 62.491H417.759C431.61 62.491 442.842 73.7316 442.842 87.5971V696.937C442.842 698.902 441.25 700.495 439.287 700.495H71.6706C69.7077 700.495 68.1182 698.902 68.1182 696.937Z" fill="white"/>
</mask>
<g mask="url(#mask0_358_9857)">
<path d="M305.42 -81.8031L205.188 891.656" stroke="#CFE7FF" stroke-width="2" stroke-miterlimit="10"/>
<path d="M741.546 455.093L-230.938 354.76" stroke="#CFE7FF" stroke-width="2" stroke-miterlimit="10"/>
<path d="M-53.0859 25.2832L563.69 784.567" stroke="#CFE7FF" stroke-width="2" stroke-miterlimit="10"/>
<path d="M634.565 96.2281L-123.959 713.622" stroke="#CFE7FF" stroke-width="2" stroke-miterlimit="10"/>
<path d="M117.573 -64.5565L393.034 874.409" stroke="#CFE7FF" stroke-width="2" stroke-miterlimit="10"/>
<path d="M724.316 267.058L-213.709 542.795" stroke="#CFE7FF" stroke-width="2" stroke-miterlimit="10"/>
<path d="M-173.73 170.438L684.336 639.412" stroke="#CFE7FF" stroke-width="2" stroke-miterlimit="10"/>
<path d="M489.555 -24.5356L21.0508 834.388" stroke="#CFE7FF" stroke-width="2" stroke-miterlimit="10"/>
<path d="M206.244 -81.9102L304.361 891.763" stroke="#CFE7FF" stroke-width="2" stroke-miterlimit="10"/>
<path d="M741.652 355.818L-231.048 454.033" stroke="#CFE7FF" stroke-width="2" stroke-miterlimit="10"/>
<path d="M-123.287 95.4043L633.894 714.449" stroke="#CFE7FF" stroke-width="2" stroke-miterlimit="10"/>
<path d="M564.513 25.9564L-53.9092 783.896" stroke="#CFE7FF" stroke-width="2" stroke-miterlimit="10"/>
<path d="M25.7422 -27.0665L484.864 836.919" stroke="#CFE7FF" stroke-width="2" stroke-miterlimit="10"/>
<path d="M686.864 175.133L-176.257 634.717" stroke="#CFE7FF" stroke-width="2" stroke-miterlimit="10"/>
<path d="M-212.181 261.948L722.786 547.905" stroke="#CFE7FF" stroke-width="2" stroke-miterlimit="10"/>
<path d="M398.139 -63.0265L112.469 872.879" stroke="#CFE7FF" stroke-width="2" stroke-miterlimit="10"/>
</g>
<mask id="mask1_358_9857" style="mask-type:luminance" maskUnits="userSpaceOnUse" x="68" y="62" width="375" height="639">
<path d="M68.1182 696.937V87.5971C68.1182 73.7316 79.3475 62.491 93.1992 62.491H417.759C431.61 62.491 442.842 73.7316 442.842 87.5971V696.937C442.842 698.902 441.25 700.495 439.287 700.495H71.6706C69.7077 700.495 68.1182 698.902 68.1182 696.937Z" fill="white"/>
</mask>
<g mask="url(#mask1_358_9857)">
<path d="M316.681 103.948C316.559 107.504 317.64 111.088 319.71 113.982C321.777 116.874 324.821 119.057 328.221 120.086C328.614 132.704 336.308 144.712 347.756 150.01C356.601 154.101 366.828 154.774 376.428 153.094V62.8999H372.422C372.422 62.8999 370.533 70.1212 355.241 71.4457C355.241 71.4457 357.415 102.814 316.681 103.948Z" fill="#CFE7FF" stroke="#B6BBFF" stroke-width="2" stroke-miterlimit="10"/>
<path d="M376.43 144.747C373.459 145.64 370.378 146.032 367.033 146.005C364.004 145.984 360.961 145.553 358.057 144.69C353.668 143.387 349.692 140.579 347.236 136.712C344.781 132.846 343.936 127.926 345.24 123.533C346.543 119.142 350.057 115.405 354.445 114.1C358.832 112.795 363.954 114.096 366.998 117.518C368.31 118.994 369.238 120.843 369.441 122.805C369.644 124.768 369.279 127.039 367.959 128.503C366.88 129.701 365.443 130.514 363.886 130.925C362.478 131.296 360.902 131.342 359.502 130.944C358.103 130.544 356.627 129.561 356.063 128.027" stroke="#6265FE" stroke-width="2" stroke-miterlimit="10"/>
<path d="M348.512 131.924C350.309 136.205 354.031 139.63 358.444 141.062" stroke="#6265FE" stroke-width="2" stroke-miterlimit="10"/>
<path d="M343.356 108.597C347.933 105.13 353.669 103.229 359.407 103.27C365.145 103.314 372.108 105.764 376.431 111.91" stroke="#6265FE" stroke-width="2" stroke-miterlimit="10"/>
<path d="M363.957 96.0052C368.505 96.0664 373.014 97.7909 376.444 100.779" stroke="#6265FE" stroke-width="2" stroke-miterlimit="10"/>
<path d="M367.228 91.6122C369.278 91.8111 371.295 92.3487 373.175 93.1924" stroke="#6265FE" stroke-width="2" stroke-miterlimit="10"/>
<path d="M321.668 103.672C321.683 107.502 323.961 111.239 327.358 113.003" stroke="#6265FE" stroke-width="2" stroke-miterlimit="10"/>
<path d="M362.234 133.698C359.35 134.326 356.145 133.336 354.184 131.209C352.225 129.082 351.592 125.909 352.596 123.24C352.865 122.526 353.245 121.844 353.751 121.26C355.033 119.783 357.147 119.018 359.127 119.313C361.105 119.608 362.878 120.956 363.629 122.738" stroke="#6265FE" stroke-width="2" stroke-miterlimit="10"/>
<path d="M405.494 179.227C403.812 185.388 403.404 191.998 405.14 198.144C406.878 204.29 410.908 209.922 416.601 212.886C416.018 216.863 417.36 221.211 420.166 224.107C422.972 227.002 427.16 228.517 431.186 228.091C429.293 230.058 428.42 233.45 429.605 235.904C429.917 236.549 430.345 237.135 430.832 237.664C431.974 238.91 433.439 239.863 435.046 240.405C429.155 243.312 424.452 248.83 422.467 255.059C420.483 261.288 420.954 268.199 423.476 274.234C425.998 280.266 430.507 285.413 436.007 288.997C438.265 290.47 440.682 291.686 443.09 292.899V178.029C443.09 178.029 433.227 180.361 423.555 180.361C413.88 180.361 405.494 179.227 405.494 179.227Z" fill="#B6BBFF" stroke="#CFE7FF" stroke-width="2" stroke-miterlimit="10"/>
<path d="M431.967 198.74C433.609 199.302 435.5 198.552 436.631 197.234C438.508 195.047 438.371 191.497 436.541 189.268C434.711 187.038 431.489 186.184 428.7 186.912C425.912 187.64 423.609 189.799 422.388 192.413C421.072 195.232 420.96 198.589 422.085 201.49C423.209 204.39 425.554 206.794 428.425 207.985C427.941 210.427 428.434 213.314 430.045 215.209C431.657 217.102 434.159 218.201 436.642 218.109" stroke="#6265FE" stroke-width="2" stroke-miterlimit="10"/>
<path d="M409.34 183.205C407.794 188.015 407.513 193.084 408.952 197.929C410.391 202.775 413.805 206.346 417.895 208.897" stroke="#6265FE" stroke-width="2" stroke-miterlimit="10"/>
<path d="M442.175 285.249C437.295 283.313 433 279.844 430.806 275.326" stroke="#6265FE" stroke-width="2" stroke-miterlimit="10"/>
<path d="M437.695 237.854C436.721 238.658 436.088 239.86 435.972 241.119C435.858 242.378 436.264 243.674 437.077 244.643" stroke="#6265FE" stroke-width="2" stroke-miterlimit="10"/>
<path d="M433.662 229.271C432.402 228.165 431.657 226.495 431.677 224.819" stroke="#6265FE" stroke-width="2" stroke-miterlimit="10"/>
<path d="M416.183 185.948C414.375 188.656 413.561 192.011 413.923 195.248" stroke="#6265FE" stroke-width="2" stroke-miterlimit="10"/>
<path d="M433.223 191.137C432.498 190.682 431.612 190.487 430.762 190.599C430.214 190.671 429.677 190.868 429.234 191.202C428.201 191.98 427.819 193.405 427.983 194.69C428.081 195.468 428.409 196.286 429.099 196.655" stroke="#6265FE" stroke-width="2" stroke-miterlimit="10"/>
<path d="M442.521 195.704C442.358 198.86 440.351 201.852 437.497 203.201C434.644 204.55 431.061 204.198 428.523 202.32" stroke="#6265FE" stroke-width="2" stroke-miterlimit="10"/>
<path d="M243.785 61.8573C243.827 69.1944 248.231 76.1075 254.329 80.1771C260.427 84.2467 268.006 85.6936 275.325 85.3024C276.087 90.9893 280.63 96.1124 286.096 97.8434C291.561 99.5744 297.604 98.6717 302.862 96.3878C309.181 102.993 318.594 105.701 327.729 105.637C337.028 105.574 346.48 102.759 353.592 96.7615C360.703 90.7642 365.184 81.401 364.269 72.1384C367.939 72.3592 371.419 71.4937 374.703 69.8413C377.987 68.1868 381.116 65.1226 382.614 61.7633L243.785 61.8573Z" fill="#B6BBFF" stroke="#CFE7FF" stroke-width="2" stroke-miterlimit="10"/>
<path d="M303.04 96.1891C302.935 96.3967 302.618 96.259 302.45 96.0973C298.081 91.9206 295.865 85.5998 296.668 79.6068" stroke="#6265FE" stroke-width="2" stroke-miterlimit="10"/>
<path d="M312.231 79.1499C313.537 75.3732 317.024 72.4423 320.965 71.8085C324.906 71.1725 329.136 72.8619 331.559 76.0376C333.055 77.9981 333.876 80.5597 333.391 82.9791C332.906 85.3986 330.965 87.5624 328.529 87.9405C326.094 88.3186 323.413 86.5898 323.077 84.1463" stroke="#6265FE" stroke-width="2" stroke-miterlimit="10"/>
<path d="M310.096 95.8524C317.061 100.204 325.945 101.343 333.781 98.8882" stroke="#6265FE" stroke-width="2" stroke-miterlimit="10"/>
<path d="M343.41 95.5705C351.694 91.9206 357.312 82.918 356.952 73.863" stroke="#6265FE" stroke-width="2" stroke-miterlimit="10"/>
<path d="M273.635 81.7159C274.598 84.0349 276.93 85.7222 279.432 85.9101" stroke="#6265FE" stroke-width="2" stroke-miterlimit="10"/>
<path d="M247.958 61.8573C248.233 65.9794 249.875 69.9987 252.563 73.1351C255.251 76.2714 258.971 78.5051 263.002 79.4034" stroke="#6265FE" stroke-width="2" stroke-miterlimit="10"/>
<path d="M289.775 92.2833C289.865 92.3904 290.013 92.421 290.151 92.4429C292.996 92.9019 295.983 92.4298 298.548 91.1162" stroke="#6265FE" stroke-width="2" stroke-miterlimit="10"/>
<path d="M273.772 61.7722C274.644 64.0212 276.471 65.8178 278.585 66.974C280.7 68.1324 283.091 68.6962 285.484 68.9847C289.056 69.4153 292.183 69.247 295.62 68.1804C299.057 67.1139 302.428 64.8058 303.681 61.9624" stroke="#6265FE" stroke-width="2" stroke-miterlimit="10"/>
<path d="M333.413 64.985C337.182 66.2526 340.446 68.9606 342.387 72.4336C344.328 75.9065 344.926 80.1094 344.031 83.9867" stroke="#6265FE" stroke-width="2" stroke-miterlimit="10"/>
<path d="M327.761 77.0694C325.376 75.1242 321.778 74.8226 319.105 76.3481C316.431 77.8737 314.854 81.1215 315.311 84.1682C315.767 87.215 318.226 89.8596 321.23 90.5328" stroke="#6265FE" stroke-width="2" stroke-miterlimit="10"/>
<path d="M346.566 67.7389C348.193 69.2797 349.398 71.2665 350.014 73.4215" stroke="#6265FE" stroke-width="2" stroke-miterlimit="10"/>
<path d="M261.864 62.1044C262.766 65.8068 265.871 68.882 269.58 69.7475" stroke="#6265FE" stroke-width="2" stroke-miterlimit="10"/>
<path d="M354.926 61.8136C348.887 70.4358 346.155 81.5694 348.603 91.8111C351.051 102.053 359.016 111.051 369.193 113.722C366.306 117.678 365.557 125.188 366.841 129.915C368.125 134.643 371.642 138.708 376.134 140.655C370.121 153.95 375.239 172.913 387.178 181.29C399.116 189.668 415.935 189.569 428.625 182.381C428.625 184.061 428.949 187.519 430.582 189.81C433.665 194.139 438.202 195.311 443.523 194.601V61.8136H354.926Z" fill="#CFE7FF" stroke="#CFE7FF" stroke-width="2" stroke-miterlimit="10"/>
<path d="M375.62 142.006C373.284 150.156 375.496 160.726 380.666 167.32C385.837 173.912 393.957 177.868 402.138 178.058C405.894 178.145 409.697 177.487 413.101 175.835C419.025 172.963 424.271 167.519 425.119 159.578C425.966 151.623 422.309 144.874 416.898 141.064C411.485 137.255 403.797 137.172 398.47 141.108C393.142 145.044 390.706 152.84 393.048 159.183" stroke="#6265FE" stroke-width="2" stroke-miterlimit="10"/>
<path d="M389.192 62.0302C385.172 70.2699 384.223 80.197 387.664 88.6968C391.105 97.1967 399.236 103.891 408.369 104.597C407.424 108.826 407.603 114.059 410.063 117.626C412.723 121.479 417.083 123.597 421.411 123.446C421.411 128.613 423.254 134.042 428.081 137.331C432.299 140.205 439.083 140.435 443.516 138.701" stroke="#6265FE" stroke-width="2" stroke-miterlimit="10"/>
<path d="M439.778 70.9803C437.866 68.9214 434.357 68.1958 431.615 69.011C428.872 69.8241 426.687 72.0447 425.743 74.6543C424.8 77.2639 424.667 80.2036 425.781 82.7498C426.75 84.9682 429.551 87.1582 432.383 87.1582" stroke="#6265FE" stroke-width="2" stroke-miterlimit="10"/>
<path d="M417.018 153.951C418.411 158.645 416.302 164.09 412.229 166.806C408.157 169.523 402.478 169.438 398.36 166.793" stroke="#6265FE" stroke-width="2" stroke-miterlimit="10"/>
<path d="M369.559 106.341C369.385 108.56 369.583 110.841 370.42 112.903C371.256 114.966 372.773 116.795 374.782 117.752" stroke="#6265FE" stroke-width="2" stroke-miterlimit="10"/>
<path d="M378.662 136.752C376.876 138.931 377.039 142.459 379.022 144.461" stroke="#6265FE" stroke-width="2" stroke-miterlimit="10"/>
<path d="M413.662 181.24C403.793 185.452 391.614 184.276 380.184 174.187" stroke="#6265FE" stroke-width="2" stroke-miterlimit="10"/>
<path d="M437.109 180.361C437.186 181.876 437.865 183.349 438.965 184.392C440.066 185.432 441.574 186.029 443.09 186.018" stroke="#6265FE" stroke-width="2" stroke-miterlimit="10"/>
<path d="M418.021 69.8766C415.252 75.4783 415.267 82.3761 418.062 87.9669C420.857 93.5577 426.364 97.7038 432.503 98.8425C431.794 102.464 431.796 106.628 433.626 109.832C435.453 113.036 439.42 115.381 443.104 115.272" stroke="#6265FE" stroke-width="2" stroke-miterlimit="10"/>
<path d="M377.603 62.2007C374.509 68.5696 372.822 75.734 373.549 82.7782C374.276 89.8225 377.562 96.7137 383.088 101.135" stroke="#6265FE" stroke-width="2" stroke-miterlimit="10"/>
<path d="M427.173 183.166C432.029 180.355 436.444 174.552 437.487 169.195" stroke="#6265FE" stroke-width="2" stroke-miterlimit="10"/>
<path d="M406.415 96.729C406.415 100.235 407.679 103.607 410.31 105.662C411.688 106.737 413.454 107.404 415.548 107.795" stroke="#6265FE" stroke-width="2" stroke-miterlimit="10"/>
<path d="M443.52 132.188C439.533 134.16 434.544 133.937 430.747 131.62" stroke="#6265FE" stroke-width="2" stroke-miterlimit="10"/>
<path d="M371.476 62.1984C369.343 65.1861 368.029 68.753 367.71 72.4117" stroke="#6265FE" stroke-width="2" stroke-miterlimit="10"/>
<path d="M362.43 61.8136C358.83 65.9728 355.707 71.9177 354.893 77.3599C354.297 81.353 354.159 85.451 354.939 89.4135C355.718 93.376 357.454 97.2052 360.251 100.114" stroke="#6265FE" stroke-width="2" stroke-miterlimit="10"/>
<path d="M354.926 61.8136C348.887 70.4358 346.155 81.5694 348.603 91.8111C351.051 102.053 359.016 111.051 369.193 113.722C366.306 117.678 365.557 125.188 366.841 129.915C368.125 134.643 371.642 138.708 376.134 140.655C370.121 153.95 375.239 172.913 387.178 181.29C399.116 189.668 415.935 189.569 428.625 182.381C428.625 184.061 428.949 187.519 430.582 189.81C433.665 194.139 438.202 195.311 443.523 194.601V61.8136H354.926Z" stroke="#B6BBFF" stroke-width="2" stroke-miterlimit="10"/>
</g>
<mask id="mask2_358_9857" style="mask-type:luminance" maskUnits="userSpaceOnUse" x="68" y="62" width="375" height="639">
<path d="M68.1182 696.937V87.5971C68.1182 73.7316 79.3475 62.491 93.1992 62.491H417.759C431.61 62.491 442.842 73.7316 442.842 87.5971V696.937C442.842 698.902 441.25 700.495 439.287 700.495H71.6706C69.7077 700.495 68.1182 698.902 68.1182 696.937Z" fill="white"/>
</mask>
<g mask="url(#mask2_358_9857)">
<path d="M194.991 658.125C195.113 654.569 194.03 650.985 191.962 648.091C189.895 645.199 186.851 643.016 183.451 641.987C183.058 629.369 175.364 617.361 163.914 612.063C155.069 607.972 144.842 607.299 135.241 608.98V699.173H139.248C139.248 699.173 141.136 691.952 156.429 690.627C156.429 690.627 154.257 659.26 194.991 658.125Z" fill="#CFE7FF" stroke="#B6BBFF" stroke-width="2" stroke-miterlimit="10"/>
<path d="M135.241 617.326C138.213 616.432 141.294 616.041 144.639 616.065C147.667 616.087 150.713 616.518 153.615 617.381C158.003 618.684 161.979 621.492 164.436 625.358C166.89 629.225 167.735 634.145 166.431 638.538C165.128 642.929 161.615 646.666 157.226 647.971C152.84 649.276 147.717 647.975 144.674 644.553C143.364 643.077 142.433 641.228 142.23 639.266C142.027 637.303 142.392 635.032 143.713 633.568C144.792 632.37 146.228 631.557 147.785 631.146C149.193 630.774 150.77 630.729 152.169 631.126C153.569 631.526 155.043 632.51 155.608 634.046" stroke="#6265FE" stroke-width="2" stroke-miterlimit="10"/>
<path d="M163.161 630.147C161.364 625.865 157.641 622.441 153.229 621.009" stroke="#6265FE" stroke-width="2" stroke-miterlimit="10"/>
<path d="M168.316 653.476C163.739 656.943 158.003 658.844 152.265 658.803C146.527 658.759 139.564 656.309 135.241 650.163" stroke="#6265FE" stroke-width="2" stroke-miterlimit="10"/>
<path d="M147.715 666.068C143.166 666.007 138.658 664.282 135.228 661.294" stroke="#6265FE" stroke-width="2" stroke-miterlimit="10"/>
<path d="M144.444 670.459C142.394 670.26 140.376 669.722 138.496 668.878" stroke="#6265FE" stroke-width="2" stroke-miterlimit="10"/>
<path d="M190.003 658.4C189.988 654.571 187.711 650.834 184.315 649.07" stroke="#6265FE" stroke-width="2" stroke-miterlimit="10"/>
<path d="M149.438 628.372C152.322 627.745 155.528 628.735 157.488 630.862C159.447 632.988 160.08 636.162 159.076 638.831C158.807 639.545 158.427 640.227 157.921 640.811C156.639 642.288 154.525 643.053 152.547 642.758C150.569 642.463 148.798 641.115 148.045 639.335" stroke="#6265FE" stroke-width="2" stroke-miterlimit="10"/>
<path d="M106.177 582.846C107.859 576.685 108.267 570.076 106.531 563.93C104.795 557.784 100.763 552.151 95.0704 549.188C95.6533 545.21 94.3105 540.863 91.5048 537.967C88.6991 535.071 84.5091 533.556 80.4851 533.982C82.3781 532.015 83.2515 528.623 82.0659 526.169C81.7537 525.524 81.3257 524.938 80.8388 524.409C79.6969 523.164 78.2318 522.211 76.6248 521.671C82.5157 518.764 87.2188 513.245 89.2035 507.016C91.1882 500.787 90.7166 493.876 88.1948 487.842C85.6729 481.807 81.1641 476.662 75.6641 473.078C73.4064 471.605 70.9894 470.39 68.5811 469.177V584.042C68.5811 584.042 78.4414 581.71 88.1162 581.71C97.7909 581.71 106.177 582.846 106.177 582.846Z" fill="#B6BBFF" stroke="#CFE7FF" stroke-width="2" stroke-miterlimit="10"/>
<path d="M79.703 563.333C78.0611 562.771 76.1702 563.521 75.0392 564.839C73.1615 567.027 73.299 570.576 75.1287 572.805C76.9585 575.035 80.1812 575.889 82.9694 575.162C85.7577 574.434 88.0612 572.274 89.2817 569.66C90.5983 566.841 90.7097 563.484 89.5852 560.583C88.4607 557.683 86.1157 555.279 83.2445 554.088C83.7292 551.647 83.2358 548.759 81.6244 546.864C80.0131 544.972 77.5109 543.872 75.0283 543.964" stroke="#6265FE" stroke-width="2" stroke-miterlimit="10"/>
<path d="M102.33 578.868C103.876 574.058 104.158 568.989 102.719 564.144C101.28 559.298 97.8671 555.727 93.7754 553.177" stroke="#6265FE" stroke-width="2" stroke-miterlimit="10"/>
<path d="M69.4961 476.824C74.376 478.761 78.6708 482.229 80.8652 486.747" stroke="#6265FE" stroke-width="2" stroke-miterlimit="10"/>
<path d="M73.9736 524.219C74.9474 523.415 75.5806 522.213 75.6964 520.954C75.8099 519.695 75.4038 518.399 74.5915 517.431" stroke="#6265FE" stroke-width="2" stroke-miterlimit="10"/>
<path d="M78.0088 532.802C79.2686 533.906 80.0132 535.578 79.9935 537.254" stroke="#6265FE" stroke-width="2" stroke-miterlimit="10"/>
<path d="M95.4873 576.123C97.2952 573.415 98.1096 570.06 97.7471 566.823" stroke="#6265FE" stroke-width="2" stroke-miterlimit="10"/>
<path d="M78.4473 570.937C79.1722 571.391 80.0586 571.584 80.908 571.474C81.456 571.402 81.9931 571.205 82.4364 570.871C83.4691 570.093 83.8512 568.668 83.6875 567.383C83.5892 566.605 83.2639 565.787 82.5718 565.418" stroke="#6265FE" stroke-width="2" stroke-miterlimit="10"/>
<path d="M69.1484 566.369C69.3122 563.213 71.3188 560.221 74.1725 558.872C77.0262 557.524 80.6092 557.876 83.1464 559.753" stroke="#6265FE" stroke-width="2" stroke-miterlimit="10"/>
<path d="M267.886 700.216C267.845 692.879 263.441 685.966 257.344 681.896C251.246 677.827 243.668 676.38 236.349 676.771C235.587 671.084 231.043 665.961 225.578 664.23C220.113 662.499 214.069 663.399 208.811 665.685C202.492 659.08 193.08 656.373 183.944 656.436C174.645 656.499 165.193 659.314 158.082 665.312C150.97 671.309 146.49 680.672 147.405 689.935C143.734 689.712 140.254 690.58 136.97 692.232C133.686 693.886 130.557 696.951 129.06 700.31L267.886 700.216Z" fill="#B6BBFF" stroke="#CFE7FF" stroke-width="2" stroke-miterlimit="10"/>
<path d="M208.633 665.882C208.738 665.674 209.054 665.812 209.222 665.974C213.591 670.151 215.808 676.471 215.004 682.466" stroke="#6265FE" stroke-width="2" stroke-miterlimit="10"/>
<path d="M199.44 682.923C198.135 686.7 194.648 689.631 190.707 690.265C186.766 690.899 182.536 689.211 180.113 686.036C178.617 684.075 177.796 681.514 178.281 679.094C178.766 676.675 180.707 674.511 183.143 674.133C185.578 673.755 188.259 675.483 188.595 677.927" stroke="#6265FE" stroke-width="2" stroke-miterlimit="10"/>
<path d="M201.575 666.221C194.61 661.869 185.726 660.731 177.89 663.185" stroke="#6265FE" stroke-width="2" stroke-miterlimit="10"/>
<path d="M168.261 666.501C159.977 670.151 154.361 679.153 154.719 688.208" stroke="#6265FE" stroke-width="2" stroke-miterlimit="10"/>
<path d="M238.037 680.357C237.074 678.038 234.742 676.351 232.24 676.163" stroke="#6265FE" stroke-width="2" stroke-miterlimit="10"/>
<path d="M263.714 700.216C263.439 696.094 261.797 692.075 259.109 688.938C256.421 685.802 252.701 683.568 248.67 682.67" stroke="#6265FE" stroke-width="2" stroke-miterlimit="10"/>
<path d="M221.897 669.79C221.807 669.683 221.659 669.652 221.521 669.63C218.676 669.171 215.69 669.641 213.124 670.957" stroke="#6265FE" stroke-width="2" stroke-miterlimit="10"/>
<path d="M237.899 700.301C237.028 698.052 235.2 696.255 233.087 695.099C230.971 693.941 228.58 693.377 226.187 693.086C222.615 692.656 219.488 692.824 216.051 693.891C212.615 694.957 209.244 697.265 207.99 700.109" stroke="#6265FE" stroke-width="2" stroke-miterlimit="10"/>
<path d="M178.259 697.088C174.49 695.82 171.226 693.113 169.285 689.64C167.344 686.167 166.746 681.964 167.641 678.089" stroke="#6265FE" stroke-width="2" stroke-miterlimit="10"/>
<path d="M183.912 685.002C186.296 686.949 189.895 687.248 192.567 685.723C195.242 684.197 196.818 680.947 196.362 677.903C195.906 674.856 193.447 672.211 190.443 671.538" stroke="#6265FE" stroke-width="2" stroke-miterlimit="10"/>
<path d="M165.106 694.334C163.479 692.794 162.274 690.807 161.658 688.652" stroke="#6265FE" stroke-width="2" stroke-miterlimit="10"/>
<path d="M249.808 699.969C248.904 696.266 245.801 693.191 242.092 692.326" stroke="#6265FE" stroke-width="2" stroke-miterlimit="10"/>
<path d="M156.745 700.259C162.785 691.637 165.516 680.504 163.068 670.262C160.621 660.02 152.656 651.022 142.479 648.351C145.365 644.395 146.116 636.885 144.83 632.158C143.546 627.43 140.029 623.365 135.538 621.418C141.551 608.123 136.433 589.16 124.494 580.783C112.555 572.405 95.736 572.504 83.0459 579.692C83.0459 578.012 82.7228 574.554 81.0896 572.263C78.0066 567.934 73.4694 566.762 68.1484 567.473V700.262H156.745V700.259Z" fill="#CFE7FF" stroke="#CFE7FF" stroke-width="2" stroke-miterlimit="10"/>
<path d="M136.051 620.065C138.387 611.915 136.175 601.345 131.005 594.751C125.835 588.157 117.714 584.204 109.533 584.014C105.778 583.926 101.974 584.584 98.5701 586.234C92.6465 589.106 87.3997 594.55 86.5526 602.491C85.7054 610.446 89.3626 617.195 94.7732 621.005C100.186 624.815 107.874 624.898 113.201 620.961C118.529 617.025 120.966 609.229 118.623 602.886" stroke="#6265FE" stroke-width="2" stroke-miterlimit="10"/>
<path d="M122.478 700.043C126.498 691.803 127.447 681.876 124.006 673.377C120.565 664.877 112.434 658.182 103.301 657.476C104.246 653.247 104.065 648.015 101.607 644.448C98.9471 640.595 94.5868 638.475 90.2593 638.628C90.2593 633.463 88.4165 628.032 83.5889 624.742C79.3706 621.868 72.5866 621.639 68.1543 623.372" stroke="#6265FE" stroke-width="2" stroke-miterlimit="10"/>
<path d="M71.8926 691.093C73.8053 693.152 77.314 693.875 80.0564 693.062C82.7988 692.249 84.9844 690.029 85.9276 687.419C86.8709 684.81 87.0041 681.87 85.8905 679.324C84.9211 677.105 82.1197 674.915 79.2878 674.915" stroke="#6265FE" stroke-width="2" stroke-miterlimit="10"/>
<path d="M94.6551 608.123C93.2621 603.428 95.3713 597.984 99.4434 595.267C103.513 592.55 109.195 592.636 113.31 595.28" stroke="#6265FE" stroke-width="2" stroke-miterlimit="10"/>
<path d="M142.111 655.732C142.286 653.514 142.087 651.232 141.251 649.171C140.415 647.107 138.897 645.276 136.889 644.321" stroke="#6265FE" stroke-width="2" stroke-miterlimit="10"/>
<path d="M133.009 625.321C134.795 623.142 134.631 619.615 132.648 617.613" stroke="#6265FE" stroke-width="2" stroke-miterlimit="10"/>
<path d="M98.0088 580.833C107.878 576.622 120.057 577.797 131.487 587.886" stroke="#6265FE" stroke-width="2" stroke-miterlimit="10"/>
<path d="M74.5615 581.712C74.485 580.197 73.806 578.724 72.7055 577.682C71.6051 576.641 70.0964 576.045 68.5811 576.053" stroke="#6265FE" stroke-width="2" stroke-miterlimit="10"/>
<path d="M93.6506 692.195C96.4192 686.593 96.4039 679.693 93.6091 674.104C90.8143 668.516 85.3077 664.367 79.1679 663.229C79.8775 659.607 79.8753 655.443 78.0456 652.239C76.2181 649.035 72.2508 646.69 68.5674 646.799" stroke="#6265FE" stroke-width="2" stroke-miterlimit="10"/>
<path d="M134.069 699.873C137.163 693.504 138.85 686.339 138.123 679.295C137.396 672.251 134.11 665.359 128.584 660.938" stroke="#6265FE" stroke-width="2" stroke-miterlimit="10"/>
<path d="M84.4981 578.908C79.6422 581.718 75.2273 587.521 74.1836 592.88" stroke="#6265FE" stroke-width="2" stroke-miterlimit="10"/>
<path d="M105.255 665.344C105.255 661.839 103.989 658.466 101.36 656.412C99.9824 655.336 98.216 654.67 96.1221 654.279" stroke="#6265FE" stroke-width="2" stroke-miterlimit="10"/>
<path d="M68.1504 629.885C72.1373 627.914 77.1265 628.136 80.9234 630.453" stroke="#6265FE" stroke-width="2" stroke-miterlimit="10"/>
<path d="M140.195 699.875C142.329 696.887 143.643 693.32 143.962 689.662" stroke="#6265FE" stroke-width="2" stroke-miterlimit="10"/>
<path d="M149.24 700.259C152.841 696.098 155.963 690.155 156.777 684.713C157.376 680.72 157.511 676.622 156.732 672.659C155.952 668.697 154.216 664.868 151.419 661.959" stroke="#6265FE" stroke-width="2" stroke-miterlimit="10"/>
<path d="M156.745 700.259C162.785 691.637 165.516 680.504 163.068 670.262C160.621 660.02 152.656 651.022 142.479 648.351C145.365 644.395 146.116 636.885 144.83 632.158C143.546 627.43 140.029 623.365 135.538 621.418C141.551 608.123 136.433 589.16 124.494 580.783C112.555 572.405 95.736 572.504 83.0459 579.692C83.0459 578.012 82.7228 574.554 81.0896 572.263C78.0066 567.934 73.4694 566.762 68.1484 567.473V700.262H156.745V700.259Z" stroke="#B6BBFF" stroke-width="2" stroke-miterlimit="10"/>
</g>
<mask id="mask3_358_9857" style="mask-type:luminance" maskUnits="userSpaceOnUse" x="68" y="62" width="375" height="639">
<path d="M68.1182 696.937V87.5971C68.1182 73.7316 79.3475 62.491 93.1992 62.491H417.759C431.61 62.491 442.842 73.7316 442.842 87.5971V696.937C442.842 698.902 441.25 700.495 439.287 700.495H71.6706C69.7077 700.495 68.1182 698.902 68.1182 696.937Z" fill="white"/>
</mask>
<g mask="url(#mask3_358_9857)">
<path d="M222.246 61.2015C217.53 73.4541 204.578 81.7288 192.084 83.1495C179.591 84.5701 167.267 79.2525 158.13 70.6084C154.59 75.1873 148.064 77.1434 142.691 74.9993C138.199 86.3361 129.095 95.7626 117.926 100.639C106.758 105.515 92.1139 105.515 80.2492 100.647C79.1924 97.9395 81.7339 95.4261 82.4523 92.611C83.7558 87.5076 81.9588 85.1318 81.7143 79.8689C81.4697 74.6081 71.4282 65.6055 67.8779 61.7173L222.246 61.2015Z" fill="#B6BBFF" stroke="#CFE7FF" stroke-width="2" stroke-miterlimit="10"/>
<path d="M100.083 98.523C110.533 98.7219 121.502 94.3201 127.374 86.2443" stroke="#6265FE" stroke-width="2" stroke-miterlimit="10"/>
<path d="M133.005 76.9598C132.609 78.8526 131.675 80.6317 130.341 82.0305" stroke="#6265FE" stroke-width="2" stroke-miterlimit="10"/>
<path d="M169.911 61.6342C173.186 66.1474 177.763 69.8062 183.079 71.4738C188.396 73.1414 194.453 72.6868 199.2 69.769" stroke="#6265FE" stroke-width="2" stroke-miterlimit="10"/>
<path d="M215.419 61.7173C211.897 69.8237 203.803 75.7511 195.017 76.6538" stroke="#6265FE" stroke-width="2" stroke-miterlimit="10"/>
<path d="M85.3389 88.5895C86.8585 89.9446 88.8061 90.7467 90.7952 91.1838C92.7843 91.6209 94.828 91.7193 96.8608 91.8133" stroke="#6265FE" stroke-width="2" stroke-miterlimit="10"/>
<path d="M82.7666 96.1451C84.605 97.4653 86.8256 98.2477 89.0854 98.3745" stroke="#6265FE" stroke-width="2" stroke-miterlimit="10"/>
<path d="M104.365 74.9578C106.009 73.2858 106.074 70.4074 104.74 68.4775C103.406 66.5476 100.921 65.5881 98.5873 65.7957C95.3296 66.0864 92.4191 68.5649 91.4628 71.6947C90.5064 74.8245 91.4759 78.4242 93.7641 80.7628C95.0589 82.0873 96.7161 83.0162 98.4475 83.674C101.565 84.8586 105.035 85.1974 108.277 84.4106C111.52 83.6238 114.504 81.6698 116.341 78.881C119.504 79.8798 123.155 78.8679 125.756 76.8047C128.356 74.7414 130.068 71.7297 131.129 68.5846C133.64 69.4304 136.474 69.0108 138.882 67.9027C141.291 66.7946 143.249 64.7423 144.243 62.2834" stroke="#6265FE" stroke-width="2" stroke-miterlimit="10"/>
<path d="M96.7081 71.7842C95.5072 72.8223 95.1819 74.7413 95.9723 76.1183C96.7627 77.4952 98.5815 78.1793 100.084 77.6635" stroke="#6265FE" stroke-width="2" stroke-miterlimit="10"/>
<path d="M104.638 61.8944C106.887 62.9085 108.732 64.786 109.714 67.0503C110.695 69.3146 110.799 71.9482 110.002 74.2825" stroke="#6265FE" stroke-width="2" stroke-miterlimit="10"/>
<path d="M111.931 62.1392C114.472 63.8986 116.029 66.9956 115.926 70.0882" stroke="#6265FE" stroke-width="2" stroke-miterlimit="10"/>
<path d="M67.4524 65.4808C76.1686 65.5311 84.3827 70.7722 89.2168 78.0306C94.0509 85.289 95.7714 94.3113 95.3064 103.023C102.064 103.93 108.149 109.34 110.204 115.846C112.261 122.353 111.189 129.548 108.475 135.807C116.322 143.33 119.538 154.534 119.464 165.411C119.387 176.482 116.045 187.733 108.92 196.2C101.795 204.667 90.6709 210 79.6665 208.912C79.9307 213.281 78.9023 217.425 76.9372 221.335C74.9721 225.245 71.3324 228.967 67.3389 230.75L67.4524 65.4808Z" fill="#CFE7FF" stroke="#B6BBFF" stroke-width="2" stroke-miterlimit="10"/>
<path d="M108.24 136.02C108.487 135.895 108.323 135.519 108.131 135.318C103.168 130.118 95.6594 127.478 88.5371 128.436" stroke="#6265FE" stroke-width="2" stroke-miterlimit="10"/>
<path d="M87.9959 146.963C83.509 148.517 80.0264 152.667 79.2731 157.36C78.5199 162.052 80.5242 167.086 84.2994 169.971C86.6291 171.752 89.6728 172.729 92.5462 172.152C95.4196 171.575 97.9916 169.263 98.4414 166.365C98.8912 163.466 96.8366 160.275 93.9327 159.873" stroke="#6265FE" stroke-width="2" stroke-miterlimit="10"/>
<path d="M107.837 144.419C113.007 152.711 114.359 163.287 111.442 172.615" stroke="#6265FE" stroke-width="2" stroke-miterlimit="10"/>
<path d="M107.505 184.079C103.169 193.94 92.4726 200.626 81.7148 200.2" stroke="#6265FE" stroke-width="2" stroke-miterlimit="10"/>
<path d="M91.042 101.015C93.7975 102.162 95.8019 104.936 96.0246 107.915" stroke="#6265FE" stroke-width="2" stroke-miterlimit="10"/>
<path d="M67.4521 70.4467C72.3496 70.7745 77.1269 72.7284 80.8518 75.9304C84.5767 79.1323 87.2318 83.5603 88.2973 88.3556" stroke="#6265FE" stroke-width="2" stroke-miterlimit="10"/>
<path d="M103.599 120.229C103.726 120.336 103.763 120.513 103.789 120.677C104.335 124.062 103.774 127.62 102.213 130.674" stroke="#6265FE" stroke-width="2" stroke-miterlimit="10"/>
<path d="M67.3496 101.179C70.0221 102.215 72.1553 104.391 73.5309 106.907C74.9064 109.425 75.5768 112.273 75.9217 115.123C76.4348 119.374 76.234 123.098 74.9654 127.187C73.6968 131.277 70.9566 135.294 67.5767 136.784" stroke="#6265FE" stroke-width="2" stroke-miterlimit="10"/>
<path d="M71.166 172.176C72.6704 176.663 75.8909 180.547 80.0154 182.857C84.1399 185.167 89.1334 185.88 93.7404 184.816" stroke="#6265FE" stroke-width="2" stroke-miterlimit="10"/>
<path d="M85.524 165.449C83.2117 162.61 82.8558 158.328 84.6659 155.144C86.4759 151.961 90.3384 150.084 93.9563 150.626C97.5743 151.168 100.716 154.097 101.518 157.67" stroke="#6265FE" stroke-width="2" stroke-miterlimit="10"/>
<path d="M74.4375 187.834C76.2694 189.77 78.6275 191.204 81.1887 191.939" stroke="#6265FE" stroke-width="2" stroke-miterlimit="10"/>
<path d="M67.7451 87.0028C72.1447 88.0781 75.7976 91.7718 76.8238 96.1868" stroke="#6265FE" stroke-width="2" stroke-miterlimit="10"/>
</g>
<mask id="mask4_358_9857" style="mask-type:luminance" maskUnits="userSpaceOnUse" x="68" y="62" width="375" height="639">
<path d="M68.1182 696.937V87.5971C68.1182 73.7316 79.3475 62.491 93.1992 62.491H417.759C431.61 62.491 442.842 73.7316 442.842 87.5971V696.937C442.842 698.902 441.25 700.495 439.287 700.495H71.6706C69.7077 700.495 68.1182 698.902 68.1182 696.937Z" fill="white"/>
</mask>
<g mask="url(#mask4_358_9857)">
<path d="M443.949 550.257C432.012 554.859 423.951 567.505 422.567 579.701C421.182 591.897 426.364 603.929 434.785 612.848C430.324 616.304 428.42 622.675 430.508 627.92C419.462 632.304 410.278 641.193 405.529 652.095C400.778 662.997 400.778 677.295 405.521 688.877C408.158 689.909 410.608 687.428 413.35 686.726C418.322 685.454 421.955 688.805 426.001 691.963C431.191 696.015 439.15 703.711 443.449 704.793L443.949 550.257Z" fill="#B6BBFF" stroke="#CFE7FF" stroke-width="2" stroke-miterlimit="10"/>
<path d="M407.586 669.512C407.392 659.312 411.68 648.603 419.549 642.872" stroke="#6265FE" stroke-width="2" stroke-miterlimit="10"/>
<path d="M428.595 637.375C426.75 637.76 425.019 638.671 423.654 639.974" stroke="#6265FE" stroke-width="2" stroke-miterlimit="10"/>
<path d="M443.525 601.347C439.128 598.152 435.565 593.682 433.94 588.494C432.316 583.303 432.759 577.391 435.599 572.755" stroke="#6265FE" stroke-width="2" stroke-miterlimit="10"/>
<path d="M443.445 556.92C435.545 560.358 429.772 568.259 428.893 576.836" stroke="#6265FE" stroke-width="2" stroke-miterlimit="10"/>
<path d="M419.014 680.989C417.479 679.728 416.414 677.971 415.691 676.119C414.968 674.268 414.567 672.312 414.167 670.365" stroke="#6265FE" stroke-width="2" stroke-miterlimit="10"/>
<path d="M409.903 686.418C408.617 684.621 407.855 682.455 407.73 680.25" stroke="#6265FE" stroke-width="2" stroke-miterlimit="10"/>
<path d="M430.547 665.333C432.176 663.727 434.982 663.663 436.862 664.966C438.742 666.269 439.678 668.692 439.475 670.972C439.191 674.152 436.777 676.993 433.729 677.927C430.678 678.86 427.172 677.914 424.892 675.68C423.602 674.414 422.696 672.799 422.056 671.11C420.901 668.065 420.571 664.68 421.34 661.515C422.108 658.35 424.01 655.437 426.726 653.645C425.752 650.556 426.739 646.992 428.748 644.454C430.757 641.917 433.691 640.245 436.757 639.209C435.934 636.756 436.342 633.992 437.421 631.64C438.499 629.29 440.499 627.378 442.895 626.407" stroke="#6265FE" stroke-width="2" stroke-miterlimit="10"/>
<path d="M433.636 672.808C432.626 673.98 430.756 674.299 429.414 673.525C428.073 672.753 427.405 670.977 427.907 669.512" stroke="#6265FE" stroke-width="2" stroke-miterlimit="10"/>
<path d="M443.272 665.067C442.283 662.872 440.456 661.069 438.248 660.112C436.041 659.154 433.477 659.052 431.202 659.83" stroke="#6265FE" stroke-width="2" stroke-miterlimit="10"/>
<path d="M443.036 657.946C441.322 655.465 438.305 653.946 435.294 654.045" stroke="#6265FE" stroke-width="2" stroke-miterlimit="10"/>
<path d="M439.776 701.37C439.728 692.861 434.621 684.842 427.549 680.123C420.477 675.402 411.686 673.724 403.199 674.178C402.315 667.582 397.047 661.642 390.708 659.635C384.37 657.629 377.359 658.674 371.26 661.325C363.933 653.664 353.016 650.526 342.419 650.598C331.636 650.672 320.673 653.935 312.424 660.892C304.175 667.847 298.98 678.707 300.039 689.452C295.784 689.194 291.747 690.199 287.936 692.116C284.126 694.033 280.5 697.589 278.762 701.486L439.776 701.37Z" fill="#CFE7FF" stroke="#B6BBFF" stroke-width="2" stroke-miterlimit="10"/>
<path d="M371.056 661.55C371.178 661.307 371.545 661.469 371.739 661.657C376.805 666.5 379.377 673.833 378.444 680.783" stroke="#6265FE" stroke-width="2" stroke-miterlimit="10"/>
<path d="M360.394 681.312C358.881 685.692 354.837 689.091 350.265 689.828C345.693 690.564 340.789 688.606 337.979 684.921C336.243 682.648 335.294 679.675 335.855 676.871C336.416 674.065 338.669 671.556 341.494 671.117C344.32 670.677 347.427 672.684 347.818 675.518" stroke="#6265FE" stroke-width="2" stroke-miterlimit="10"/>
<path d="M362.872 661.943C354.794 656.897 344.49 655.577 335.4 658.425" stroke="#6265FE" stroke-width="2" stroke-miterlimit="10"/>
<path d="M324.234 662.269C314.625 666.503 308.112 676.945 308.529 687.445" stroke="#6265FE" stroke-width="2" stroke-miterlimit="10"/>
<path d="M405.16 678.34C404.042 675.65 401.339 673.693 398.438 673.475" stroke="#6265FE" stroke-width="2" stroke-miterlimit="10"/>
<path d="M434.94 701.37C434.621 696.588 432.715 691.926 429.597 688.289C426.479 684.652 422.165 682.062 417.492 681.02" stroke="#6265FE" stroke-width="2" stroke-miterlimit="10"/>
<path d="M386.44 666.083C386.337 665.959 386.162 665.924 386.003 665.897C382.704 665.364 379.239 665.91 376.263 667.436" stroke="#6265FE" stroke-width="2" stroke-miterlimit="10"/>
<path d="M404.999 701.468C403.988 698.859 401.87 696.776 399.416 695.434C396.964 694.092 394.189 693.436 391.414 693.099C387.272 692.599 383.643 692.796 379.658 694.033C375.673 695.27 371.761 697.947 370.309 701.245" stroke="#6265FE" stroke-width="2" stroke-miterlimit="10"/>
<path d="M335.83 697.744C331.459 696.275 327.673 693.132 325.424 689.104C323.173 685.076 322.479 680.202 323.516 675.706" stroke="#6265FE" stroke-width="2" stroke-miterlimit="10"/>
<path d="M342.385 683.725C345.151 685.983 349.322 686.331 352.424 684.562C355.525 682.794 357.354 679.024 356.826 675.492C356.298 671.96 353.444 668.892 349.961 668.111" stroke="#6265FE" stroke-width="2" stroke-miterlimit="10"/>
<path d="M320.574 694.549C318.685 692.761 317.29 690.459 316.576 687.957" stroke="#6265FE" stroke-width="2" stroke-miterlimit="10"/>
<path d="M418.809 701.084C417.761 696.789 414.163 693.224 409.861 692.221" stroke="#6265FE" stroke-width="2" stroke-miterlimit="10"/>
</g>
<mask id="mask5_358_9857" style="mask-type:luminance" maskUnits="userSpaceOnUse" x="68" y="62" width="375" height="639">
<path d="M68.1182 696.937V87.5971C68.1182 73.7316 79.3475 62.491 93.1992 62.491H417.759C431.61 62.491 442.842 73.7316 442.842 87.5971V696.937C442.842 698.902 441.25 700.495 439.287 700.495H71.6706C69.7077 700.495 68.1182 698.902 68.1182 696.937Z" fill="white"/>
</mask>
<g mask="url(#mask5_358_9857)">
<path d="M255.736 543.254C339.78 543.254 407.911 475.054 407.911 390.925C407.911 306.797 339.78 238.597 255.736 238.597C171.691 238.597 103.56 306.797 103.56 390.925C103.56 475.054 171.691 543.254 255.736 543.254Z" fill="#CFE7FF" stroke="#B6BBFF" stroke-width="2" stroke-miterlimit="10"/>
<path d="M255.736 512.666C322.904 512.666 377.355 458.161 377.355 390.925C377.355 323.69 322.904 269.184 255.736 269.184C188.568 269.184 134.117 323.69 134.117 390.925C134.117 458.161 188.568 512.666 255.736 512.666Z" stroke="#6265FE" stroke-width="2" stroke-miterlimit="10"/>
<path d="M255.736 296.085C203.41 296.085 160.99 338.547 160.99 390.925C160.99 443.304 203.41 485.766 255.736 485.766C308.061 485.766 350.481 443.304 350.481 390.925C350.481 338.547 308.061 296.085 255.736 296.085ZM255.736 452.07C221.999 452.07 194.652 424.695 194.652 390.925C194.652 357.155 221.999 329.781 255.736 329.781C289.472 329.781 316.819 357.155 316.819 390.925C316.819 424.695 289.469 452.07 255.736 452.07Z" fill="#6265FE"/>
<path d="M246.495 390.925C246.495 396.033 250.633 400.175 255.735 400.175C260.838 400.175 264.976 396.033 264.976 390.925C264.976 385.818 260.838 381.676 255.735 381.676C250.633 381.676 246.495 385.818 246.495 390.925Z" fill="#6265FE"/>
<path d="M255.736 413.599C268.246 413.599 278.387 403.448 278.387 390.925C278.387 378.403 268.246 368.252 255.736 368.252C243.226 368.252 233.085 378.403 233.085 390.925C233.085 403.448 243.226 413.599 255.736 413.599Z" stroke="#6265FE" stroke-width="2" stroke-miterlimit="10"/>
<path d="M258.433 529.634C267.803 528.15 274.197 519.343 272.714 509.964C271.231 500.585 262.433 494.185 253.063 495.669C243.693 497.153 237.3 505.96 238.782 515.339C240.265 524.718 249.063 531.118 258.433 529.634Z" fill="#B6BBFF" stroke="#6265FE" stroke-width="2" stroke-miterlimit="10"/>
<path d="M255.736 286.377C265.222 286.377 272.913 278.678 272.913 269.182C272.913 259.686 265.222 251.988 255.736 251.988C246.249 251.988 238.559 259.686 238.559 269.182C238.559 278.678 246.249 286.377 255.736 286.377Z" fill="#6265FE" stroke="#6265FE" stroke-width="2" stroke-miterlimit="10"/>
<path d="M161.06 304.841C161.06 296.518 167.8 289.773 176.112 289.773C176.857 289.773 177.584 289.845 178.3 289.95C175.778 288.492 172.859 287.646 169.737 287.646C160.25 287.646 152.56 295.344 152.56 304.841C152.56 314.337 160.25 322.035 169.737 322.035C172.859 322.035 175.778 321.189 178.3 319.731C177.584 319.836 176.857 319.908 176.112 319.908C167.798 319.908 161.06 313.164 161.06 304.841Z" fill="#B6BBFF"/>
<path d="M186.913 304.841C186.913 298.47 183.444 292.921 178.3 289.95C177.584 289.845 176.857 289.773 176.112 289.773C167.8 289.773 161.06 296.52 161.06 304.841C161.06 313.162 167.8 319.909 176.112 319.909C176.857 319.909 177.584 319.836 178.3 319.732C183.444 316.761 186.913 311.212 186.913 304.841Z" fill="#6265FE"/>
<path d="M178.3 289.95C175.778 288.492 172.859 287.646 169.737 287.646C160.25 287.646 152.56 295.344 152.56 304.841C152.56 314.337 160.25 322.035 169.737 322.035C172.859 322.035 175.778 321.189 178.3 319.731C183.444 316.761 186.914 311.212 186.914 304.841C186.914 298.47 183.444 292.92 178.3 289.95Z" stroke="#6265FE" stroke-width="2" stroke-miterlimit="10"/>
<path d="M350.408 304.841C350.408 313.164 343.67 319.908 335.356 319.908C334.611 319.908 333.884 319.836 333.168 319.731C335.69 321.189 338.609 322.035 341.731 322.035C351.218 322.035 358.908 314.337 358.908 304.841C358.908 295.344 351.218 287.646 341.731 287.646C338.609 287.646 335.69 288.492 333.168 289.95C333.884 289.845 334.611 289.773 335.356 289.773C343.67 289.773 350.408 296.52 350.408 304.841Z" fill="#B6BBFF"/>
<path d="M324.555 304.841C324.555 311.212 328.024 316.761 333.168 319.732C333.884 319.836 334.612 319.909 335.356 319.909C343.671 319.909 350.409 313.162 350.409 304.841C350.409 296.52 343.671 289.773 335.356 289.773C334.612 289.773 333.884 289.845 333.168 289.95C328.026 292.921 324.555 298.47 324.555 304.841Z" fill="#6265FE"/>
<path d="M333.168 319.731C335.69 321.189 338.609 322.035 341.732 322.035C351.219 322.035 358.909 314.337 358.909 304.841C358.909 295.344 351.219 287.646 341.732 287.646C338.609 287.646 335.69 288.492 333.168 289.95C328.024 292.92 324.555 298.47 324.555 304.841C324.555 311.212 328.026 316.761 333.168 319.731Z" stroke="#6265FE" stroke-width="2" stroke-miterlimit="10"/>
<path d="M178.414 477.008C178.414 485.329 171.674 492.076 163.362 492.076C162.617 492.076 161.89 492.004 161.174 491.899C163.696 493.356 166.615 494.202 169.737 494.202C179.224 494.202 186.914 486.505 186.914 477.008C186.914 467.512 179.224 459.814 169.737 459.814C166.615 459.814 163.696 460.66 161.174 462.117C161.89 462.013 162.617 461.94 163.362 461.94C171.676 461.94 178.414 468.687 178.414 477.008Z" fill="#6265FE"/>
<path d="M152.56 477.008C152.56 483.379 156.029 488.928 161.173 491.899C161.889 492.003 162.616 492.076 163.361 492.076C171.675 492.076 178.413 485.329 178.413 477.008C178.413 468.687 171.673 461.94 163.361 461.94C162.616 461.94 161.889 462.012 161.173 462.117C156.029 465.088 152.56 470.637 152.56 477.008Z" fill="#B6BBFF"/>
<path d="M178.3 462.117C175.778 460.66 172.859 459.814 169.737 459.814C160.25 459.814 152.56 467.512 152.56 477.008C152.56 486.505 160.25 494.202 169.737 494.202C172.859 494.202 175.778 493.356 178.3 491.899C183.444 488.928 186.914 483.379 186.914 477.008C186.914 470.637 183.444 465.088 178.3 462.117Z" stroke="#6265FE" stroke-width="2" stroke-miterlimit="10"/>
<path d="M333.055 477.008C333.055 468.687 339.795 461.94 348.107 461.94C348.852 461.94 349.579 462.013 350.295 462.117C347.773 460.66 344.854 459.814 341.732 459.814C332.245 459.814 324.555 467.512 324.555 477.008C324.555 486.505 332.245 494.202 341.732 494.202C344.854 494.202 347.773 493.356 350.295 491.899C349.579 492.004 348.852 492.076 348.107 492.076C339.795 492.078 333.055 485.331 333.055 477.008Z" fill="#6265FE"/>
<path d="M358.909 477.008C358.909 470.637 355.439 465.088 350.295 462.117C349.579 462.012 348.852 461.94 348.107 461.94C339.793 461.94 333.055 468.687 333.055 477.008C333.055 485.329 339.795 492.076 348.107 492.076C348.852 492.076 349.579 492.003 350.295 491.899C355.439 488.928 358.909 483.381 358.909 477.008Z" fill="#B6BBFF"/>
<path d="M333.168 491.899C335.69 493.356 338.609 494.202 341.732 494.202C351.219 494.202 358.909 486.505 358.909 477.008C358.909 467.512 351.219 459.814 341.732 459.814C338.609 459.814 335.69 460.66 333.168 462.117C328.024 465.088 324.555 470.637 324.555 477.008C324.555 483.379 328.026 488.928 333.168 491.899Z" stroke="#6265FE" stroke-width="2" stroke-miterlimit="10"/>
<path d="M116.938 390.926C116.938 400.422 124.628 408.12 134.114 408.12V373.731C124.63 373.731 116.938 381.429 116.938 390.926Z" fill="#B6BBFF"/>
<path d="M134.114 373.731V408.12C143.601 408.12 151.291 400.422 151.291 390.926C151.291 381.429 143.601 373.731 134.114 373.731Z" fill="#6265FE"/>
<path d="M142.678 376.035C140.156 374.577 137.237 373.731 134.114 373.731C124.628 373.731 116.938 381.429 116.938 390.926C116.938 400.422 124.628 408.12 134.114 408.12C137.237 408.12 140.156 407.274 142.678 405.816C147.822 402.846 151.291 397.297 151.291 390.926C151.291 384.554 147.822 379.005 142.678 376.035Z" stroke="#6265FE" stroke-width="2" stroke-miterlimit="10"/>
<path d="M394.531 390.926C394.531 381.429 386.841 373.731 377.354 373.731V408.12C386.841 408.12 394.531 400.422 394.531 390.926Z" fill="#B6BBFF"/>
<path d="M377.355 408.12V373.731C367.868 373.731 360.178 381.429 360.178 390.926C360.178 400.422 367.868 408.12 377.355 408.12Z" fill="#6265FE"/>
<path d="M385.918 376.035C383.396 374.577 380.477 373.731 377.355 373.731C367.868 373.731 360.178 381.429 360.178 390.926C360.178 400.422 367.868 408.12 377.355 408.12C380.477 408.12 383.396 407.274 385.918 405.816C391.062 402.846 394.532 397.297 394.532 390.926C394.532 384.554 391.062 379.005 385.918 376.035Z" stroke="#6265FE" stroke-width="2" stroke-miterlimit="10"/>
<path d="M187.84 397.454H169.497L178.667 381.916L187.84 397.454Z" stroke="#B6BBFF" stroke-width="2" stroke-miterlimit="10"/>
<path d="M323.867 383.156H342.21L333.038 398.693L323.867 383.156Z" stroke="#B6BBFF" stroke-width="2" stroke-miterlimit="10"/>
<path d="M264.906 320.658H246.563L255.736 305.12L264.906 320.658Z" stroke="#B6BBFF" stroke-width="2" stroke-miterlimit="10"/>
<path d="M244.733 311.592H266.736" stroke="#B6BBFF" stroke-width="2" stroke-miterlimit="10"/>
<path d="M246.633 461.191H264.974L255.803 476.728L246.633 461.191Z" stroke="#B6BBFF" stroke-width="2" stroke-miterlimit="10"/>
<path d="M244.733 468.958H266.736" stroke="#B6BBFF" stroke-width="2" stroke-miterlimit="10"/>
<path d="M255.735 329.781V452.07" stroke="#6265FE" stroke-width="2" stroke-miterlimit="10"/>
<path d="M316.819 390.925H194.652" stroke="#6265FE" stroke-width="2" stroke-miterlimit="10"/>
<path d="M218.31 353.462L293.162 428.389" stroke="#6265FE" stroke-width="2" stroke-miterlimit="10"/>
<path d="M293.162 353.462L218.31 428.389" stroke="#6265FE" stroke-width="2" stroke-miterlimit="10"/>
<path d="M214.059 357.702L222.546 349.206" stroke="#6265FE" stroke-width="2" stroke-miterlimit="10"/>
<path d="M288.645 432.362L297.132 423.867" stroke="#6265FE" stroke-width="2" stroke-miterlimit="10"/>
<path d="M288.645 349.206L297.132 357.702" stroke="#6265FE" stroke-width="2" stroke-miterlimit="10"/>
<path d="M214.059 423.867L222.546 432.362" stroke="#6265FE" stroke-width="2" stroke-miterlimit="10"/>
<path d="M215.438 390.925C215.438 387.607 212.75 384.917 209.436 384.917C206.121 384.917 203.434 387.607 203.434 390.925C203.434 394.243 206.121 396.933 209.436 396.933C212.752 396.931 215.438 394.243 215.438 390.925Z" stroke="#6265FE" stroke-width="2" stroke-miterlimit="10"/>
<path d="M261.805 348.85C261.805 345.532 259.117 342.842 255.803 342.842C252.489 342.842 249.801 345.532 249.801 348.85C249.801 352.168 252.489 354.858 255.803 354.858C259.117 354.858 261.805 352.168 261.805 348.85Z" stroke="#6265FE" stroke-width="2" stroke-miterlimit="10"/>
<path d="M249.801 336.021C249.801 339.338 252.489 342.029 255.803 342.029C259.117 342.029 261.805 339.338 261.805 336.021" stroke="#6265FE" stroke-width="2" stroke-miterlimit="10"/>
<path d="M249.801 358.274H261.805" stroke="#6265FE" stroke-width="2" stroke-miterlimit="10"/>
<path d="M299.603 396.931V384.917L309.762 390.925L299.603 396.931Z" stroke="#6265FE" stroke-width="2" stroke-miterlimit="10"/>
<path d="M296.131 384.036V397.812" stroke="#6265FE" stroke-width="2" stroke-miterlimit="10"/>
<path d="M268.447 435.317C266.645 435.317 266.645 436.909 264.844 436.909C263.04 436.909 263.04 435.317 261.237 435.317C259.431 435.317 259.431 436.909 257.626 436.909C255.822 436.909 255.822 435.317 254.019 435.317C252.211 435.317 252.211 436.909 250.403 436.909C248.593 436.909 248.593 435.317 246.78 435.317C244.968 435.317 244.97 436.909 243.158 436.909" stroke="#6265FE" stroke-width="2" stroke-miterlimit="10"/>
<path d="M268.447 440.373C266.645 440.373 266.645 441.964 264.844 441.964C263.04 441.964 263.04 440.373 261.237 440.373C259.431 440.373 259.431 441.964 257.626 441.964C255.822 441.964 255.822 440.373 254.019 440.373C252.211 440.373 252.211 441.964 250.403 441.964C248.593 441.964 248.593 440.373 246.78 440.373C244.968 440.373 244.97 441.964 243.158 441.964" stroke="#6265FE" stroke-width="2" stroke-miterlimit="10"/>
<path d="M206.17 450.827L212.098 454.251C210.39 457.213 211.404 460.998 214.362 462.708C217.321 464.417 221.102 463.403 222.81 460.441L228.738 463.866" stroke="#B6BBFF" stroke-width="2" stroke-miterlimit="10"/>
<path d="M230.642 460.568L208.074 447.524" stroke="#B6BBFF" stroke-width="2" stroke-miterlimit="10"/>
<path d="M185.984 420.121L197.179 424.737L195.576 436.749" stroke="#B6BBFF" stroke-width="2" stroke-miterlimit="10"/>
<path d="M197.179 424.737L179.523 434.942" stroke="#B6BBFF" stroke-width="2" stroke-miterlimit="10"/>
<path d="M187.847 436.478L182.355 426.955" stroke="#B6BBFF" stroke-width="2" stroke-miterlimit="10"/>
<path d="M307.522 326.166C308.885 323.803 308.077 320.78 305.717 319.416C304.136 318.503 302.258 318.564 300.782 319.414C300.782 319.414 296.4 321.482 289.699 332.176C295.601 321.019 295.199 316.186 295.199 316.186C295.197 314.481 294.311 312.825 292.73 311.909C290.369 310.545 287.35 311.354 285.987 313.716" stroke="#B6BBFF" stroke-width="2" stroke-miterlimit="10"/>
<path d="M326.725 336.001C325.518 340.151 325.928 344.765 328.258 348.806C330.588 352.845 334.376 355.507 338.57 356.537" stroke="#B6BBFF" stroke-width="2" stroke-miterlimit="10"/>
<path d="M319.282 367.683C320.49 363.533 320.081 358.919 317.752 354.878C315.422 350.839 311.634 348.177 307.439 347.147" stroke="#B6BBFF" stroke-width="2" stroke-miterlimit="10"/>
<path d="M326.144 343.325L314.118 350.275" stroke="#B6BBFF" stroke-width="2" stroke-miterlimit="10"/>
<path d="M331.945 353.376L319.916 360.329" stroke="#B6BBFF" stroke-width="2" stroke-miterlimit="10"/>
<path d="M219.018 308.523C217.763 312.658 218.117 317.279 220.398 321.344C222.68 325.412 226.436 328.117 230.619 329.195" stroke="#B6BBFF" stroke-width="2" stroke-miterlimit="10"/>
<path d="M214.7 338.147C215.956 334.01 215.602 329.391 213.32 325.324C211.039 321.257 207.283 318.551 203.1 317.473" stroke="#B6BBFF" stroke-width="2" stroke-miterlimit="10"/>
<path d="M225.086 318.71L208.632 327.962" stroke="#B6BBFF" stroke-width="2" stroke-miterlimit="10"/>
<path d="M318.679 426.94C320.513 428 322.856 427.37 323.915 425.537C324.974 423.701 324.345 421.356 322.511 420.296C320.679 419.236 318.334 419.865 317.275 421.701C316.216 423.535 316.845 425.88 318.679 426.94Z" stroke="#B6BBFF" stroke-width="2" stroke-miterlimit="10"/>
<path d="M322.511 420.296C322.511 420.296 330.762 423.681 331.913 431.346" stroke="#B6BBFF" stroke-width="2" stroke-miterlimit="10"/>
<path d="M326.811 432.52C324.979 431.46 322.634 432.089 321.575 433.923C320.516 435.759 321.145 438.104 322.979 439.164C324.813 440.224 327.156 439.595 328.215 437.759C329.271 435.927 328.643 433.58 326.811 432.52Z" stroke="#B6BBFF" stroke-width="2" stroke-miterlimit="10"/>
<path d="M322.976 439.166C322.976 439.166 314.723 435.781 313.574 428.116" stroke="#B6BBFF" stroke-width="2" stroke-miterlimit="10"/>
<path d="M192.472 360.462L181.173 353.932C179.002 352.677 178.201 350 179.382 347.952C180.563 345.904 183.28 345.261 185.45 346.516C187.917 347.941 190.389 349.552 192.863 350.966C194.948 352.159 197.288 353.394 199.631 352.865C201.21 352.509 202.572 351.311 203.127 349.79C203.496 348.778 203.498 347.578 202.889 346.689C202.282 345.799 200.976 345.377 200.061 345.946C199.636 346.21 199.341 346.641 199.099 347.078C197.754 349.504 197.651 352.391 197.149 355.119C196.561 358.292 195.389 361.358 193.708 364.115" stroke="#B6BBFF" stroke-width="2" stroke-miterlimit="10"/>
<path d="M181.172 353.932C181.172 353.932 177.489 352.426 175.43 354.801" stroke="#B6BBFF" stroke-width="2" stroke-miterlimit="10"/>
<path d="M299.189 444.495L307.021 455.886C308.525 458.074 308.287 460.852 306.49 462.091C304.691 463.33 302.016 462.559 300.51 460.371C298.8 457.884 294.507 451.384 292.789 448.903" stroke="#B6BBFF" stroke-width="2" stroke-miterlimit="10"/>
<path d="M292.68 448.98L300.512 460.373C302.016 462.561 301.778 465.339 299.981 466.578C298.184 467.818 295.507 467.046 294.003 464.858C292.293 462.371 287.101 454.564 285.383 452.081" stroke="#B6BBFF" stroke-width="2" stroke-miterlimit="10"/>
<path d="M307.021 455.888C307.021 455.888 309.796 459.049 312.503 457.952" stroke="#B6BBFF" stroke-width="2" stroke-miterlimit="10"/>
<path d="M293.018 463.429C293.018 463.429 295.11 467.059 293.894 468.663C293.529 469.146 292.693 469.306 292.136 469.07C291.579 468.834 291.156 468.366 290.785 467.885C288.505 464.928 287.64 461.047 287.846 457.316C288.051 453.585 289.247 449.976 290.741 446.554" stroke="#B6BBFF" stroke-width="2" stroke-miterlimit="10"/>
<path d="M255.553 183.62L257.577 196.108L264.839 191.702L260.435 198.972L272.913 200.996L260.435 203.022L264.839 210.291L257.577 205.883L255.553 218.373L253.531 205.883L246.269 210.291L250.67 203.022L238.194 200.996L250.67 198.972L246.269 191.702L253.531 196.108L255.553 183.62Z" fill="#B6BBFF" stroke="#CFE7FF" stroke-width="2" stroke-miterlimit="10"/>
<path d="M255.553 563.477L257.577 575.966L264.839 571.56L260.435 578.829L272.913 580.853L260.435 582.877L264.839 590.146L257.577 585.74L255.553 598.229L253.531 585.74L246.269 590.146L250.67 582.877L238.194 580.853L250.67 578.829L246.269 571.56L253.531 575.966L255.553 563.477Z" fill="#CFE7FF" stroke="#B6BBFF" stroke-width="2" stroke-miterlimit="10"/>
</g>
<mask id="mask6_358_9857" style="mask-type:luminance" maskUnits="userSpaceOnUse" x="68" y="62" width="375" height="639">
<path d="M68.1182 696.937V87.5971C68.1182 73.7316 79.3475 62.491 93.1992 62.491H417.759C431.61 62.491 442.842 73.7316 442.842 87.5971V696.937C442.842 698.902 441.25 700.495 439.287 700.495H71.6706C69.7077 700.495 68.1182 698.902 68.1182 696.937Z" fill="white"/>
</mask>
<g mask="url(#mask6_358_9857)">
<path d="M202.061 176.974L202.596 180.466L204.524 179.297L203.356 181.227L206.845 181.762L203.356 182.3L204.524 184.23L202.596 183.061L202.061 186.553L201.524 183.061L199.596 184.23L200.765 182.3L197.275 181.762L200.765 181.227L199.596 179.297L201.524 180.466L202.061 176.974Z" fill="#B6BBFF"/>
<path d="M209.438 140.275L209.973 143.768L211.901 142.598L210.733 144.526L214.222 145.064L210.733 145.601L211.901 147.531L209.973 146.362L209.438 149.854L208.901 146.362L206.973 147.531L208.141 145.601L204.652 145.064L208.141 144.526L206.973 142.598L208.901 143.768L209.438 140.275Z" fill="#B6BBFF"/>
<path d="M156.078 164.065L156.615 167.558L158.541 166.389L157.373 168.319L160.864 168.856L157.373 169.392L158.541 171.322L156.615 170.152L156.078 173.645L155.541 170.152L153.615 171.322L154.783 169.392L151.292 168.856L154.783 168.319L153.615 166.389L155.541 167.558L156.078 164.065Z" fill="#B6BBFF"/>
<path d="M151.292 121L151.829 124.493L153.757 123.323L152.589 125.251L156.078 125.789L152.589 126.326L153.757 128.256L151.829 127.087L151.292 130.58L150.757 127.087L148.829 128.256L149.997 126.326L146.508 125.789L149.997 125.251L148.829 123.323L150.757 124.493L151.292 121Z" fill="#B6BBFF"/>
<path d="M300.658 217.324L301.193 220.817L303.121 219.648L301.953 221.578L305.442 222.115L301.953 222.653L303.121 224.581L301.193 223.411L300.658 226.904L300.121 223.411L298.193 224.581L299.361 222.653L295.872 222.115L299.361 221.578L298.193 219.648L300.121 220.817L300.658 217.324Z" fill="#B6BBFF"/>
<path d="M338.571 182.58L339.108 186.072L341.034 184.903L339.866 186.833L343.355 187.371L339.866 187.906L341.034 189.836L339.108 188.667L338.571 192.159L338.034 188.667L336.106 189.836L337.274 187.906L333.785 187.371L337.274 186.833L336.106 184.903L338.034 186.072L338.571 182.58Z" fill="#B6BBFF"/>
<path d="M358.909 247.2L359.446 250.692L361.374 249.523L360.206 251.453L363.695 251.988L360.206 252.526L361.374 254.456L359.446 253.287L358.909 256.779L358.374 253.287L356.446 254.456L357.614 252.526L354.125 251.988L357.614 251.453L356.446 249.523L358.374 250.692L358.909 247.2Z" fill="#B6BBFF"/>
<path d="M338.571 212.536L339.108 216.028L341.034 214.859L339.866 216.787L343.355 217.324L339.866 217.862L341.034 219.792L339.108 218.623L338.571 222.115L338.034 218.623L336.106 219.792L337.274 217.862L333.785 217.324L337.274 216.787L336.106 214.859L338.034 216.028L338.571 212.536Z" fill="#B6BBFF"/>
<path d="M300.658 173L301.193 176.493L303.121 175.324L301.953 177.253L305.442 177.791L301.953 178.327L303.121 180.256L301.193 179.087L300.658 182.58L300.121 179.087L298.193 180.256L299.361 178.327L295.872 177.791L299.361 177.253L298.193 175.324L300.121 176.493L300.658 173Z" fill="#B6BBFF"/>
<path d="M181.173 196.133L181.71 199.625L183.638 198.456L182.467 200.384L185.959 200.921L182.467 201.459L183.638 203.389L181.71 202.22L181.173 205.712L180.635 202.22L178.71 203.389L179.878 201.459L176.389 200.921L179.878 200.384L178.71 198.456L180.635 199.625L181.173 196.133Z" fill="#B6BBFF"/>
<path d="M249.801 149.854L250.339 153.347L252.267 152.178L251.096 154.106L254.588 154.643L251.096 155.181L252.267 157.111L250.339 155.941L249.801 159.434L249.264 155.941L247.339 157.111L248.507 155.181L245.018 154.643L248.507 154.106L247.339 152.178L249.264 153.347L249.801 149.854Z" fill="#B6BBFF"/>
<path d="M264.906 127.196L265.443 130.689L267.369 129.52L266.201 131.45L269.69 131.987L266.201 132.523L267.369 134.453L265.443 133.283L264.906 136.776L264.369 133.283L262.441 134.453L263.611 132.523L260.12 131.987L263.611 131.45L262.441 129.52L264.369 130.689L264.906 127.196Z" fill="#B6BBFF"/>
<path d="M300.4 145.064L300.935 148.556L302.863 147.387L301.695 149.317L305.184 149.854L301.695 150.39L302.863 152.32L300.935 151.151L300.4 154.643L299.863 151.151L297.935 152.32L299.103 150.39L295.614 149.854L299.103 149.317L297.935 147.387L299.863 148.556L300.4 145.064Z" fill="#B6BBFF"/>
<path d="M382.139 212.536L382.676 216.028L384.604 214.859L383.436 216.787L386.925 217.324L383.436 217.862L384.604 219.792L382.676 218.623L382.139 222.115L381.604 218.623L379.676 219.792L380.845 217.862L377.355 217.324L380.845 216.787L379.676 214.859L381.604 216.028L382.139 212.536Z" fill="#B6BBFF"/>
<path d="M121.724 207.745L122.261 211.237L124.186 210.068L123.018 211.998L126.507 212.536L123.018 213.073L124.186 215.001L122.261 213.832L121.724 217.324L121.186 213.832L119.258 215.001L120.427 213.073L116.938 212.536L120.427 211.998L119.258 210.068L121.186 211.237L121.724 207.745Z" fill="#B6BBFF"/>
<path d="M130.311 272.773L130.848 276.266L132.776 275.097L131.608 277.027L135.097 277.562L131.608 278.1L132.776 280.03L130.848 278.86L130.311 282.353L129.774 278.86L127.848 280.03L129.016 278.1L125.527 277.562L129.016 277.027L127.848 275.097L129.774 276.266L130.311 272.773Z" fill="#B6BBFF"/>
<path d="M401.244 247.2L401.781 250.692L403.709 249.523L402.541 251.453L406.03 251.988L402.541 252.526L403.709 254.456L401.781 253.287L401.244 256.779L400.709 253.287L398.781 254.456L399.949 252.526L396.46 251.988L399.949 251.453L398.781 249.523L400.709 250.692L401.244 247.2Z" fill="#B6BBFF"/>
<path d="M406.03 300.386L406.567 303.879L408.493 302.71L407.325 304.64L410.814 305.175L407.325 305.713L408.493 307.643L406.567 306.473L406.03 309.966L405.493 306.473L403.565 307.643L404.733 305.713L401.244 305.175L404.733 304.64L403.565 302.71L405.493 303.879L406.03 300.386Z" fill="#B6BBFF"/>
<path d="M147.491 231.258L148.026 234.75L149.954 233.581L148.786 235.511L152.275 236.049L148.786 236.586L149.954 238.514L148.026 237.345L147.491 240.837L146.954 237.345L145.026 238.514L146.194 236.586L142.705 236.049L146.194 235.511L145.026 233.581L146.954 234.75L147.491 231.258Z" fill="#B6BBFF"/>
<path d="M217.454 217.324L217.991 220.817L219.917 219.648L218.749 221.578L222.238 222.115L218.749 222.653L219.917 224.581L217.991 223.411L217.454 226.904L216.917 223.411L214.989 224.581L216.157 222.653L212.668 222.115L216.157 221.578L214.989 219.648L216.917 220.817L217.454 217.324Z" fill="#B6BBFF"/>
<path d="M91.9404 292.221L92.4775 295.714L94.4033 294.544L93.2351 296.474L96.7242 297.012L93.2351 297.549L94.4033 299.477L92.4775 298.308L91.9404 301.8L91.4032 298.308L89.4753 299.477L90.6456 297.549L87.1543 297.012L90.6456 296.474L89.4753 294.544L91.4032 295.714L91.9404 292.221Z" fill="#B6BBFF"/>
<path d="M108.379 464.388L108.916 467.881L110.842 466.712L109.674 468.642L113.165 469.179L109.674 469.715L110.842 471.645L108.916 470.475L108.379 473.968L107.842 470.475L105.916 471.645L107.084 469.715L103.593 469.179L107.084 468.642L105.916 466.712L107.842 467.881L108.379 464.388Z" fill="#B6BBFF"/>
<path d="M88.247 434.891L88.7819 438.384L90.7099 437.214L89.5418 439.142L93.0309 439.68L89.5418 440.217L90.7099 442.147L88.7819 440.978L88.247 444.471L87.7099 440.978L85.7819 442.147L86.95 440.217L83.4609 439.68L86.95 439.142L85.7819 437.214L87.7099 438.384L88.247 434.891Z" fill="#B6BBFF"/>
<path d="M399.315 494.204L399.852 497.697L401.78 496.528L400.612 498.455L404.101 498.993L400.612 499.531L401.78 501.461L399.852 500.289L399.315 503.784L398.78 500.289L396.852 501.461L398.02 499.531L394.531 498.993L398.02 498.455L396.852 496.528L398.78 497.697L399.315 494.204Z" fill="#B6BBFF"/>
<path d="M418.438 462.377L418.975 465.87L420.901 464.701L419.733 466.631L423.224 467.168L419.733 467.706L420.901 469.634L418.975 468.464L418.438 471.957L417.901 468.464L415.975 469.634L417.143 467.706L413.654 467.168L417.143 466.631L415.975 464.701L417.901 465.87L418.438 462.377Z" fill="#B6BBFF"/>
<path d="M428.008 403.329L428.546 406.824L430.471 405.652L429.303 407.582L432.795 408.12L429.303 408.657L430.471 410.585L428.546 409.416L428.008 412.908L427.471 409.416L425.546 410.585L426.714 408.657L423.225 408.12L426.714 407.582L425.546 405.652L427.471 406.824L428.008 403.329Z" fill="#B6BBFF"/>
<path d="M83.4616 364.012L83.9987 367.504L85.9267 366.335L84.7564 368.265L88.2477 368.803L84.7564 369.338L85.9267 371.268L83.9987 370.099L83.4616 373.591L82.9245 370.099L80.9987 371.268L82.1668 369.338L78.6777 368.803L82.1668 368.265L80.9987 366.335L82.9245 367.504L83.4616 364.012Z" fill="#B6BBFF"/>
<path d="M108.379 256.779L108.916 260.272L110.842 259.102L109.674 261.032L113.165 261.568L109.674 262.105L110.842 264.035L108.916 262.866L108.379 266.359L107.842 262.866L105.916 264.035L107.084 262.105L103.593 261.568L107.084 261.032L105.916 259.102L107.842 260.272L108.379 256.779Z" fill="#B6BBFF"/>
<path d="M93.0319 229.017L93.5691 232.51L95.497 231.341L94.3267 233.268L97.818 233.806L94.3267 234.344L95.497 236.274L93.5691 235.104L93.0319 238.597L92.4948 235.104L90.569 236.274L91.7372 234.344L88.248 233.806L91.7372 233.268L90.569 231.341L92.4948 232.51L93.0319 229.017Z" fill="#B6BBFF"/>
<path d="M394.532 264.394L395.069 267.886L396.995 266.717L395.827 268.647L399.316 269.182L395.827 269.72L396.995 271.65L395.069 270.481L394.532 273.973L393.995 270.481L392.069 271.65L393.237 269.72L389.746 269.182L393.237 268.647L392.069 266.717L393.995 267.886L394.532 264.394Z" fill="#B6BBFF"/>
<path d="M428.008 330.421L428.546 333.914L430.471 332.744L429.303 334.672L432.795 335.21L429.303 335.747L430.471 337.677L428.546 336.508L428.008 340.001L427.471 336.508L425.546 337.677L426.714 335.747L423.225 335.21L426.714 334.672L425.546 332.744L427.471 333.914L428.008 330.421Z" fill="#B6BBFF"/>
<path d="M428.008 330.421L428.546 333.914L430.471 332.744L429.303 334.672L432.795 335.21L429.303 335.747L430.471 337.677L428.546 336.508L428.008 340.001L427.471 336.508L425.546 337.677L426.714 335.747L423.225 335.21L426.714 334.672L425.546 332.744L427.471 333.914L428.008 330.421Z" fill="#B6BBFF"/>
<path d="M191.583 100.06L192.118 103.552L194.046 102.383L192.878 104.313L196.367 104.85L192.878 105.386L194.046 107.316L192.118 106.147L191.583 109.639L191.046 106.147L189.118 107.316L190.286 105.386L186.797 104.85L190.286 104.313L189.118 102.383L191.046 103.552L191.583 100.06Z" fill="#B6BBFF"/>
<path d="M324.354 601.717L323.817 598.224L321.889 599.394L323.057 597.464L319.568 596.928L323.057 596.391L321.889 594.461L323.817 595.63L324.354 592.137L324.889 595.63L326.817 594.461L325.649 596.391L329.138 596.928L325.649 597.464L326.817 599.394L324.889 598.224L324.354 601.717Z" fill="#B6BBFF"/>
<path d="M292.789 611.948L292.252 608.455L290.324 609.624L291.492 607.695L288.003 607.159L291.492 606.621L290.324 604.692L292.252 605.861L292.789 602.368L293.326 605.861L295.252 604.692L294.084 606.621L297.573 607.159L294.084 607.695L295.252 609.624L293.326 608.455L292.789 611.948Z" fill="#B6BBFF"/>
<path d="M399.315 616.739L398.78 613.246L396.852 614.415L398.02 612.486L394.531 611.948L398.02 611.41L396.852 609.482L398.78 610.652L399.315 607.159L399.852 610.652L401.78 609.482L400.612 611.41L404.101 611.948L400.612 612.486L401.78 614.415L399.852 613.246L399.315 616.739Z" fill="#B6BBFF"/>
<path d="M365.552 643.633L365.015 640.14L363.087 641.309L364.255 639.379L360.766 638.842L364.255 638.304L363.087 636.376L365.015 637.546L365.552 634.053L366.087 637.546L368.015 636.376L366.846 638.304L370.336 638.842L366.846 639.379L368.015 641.309L366.087 640.14L365.552 643.633Z" fill="#B6BBFF"/>
<path d="M221.229 569.363L220.692 565.871L218.766 567.038L219.934 565.11L216.445 564.573L219.934 564.035L218.766 562.107L220.692 563.277L221.229 559.784L221.766 563.277L223.692 562.107L222.524 564.035L226.013 564.573L222.524 565.11L223.692 567.038L221.766 565.871L221.229 569.363Z" fill="#B6BBFF"/>
<path d="M178.836 598.338L178.299 594.843L176.373 596.012L177.541 594.085L174.05 593.547L177.541 593.009L176.373 591.082L178.299 592.251L178.836 588.758L179.373 592.251L181.301 591.082L180.131 593.009L183.622 593.547L180.131 594.085L181.301 596.012L179.373 594.843L178.836 598.338Z" fill="#B6BBFF"/>
<path d="M165.487 539.44L164.952 535.947L163.024 537.117L164.192 535.187L160.703 534.651L164.192 534.114L163.024 532.184L164.952 533.353L165.487 529.86L166.024 533.353L167.952 532.184L166.784 534.114L170.273 534.651L166.784 535.187L167.952 537.117L166.024 535.947L165.487 539.44Z" fill="#B6BBFF"/>
<path d="M185.102 573.254L184.565 569.761L182.637 570.931L183.806 569.001L180.316 568.463L183.806 567.928L182.637 565.998L184.565 567.167L185.102 563.674L185.637 567.167L187.565 565.998L186.397 567.928L189.886 568.463L186.397 569.001L187.565 570.931L185.637 569.761L185.102 573.254Z" fill="#B6BBFF"/>
<path d="M211.659 615.27L211.122 611.777L209.196 612.947L210.364 611.017L206.875 610.479L210.364 609.944L209.196 608.014L211.122 609.183L211.659 605.69L212.196 609.183L214.122 608.014L212.954 609.944L216.445 610.479L212.954 611.017L214.122 612.947L212.196 611.777L211.659 615.27Z" fill="#B6BBFF"/>
<path d="M370.335 588.479L369.798 584.986L367.872 586.155L369.04 584.228L365.551 583.69L369.04 583.152L367.872 581.222L369.798 582.394L370.335 578.899L370.872 582.394L372.798 581.222L371.629 583.152L375.121 583.69L371.629 584.228L372.798 586.155L370.872 584.986L370.335 588.479Z" fill="#B6BBFF"/>
<path d="M260.12 629.262L259.585 625.769L257.657 626.939L258.825 625.011L255.336 624.473L258.825 623.936L257.657 622.006L259.585 623.175L260.12 619.683L260.657 623.175L262.585 622.006L261.417 623.936L264.906 624.473L261.417 625.011L262.585 626.939L260.657 625.769L260.12 629.262Z" fill="#B6BBFF"/>
<path d="M251.417 657.69L250.88 654.198L248.954 655.367L250.122 653.439L246.633 652.902L250.122 652.364L248.954 650.434L250.88 651.603L251.417 648.111L251.954 651.603L253.882 650.434L252.714 652.364L256.203 652.902L252.714 653.439L253.882 655.367L251.954 654.198L251.417 657.69Z" fill="#B6BBFF"/>
<path d="M216.445 648.421L215.908 644.929L213.98 646.098L215.148 644.17L211.659 643.633L215.148 643.095L213.98 641.167L215.908 642.337L216.445 638.842L216.98 642.337L218.908 641.167L217.74 643.095L221.229 643.633L217.74 644.17L218.908 646.098L216.98 644.929L216.445 648.421Z" fill="#B6BBFF"/>
<path d="M147.491 569.047L146.954 565.554L145.026 566.723L146.194 564.796L142.705 564.258L146.194 563.72L145.026 561.79L146.954 562.96L147.491 559.467L148.026 562.96L149.954 561.79L148.786 563.72L152.275 564.258L148.786 564.796L149.954 566.723L148.026 565.554L147.491 569.047Z" fill="#B6BBFF"/>
<path d="M401.244 561.366L400.709 557.871L398.781 559.041L399.949 557.113L396.46 556.575L399.949 556.038L398.781 554.11L400.709 555.279L401.244 551.787L401.781 555.279L403.709 554.11L402.541 556.038L406.03 556.575L402.541 557.113L403.709 559.041L401.781 557.871L401.244 561.366Z" fill="#B6BBFF"/>
<path d="M346.04 615.27L345.503 611.777L343.577 612.947L344.743 611.017L341.254 610.479L344.743 609.944L343.577 608.014L345.503 609.183L346.04 605.69L346.577 609.183L348.503 608.014L347.335 609.944L350.824 610.479L347.335 611.017L348.503 612.947L346.577 611.777L346.04 615.27Z" fill="#B6BBFF"/>
<path d="M121.724 546.742L121.186 543.25L119.258 544.419L120.427 542.489L116.938 541.952L120.427 541.416L119.258 539.486L121.186 540.655L121.724 537.163L122.261 540.655L124.186 539.486L123.018 541.416L126.507 541.952L123.018 542.489L124.186 544.419L122.261 543.25L121.724 546.742Z" fill="#B6BBFF"/>
<path d="M389.746 542.052L389.211 538.559L387.283 539.726L388.451 537.799L384.962 537.261L388.451 536.723L387.283 534.796L389.211 535.965L389.746 532.472L390.283 535.965L392.211 534.796L391.043 536.723L394.532 537.261L391.043 537.799L392.211 539.726L390.283 538.559L389.746 542.052Z" fill="#B6BBFF"/>
<path d="M322.977 569.047L322.442 565.554L320.514 566.723L321.682 564.796L318.193 564.258L321.682 563.72L320.514 561.79L322.442 562.96L322.977 559.467L323.514 562.96L325.442 561.79L324.274 563.72L327.763 564.258L324.274 564.796L325.442 566.723L323.514 565.554L322.977 569.047Z" fill="#B6BBFF"/>
<path d="M418.034 521.911L417.497 518.419L415.571 519.588L416.739 517.658L413.25 517.123L416.739 516.585L415.571 514.655L417.497 515.824L418.034 512.332L418.571 515.824L420.497 514.655L419.329 516.585L422.82 517.123L419.329 517.658L420.497 519.588L418.571 518.419L418.034 521.911Z" fill="#B6BBFF"/>
<path d="M348.141 542.052L347.603 538.559L345.675 539.726L346.844 537.799L343.354 537.261L346.844 536.723L345.675 534.796L347.603 535.965L348.141 532.472L348.675 535.965L350.603 534.796L349.435 536.723L352.924 537.261L349.435 537.799L350.603 539.726L348.675 538.559L348.141 542.052Z" fill="#B6BBFF"/>
<path d="M131.882 526.669L131.344 523.177L129.419 524.346L130.587 522.416L127.098 521.879L130.587 521.343L129.419 519.413L131.344 520.582L131.882 517.09L132.419 520.582L134.347 519.413L133.178 521.343L136.668 521.879L133.178 522.416L134.347 524.346L132.419 523.177L131.882 526.669Z" fill="#B6BBFF"/>
<path d="M304.176 638.842L303.639 635.349L301.711 636.518L302.879 634.591L299.39 634.053L302.879 633.515L301.711 631.585L303.639 632.755L304.176 629.262L304.713 632.755L306.639 631.585L305.47 633.515L308.96 634.053L305.47 634.591L306.639 636.518L304.713 635.349L304.176 638.842Z" fill="#B6BBFF"/>
<path d="M287.819 554.103L288.356 557.596L290.282 556.427L289.114 558.357L292.603 558.894L289.114 559.43L290.282 561.36L288.356 560.19L287.819 563.683L287.282 560.19L285.354 561.36L286.522 559.43L283.033 558.894L286.522 558.357L285.354 556.427L287.282 557.596L287.819 554.103Z" fill="#B6BBFF"/>
<path d="M103.595 513.007L103.058 509.515L101.13 510.684L102.298 508.754L98.8086 508.219L102.298 507.681L101.13 505.751L103.058 506.92L103.595 503.428L104.13 506.92L106.058 505.751L104.889 507.681L108.379 508.219L104.889 508.754L106.058 510.684L104.13 509.515L103.595 513.007Z" fill="#B6BBFF"/>
</g>
<path d="M68.1182 696.937V87.5971C68.1182 73.7316 79.3475 62.491 93.1992 62.491H417.759C431.61 62.491 442.842 73.7316 442.842 87.5971V696.937C442.842 698.902 441.25 700.495 439.287 700.495H71.6706C69.7077 700.495 68.1182 698.902 68.1182 696.937Z" stroke="#B6BBFF" stroke-width="2" stroke-miterlimit="10"/>
<path d="M209.949 62.4888C209.949 87.5621 230.255 107.888 255.303 107.888C280.352 107.888 300.657 87.5621 300.657 62.4888H209.949Z" fill="#CFE7FF" stroke="#B6BBFF" stroke-width="2" stroke-miterlimit="10"/>
</svg>
