<svg width="396" height="710" viewBox="0 0 396 710" fill="none" xmlns="http://www.w3.org/2000/svg">
<path d="M33.1657 709.63C15.0371 709.63 0.287842 694.88 0.287842 676.746L0.287842 33.1735C0.287842 15.0418 15.0349 0.28772 33.1657 0.28772L362.558 0.28772C380.691 0.28772 395.438 15.0418 395.438 33.1735V676.746C395.438 694.878 380.691 709.63 362.558 709.63H33.1657Z" fill="#CFE7FF" stroke="#B6BBFF" stroke-width="0.5755" stroke-miterlimit="10"/>
<path d="M118.289 630.962C117.833 632.558 117.491 634.166 117.263 635.788C117.035 637.384 116.896 638.79 116.845 640.006V644.528C116.845 645.034 116.592 645.288 116.085 645.288H105.559C105.052 645.288 104.799 645.034 104.799 644.528V614.356C104.799 613.849 105.052 613.596 105.559 613.596H116.389C116.896 613.596 117.149 613.849 117.149 614.356V619.41C117.149 621.335 116.972 623.096 116.617 624.692C116.288 626.262 115.908 627.808 115.477 629.328C115.072 630.822 114.692 632.355 114.337 633.926C113.982 635.496 113.78 637.232 113.729 639.132C113.729 639.537 113.932 639.74 114.337 639.74C114.742 639.74 114.945 639.524 114.945 639.094C115.072 637.016 115.363 634.926 115.819 632.824C116.3 630.721 116.908 628.694 117.643 626.744C118.378 624.793 119.214 622.982 120.151 621.31C121.088 619.612 122.089 618.143 123.153 616.902C124.217 615.635 125.319 614.647 126.459 613.938C127.599 613.203 128.726 612.836 129.841 612.836C130.094 612.836 130.373 612.861 130.677 612.912C131.006 612.937 131.31 613 131.589 613.102C131.893 613.203 132.146 613.355 132.349 613.558C132.552 613.76 132.653 614.026 132.653 614.356V624.16C132.653 624.666 132.552 625.021 132.349 625.224C132.172 625.401 131.918 625.49 131.589 625.49C131.158 625.49 130.626 625.363 129.993 625.11C129.385 624.831 128.739 624.54 128.055 624.236C127.371 623.906 126.687 623.615 126.003 623.362C125.319 623.083 124.711 622.944 124.179 622.944C123.014 623.146 122.013 623.767 121.177 624.806C120.366 625.819 119.67 627.06 119.087 628.53C119.898 627.694 120.924 627.149 122.165 626.896C123.432 626.617 124.698 626.604 125.965 626.858C127.257 627.086 128.435 627.554 129.499 628.264C130.563 628.973 131.298 629.872 131.703 630.962C132.032 631.848 132.235 633.014 132.311 634.458C132.387 635.876 132.349 637.46 132.197 639.208C132.121 640.12 132.083 640.842 132.083 641.374C132.108 641.88 132.172 642.273 132.273 642.552C132.4 642.805 132.577 642.982 132.805 643.084C133.058 643.16 133.362 643.223 133.717 643.274C133.97 643.324 134.173 643.451 134.325 643.654C134.477 643.856 134.553 644.072 134.553 644.3C134.578 644.528 134.528 644.756 134.401 644.984C134.274 645.186 134.084 645.326 133.831 645.402C132.539 645.832 130.968 646.048 129.119 646.048C125.927 646.048 123.596 645.503 122.127 644.414C120.683 643.299 119.961 641.488 119.961 638.98C119.961 638.397 119.986 637.789 120.037 637.156C120.113 636.497 120.189 635.851 120.265 635.218C120.341 634.584 120.404 633.976 120.455 633.394C120.531 632.811 120.569 632.292 120.569 631.836C120.569 630.518 120.176 629.86 119.391 629.86C119.138 629.86 118.935 629.923 118.783 630.05C118.656 630.151 118.492 630.455 118.289 630.962ZM144.482 645.288C143.266 645.288 142.139 644.819 141.1 643.882C140.061 642.919 139.162 641.665 138.402 640.12C137.667 638.574 137.085 636.839 136.654 634.914C136.223 632.963 136.008 631 136.008 629.024C136.008 626.389 136.388 624.071 137.148 622.07C137.908 620.043 138.985 618.346 140.378 616.978C141.771 615.61 143.431 614.584 145.356 613.9C147.281 613.19 149.422 612.836 151.778 612.836C154.083 612.836 156.199 613.19 158.124 613.9C160.049 614.584 161.696 615.61 163.064 616.978C164.457 618.346 165.534 620.043 166.294 622.07C167.054 624.071 167.434 626.389 167.434 629.024C167.434 631 167.219 632.963 166.788 634.914C166.357 636.839 165.762 638.574 165.002 640.12C164.242 641.665 163.343 642.919 162.304 643.882C161.291 644.819 160.176 645.288 158.96 645.288H144.482ZM149.574 638.41C149.777 638.967 150.081 639.385 150.486 639.664C150.917 639.917 151.347 640.044 151.778 640.044C152.209 640.044 152.614 639.917 152.994 639.664C153.399 639.41 153.703 639.03 153.906 638.524C154.185 637.84 154.4 636.586 154.552 634.762C154.704 632.912 154.78 630.708 154.78 628.15C154.78 624.983 154.704 622.488 154.552 620.664C154.425 618.84 154.235 617.586 153.982 616.902C153.779 616.268 153.463 615.8 153.032 615.496C152.601 615.192 152.145 615.04 151.664 615.04C151.233 615.04 150.828 615.166 150.448 615.42C150.068 615.673 149.777 616.066 149.574 616.598C149.321 617.256 149.105 618.498 148.928 620.322C148.776 622.12 148.7 624.616 148.7 627.808C148.7 629.1 148.725 630.316 148.776 631.456C148.827 632.57 148.89 633.596 148.966 634.534C149.042 635.446 149.131 636.231 149.232 636.89C149.333 637.548 149.447 638.055 149.574 638.41ZM191.287 613.596C192.554 613.596 193.707 613.862 194.745 614.394C195.809 614.926 196.721 615.648 197.481 616.56C198.241 617.446 198.824 618.485 199.229 619.676C199.66 620.841 199.875 622.07 199.875 623.362C199.875 624.806 199.622 626.06 199.115 627.124C198.634 628.188 198.013 629.163 197.253 630.05C196.493 630.911 195.683 631.722 194.821 632.482C193.96 633.242 193.149 634.027 192.389 634.838C191.629 635.648 190.996 636.535 190.489 637.498C190.008 638.46 189.767 639.588 189.767 640.88C189.767 641.665 189.869 642.286 190.071 642.742C190.299 643.172 190.654 643.388 191.135 643.388C191.617 643.388 191.946 643.16 192.123 642.704C192.326 642.248 192.478 641.678 192.579 640.994C192.706 640.284 192.845 639.524 192.997 638.714C193.175 637.903 193.491 637.156 193.947 636.472C194.403 635.762 195.062 635.18 195.923 634.724C196.785 634.268 197.963 634.04 199.457 634.04C199.989 634.04 200.255 634.293 200.255 634.8V644.528C200.255 645.034 199.989 645.288 199.457 645.288H187.715C187.209 645.288 186.955 645.034 186.955 644.528V622.07C186.955 621.158 186.93 620.385 186.879 619.752C186.854 619.093 186.778 618.586 186.651 618.232C186.499 617.826 186.246 617.522 185.891 617.32C185.562 617.117 185.195 617.016 184.789 617.016C184.409 617.016 184.042 617.117 183.687 617.32C183.333 617.522 183.079 617.826 182.927 618.232C182.801 618.586 182.712 619.093 182.661 619.752C182.636 620.385 182.623 621.158 182.623 622.07V644.528C182.623 645.034 182.37 645.288 181.863 645.288H170.121C169.589 645.288 169.323 645.034 169.323 644.528V634.8C169.323 634.293 169.589 634.04 170.121 634.04C171.616 634.04 172.794 634.268 173.655 634.724C174.517 635.18 175.175 635.762 175.631 636.472C176.087 637.156 176.391 637.903 176.543 638.714C176.721 639.524 176.86 640.284 176.961 640.994C177.088 641.678 177.24 642.248 177.417 642.704C177.62 643.16 177.962 643.388 178.443 643.388C178.925 643.388 179.267 643.172 179.469 642.742C179.697 642.286 179.811 641.665 179.811 640.88C179.811 639.588 179.558 638.46 179.051 637.498C178.57 636.535 177.949 635.648 177.189 634.838C176.429 634.027 175.619 633.242 174.757 632.482C173.896 631.722 173.085 630.911 172.325 630.05C171.565 629.163 170.932 628.188 170.425 627.124C169.944 626.06 169.703 624.806 169.703 623.362C169.703 622.07 169.906 620.841 170.311 619.676C170.742 618.485 171.337 617.446 172.097 616.56C172.857 615.648 173.757 614.926 174.795 614.394C175.859 613.862 177.025 613.596 178.291 613.596H191.287ZM213.917 640.956C213.967 641.842 214.208 642.476 214.639 642.856C215.069 643.21 215.639 643.388 216.349 643.388C217.235 643.388 217.919 643.16 218.401 642.704C218.882 642.248 219.287 641.678 219.617 640.994C219.946 640.284 220.25 639.524 220.529 638.714C220.807 637.903 221.175 637.156 221.631 636.472C222.087 635.762 222.695 635.18 223.455 634.724C224.215 634.268 225.228 634.04 226.495 634.04C226.951 634.04 227.179 634.293 227.179 634.8V644.528C227.179 645.034 226.951 645.288 226.495 645.288H202.897C202.39 645.288 202.137 645.034 202.137 644.528V614.356C202.137 613.849 202.39 613.596 202.897 613.596H226.077C226.811 613.596 227.179 613.976 227.179 614.736C227.179 616.18 226.862 617.408 226.229 618.422C225.621 619.41 224.848 620.258 223.911 620.968C222.999 621.677 221.998 622.272 220.909 622.754C219.819 623.235 218.806 623.678 217.869 624.084C216.957 624.464 216.184 624.844 215.551 625.224C214.943 625.604 214.639 626.034 214.639 626.516C214.639 626.82 214.753 627.073 214.981 627.276C215.209 627.478 215.513 627.58 215.893 627.58C216.273 627.58 216.716 627.478 217.223 627.276C217.729 627.048 218.236 626.82 218.743 626.592C219.249 626.338 219.731 626.11 220.187 625.908C220.668 625.68 221.061 625.566 221.365 625.566C221.871 625.566 222.125 625.882 222.125 626.516V633.356C222.125 633.533 222.023 633.723 221.821 633.926C221.643 634.103 221.39 634.268 221.061 634.42C220.757 634.572 220.402 634.698 219.997 634.8C219.591 634.876 219.186 634.914 218.781 634.914C217.362 634.914 216.121 634.483 215.057 633.622C213.993 632.735 213.258 631.57 212.853 630.126C213.055 631.899 213.245 633.71 213.423 635.56C213.625 637.409 213.79 639.208 213.917 640.956ZM212.549 627.39C212.625 626.148 212.916 625.122 213.423 624.312C213.955 623.501 214.525 622.766 215.133 622.108C215.741 621.449 216.285 620.79 216.767 620.132C217.248 619.448 217.489 618.637 217.489 617.7C217.489 616.23 216.627 615.496 214.905 615.496C213.815 615.496 213.055 615.812 212.625 616.446C212.219 617.054 212.017 618.181 212.017 619.828C212.017 620.79 212.067 621.918 212.169 623.21C212.27 624.502 212.397 625.895 212.549 627.39ZM245.067 616.256C244.079 616.256 243.167 616.458 242.331 616.864C241.495 617.269 240.773 617.852 240.165 618.612C239.583 619.346 239.127 620.233 238.797 621.272C238.468 622.285 238.303 623.412 238.303 624.654C238.303 626.25 238.582 627.719 239.139 629.062C239.697 630.379 240.482 631.506 241.495 632.444C242.534 633.381 243.763 634.116 245.181 634.648C246.6 635.154 248.183 635.408 249.931 635.408C251.502 635.408 252.832 635.192 253.921 634.762C255.011 634.331 255.821 633.71 256.353 632.9C256.632 632.469 256.999 632.317 257.455 632.444L257.721 632.52C258.203 632.646 258.443 632.963 258.443 633.47C258.317 637.523 257.126 640.639 254.871 642.818C252.642 644.971 249.513 646.048 245.485 646.048C243.053 646.048 240.849 645.655 238.873 644.87C236.923 644.084 235.238 642.97 233.819 641.526C232.426 640.056 231.349 638.296 230.589 636.244C229.829 634.192 229.449 631.912 229.449 629.404C229.449 627.2 229.728 625.135 230.285 623.21C230.868 621.284 231.653 619.612 232.641 618.194C233.655 616.775 234.833 615.66 236.175 614.85C237.518 614.014 238.962 613.596 240.507 613.596H253.161C254.681 613.596 255.872 613.988 256.733 614.774C257.595 615.559 258.025 616.484 258.025 617.548C258.025 618.384 257.772 619.245 257.265 620.132C256.784 621.018 256.163 621.842 255.403 622.602C254.643 623.336 253.807 623.944 252.895 624.426C251.983 624.907 251.122 625.148 250.311 625.148C250.058 625.148 249.855 625.059 249.703 624.882C249.551 624.679 249.475 624.464 249.475 624.236C249.475 624.008 249.526 623.818 249.627 623.666C249.729 623.514 249.83 623.349 249.931 623.172C250.058 622.969 250.159 622.728 250.235 622.45C250.337 622.146 250.387 621.753 250.387 621.272C250.387 620.537 250.248 619.866 249.969 619.258C249.716 618.65 249.349 618.13 248.867 617.7C248.411 617.244 247.854 616.889 247.195 616.636C246.562 616.382 245.853 616.256 245.067 616.256ZM268.835 645.288C267.619 645.288 266.492 644.819 265.453 643.882C264.415 642.919 263.515 641.665 262.755 640.12C262.021 638.574 261.438 636.839 261.007 634.914C260.577 632.963 260.361 631 260.361 629.024C260.361 626.389 260.741 624.071 261.501 622.07C262.261 620.043 263.338 618.346 264.731 616.978C266.125 615.61 267.784 614.584 269.709 613.9C271.635 613.19 273.775 612.836 276.131 612.836C278.437 612.836 280.552 613.19 282.477 613.9C284.403 614.584 286.049 615.61 287.417 616.978C288.811 618.346 289.887 620.043 290.647 622.07C291.407 624.071 291.787 626.389 291.787 629.024C291.787 631 291.572 632.963 291.141 634.914C290.711 636.839 290.115 638.574 289.355 640.12C288.595 641.665 287.696 642.919 286.657 643.882C285.644 644.819 284.529 645.288 283.313 645.288H268.835ZM273.927 638.41C274.13 638.967 274.434 639.385 274.839 639.664C275.27 639.917 275.701 640.044 276.131 640.044C276.562 640.044 276.967 639.917 277.347 639.664C277.753 639.41 278.057 639.03 278.259 638.524C278.538 637.84 278.753 636.586 278.905 634.762C279.057 632.912 279.133 630.708 279.133 628.15C279.133 624.983 279.057 622.488 278.905 620.664C278.779 618.84 278.589 617.586 278.335 616.902C278.133 616.268 277.816 615.8 277.385 615.496C276.955 615.192 276.499 615.04 276.017 615.04C275.587 615.04 275.181 615.166 274.801 615.42C274.421 615.673 274.13 616.066 273.927 616.598C273.674 617.256 273.459 618.498 273.281 620.322C273.129 622.12 273.053 624.616 273.053 627.808C273.053 629.1 273.079 630.316 273.129 631.456C273.18 632.57 273.243 633.596 273.319 634.534C273.395 635.446 273.484 636.231 273.585 636.89C273.687 637.548 273.801 638.055 273.927 638.41ZM89.8624 682.288C89.3304 682.288 89.0644 682.034 89.0644 681.528V671.344C88.6844 672.788 88.1524 674.029 87.4684 675.068C86.7844 676.106 85.9991 676.968 85.1124 677.652C84.2511 678.31 83.3011 678.804 82.2624 679.134C81.2491 679.438 80.1977 679.59 79.1084 679.59C77.6897 679.59 76.4611 679.235 75.4224 678.526C74.3837 677.816 73.5224 676.879 72.8384 675.714C72.1544 674.523 71.6351 673.168 71.2804 671.648C70.9257 670.128 70.7104 668.544 70.6344 666.898C70.5584 664.896 70.7357 662.946 71.1664 661.046C71.6224 659.12 72.2811 657.41 73.1424 655.916C74.0291 654.421 75.1057 653.218 76.3724 652.306C77.6391 651.394 79.0577 650.938 80.6284 650.938C81.9204 650.938 83.0604 651.242 84.0484 651.85C85.0617 652.432 85.8597 653.256 86.4424 654.32C87.0504 655.384 87.4177 656.638 87.5444 658.082C87.6964 659.5 87.5697 661.046 87.1644 662.718C87.0631 663.275 86.7211 663.528 86.1384 663.478H85.9484C85.7204 663.478 85.5177 663.402 85.3404 663.25C85.1631 663.098 85.0364 662.908 84.9604 662.68C84.8084 662.148 84.5804 661.73 84.2764 661.426C83.9724 661.122 83.6177 660.97 83.2124 660.97C82.7057 660.97 82.2751 661.299 81.9204 661.958C81.5657 662.616 81.2997 663.44 81.1224 664.428C80.9451 665.39 80.8437 666.454 80.8184 667.62C80.8184 668.76 80.9071 669.824 81.0844 670.812C81.2617 671.774 81.5277 672.585 81.8824 673.244C82.2624 673.902 82.7311 674.232 83.2884 674.232C83.8457 674.232 84.4284 673.966 85.0364 673.434C85.6697 672.876 86.2651 672.091 86.8224 671.078C87.3797 670.039 87.8611 668.785 88.2664 667.316C88.6717 665.846 88.9377 664.2 89.0644 662.376V651.356C89.0644 650.849 89.3304 650.596 89.8624 650.596H100.616C101.148 650.596 101.414 650.849 101.414 651.356V659.564C102.478 656.777 103.859 654.75 105.556 653.484C107.254 652.192 109.192 651.546 111.37 651.546C112.789 651.546 114.018 651.9 115.056 652.61C116.095 653.319 116.956 654.269 117.64 655.46C118.324 656.625 118.844 657.968 119.198 659.488C119.553 661.008 119.768 662.591 119.844 664.238C119.92 666.239 119.73 668.202 119.274 670.128C118.844 672.028 118.185 673.725 117.298 675.22C116.437 676.714 115.373 677.918 114.106 678.83C112.84 679.742 111.421 680.198 109.85 680.198C108.558 680.198 107.406 679.906 106.392 679.324C105.404 678.716 104.606 677.88 103.998 676.816C103.416 675.752 103.048 674.51 102.896 673.092C102.77 671.648 102.909 670.09 103.314 668.418C103.416 667.86 103.758 667.607 104.34 667.658H104.53C104.758 667.658 104.961 667.734 105.138 667.886C105.316 668.038 105.442 668.228 105.518 668.456C105.67 668.988 105.898 669.406 106.202 669.71C106.506 670.014 106.861 670.166 107.266 670.166C107.773 670.166 108.204 669.824 108.558 669.14C108.913 668.456 109.179 667.607 109.356 666.594C109.534 665.58 109.622 664.478 109.622 663.288C109.648 662.072 109.572 660.957 109.394 659.944C109.217 658.93 108.938 658.082 108.558 657.398C108.204 656.714 107.748 656.372 107.19 656.372C106.633 656.372 106.038 656.676 105.404 657.284C104.771 657.892 104.176 658.74 103.618 659.83C103.086 660.919 102.618 662.224 102.212 663.744C101.807 665.264 101.541 666.936 101.414 668.76V681.528C101.414 682.034 101.148 682.288 100.616 682.288H89.8624ZM130.436 682.288C129.22 682.288 128.093 681.819 127.054 680.882C126.015 679.919 125.116 678.665 124.356 677.12C123.621 675.574 123.039 673.839 122.608 671.914C122.177 669.963 121.962 668 121.962 666.024C121.962 663.389 122.342 661.071 123.102 659.07C123.862 657.043 124.939 655.346 126.332 653.978C127.725 652.61 129.385 651.584 131.31 650.9C133.235 650.19 135.376 649.836 137.732 649.836C140.037 649.836 142.153 650.19 144.078 650.9C146.003 651.584 147.65 652.61 149.018 653.978C150.411 655.346 151.488 657.043 152.248 659.07C153.008 661.071 153.388 663.389 153.388 666.024C153.388 668 153.173 669.963 152.742 671.914C152.311 673.839 151.716 675.574 150.956 677.12C150.196 678.665 149.297 679.919 148.258 680.882C147.245 681.819 146.13 682.288 144.914 682.288H130.436ZM135.528 675.41C135.731 675.967 136.035 676.385 136.44 676.664C136.871 676.917 137.301 677.044 137.732 677.044C138.163 677.044 138.568 676.917 138.948 676.664C139.353 676.41 139.657 676.03 139.86 675.524C140.139 674.84 140.354 673.586 140.506 671.762C140.658 669.912 140.734 667.708 140.734 665.15C140.734 661.983 140.658 659.488 140.506 657.664C140.379 655.84 140.189 654.586 139.936 653.902C139.733 653.268 139.417 652.8 138.986 652.496C138.555 652.192 138.099 652.04 137.618 652.04C137.187 652.04 136.782 652.166 136.402 652.42C136.022 652.673 135.731 653.066 135.528 653.598C135.275 654.256 135.059 655.498 134.882 657.322C134.73 659.12 134.654 661.616 134.654 664.808C134.654 666.1 134.679 667.316 134.73 668.456C134.781 669.57 134.844 670.596 134.92 671.534C134.996 672.446 135.085 673.231 135.186 673.89C135.287 674.548 135.401 675.055 135.528 675.41ZM167.627 677.386V681.528C167.627 682.034 167.374 682.288 166.867 682.288H156.417C155.911 682.288 155.657 682.034 155.657 681.528V651.356C155.657 650.849 155.911 650.596 156.417 650.596C157.152 650.596 158.064 650.596 159.153 650.596C160.243 650.596 161.383 650.596 162.573 650.596C163.789 650.596 165.005 650.608 166.221 650.634C167.437 650.634 168.552 650.634 169.565 650.634C170.579 650.634 171.427 650.634 172.111 650.634C172.821 650.634 173.264 650.634 173.441 650.634C175.671 650.634 177.571 650.811 179.141 651.166C180.712 651.52 181.991 652.065 182.979 652.8C183.967 653.509 184.689 654.396 185.145 655.46C185.601 656.524 185.829 657.778 185.829 659.222C185.829 661.882 185.031 663.959 183.435 665.454C181.839 666.923 179.192 667.886 175.493 668.342C174.86 668.418 174.163 668.506 173.403 668.608C172.643 668.709 171.909 668.899 171.199 669.178C170.515 669.431 169.895 669.798 169.337 670.28C168.78 670.761 168.375 671.432 168.121 672.294C167.969 672.826 167.843 673.548 167.741 674.46C167.665 675.346 167.627 676.322 167.627 677.386ZM167.627 668.038C167.627 668.544 167.729 668.798 167.931 668.798C168.033 668.798 168.261 668.658 168.615 668.38C169.046 667.949 169.502 667.569 169.983 667.24C170.465 666.885 170.933 666.543 171.389 666.214C171.845 665.884 172.276 665.53 172.681 665.15C173.112 664.77 173.479 664.301 173.783 663.744C174.113 663.186 174.366 662.528 174.543 661.768C174.721 660.982 174.809 660.032 174.809 658.918C174.809 656.688 174.315 655.08 173.327 654.092C172.339 653.078 170.693 652.546 168.387 652.496C167.881 652.496 167.627 652.749 167.627 653.256V668.038ZM207.898 682.288H196.688C196.181 682.288 195.928 682.034 195.928 681.528C195.979 679.526 196.118 677.373 196.346 675.068C196.574 672.737 196.815 670.432 197.068 668.152C197.321 665.872 197.537 663.706 197.714 661.654C197.917 659.576 198.018 657.79 198.018 656.296C198.018 654.852 197.904 653.864 197.676 653.332C197.473 652.774 197.131 652.496 196.65 652.496C196.169 652.496 195.814 652.724 195.586 653.18C195.383 653.636 195.206 654.218 195.054 654.928C194.927 655.612 194.763 656.359 194.56 657.17C194.383 657.98 194.053 658.74 193.572 659.45C193.091 660.134 192.407 660.704 191.52 661.16C190.633 661.616 189.443 661.844 187.948 661.844C187.416 661.844 187.15 661.59 187.15 661.084V651.356C187.15 650.849 187.416 650.596 187.948 650.596H216.638C217.17 650.596 217.436 650.849 217.436 651.356V661.084C217.436 661.59 217.17 661.844 216.638 661.844C215.143 661.844 213.953 661.616 213.066 661.16C212.179 660.704 211.495 660.134 211.014 659.45C210.533 658.74 210.191 657.98 209.988 657.17C209.811 656.359 209.646 655.612 209.494 654.928C209.367 654.218 209.203 653.636 209 653.18C208.797 652.724 208.443 652.496 207.936 652.496C207.455 652.496 207.1 652.774 206.872 653.332C206.669 653.864 206.568 654.852 206.568 656.296C206.568 657.79 206.669 659.576 206.872 661.654C207.075 663.706 207.29 665.872 207.518 668.152C207.771 670.432 208.012 672.737 208.24 675.068C208.468 677.373 208.607 679.526 208.658 681.528C208.658 682.034 208.405 682.288 207.898 682.288ZM240.735 670.09C239.975 671.888 238.987 673.56 237.771 675.106C236.555 676.651 235.213 677.994 233.743 679.134C232.274 680.274 230.741 681.173 229.145 681.832C227.549 682.465 225.979 682.782 224.433 682.782C223.572 682.782 222.736 682.668 221.925 682.44C221.723 682.389 221.558 682.288 221.431 682.136C221.305 681.984 221.241 681.806 221.241 681.604V671.61C221.241 671.103 221.495 670.85 222.001 670.85C222.255 670.85 222.559 670.976 222.913 671.23C223.293 671.458 223.711 671.762 224.167 672.142C224.649 672.496 225.168 672.889 225.725 673.32C226.308 673.75 226.903 674.156 227.511 674.536C228.145 674.89 228.803 675.194 229.487 675.448C230.171 675.676 230.868 675.79 231.577 675.79C232.363 675.79 233.072 675.625 233.705 675.296C234.339 674.966 234.947 674.548 235.529 674.042C235.783 673.814 235.884 673.624 235.833 673.472C235.783 673.32 235.58 673.244 235.225 673.244H228.461C227.955 673.244 227.6 672.99 227.397 672.484L218.277 651.356C218.176 651.128 218.176 650.95 218.277 650.824C218.379 650.672 218.543 650.596 218.771 650.596H229.297C229.525 650.596 229.791 650.672 230.095 650.824C230.425 650.95 230.627 651.128 230.703 651.356L237.619 669.026C237.873 669.684 238.113 670.014 238.341 670.014C238.62 670.014 238.848 669.773 239.025 669.292C239.203 668.785 239.291 668.152 239.291 667.392C239.291 666.277 239.127 665.251 238.797 664.314C238.468 663.351 238.126 662.224 237.771 660.932C237.442 659.614 237.163 658.297 236.935 656.98C236.733 655.637 236.733 654.358 236.935 653.142C237.113 652.179 237.417 651.52 237.847 651.166C238.278 650.786 238.937 650.596 239.823 650.596H248.715C248.918 650.596 249.057 650.646 249.133 650.748C249.209 650.849 249.209 650.988 249.133 651.166C248.323 653.091 247.575 654.852 246.891 656.448C246.233 658.044 245.587 659.602 244.953 661.122C244.32 662.616 243.661 664.01 242.977 665.302C242.319 666.568 241.571 668.164 240.735 670.09ZM266.86 665.834C267.366 665.707 267.62 665.403 267.62 664.922V651.356C267.62 650.849 267.873 650.596 268.38 650.596H278.83C279.336 650.596 279.59 650.849 279.59 651.356V681.528C279.59 682.034 279.336 682.288 278.83 682.288H268C267.493 682.288 267.24 682.034 267.24 681.528C267.24 680.692 267.366 679.868 267.62 679.058C267.898 678.222 268.202 677.386 268.532 676.55C268.861 675.714 269.152 674.878 269.406 674.042C269.684 673.18 269.824 672.319 269.824 671.458C269.824 670.394 269.583 669.634 269.102 669.178C268.646 668.696 267.936 668.456 266.974 668.456C263.427 668.456 261.654 671.546 261.654 677.728V681.528C261.654 682.034 261.4 682.288 260.894 682.288H250.824C250.317 682.288 250.064 682.034 250.064 681.528V651.356C250.064 650.849 250.317 650.596 250.824 650.596H261.274C261.78 650.596 262.034 650.849 262.034 651.356V656.41C262.034 658.335 261.856 660.096 261.502 661.692C261.172 663.262 260.792 664.808 260.362 666.328C259.956 667.848 259.576 669.393 259.222 670.964C258.867 672.509 258.664 674.232 258.614 676.132C258.614 676.537 258.816 676.74 259.222 676.74C259.551 676.74 259.741 676.524 259.792 676.094C259.893 674.523 260.083 673.155 260.362 671.99C260.666 670.824 261.096 669.836 261.654 669.026C262.211 668.19 262.908 667.518 263.744 667.012C264.605 666.48 265.644 666.087 266.86 665.834ZM293.836 655.498C293.836 656.562 293.874 657.55 293.95 658.462C294.052 659.348 294.178 660.058 294.33 660.59C294.584 661.451 294.989 662.122 295.546 662.604C296.104 663.085 296.724 663.465 297.408 663.744C298.118 663.997 298.852 664.174 299.612 664.276C300.372 664.377 301.069 664.466 301.702 664.542C305.401 664.998 308.048 665.973 309.644 667.468C311.24 668.937 312.038 671.002 312.038 673.662C312.038 675.106 311.81 676.36 311.354 677.424C310.898 678.488 310.176 679.387 309.188 680.122C308.2 680.831 306.921 681.363 305.35 681.718C303.78 682.072 301.88 682.25 299.65 682.25C299.473 682.25 299.03 682.25 298.32 682.25C297.636 682.25 296.788 682.25 295.774 682.25C294.761 682.25 293.646 682.262 292.43 682.288C291.214 682.288 289.998 682.288 288.782 682.288C287.592 682.288 286.452 682.288 285.362 682.288C284.273 682.288 283.361 682.288 282.626 682.288C282.12 682.288 281.866 682.034 281.866 681.528V651.356C281.866 650.849 282.12 650.596 282.626 650.596H293.076C293.583 650.596 293.836 650.849 293.836 651.356V655.498ZM293.836 679.628C293.836 680.134 294.09 680.388 294.596 680.388C296.902 680.337 298.548 679.818 299.536 678.83C300.524 677.816 301.018 676.195 301.018 673.966C301.018 672.851 300.93 671.914 300.752 671.154C300.575 670.368 300.322 669.697 299.992 669.14C299.688 668.582 299.321 668.114 298.89 667.734C298.485 667.354 298.054 666.999 297.598 666.67C297.142 666.34 296.674 666.011 296.192 665.682C295.711 665.352 295.255 664.96 294.824 664.504C294.47 664.225 294.242 664.086 294.14 664.086C293.938 664.086 293.836 664.339 293.836 664.846V679.628ZM313.786 651.356C313.786 650.849 314.052 650.596 314.584 650.596H324.958C325.49 650.596 325.756 650.849 325.756 651.356V681.528C325.756 682.034 325.49 682.288 324.958 682.288H314.584C314.052 682.288 313.786 682.034 313.786 681.528V651.356Z" fill="#6265FE"/>
<path d="M32.2878 589.137V49.5229C32.2878 37.244 42.2369 27.2897 54.5093 27.2897H342.064C354.337 27.2897 364.288 37.244 364.288 49.5229V589.137C364.288 590.877 362.878 592.288 361.138 592.288H35.4352C33.6961 592.288 32.2878 590.877 32.2878 589.137Z" fill="#6265FE"/>
<mask id="mask0_326_15" style="mask-type:luminance" maskUnits="userSpaceOnUse" x="32" y="27" width="333" height="566">
<path d="M32.2878 589.137V49.5229C32.2878 37.244 42.2369 27.2897 54.5093 27.2897H342.064C354.337 27.2897 364.288 37.244 364.288 49.5229V589.137C364.288 590.877 362.878 592.288 361.138 592.288H35.4352C33.6961 592.288 32.2878 590.877 32.2878 589.137Z" fill="white"/>
</mask>
<g mask="url(#mask0_326_15)">
<path d="M242.533 -100.493L153.729 761.574" stroke="#CFE7FF" stroke-width="2" stroke-miterlimit="10"/>
<path d="M628.935 374.966L-232.673 286.114" stroke="#CFE7FF" stroke-width="2" stroke-miterlimit="10"/>
<path d="M-75.0972 -5.66052L471.358 666.739" stroke="#CFE7FF" stroke-width="2" stroke-miterlimit="10"/>
<path d="M534.151 57.1664L-137.891 603.913" stroke="#CFE7FF" stroke-width="2" stroke-miterlimit="10"/>
<path d="M76.104 -85.2198L320.158 746.3" stroke="#CFE7FF" stroke-width="2" stroke-miterlimit="10"/>
<path d="M613.67 208.448L-217.407 452.633" stroke="#CFE7FF" stroke-width="2" stroke-miterlimit="10"/>
<path d="M-181.987 122.885L578.248 538.194" stroke="#CFE7FF" stroke-width="2" stroke-miterlimit="10"/>
<path d="M405.674 -49.7786L-9.41382 710.859" stroke="#CFE7FF" stroke-width="2" stroke-miterlimit="10"/>
<path d="M154.665 -100.588L241.595 761.669" stroke="#CFE7FF" stroke-width="2" stroke-miterlimit="10"/>
<path d="M629.03 287.051L-232.769 374.028" stroke="#CFE7FF" stroke-width="2" stroke-miterlimit="10"/>
<path d="M-137.295 56.4366L533.557 604.644" stroke="#CFE7FF" stroke-width="2" stroke-miterlimit="10"/>
<path d="M472.087 -5.06433L-75.8267 666.145" stroke="#CFE7FF" stroke-width="2" stroke-miterlimit="10"/>
<path d="M-5.25659 -52.0199L401.519 713.101" stroke="#CFE7FF" stroke-width="2" stroke-miterlimit="10"/>
<path d="M580.488 127.042L-184.225 534.037" stroke="#CFE7FF" stroke-width="2" stroke-miterlimit="10"/>
<path d="M-216.053 203.923L612.314 457.158" stroke="#CFE7FF" stroke-width="2" stroke-miterlimit="10"/>
<path d="M324.681 -83.865L71.5811 744.946" stroke="#CFE7FF" stroke-width="2" stroke-miterlimit="10"/>
</g>
<mask id="mask1_326_15" style="mask-type:luminance" maskUnits="userSpaceOnUse" x="32" y="27" width="333" height="566">
<path d="M32.2878 589.137V49.5229C32.2878 37.244 42.2369 27.2897 54.5093 27.2897H342.064C354.337 27.2897 364.288 37.244 364.288 49.5229V589.137C364.288 590.877 362.878 592.288 361.138 592.288H35.4352C33.6961 592.288 32.2878 590.877 32.2878 589.137Z" fill="white"/>
</mask>
<g mask="url(#mask1_326_15)">
<path d="M252.511 64.0026C252.403 67.1517 253.361 70.326 255.195 72.8886C257.027 75.4493 259.723 77.3829 262.735 78.2945C263.083 89.4682 269.901 100.102 280.043 104.794C287.88 108.417 296.941 109.013 305.447 107.525V27.6517H301.897C301.897 27.6517 300.224 34.0467 286.674 35.2196C286.674 35.2196 288.601 62.9981 252.511 64.0026Z" fill="#CFE7FF" stroke="#B6BBFF" stroke-width="2" stroke-miterlimit="10"/>
<path d="M305.449 100.133C302.816 100.924 300.086 101.271 297.123 101.248C294.44 101.228 291.743 100.847 289.17 100.082C285.282 98.9288 281.759 96.4416 279.583 93.0177C277.408 89.5938 276.66 85.237 277.815 81.3466C278.969 77.4581 282.082 74.1484 285.97 72.9929C289.857 71.8374 294.395 72.989 297.092 76.02C298.254 77.3265 299.076 78.9639 299.256 80.702C299.436 82.4401 299.113 84.4511 297.943 85.7479C296.987 86.8086 295.714 87.5286 294.335 87.8925C293.087 88.2215 291.691 88.2622 290.451 87.9099C289.211 87.5557 287.903 86.6847 287.404 85.326" stroke="#6265FE" stroke-width="2" stroke-miterlimit="10"/>
<path d="M280.712 88.7772C282.304 92.5689 285.603 95.6019 289.512 96.8696" stroke="#6265FE" stroke-width="2" stroke-miterlimit="10"/>
<path d="M276.145 68.1194C280.2 65.0497 285.282 63.3658 290.365 63.4026C295.449 63.4413 301.618 65.611 305.449 71.0537" stroke="#6265FE" stroke-width="2" stroke-miterlimit="10"/>
<path d="M294.397 56.9689C298.427 57.0231 302.421 58.5502 305.46 61.196" stroke="#6265FE" stroke-width="2" stroke-miterlimit="10"/>
<path d="M297.295 53.0785C299.111 53.2546 300.899 53.7308 302.564 54.4779" stroke="#6265FE" stroke-width="2" stroke-miterlimit="10"/>
<path d="M256.93 63.7587C256.943 67.1497 258.961 70.4594 261.971 72.0214" stroke="#6265FE" stroke-width="2" stroke-miterlimit="10"/>
<path d="M292.871 90.3488C290.315 90.9043 287.475 90.0275 285.738 88.1442C284.003 86.261 283.442 83.4506 284.332 81.0874C284.57 80.4544 284.906 79.8506 285.355 79.3338C286.491 78.0254 288.363 77.3479 290.118 77.6092C291.87 77.8705 293.441 79.0647 294.107 80.6422" stroke="#6265FE" stroke-width="2" stroke-miterlimit="10"/>
<path d="M331.199 130.668C329.709 136.124 329.347 141.977 330.885 147.42C332.425 152.862 335.996 157.85 341.039 160.475C340.523 163.997 341.712 167.847 344.198 170.412C346.684 172.976 350.394 174.317 353.962 173.94C352.284 175.682 351.511 178.686 352.561 180.859C352.838 181.43 353.217 181.949 353.648 182.418C354.66 183.521 355.958 184.365 357.382 184.845C352.163 187.419 347.996 192.306 346.237 197.822C344.479 203.339 344.897 209.459 347.131 214.803C349.365 220.145 353.36 224.703 358.233 227.877C360.233 229.182 362.375 230.258 364.508 231.332V129.607C364.508 129.607 355.77 131.672 347.201 131.672C338.629 131.672 331.199 130.668 331.199 130.668Z" fill="#B6BBFF" stroke="#CFE7FF" stroke-width="2" stroke-miterlimit="10"/>
<path d="M354.654 147.948C356.109 148.445 357.784 147.782 358.786 146.614C360.45 144.677 360.328 141.534 358.707 139.56C357.086 137.585 354.23 136.829 351.76 137.473C349.29 138.118 347.249 140.03 346.167 142.345C345.001 144.842 344.902 147.814 345.899 150.383C346.895 152.951 348.972 155.08 351.516 156.135C351.087 158.297 351.524 160.854 352.952 162.532C354.379 164.208 356.596 165.182 358.796 165.101" stroke="#6265FE" stroke-width="2" stroke-miterlimit="10"/>
<path d="M334.607 134.191C333.237 138.451 332.988 142.939 334.263 147.23C335.537 151.521 338.563 154.684 342.186 156.943" stroke="#6265FE" stroke-width="2" stroke-miterlimit="10"/>
<path d="M363.698 224.558C359.374 222.843 355.569 219.771 353.625 215.771" stroke="#6265FE" stroke-width="2" stroke-miterlimit="10"/>
<path d="M359.728 182.586C358.865 183.298 358.304 184.363 358.202 185.478C358.101 186.593 358.461 187.74 359.181 188.598" stroke="#6265FE" stroke-width="2" stroke-miterlimit="10"/>
<path d="M356.155 174.985C355.039 174.006 354.379 172.527 354.397 171.043" stroke="#6265FE" stroke-width="2" stroke-miterlimit="10"/>
<path d="M340.67 136.62C339.068 139.018 338.346 141.989 338.668 144.855" stroke="#6265FE" stroke-width="2" stroke-miterlimit="10"/>
<path d="M355.766 141.214C355.124 140.812 354.339 140.64 353.586 140.738C353.101 140.802 352.625 140.976 352.232 141.272C351.317 141.962 350.979 143.223 351.124 144.362C351.211 145.051 351.501 145.774 352.112 146.102" stroke="#6265FE" stroke-width="2" stroke-miterlimit="10"/>
<path d="M364.005 145.26C363.86 148.055 362.082 150.704 359.554 151.898C357.026 153.093 353.851 152.781 351.603 151.118" stroke="#6265FE" stroke-width="2" stroke-miterlimit="10"/>
<path d="M187.927 26.7285C187.964 33.226 191.865 39.348 197.268 42.952C202.671 46.5559 209.386 47.8372 215.87 47.4908C216.546 52.527 220.571 57.0638 225.413 58.5967C230.255 60.1297 235.61 59.3303 240.268 57.3077C245.866 63.1568 254.206 65.5549 262.3 65.4988C270.539 65.4427 278.913 62.9497 285.214 57.6387C291.514 52.3276 295.484 44.0359 294.673 35.8332C297.925 36.0286 301.009 35.2622 303.918 33.7989C306.828 32.3337 309.6 29.6201 310.927 26.6453L187.927 26.7285Z" fill="#B6BBFF" stroke="#CFE7FF" stroke-width="2" stroke-miterlimit="10"/>
<path d="M240.425 57.1317C240.332 57.3155 240.051 57.1936 239.902 57.0504C236.032 53.3516 234.068 47.7541 234.78 42.4469" stroke="#6265FE" stroke-width="2" stroke-miterlimit="10"/>
<path d="M248.569 42.0424C249.726 38.6978 252.815 36.1023 256.307 35.541C259.799 34.9777 263.546 36.4739 265.693 39.2862C267.018 41.0223 267.745 43.2908 267.316 45.4334C266.886 47.576 265.167 49.4922 263.008 49.827C260.851 50.1618 258.475 48.6309 258.177 46.4669" stroke="#6265FE" stroke-width="2" stroke-miterlimit="10"/>
<path d="M246.677 56.8336C252.848 60.6872 260.719 61.6956 267.662 59.522" stroke="#6265FE" stroke-width="2" stroke-miterlimit="10"/>
<path d="M276.193 56.5839C283.533 53.3516 288.51 45.3792 288.191 37.3604" stroke="#6265FE" stroke-width="2" stroke-miterlimit="10"/>
<path d="M214.373 44.3146C215.226 46.3682 217.292 47.8624 219.509 48.0288" stroke="#6265FE" stroke-width="2" stroke-miterlimit="10"/>
<path d="M191.624 26.7285C191.867 30.3789 193.322 33.9383 195.703 36.7158C198.085 39.4932 201.381 41.4713 204.952 42.2668" stroke="#6265FE" stroke-width="2" stroke-miterlimit="10"/>
<path d="M228.673 53.6728C228.752 53.7677 228.884 53.7948 229.006 53.8141C231.526 54.2206 234.173 53.8025 236.446 52.6393" stroke="#6265FE" stroke-width="2" stroke-miterlimit="10"/>
<path d="M214.495 26.6531C215.267 28.6447 216.886 30.2357 218.758 31.2596C220.633 32.2854 222.751 32.7848 224.871 33.0403C228.036 33.4216 230.806 33.2725 233.851 32.328C236.896 31.3835 239.883 29.3396 240.993 26.8215" stroke="#6265FE" stroke-width="2" stroke-miterlimit="10"/>
<path d="M267.335 29.4983C270.674 30.6209 273.566 33.019 275.286 36.0945C277.006 39.1701 277.536 42.8921 276.743 46.3257" stroke="#6265FE" stroke-width="2" stroke-miterlimit="10"/>
<path d="M262.327 40.1998C260.215 38.4772 257.027 38.2101 254.659 39.5611C252.289 40.9121 250.892 43.7882 251.297 46.4864C251.701 49.1845 253.879 51.5264 256.541 52.1226" stroke="#6265FE" stroke-width="2" stroke-miterlimit="10"/>
<path d="M278.989 31.937C280.43 33.3015 281.498 35.0609 282.043 36.9693" stroke="#6265FE" stroke-width="2" stroke-miterlimit="10"/>
<path d="M203.944 26.9473C204.743 30.226 207.494 32.9493 210.781 33.7158" stroke="#6265FE" stroke-width="2" stroke-miterlimit="10"/>
<path d="M286.396 26.6898C281.045 34.3254 278.625 44.1849 280.794 53.2548C282.962 62.3246 290.019 70.2931 299.036 72.6583C296.478 76.1616 295.815 82.812 296.952 86.9985C298.09 91.185 301.206 94.7851 305.185 96.5097C299.858 108.283 304.392 125.076 314.97 132.495C325.548 139.914 340.449 139.826 351.692 133.461C351.692 134.949 351.979 138.011 353.426 140.039C356.157 143.874 360.177 144.911 364.891 144.282V26.6898H286.396Z" fill="#CFE7FF" stroke="#CFE7FF" stroke-width="2" stroke-miterlimit="10"/>
<path d="M304.731 97.7059C302.661 104.923 304.621 114.284 309.201 120.123C313.782 125.961 320.977 129.464 328.225 129.632C331.552 129.71 334.922 129.127 337.938 127.664C343.186 125.121 347.835 120.299 348.586 113.267C349.336 106.222 346.096 100.245 341.302 96.8717C336.507 93.4981 329.695 93.4245 324.975 96.9104C320.255 100.396 318.096 107.3 320.172 112.917" stroke="#6265FE" stroke-width="2" stroke-miterlimit="10"/>
<path d="M316.756 26.8816C313.194 34.1785 312.353 42.9696 315.401 50.4968C318.45 58.024 325.654 63.9525 333.746 64.5777C332.908 68.3229 333.067 72.9565 335.247 76.1153C337.603 79.5276 341.467 81.4031 345.301 81.2696C345.301 85.8451 346.934 90.6529 351.211 93.5659C354.948 96.1111 360.959 96.3143 364.886 94.7795" stroke="#6265FE" stroke-width="2" stroke-miterlimit="10"/>
<path d="M361.574 34.8076C359.879 32.9843 356.771 32.3417 354.341 33.0637C351.911 33.7837 349.975 35.7501 349.139 38.0612C348.303 40.3722 348.185 42.9754 349.172 45.2303C350.031 47.1948 352.513 49.1342 355.022 49.1342" stroke="#6265FE" stroke-width="2" stroke-miterlimit="10"/>
<path d="M341.409 108.284C342.643 112.441 340.774 117.262 337.166 119.668C333.558 122.074 328.527 121.999 324.878 119.657" stroke="#6265FE" stroke-width="2" stroke-miterlimit="10"/>
<path d="M299.361 66.1222C299.206 68.0867 299.382 70.1074 300.123 71.9326C300.864 73.7597 302.208 75.3798 303.988 76.2275" stroke="#6265FE" stroke-width="2" stroke-miterlimit="10"/>
<path d="M307.426 93.0529C305.843 94.9826 305.988 98.1065 307.745 99.8794" stroke="#6265FE" stroke-width="2" stroke-miterlimit="10"/>
<path d="M338.435 132.45C329.692 136.18 318.901 135.139 308.774 126.204" stroke="#6265FE" stroke-width="2" stroke-miterlimit="10"/>
<path d="M359.21 131.672C359.277 133.014 359.879 134.318 360.854 135.241C361.829 136.163 363.166 136.691 364.508 136.681" stroke="#6265FE" stroke-width="2" stroke-miterlimit="10"/>
<path d="M342.297 33.8301C339.844 38.7908 339.857 44.8993 342.333 49.8503C344.81 54.8014 349.688 58.4731 355.128 59.4815C354.499 62.6886 354.501 66.3758 356.122 69.2132C357.742 72.0507 361.256 74.1275 364.52 74.0307" stroke="#6265FE" stroke-width="2" stroke-miterlimit="10"/>
<path d="M306.487 27.0326C303.746 32.6727 302.251 39.0173 302.895 45.2555C303.539 51.4936 306.451 57.5963 311.347 61.5119" stroke="#6265FE" stroke-width="2" stroke-miterlimit="10"/>
<path d="M350.406 134.156C354.708 131.667 358.62 126.528 359.545 121.784" stroke="#6265FE" stroke-width="2" stroke-miterlimit="10"/>
<path d="M332.015 57.6097C332.015 60.7143 333.135 63.7008 335.466 65.5202C336.686 66.4725 338.251 67.0628 340.107 67.4093" stroke="#6265FE" stroke-width="2" stroke-miterlimit="10"/>
<path d="M364.889 89.0117C361.357 90.7575 356.937 90.5601 353.573 88.5084" stroke="#6265FE" stroke-width="2" stroke-miterlimit="10"/>
<path d="M301.059 27.0305C299.169 29.6764 298.005 32.8351 297.722 36.0752" stroke="#6265FE" stroke-width="2" stroke-miterlimit="10"/>
<path d="M293.044 26.6898C289.855 30.3731 287.088 35.6377 286.367 40.4571C285.839 43.9933 285.717 47.6224 286.407 51.1315C287.098 54.6406 288.636 58.0316 291.114 60.6078" stroke="#6265FE" stroke-width="2" stroke-miterlimit="10"/>
<path d="M286.396 26.6898C281.045 34.3254 278.625 44.1849 280.794 53.2548C282.962 62.3246 290.019 70.2931 299.036 72.6583C296.478 76.1616 295.815 82.812 296.952 86.9985C298.09 91.185 301.206 94.7851 305.185 96.5096C299.858 108.283 304.392 125.076 314.97 132.495C325.548 139.914 340.449 139.826 351.692 133.461C351.692 134.949 351.979 138.011 353.426 140.039C356.157 143.874 360.177 144.911 364.891 144.282V26.6898H286.396Z" stroke="#B6BBFF" stroke-width="2" stroke-miterlimit="10"/>
</g>
<mask id="mask2_326_15" style="mask-type:luminance" maskUnits="userSpaceOnUse" x="32" y="27" width="333" height="566">
<path d="M32.2878 589.137V49.5229C32.2878 37.244 42.2369 27.2897 54.5093 27.2897H342.064C354.337 27.2897 364.288 37.244 364.288 49.5229V589.137C364.288 590.877 362.878 592.288 361.138 592.288H35.4352C33.6961 592.288 32.2878 590.877 32.2878 589.137Z" fill="white"/>
</mask>
<g mask="url(#mask2_326_15)">
<path d="M144.695 554.766C144.803 551.617 143.844 548.443 142.012 545.88C140.18 543.319 137.483 541.386 134.471 540.474C134.123 529.3 127.306 518.667 117.161 513.975C109.325 510.352 100.264 509.755 91.7578 511.244V591.117H95.3076C95.3076 591.117 96.9809 584.722 110.53 583.549C110.53 583.549 108.605 555.77 144.695 554.766Z" fill="#CFE7FF" stroke="#B6BBFF" stroke-width="2" stroke-miterlimit="10"/>
<path d="M91.7578 518.636C94.3906 517.844 97.1202 517.498 100.084 517.519C102.767 517.538 105.466 517.919 108.036 518.684C111.925 519.838 115.447 522.325 117.624 525.749C119.798 529.173 120.547 533.529 119.392 537.42C118.237 541.308 115.124 544.618 111.236 545.773C107.35 546.929 102.811 545.777 100.115 542.746C98.9541 541.44 98.13 539.802 97.9501 538.064C97.7702 536.326 98.0932 534.315 99.2636 533.018C100.219 531.958 101.492 531.238 102.871 530.874C104.119 530.545 105.516 530.504 106.756 530.856C107.996 531.211 109.302 532.082 109.803 533.442" stroke="#6265FE" stroke-width="2" stroke-miterlimit="10"/>
<path d="M116.494 529.989C114.902 526.198 111.604 523.165 107.694 521.897" stroke="#6265FE" stroke-width="2" stroke-miterlimit="10"/>
<path d="M121.061 550.649C117.007 553.719 111.925 555.403 106.841 555.366C101.757 555.327 95.5881 553.157 91.7578 547.715" stroke="#6265FE" stroke-width="2" stroke-miterlimit="10"/>
<path d="M102.809 561.8C98.7799 561.745 94.7852 560.218 91.7461 557.572" stroke="#6265FE" stroke-width="2" stroke-miterlimit="10"/>
<path d="M99.9116 565.688C98.0951 565.512 96.3077 565.036 94.6421 564.289" stroke="#6265FE" stroke-width="2" stroke-miterlimit="10"/>
<path d="M140.277 555.01C140.263 551.619 138.245 548.309 135.237 546.747" stroke="#6265FE" stroke-width="2" stroke-miterlimit="10"/>
<path d="M104.336 528.418C106.891 527.862 109.731 528.739 111.468 530.622C113.203 532.506 113.764 535.316 112.875 537.679C112.637 538.312 112.3 538.916 111.851 539.433C110.716 540.741 108.843 541.419 107.09 541.157C105.338 540.896 103.769 539.702 103.102 538.126" stroke="#6265FE" stroke-width="2" stroke-miterlimit="10"/>
<path d="M66.0079 488.101C67.4974 482.645 67.8592 476.792 66.3213 471.349C64.7833 465.906 61.2104 460.918 56.1672 458.294C56.6837 454.771 55.494 450.922 53.0081 448.357C50.5223 445.792 46.8101 444.451 43.2448 444.829C44.922 443.087 45.6958 440.083 44.6454 437.909C44.3687 437.338 43.9896 436.819 43.5582 436.351C42.5465 435.248 41.2484 434.404 39.8246 433.926C45.0439 431.352 49.2108 426.464 50.9692 420.948C52.7276 415.432 52.3098 409.312 50.0755 403.968C47.8411 398.624 43.8464 394.068 38.9735 390.893C36.9732 389.589 34.8317 388.513 32.698 387.439V489.16C32.698 489.16 41.4341 487.094 50.0058 487.094C58.5775 487.094 66.0079 488.101 66.0079 488.101Z" fill="#B6BBFF" stroke="#CFE7FF" stroke-width="2" stroke-miterlimit="10"/>
<path d="M42.5521 470.821C41.0974 470.323 39.4221 470.987 38.4201 472.154C36.7564 474.092 36.8783 477.235 38.4994 479.209C40.1205 481.183 42.9758 481.94 45.4461 481.296C47.9165 480.651 49.9573 478.739 51.0387 476.424C52.2052 473.927 52.3039 470.954 51.3076 468.386C50.3114 465.817 48.2337 463.688 45.6899 462.633C46.1193 460.472 45.6821 457.915 44.2545 456.237C42.8268 454.56 40.6099 453.587 38.4104 453.668" stroke="#6265FE" stroke-width="2" stroke-miterlimit="10"/>
<path d="M62.5993 484.578C63.9689 480.318 64.2185 475.83 62.9437 471.539C61.6688 467.248 58.6452 464.085 55.02 461.826" stroke="#6265FE" stroke-width="2" stroke-miterlimit="10"/>
<path d="M33.5085 394.211C37.8321 395.926 41.6372 398.998 43.5814 402.998" stroke="#6265FE" stroke-width="2" stroke-miterlimit="10"/>
<path d="M37.4761 436.183C38.3389 435.47 38.8999 434.406 39.0024 433.291C39.103 432.176 38.7432 431.028 38.0235 430.171" stroke="#6265FE" stroke-width="2" stroke-miterlimit="10"/>
<path d="M41.051 443.784C42.1672 444.761 42.8269 446.242 42.8095 447.726" stroke="#6265FE" stroke-width="2" stroke-miterlimit="10"/>
<path d="M56.5366 482.147C58.1384 479.749 58.8599 476.778 58.5388 473.912" stroke="#6265FE" stroke-width="2" stroke-miterlimit="10"/>
<path d="M41.4399 477.554C42.0822 477.957 42.8676 478.127 43.6201 478.03C44.1057 477.967 44.5815 477.792 44.9742 477.496C45.8893 476.807 46.2278 475.545 46.0827 474.407C45.9957 473.718 45.7074 472.994 45.0942 472.667" stroke="#6265FE" stroke-width="2" stroke-miterlimit="10"/>
<path d="M33.2009 473.509C33.346 470.714 35.1238 468.065 37.6522 466.87C40.1805 465.676 43.355 465.988 45.6029 467.65" stroke="#6265FE" stroke-width="2" stroke-miterlimit="10"/>
<path d="M209.28 592.04C209.243 585.542 205.341 579.42 199.94 575.816C194.537 572.213 187.822 570.931 181.338 571.278C180.663 566.241 176.637 561.705 171.795 560.172C166.953 558.639 161.598 559.436 156.94 561.461C151.342 555.612 143.002 553.214 134.908 553.27C126.669 553.326 118.295 555.819 111.994 561.13C105.694 566.441 101.724 574.733 102.535 582.935C99.2829 582.738 96.1994 583.506 93.2899 584.97C90.3804 586.435 87.6083 589.148 86.2812 592.123L209.28 592.04Z" fill="#B6BBFF" stroke="#CFE7FF" stroke-width="2" stroke-miterlimit="10"/>
<path d="M156.782 561.635C156.875 561.451 157.155 561.573 157.304 561.716C161.175 565.415 163.138 571.013 162.427 576.322" stroke="#6265FE" stroke-width="2" stroke-miterlimit="10"/>
<path d="M148.637 576.726C147.481 580.071 144.391 582.666 140.899 583.228C137.408 583.789 133.661 582.295 131.513 579.482C130.188 577.746 129.461 575.478 129.89 573.335C130.32 571.193 132.039 569.276 134.198 568.942C136.355 568.607 138.731 570.138 139.029 572.302" stroke="#6265FE" stroke-width="2" stroke-miterlimit="10"/>
<path d="M150.529 561.935C144.358 558.081 136.487 557.073 129.544 559.247" stroke="#6265FE" stroke-width="2" stroke-miterlimit="10"/>
<path d="M121.013 562.183C113.674 565.415 108.698 573.387 109.015 581.406" stroke="#6265FE" stroke-width="2" stroke-miterlimit="10"/>
<path d="M182.833 574.454C181.98 572.4 179.914 570.906 177.697 570.74" stroke="#6265FE" stroke-width="2" stroke-miterlimit="10"/>
<path d="M205.583 592.04C205.339 588.39 203.884 584.83 201.503 582.053C199.122 579.275 195.825 577.297 192.254 576.502" stroke="#6265FE" stroke-width="2" stroke-miterlimit="10"/>
<path d="M168.534 565.096C168.454 565.001 168.323 564.974 168.201 564.954C165.68 564.548 163.034 564.964 160.761 566.129" stroke="#6265FE" stroke-width="2" stroke-miterlimit="10"/>
<path d="M182.711 592.115C181.94 590.124 180.32 588.533 178.448 587.509C176.573 586.483 174.455 585.984 172.335 585.726C169.17 585.345 166.4 585.494 163.355 586.439C160.31 587.383 157.323 589.427 156.213 591.945" stroke="#6265FE" stroke-width="2" stroke-miterlimit="10"/>
<path d="M129.871 589.27C126.532 588.148 123.64 585.749 121.92 582.674C120.2 579.598 119.67 575.876 120.464 572.445" stroke="#6265FE" stroke-width="2" stroke-miterlimit="10"/>
<path d="M134.879 578.567C136.992 580.291 140.18 580.557 142.548 579.206C144.917 577.855 146.314 574.977 145.91 572.28C145.506 569.582 143.327 567.24 140.665 566.644" stroke="#6265FE" stroke-width="2" stroke-miterlimit="10"/>
<path d="M118.218 586.831C116.776 585.467 115.709 583.708 115.163 581.799" stroke="#6265FE" stroke-width="2" stroke-miterlimit="10"/>
<path d="M193.262 591.821C192.461 588.543 189.712 585.819 186.426 585.053" stroke="#6265FE" stroke-width="2" stroke-miterlimit="10"/>
<path d="M110.81 592.079C116.161 584.443 118.581 574.584 116.413 565.514C114.244 556.444 107.187 548.475 98.1706 546.11C100.728 542.607 101.393 535.956 100.254 531.77C99.1165 527.583 96.0001 523.983 92.0208 522.259C97.3484 510.485 92.814 493.693 82.2362 486.274C71.6585 478.855 56.7571 478.942 45.5139 485.308C45.5139 483.819 45.2276 480.758 43.7806 478.729C41.0491 474.895 37.0293 473.857 32.3149 474.486V592.081H110.81V592.079Z" fill="#CFE7FF" stroke="#CFE7FF" stroke-width="2" stroke-miterlimit="10"/>
<path d="M92.4754 521.061C94.5453 513.843 92.5857 504.483 88.0048 498.644C83.424 492.804 76.2296 489.303 68.9811 489.135C65.6538 489.057 62.284 489.64 59.2681 491.101C54.0198 493.644 49.3713 498.466 48.6207 505.497C47.8701 512.543 51.1104 518.52 55.904 521.893C60.6996 525.267 67.5109 525.34 72.2311 521.854C76.9512 518.369 79.1101 511.465 77.0344 505.848" stroke="#6265FE" stroke-width="2" stroke-miterlimit="10"/>
<path d="M80.4508 591.887C84.0121 584.59 84.8536 575.799 81.8049 568.272C78.7562 560.745 71.5521 554.816 63.4602 554.191C64.2978 550.446 64.1373 545.812 61.959 542.653C59.6028 539.241 55.7397 537.364 51.9055 537.499C51.9055 532.925 50.2728 528.116 45.9957 525.203C42.2582 522.658 36.2478 522.454 32.3208 523.989" stroke="#6265FE" stroke-width="2" stroke-miterlimit="10"/>
<path d="M35.6326 583.961C37.3272 585.784 40.4359 586.425 42.8656 585.705C45.2953 584.985 47.2317 583.018 48.0674 580.707C48.9031 578.396 49.0211 575.793 48.0345 573.538C47.1756 571.574 44.6937 569.634 42.1847 569.634" stroke="#6265FE" stroke-width="2" stroke-miterlimit="10"/>
<path d="M55.7996 510.485C54.5654 506.328 56.4341 501.506 60.0419 499.1C63.6478 496.694 68.6813 496.77 72.3278 499.112" stroke="#6265FE" stroke-width="2" stroke-miterlimit="10"/>
<path d="M97.8456 552.646C98.0003 550.682 97.8243 548.661 97.0834 546.836C96.3425 545.009 94.998 543.387 93.2183 542.541" stroke="#6265FE" stroke-width="2" stroke-miterlimit="10"/>
<path d="M89.7806 525.716C91.363 523.786 91.2179 520.662 89.4614 518.889" stroke="#6265FE" stroke-width="2" stroke-miterlimit="10"/>
<path d="M58.771 486.318C67.5149 482.589 78.3054 483.63 88.4324 492.564" stroke="#6265FE" stroke-width="2" stroke-miterlimit="10"/>
<path d="M37.9966 487.096C37.9288 485.755 37.3272 484.451 36.3522 483.527C35.3773 482.606 34.0405 482.078 32.698 482.085" stroke="#6265FE" stroke-width="2" stroke-miterlimit="10"/>
<path d="M54.9096 584.937C57.3626 579.976 57.349 573.866 54.8729 568.916C52.3967 563.967 47.518 560.294 42.0782 559.285C42.7069 556.078 42.705 552.391 41.0839 549.554C39.4647 546.716 35.9498 544.639 32.6863 544.736" stroke="#6265FE" stroke-width="2" stroke-miterlimit="10"/>
<path d="M90.719 591.736C93.4602 586.096 94.9556 579.752 94.3114 573.513C93.6672 567.275 90.7558 561.173 85.8596 557.257" stroke="#6265FE" stroke-width="2" stroke-miterlimit="10"/>
<path d="M46.8004 484.613C42.4981 487.102 38.5865 492.241 37.6619 496.987" stroke="#6265FE" stroke-width="2" stroke-miterlimit="10"/>
<path d="M65.1916 561.159C65.1916 558.054 64.0696 555.068 61.7404 553.248C60.5198 552.296 58.9548 551.706 57.0996 551.359" stroke="#6265FE" stroke-width="2" stroke-miterlimit="10"/>
<path d="M32.3169 529.757C35.8493 528.011 40.2696 528.209 43.6336 530.26" stroke="#6265FE" stroke-width="2" stroke-miterlimit="10"/>
<path d="M96.1472 591.738C98.0372 589.092 99.2018 585.934 99.4842 582.693" stroke="#6265FE" stroke-width="2" stroke-miterlimit="10"/>
<path d="M104.162 592.079C107.352 588.393 110.118 583.131 110.839 578.311C111.37 574.775 111.489 571.146 110.799 567.637C110.108 564.128 108.57 560.737 106.092 558.161" stroke="#6265FE" stroke-width="2" stroke-miterlimit="10"/>
<path d="M110.81 592.079C116.161 584.443 118.581 574.584 116.413 565.514C114.244 556.444 107.187 548.475 98.1706 546.11C100.728 542.607 101.393 535.956 100.254 531.77C99.1165 527.583 96.0001 523.983 92.0208 522.259C97.3484 510.485 92.814 493.693 82.2362 486.274C71.6585 478.855 56.7571 478.942 45.5139 485.308C45.5139 483.819 45.2276 480.758 43.7806 478.729C41.0491 474.895 37.0293 473.857 32.3149 474.486V592.081H110.81V592.079Z" stroke="#B6BBFF" stroke-width="2" stroke-miterlimit="10"/>
</g>
<mask id="mask3_326_15" style="mask-type:luminance" maskUnits="userSpaceOnUse" x="32" y="27" width="333" height="566">
<path d="M32.2878 589.137V49.5229C32.2878 37.244 42.2369 27.2897 54.5093 27.2897H342.064C354.337 27.2897 364.288 37.244 364.288 49.5229V589.137C364.288 590.877 362.878 592.288 361.138 592.288H35.4352C33.6961 592.288 32.2878 590.877 32.2878 589.137Z" fill="white"/>
</mask>
<g mask="url(#mask3_326_15)">
<path d="M168.843 26.1477C164.664 36.9982 153.189 44.3261 142.12 45.5841C131.051 46.8422 120.133 42.1331 112.037 34.4782C108.901 38.5331 103.119 40.2653 98.3581 38.3666C94.3789 48.4061 86.3121 56.754 76.4172 61.0721C66.5223 65.3903 53.5477 65.3903 43.0357 61.0799C42.0994 58.6818 44.3512 56.4559 44.9876 53.963C46.1425 49.4436 44.5504 47.3397 44.3338 42.6789C44.1171 38.0202 35.2204 30.0478 32.075 26.6045L168.843 26.1477Z" fill="#B6BBFF" stroke="#CFE7FF" stroke-width="2" stroke-miterlimit="10"/>
<path d="M60.6086 59.1986C69.8671 59.3747 79.5859 55.4766 84.7878 48.3248" stroke="#6265FE" stroke-width="2" stroke-miterlimit="10"/>
<path d="M89.7768 40.1028C89.4267 41.7789 88.5987 43.3544 87.4167 44.5932" stroke="#6265FE" stroke-width="2" stroke-miterlimit="10"/>
<path d="M122.475 26.5309C125.377 30.5277 129.432 33.7678 134.142 35.2446C138.853 36.7214 144.219 36.3188 148.425 33.7349" stroke="#6265FE" stroke-width="2" stroke-miterlimit="10"/>
<path d="M162.794 26.6045C159.674 33.7833 152.502 39.0324 144.718 39.8318" stroke="#6265FE" stroke-width="2" stroke-miterlimit="10"/>
<path d="M47.5452 50.4017C48.8916 51.6018 50.6171 52.3121 52.3794 52.6992C54.1418 53.0863 55.9524 53.1734 57.7534 53.2566" stroke="#6265FE" stroke-width="2" stroke-miterlimit="10"/>
<path d="M45.2664 57.0929C46.8952 58.2619 48.8626 58.9549 50.8648 59.0671" stroke="#6265FE" stroke-width="2" stroke-miterlimit="10"/>
<path d="M64.4022 38.3299C65.8588 36.8492 65.9169 34.3001 64.7349 32.5911C63.5529 30.882 61.3515 30.0323 59.2835 30.2162C56.3973 30.4736 53.8186 32.6685 52.9713 35.4402C52.124 38.2118 52.9829 41.3996 55.0103 43.4706C56.1574 44.6435 57.6257 45.4661 59.1597 46.0487C61.9222 47.0978 64.9961 47.3978 67.8688 46.701C70.7415 46.0042 73.3859 44.2739 75.0128 41.8041C77.8159 42.6887 81.0503 41.7925 83.3543 39.9654C85.6583 38.1383 87.1749 35.4711 88.1151 32.6859C90.3397 33.435 92.8507 33.0634 94.9844 32.082C97.1182 31.1007 98.8534 29.2833 99.7336 27.1058" stroke="#6265FE" stroke-width="2" stroke-miterlimit="10"/>
<path d="M57.618 35.5194C56.5541 36.4388 56.2658 38.1382 56.9661 39.3575C57.6664 40.5769 59.2778 41.1827 60.6087 40.7259" stroke="#6265FE" stroke-width="2" stroke-miterlimit="10"/>
<path d="M64.644 26.7614C66.6366 27.6594 68.2712 29.322 69.1417 31.3272C70.0103 33.3324 70.1032 35.6647 69.3971 37.7319" stroke="#6265FE" stroke-width="2" stroke-miterlimit="10"/>
<path d="M71.1052 26.978C73.357 28.5361 74.7363 31.2787 74.6453 34.0175" stroke="#6265FE" stroke-width="2" stroke-miterlimit="10"/>
<path d="M31.6978 29.9374C39.4202 29.9819 46.6977 34.6233 50.9807 41.0511C55.2636 47.4789 56.788 55.4688 56.376 63.1837C62.3632 63.987 67.7546 68.7774 69.575 74.5394C71.3972 80.3014 70.4474 86.6731 68.0428 92.2164C74.9954 98.8785 77.8449 108.8 77.7791 118.433C77.7114 128.236 74.7497 138.2 68.4375 145.699C62.1253 153.197 52.2691 157.919 42.5193 156.956C42.7533 160.825 41.8422 164.494 40.1012 167.957C38.3601 171.42 35.1353 174.716 31.5972 176.295L31.6978 29.9374Z" fill="#CFE7FF" stroke="#B6BBFF" stroke-width="2" stroke-miterlimit="10"/>
<path d="M67.8359 92.4044C68.0545 92.2941 67.9094 91.9611 67.7392 91.7831C63.3421 87.1785 56.6894 84.8404 50.3792 85.6881" stroke="#6265FE" stroke-width="2" stroke-miterlimit="10"/>
<path d="M49.8993 102.096C45.9239 103.472 42.8384 107.147 42.171 111.303C41.5036 115.458 43.2795 119.916 46.6242 122.471C48.6883 124.048 51.385 124.913 53.9308 124.402C56.4765 123.891 58.7554 121.844 59.1539 119.277C59.5524 116.711 57.732 113.885 55.1592 113.529" stroke="#6265FE" stroke-width="2" stroke-miterlimit="10"/>
<path d="M67.478 99.8427C72.0589 107.186 73.2563 116.552 70.6719 124.813" stroke="#6265FE" stroke-width="2" stroke-miterlimit="10"/>
<path d="M67.1841 134.964C63.3422 143.698 53.8652 149.618 44.334 149.241" stroke="#6265FE" stroke-width="2" stroke-miterlimit="10"/>
<path d="M52.5979 61.4052C55.0392 62.4213 56.8151 64.8775 57.0124 67.5156" stroke="#6265FE" stroke-width="2" stroke-miterlimit="10"/>
<path d="M31.6978 34.335C36.0368 34.6253 40.2695 36.3556 43.5697 39.1912C46.8699 42.0267 49.2222 45.9481 50.1663 50.1946" stroke="#6265FE" stroke-width="2" stroke-miterlimit="10"/>
<path d="M63.7233 78.4203C63.8355 78.5151 63.8684 78.6719 63.8916 78.8171C64.3752 81.8152 63.878 84.9662 62.4949 87.6701" stroke="#6265FE" stroke-width="2" stroke-miterlimit="10"/>
<path d="M31.6069 61.5504C33.9747 62.4678 35.8647 64.3956 37.0835 66.6234C38.3022 68.8531 38.8961 71.3751 39.2017 73.899C39.6563 77.6636 39.4783 80.9617 38.3544 84.583C37.2305 88.2044 34.8027 91.7619 31.8081 93.0819" stroke="#6265FE" stroke-width="2" stroke-miterlimit="10"/>
<path d="M34.9883 124.423C36.3211 128.397 39.1745 131.836 42.8287 133.882C46.483 135.928 50.9071 136.559 54.9889 135.617" stroke="#6265FE" stroke-width="2" stroke-miterlimit="10"/>
<path d="M47.7095 118.466C45.6609 115.952 45.3456 112.16 46.9493 109.34C48.553 106.522 51.9751 104.86 55.1805 105.34C58.386 105.82 61.1697 108.413 61.8796 111.578" stroke="#6265FE" stroke-width="2" stroke-miterlimit="10"/>
<path d="M37.8862 138.29C39.5093 140.005 41.5985 141.274 43.8677 141.925" stroke="#6265FE" stroke-width="2" stroke-miterlimit="10"/>
<path d="M31.957 48.9965C35.855 49.9487 39.0914 53.2198 40.0006 57.1295" stroke="#6265FE" stroke-width="2" stroke-miterlimit="10"/>
</g>
<mask id="mask4_326_15" style="mask-type:luminance" maskUnits="userSpaceOnUse" x="32" y="27" width="333" height="566">
<path d="M32.2878 589.137V49.5229C32.2878 37.244 42.2369 27.2897 54.5093 27.2897H342.064C354.337 27.2897 364.288 37.244 364.288 49.5229V589.137C364.288 590.877 362.878 592.288 361.138 592.288H35.4352C33.6961 592.288 32.2878 590.877 32.2878 589.137Z" fill="white"/>
</mask>
<g mask="url(#mask4_326_15)">
<path d="M365.269 459.241C354.693 463.317 347.551 474.516 346.324 485.316C345.098 496.116 349.688 506.771 357.15 514.67C353.198 517.73 351.511 523.372 353.36 528.017C343.574 531.9 335.437 539.772 331.23 549.426C327.02 559.08 327.02 571.742 331.222 581.999C333.559 582.912 335.729 580.715 338.159 580.094C342.564 578.968 345.783 581.935 349.367 584.732C353.966 588.32 361.017 595.135 364.826 596.093L365.269 459.241Z" fill="#B6BBFF" stroke="#CFE7FF" stroke-width="2" stroke-miterlimit="10"/>
<path d="M333.052 564.85C332.88 555.817 336.679 546.333 343.651 541.258" stroke="#6265FE" stroke-width="2" stroke-miterlimit="10"/>
<path d="M351.665 536.39C350.031 536.731 348.497 537.538 347.288 538.692" stroke="#6265FE" stroke-width="2" stroke-miterlimit="10"/>
<path d="M364.893 504.485C360.997 501.655 357.84 497.697 356.401 493.102C354.962 488.505 355.354 483.27 357.871 479.165" stroke="#6265FE" stroke-width="2" stroke-miterlimit="10"/>
<path d="M364.822 465.142C357.823 468.187 352.708 475.183 351.928 482.778" stroke="#6265FE" stroke-width="2" stroke-miterlimit="10"/>
<path d="M343.177 575.013C341.817 573.897 340.873 572.34 340.233 570.701C339.592 569.062 339.236 567.329 338.882 565.605" stroke="#6265FE" stroke-width="2" stroke-miterlimit="10"/>
<path d="M335.104 579.821C333.965 578.23 333.29 576.312 333.179 574.359" stroke="#6265FE" stroke-width="2" stroke-miterlimit="10"/>
<path d="M353.395 561.149C354.838 559.727 357.324 559.67 358.989 560.824C360.655 561.978 361.485 564.124 361.305 566.143C361.053 568.959 358.914 571.475 356.213 572.302C353.511 573.128 350.404 572.29 348.385 570.312C347.241 569.191 346.438 567.761 345.872 566.265C344.848 563.569 344.556 560.57 345.237 557.768C345.918 554.965 347.603 552.385 350.01 550.798C349.147 548.063 350.021 544.906 351.801 542.659C353.581 540.412 356.181 538.931 358.897 538.014C358.167 535.842 358.529 533.394 359.485 531.311C360.44 529.231 362.212 527.537 364.334 526.678" stroke="#6265FE" stroke-width="2" stroke-miterlimit="10"/>
<path d="M356.132 567.769C355.236 568.806 353.581 569.089 352.391 568.404C351.203 567.72 350.611 566.147 351.056 564.85" stroke="#6265FE" stroke-width="2" stroke-miterlimit="10"/>
<path d="M364.669 560.913C363.793 558.97 362.173 557.373 360.218 556.525C358.262 555.677 355.991 555.587 353.975 556.276" stroke="#6265FE" stroke-width="2" stroke-miterlimit="10"/>
<path d="M364.46 554.607C362.941 552.41 360.268 551.065 357.6 551.152" stroke="#6265FE" stroke-width="2" stroke-miterlimit="10"/>
<path d="M361.572 593.062C361.529 585.527 357.005 578.426 350.739 574.247C344.473 570.066 336.685 568.58 329.165 568.982C328.382 563.141 323.714 557.88 318.098 556.103C312.482 554.327 306.271 555.252 300.868 557.6C294.376 550.816 284.703 548.036 275.315 548.1C265.761 548.166 256.048 551.056 248.739 557.216C241.431 563.375 236.829 572.993 237.767 582.508C233.997 582.279 230.42 583.17 227.044 584.867C223.668 586.565 220.455 589.714 218.915 593.165L361.572 593.062Z" fill="#CFE7FF" stroke="#B6BBFF" stroke-width="2" stroke-miterlimit="10"/>
<path d="M300.686 557.799C300.794 557.584 301.119 557.727 301.291 557.894C305.779 562.183 308.058 568.676 307.232 574.831" stroke="#6265FE" stroke-width="2" stroke-miterlimit="10"/>
<path d="M291.24 575.3C289.899 579.179 286.317 582.188 282.266 582.841C278.215 583.493 273.87 581.759 271.38 578.495C269.842 576.482 269.001 573.85 269.498 571.367C269.995 568.882 271.992 566.66 274.495 566.271C276.998 565.882 279.751 567.658 280.097 570.169" stroke="#6265FE" stroke-width="2" stroke-miterlimit="10"/>
<path d="M293.435 558.147C286.278 553.678 277.149 552.509 269.096 555.031" stroke="#6265FE" stroke-width="2" stroke-miterlimit="10"/>
<path d="M259.203 558.436C250.689 562.185 244.919 571.433 245.288 580.731" stroke="#6265FE" stroke-width="2" stroke-miterlimit="10"/>
<path d="M330.903 572.667C329.912 570.285 327.517 568.553 324.946 568.359" stroke="#6265FE" stroke-width="2" stroke-miterlimit="10"/>
<path d="M357.287 593.062C357.004 588.827 355.316 584.699 352.553 581.478C349.791 578.257 345.968 575.964 341.828 575.04" stroke="#6265FE" stroke-width="2" stroke-miterlimit="10"/>
<path d="M314.316 561.813C314.225 561.703 314.071 561.672 313.929 561.649C311.006 561.176 307.936 561.66 305.3 563.011" stroke="#6265FE" stroke-width="2" stroke-miterlimit="10"/>
<path d="M330.759 593.149C329.864 590.838 327.987 588.994 325.813 587.805C323.641 586.617 321.182 586.036 318.723 585.738C315.053 585.295 311.838 585.469 308.308 586.564C304.777 587.66 301.311 590.031 300.024 592.952" stroke="#6265FE" stroke-width="2" stroke-miterlimit="10"/>
<path d="M269.477 589.851C265.604 588.55 262.25 585.767 260.257 582.2C258.263 578.633 257.648 574.316 258.566 570.335" stroke="#6265FE" stroke-width="2" stroke-miterlimit="10"/>
<path d="M275.284 577.437C277.735 579.436 281.43 579.744 284.179 578.178C286.926 576.612 288.547 573.273 288.079 570.145C287.611 567.018 285.082 564.3 281.997 563.609" stroke="#6265FE" stroke-width="2" stroke-miterlimit="10"/>
<path d="M255.96 587.021C254.287 585.438 253.051 583.4 252.418 581.184" stroke="#6265FE" stroke-width="2" stroke-miterlimit="10"/>
<path d="M342.995 592.808C342.066 589.005 338.878 585.848 335.067 584.96" stroke="#6265FE" stroke-width="2" stroke-miterlimit="10"/>
</g>
<mask id="mask5_326_15" style="mask-type:luminance" maskUnits="userSpaceOnUse" x="32" y="27" width="333" height="566">
<path d="M32.2878 589.137V49.5229C32.2878 37.244 42.2369 27.2897 54.5093 27.2897H342.064C354.337 27.2897 364.288 37.244 364.288 49.5229V589.137C364.288 590.877 362.878 592.288 361.138 592.288H35.4352C33.6961 592.288 32.2878 590.877 32.2878 589.137Z" fill="white"/>
</mask>
<g mask="url(#mask5_326_15)">
<path d="M198.514 453.039C272.976 453.039 333.34 392.643 333.34 318.141C333.34 243.64 272.976 183.244 198.514 183.244C124.052 183.244 63.6882 243.64 63.6882 318.141C63.6882 392.643 124.052 453.039 198.514 453.039Z" fill="#CFE7FF" stroke="#B6BBFF" stroke-width="2" stroke-miterlimit="10"/>
<path d="M198.514 425.952C258.024 425.952 306.267 377.683 306.267 318.142C306.267 258.6 258.024 210.331 198.514 210.331C139.004 210.331 90.7615 258.6 90.7615 318.142C90.7615 377.683 139.004 425.952 198.514 425.952Z" stroke="#6265FE" stroke-width="2" stroke-miterlimit="10"/>
<path d="M198.514 234.154C152.154 234.154 114.571 271.757 114.571 318.141C114.571 364.526 152.154 402.129 198.514 402.129C244.874 402.129 282.457 364.526 282.457 318.141C282.457 271.757 244.874 234.154 198.514 234.154ZM198.514 372.289C168.624 372.289 144.395 348.047 144.395 318.141C144.395 288.236 168.624 263.994 198.514 263.994C228.404 263.994 252.633 288.236 252.633 318.141C252.633 348.047 228.402 372.289 198.514 372.289Z" fill="#6265FE"/>
<path d="M190.327 318.141C190.327 322.665 193.993 326.333 198.514 326.333C203.035 326.333 206.701 322.665 206.701 318.141C206.701 313.618 203.035 309.95 198.514 309.95C193.993 309.95 190.327 313.618 190.327 318.141Z" fill="#6265FE"/>
<path d="M198.514 338.22C209.598 338.22 218.582 329.231 218.582 318.141C218.582 307.052 209.598 298.062 198.514 298.062C187.431 298.062 178.446 307.052 178.446 318.141C178.446 329.231 187.431 338.22 198.514 338.22Z" stroke="#6265FE" stroke-width="2" stroke-miterlimit="10"/>
<path d="M200.904 440.978C209.206 439.664 214.871 431.865 213.557 423.559C212.243 415.253 204.448 409.585 196.147 410.899C187.845 412.214 182.18 420.013 183.494 428.319C184.808 436.625 192.603 442.292 200.904 440.978Z" fill="#B6BBFF" stroke="#6265FE" stroke-width="2" stroke-miterlimit="10"/>
<path d="M198.514 225.556C206.919 225.556 213.733 218.739 213.733 210.329C213.733 201.92 206.919 195.103 198.514 195.103C190.109 195.103 183.296 201.92 183.296 210.329C183.296 218.739 190.109 225.556 198.514 225.556Z" fill="#6265FE" stroke="#6265FE" stroke-width="2" stroke-miterlimit="10"/>
<path d="M114.633 241.907C114.633 234.537 120.605 228.564 127.969 228.564C128.629 228.564 129.273 228.628 129.908 228.721C127.673 227.43 125.087 226.681 122.321 226.681C113.915 226.681 107.102 233.497 107.102 241.907C107.102 250.317 113.915 257.134 122.321 257.134C125.087 257.134 127.673 256.385 129.908 255.094C129.273 255.187 128.629 255.251 127.969 255.251C120.603 255.251 114.633 249.278 114.633 241.907Z" fill="#B6BBFF"/>
<path d="M137.539 241.907C137.539 236.265 134.465 231.351 129.908 228.721C129.273 228.628 128.629 228.564 127.969 228.564C120.605 228.564 114.633 234.539 114.633 241.907C114.633 249.276 120.605 255.251 127.969 255.251C128.629 255.251 129.273 255.187 129.908 255.094C134.465 252.464 137.539 247.549 137.539 241.907Z" fill="#6265FE"/>
<path d="M129.908 228.721C127.673 227.43 125.087 226.681 122.321 226.681C113.915 226.681 107.102 233.497 107.102 241.907C107.102 250.317 113.915 257.134 122.321 257.134C125.087 257.134 127.673 256.385 129.908 255.094C134.465 252.464 137.539 247.549 137.539 241.907C137.539 236.265 134.465 231.351 129.908 228.721Z" stroke="#6265FE" stroke-width="2" stroke-miterlimit="10"/>
<path d="M282.393 241.907C282.393 249.278 276.424 255.251 269.057 255.251C268.397 255.251 267.753 255.187 267.119 255.094C269.353 256.385 271.939 257.134 274.706 257.134C283.111 257.134 289.924 250.317 289.924 241.907C289.924 233.497 283.111 226.681 274.706 226.681C271.939 226.681 269.353 227.43 267.119 228.721C267.753 228.628 268.397 228.564 269.057 228.564C276.424 228.564 282.393 234.539 282.393 241.907Z" fill="#B6BBFF"/>
<path d="M259.487 241.907C259.487 247.549 262.561 252.464 267.119 255.094C267.753 255.187 268.397 255.251 269.057 255.251C276.423 255.251 282.393 249.276 282.393 241.907C282.393 234.539 276.423 228.564 269.057 228.564C268.397 228.564 267.753 228.628 267.119 228.721C262.563 231.351 259.487 236.265 259.487 241.907Z" fill="#6265FE"/>
<path d="M267.119 255.094C269.353 256.385 271.939 257.134 274.706 257.134C283.111 257.134 289.924 250.317 289.924 241.907C289.924 233.497 283.111 226.681 274.706 226.681C271.939 226.681 269.353 227.43 267.119 228.721C262.561 231.351 259.487 236.265 259.487 241.907C259.487 247.549 262.563 252.464 267.119 255.094Z" stroke="#6265FE" stroke-width="2" stroke-miterlimit="10"/>
<path d="M130.008 394.374C130.008 401.742 124.037 407.717 116.672 407.717C116.012 407.717 115.368 407.653 114.734 407.56C116.968 408.851 119.554 409.6 122.321 409.6C130.726 409.6 137.539 402.784 137.539 394.374C137.539 385.964 130.726 379.147 122.321 379.147C119.554 379.147 116.968 379.896 114.734 381.187C115.368 381.094 116.012 381.03 116.672 381.03C124.039 381.03 130.008 387.005 130.008 394.374Z" fill="#6265FE"/>
<path d="M107.102 394.374C107.102 400.016 110.176 404.93 114.734 407.56C115.368 407.653 116.012 407.717 116.672 407.717C124.038 407.717 130.008 401.742 130.008 394.374C130.008 387.005 124.037 381.03 116.672 381.03C116.012 381.03 115.368 381.094 114.734 381.187C110.176 383.817 107.102 388.732 107.102 394.374Z" fill="#B6BBFF"/>
<path d="M129.908 381.187C127.673 379.896 125.087 379.147 122.321 379.147C113.915 379.147 107.102 385.964 107.102 394.374C107.102 402.784 113.915 409.6 122.321 409.6C125.087 409.6 127.673 408.851 129.908 407.56C134.465 404.93 137.539 400.016 137.539 394.374C137.539 388.732 134.465 383.817 129.908 381.187Z" stroke="#6265FE" stroke-width="2" stroke-miterlimit="10"/>
<path d="M267.018 394.374C267.018 387.005 272.99 381.03 280.354 381.03C281.014 381.03 281.658 381.094 282.293 381.187C280.058 379.896 277.472 379.147 274.706 379.147C266.3 379.147 259.487 385.964 259.487 394.374C259.487 402.784 266.3 409.6 274.706 409.6C277.472 409.6 280.058 408.851 282.293 407.56C281.658 407.653 281.014 407.717 280.354 407.717C272.99 407.719 267.018 401.744 267.018 394.374Z" fill="#6265FE"/>
<path d="M289.924 394.374C289.924 388.732 286.85 383.817 282.293 381.187C281.658 381.094 281.014 381.03 280.354 381.03C272.988 381.03 267.018 387.005 267.018 394.374C267.018 401.742 272.99 407.717 280.354 407.717C281.014 407.717 281.658 407.653 282.293 407.56C286.85 404.93 289.924 400.018 289.924 394.374Z" fill="#B6BBFF"/>
<path d="M267.119 407.56C269.353 408.851 271.939 409.6 274.706 409.6C283.111 409.6 289.924 402.784 289.924 394.374C289.924 385.964 283.111 379.147 274.706 379.147C271.939 379.147 269.353 379.896 267.119 381.187C262.561 383.817 259.487 388.732 259.487 394.374C259.487 400.016 262.563 404.93 267.119 407.56Z" stroke="#6265FE" stroke-width="2" stroke-miterlimit="10"/>
<path d="M75.541 318.141C75.541 326.551 82.3543 333.368 90.7596 333.368V302.915C82.3562 302.915 75.541 309.732 75.541 318.141Z" fill="#B6BBFF"/>
<path d="M90.7595 302.915V333.368C99.1649 333.368 105.978 326.551 105.978 318.141C105.978 309.732 99.1649 302.915 90.7595 302.915Z" fill="#6265FE"/>
<path d="M98.3466 304.955C96.1123 303.664 93.5259 302.915 90.7596 302.915C82.3543 302.915 75.541 309.732 75.541 318.141C75.541 326.551 82.3543 333.368 90.7596 333.368C93.5259 333.368 96.1123 332.619 98.3466 331.328C102.904 328.698 105.978 323.783 105.978 318.141C105.978 312.499 102.904 307.585 98.3466 304.955Z" stroke="#6265FE" stroke-width="2" stroke-miterlimit="10"/>
<path d="M321.485 318.141C321.485 309.732 314.672 302.915 306.267 302.915V333.368C314.672 333.368 321.485 326.551 321.485 318.141Z" fill="#B6BBFF"/>
<path d="M306.267 333.368V302.915C297.862 302.915 291.048 309.732 291.048 318.141C291.048 326.551 297.862 333.368 306.267 333.368Z" fill="#6265FE"/>
<path d="M313.854 304.955C311.62 303.664 309.033 302.915 306.267 302.915C297.862 302.915 291.048 309.732 291.048 318.141C291.048 326.551 297.862 333.368 306.267 333.368C309.033 333.368 311.62 332.619 313.854 331.328C318.412 328.698 321.485 323.783 321.485 318.141C321.485 312.499 318.412 307.585 313.854 304.955Z" stroke="#6265FE" stroke-width="2" stroke-miterlimit="10"/>
<path d="M138.36 323.923H122.108L130.233 310.163L138.36 323.923Z" stroke="#B6BBFF" stroke-width="2" stroke-miterlimit="10"/>
<path d="M258.878 311.261H275.129L267.003 325.02L258.878 311.261Z" stroke="#B6BBFF" stroke-width="2" stroke-miterlimit="10"/>
<path d="M206.639 255.915H190.387L198.514 242.155L206.639 255.915Z" stroke="#B6BBFF" stroke-width="2" stroke-miterlimit="10"/>
<path d="M188.766 247.886H208.26" stroke="#B6BBFF" stroke-width="2" stroke-miterlimit="10"/>
<path d="M190.449 380.366H206.699L198.574 394.126L190.449 380.366Z" stroke="#B6BBFF" stroke-width="2" stroke-miterlimit="10"/>
<path d="M188.766 387.245H208.26" stroke="#B6BBFF" stroke-width="2" stroke-miterlimit="10"/>
<path d="M198.514 263.994V372.289" stroke="#6265FE" stroke-width="2" stroke-miterlimit="10"/>
<path d="M252.633 318.141H144.395" stroke="#6265FE" stroke-width="2" stroke-miterlimit="10"/>
<path d="M165.355 284.965L231.673 351.318" stroke="#6265FE" stroke-width="2" stroke-miterlimit="10"/>
<path d="M231.673 284.965L165.355 351.318" stroke="#6265FE" stroke-width="2" stroke-miterlimit="10"/>
<path d="M161.589 288.72L169.108 281.196" stroke="#6265FE" stroke-width="2" stroke-miterlimit="10"/>
<path d="M227.671 354.837L235.19 347.314" stroke="#6265FE" stroke-width="2" stroke-miterlimit="10"/>
<path d="M227.671 281.196L235.19 288.72" stroke="#6265FE" stroke-width="2" stroke-miterlimit="10"/>
<path d="M161.589 347.314L169.108 354.837" stroke="#6265FE" stroke-width="2" stroke-miterlimit="10"/>
<path d="M162.811 318.141C162.811 315.203 160.43 312.821 157.493 312.821C154.557 312.821 152.176 315.203 152.176 318.141C152.176 321.08 154.557 323.462 157.493 323.462C160.432 323.46 162.811 321.08 162.811 318.141Z" stroke="#6265FE" stroke-width="2" stroke-miterlimit="10"/>
<path d="M203.892 280.881C203.892 277.943 201.511 275.56 198.574 275.56C195.637 275.56 193.256 277.943 193.256 280.881C193.256 283.819 195.637 286.202 198.574 286.202C201.511 286.202 203.892 283.819 203.892 280.881Z" stroke="#6265FE" stroke-width="2" stroke-miterlimit="10"/>
<path d="M193.256 269.519C193.256 272.458 195.637 274.84 198.574 274.84C201.511 274.84 203.892 272.458 203.892 269.519" stroke="#6265FE" stroke-width="2" stroke-miterlimit="10"/>
<path d="M193.256 289.227H203.892" stroke="#6265FE" stroke-width="2" stroke-miterlimit="10"/>
<path d="M237.38 323.46V312.821L246.381 318.141L237.38 323.46Z" stroke="#6265FE" stroke-width="2" stroke-miterlimit="10"/>
<path d="M234.304 312.041V324.24" stroke="#6265FE" stroke-width="2" stroke-miterlimit="10"/>
<path d="M209.777 357.454C208.181 357.454 208.181 358.863 206.585 358.863C204.987 358.863 204.987 357.454 203.389 357.454C201.789 357.454 201.789 358.863 200.189 358.863C198.592 358.863 198.592 357.454 196.994 357.454C195.392 357.454 195.392 358.863 193.79 358.863C192.187 358.863 192.187 357.454 190.581 357.454C188.975 357.454 188.977 358.863 187.372 358.863" stroke="#6265FE" stroke-width="2" stroke-miterlimit="10"/>
<path d="M209.777 361.931C208.181 361.931 208.181 363.34 206.585 363.34C204.987 363.34 204.987 361.931 203.389 361.931C201.789 361.931 201.789 363.34 200.189 363.34C198.592 363.34 198.592 361.931 196.994 361.931C195.392 361.931 195.392 363.34 193.79 363.34C192.187 363.34 192.187 361.931 190.581 361.931C188.975 361.931 188.977 363.34 187.372 363.34" stroke="#6265FE" stroke-width="2" stroke-miterlimit="10"/>
<path d="M154.599 371.188L159.851 374.221C158.339 376.844 159.236 380.196 161.858 381.71C164.479 383.223 167.829 382.325 169.342 379.702L174.594 382.735" stroke="#B6BBFF" stroke-width="2" stroke-miterlimit="10"/>
<path d="M176.281 379.815L156.286 368.264" stroke="#B6BBFF" stroke-width="2" stroke-miterlimit="10"/>
<path d="M136.715 343.996L146.633 348.084L145.213 358.722" stroke="#B6BBFF" stroke-width="2" stroke-miterlimit="10"/>
<path d="M146.633 348.084L130.991 357.121" stroke="#B6BBFF" stroke-width="2" stroke-miterlimit="10"/>
<path d="M138.365 358.481L133.5 350.048" stroke="#B6BBFF" stroke-width="2" stroke-miterlimit="10"/>
<path d="M244.396 260.792C245.603 258.7 244.888 256.023 242.796 254.815C241.396 254.006 239.732 254.06 238.424 254.813C238.424 254.813 234.542 256.644 228.605 266.115C233.834 256.234 233.478 251.955 233.478 251.955C233.476 250.445 232.691 248.978 231.29 248.167C229.199 246.959 226.524 247.675 225.316 249.767" stroke="#B6BBFF" stroke-width="2" stroke-miterlimit="10"/>
<path d="M261.41 269.502C260.34 273.178 260.704 277.263 262.768 280.842C264.832 284.419 268.188 286.777 271.905 287.688" stroke="#B6BBFF" stroke-width="2" stroke-miterlimit="10"/>
<path d="M254.815 297.559C255.885 293.884 255.523 289.798 253.459 286.219C251.395 282.642 248.039 280.285 244.323 279.373" stroke="#B6BBFF" stroke-width="2" stroke-miterlimit="10"/>
<path d="M260.895 275.988L250.24 282.143" stroke="#B6BBFF" stroke-width="2" stroke-miterlimit="10"/>
<path d="M266.034 284.889L255.376 291.046" stroke="#B6BBFF" stroke-width="2" stroke-miterlimit="10"/>
<path d="M165.984 245.169C164.872 248.831 165.185 252.923 167.206 256.523C169.228 260.125 172.555 262.521 176.262 263.475" stroke="#B6BBFF" stroke-width="2" stroke-miterlimit="10"/>
<path d="M162.158 271.403C163.27 267.739 162.956 263.649 160.935 260.047C158.913 256.445 155.586 254.049 151.88 253.095" stroke="#B6BBFF" stroke-width="2" stroke-miterlimit="10"/>
<path d="M171.36 254.19L156.781 262.383" stroke="#B6BBFF" stroke-width="2" stroke-miterlimit="10"/>
<path d="M254.282 350.035C255.907 350.974 257.982 350.416 258.92 348.792C259.859 347.166 259.302 345.09 257.677 344.151C256.054 343.212 253.976 343.77 253.038 345.395C252.099 347.019 252.657 349.096 254.282 350.035Z" stroke="#B6BBFF" stroke-width="2" stroke-miterlimit="10"/>
<path d="M257.677 344.151C257.677 344.151 264.987 347.149 266.006 353.937" stroke="#B6BBFF" stroke-width="2" stroke-miterlimit="10"/>
<path d="M261.485 354.976C259.862 354.038 257.785 354.595 256.847 356.219C255.908 357.845 256.465 359.922 258.09 360.86C259.715 361.799 261.791 361.242 262.729 359.616C263.666 357.994 263.108 355.915 261.485 354.976Z" stroke="#B6BBFF" stroke-width="2" stroke-miterlimit="10"/>
<path d="M258.088 360.862C258.088 360.862 250.776 357.864 249.759 351.076" stroke="#B6BBFF" stroke-width="2" stroke-miterlimit="10"/>
<path d="M142.462 291.164L132.451 285.381C130.529 284.27 129.819 281.899 130.865 280.086C131.912 278.272 134.318 277.703 136.241 278.814C138.427 280.076 140.617 281.502 142.809 282.755C144.656 283.811 146.73 284.905 148.806 284.437C150.204 284.121 151.411 283.06 151.903 281.713C152.23 280.817 152.232 279.755 151.692 278.967C151.154 278.179 149.997 277.806 149.187 278.309C148.809 278.543 148.548 278.924 148.334 279.311C147.142 281.46 147.051 284.017 146.606 286.432C146.086 289.242 145.047 291.958 143.557 294.399" stroke="#B6BBFF" stroke-width="2" stroke-miterlimit="10"/>
<path d="M132.451 285.381C132.451 285.381 129.188 284.047 127.364 286.151" stroke="#B6BBFF" stroke-width="2" stroke-miterlimit="10"/>
<path d="M237.012 365.581L243.951 375.669C245.284 377.606 245.073 380.066 243.481 381.164C241.887 382.261 239.517 381.578 238.183 379.641C236.668 377.438 232.865 371.682 231.342 369.485" stroke="#B6BBFF" stroke-width="2" stroke-miterlimit="10"/>
<path d="M231.246 369.553L238.185 379.642C239.517 381.58 239.307 384.04 237.714 385.137C236.122 386.235 233.751 385.552 232.418 383.614C230.903 381.412 226.303 374.498 224.781 372.299" stroke="#B6BBFF" stroke-width="2" stroke-miterlimit="10"/>
<path d="M243.951 375.671C243.951 375.671 246.41 378.47 248.809 377.498" stroke="#B6BBFF" stroke-width="2" stroke-miterlimit="10"/>
<path d="M231.545 382.348C231.545 382.348 233.399 385.563 232.321 386.984C231.998 387.412 231.257 387.553 230.764 387.344C230.271 387.135 229.895 386.721 229.566 386.295C227.547 383.676 226.781 380.239 226.963 376.935C227.145 373.631 228.205 370.435 229.528 367.404" stroke="#B6BBFF" stroke-width="2" stroke-miterlimit="10"/>
<path d="M198.352 134.558L200.145 145.618L206.579 141.716L202.677 148.153L213.733 149.945L202.677 151.74L206.579 158.177L200.145 154.273L198.352 165.335L196.56 154.273L190.126 158.177L194.026 151.74L182.972 149.945L194.026 148.153L190.126 141.716L196.56 145.618L198.352 134.558Z" fill="#B6BBFF" stroke="#CFE7FF" stroke-width="2" stroke-miterlimit="10"/>
<path d="M198.352 470.948L200.145 482.008L206.579 478.106L202.677 484.543L213.733 486.336L202.677 488.128L206.579 494.566L200.145 490.664L198.352 501.723L196.56 490.664L190.126 494.566L194.026 488.128L182.972 486.336L194.026 484.543L190.126 478.106L196.56 482.008L198.352 470.948Z" fill="#CFE7FF" stroke="#B6BBFF" stroke-width="2" stroke-miterlimit="10"/>
</g>
<mask id="mask6_326_15" style="mask-type:luminance" maskUnits="userSpaceOnUse" x="32" y="27" width="333" height="566">
<path d="M32.2878 589.137V49.5229C32.2878 37.244 42.2369 27.2897 54.5093 27.2897H342.064C354.337 27.2897 364.288 37.244 364.288 49.5229V589.137C364.288 590.877 362.878 592.288 361.138 592.288H35.4352C33.6961 592.288 32.2878 590.877 32.2878 589.137Z" fill="white"/>
</mask>
<g mask="url(#mask6_326_15)">
<path d="M150.959 128.672L151.433 131.765L153.141 130.729L152.106 132.439L155.197 132.913L152.106 133.389L153.141 135.098L151.433 134.062L150.959 137.155L150.483 134.062L148.775 135.098L149.81 133.389L146.719 132.913L149.81 132.439L148.775 130.729L150.483 131.765L150.959 128.672Z" fill="#B6BBFF"/>
<path d="M157.496 96.1727L157.969 99.2657L159.678 98.2302L158.643 99.9373L161.734 100.413L158.643 100.89L159.678 102.599L157.969 101.563L157.496 104.656L157.02 101.563L155.311 102.599L156.346 100.89L153.255 100.413L156.346 99.9373L155.311 98.2302L157.02 99.2657L157.496 96.1727Z" fill="#B6BBFF"/>
<path d="M110.218 117.241L110.694 120.334L112.401 119.298L111.366 121.007L114.459 121.483L111.366 121.958L112.401 123.667L110.694 122.631L110.218 125.724L109.743 122.631L108.036 123.667L109.071 121.958L105.978 121.483L109.071 121.007L108.036 119.298L109.743 120.334L110.218 117.241Z" fill="#B6BBFF"/>
<path d="M105.978 79.1034L106.454 82.1963L108.162 81.1608L107.127 82.868L110.219 83.3441L107.127 83.8202L108.162 85.5293L106.454 84.4938L105.978 87.5868L105.504 84.4938L103.796 85.5293L104.831 83.8202L101.74 83.3441L104.831 82.868L103.796 81.1608L105.504 82.1963L105.978 79.1034Z" fill="#B6BBFF"/>
<path d="M238.314 164.405L238.788 167.498L240.496 166.463L239.462 168.172L242.553 168.648L239.462 169.124L240.496 170.831L238.788 169.796L238.314 172.889L237.838 169.796L236.13 170.831L237.165 169.124L234.074 168.648L237.165 168.172L236.13 166.463L237.838 167.498L238.314 164.405Z" fill="#B6BBFF"/>
<path d="M271.905 133.637L272.381 136.73L274.087 135.694L273.052 137.403L276.143 137.879L273.052 138.353L274.087 140.063L272.381 139.027L271.905 142.12L271.429 139.027L269.721 140.063L270.756 138.353L267.664 137.879L270.756 137.403L269.721 135.694L271.429 136.73L271.905 133.637Z" fill="#B6BBFF"/>
<path d="M289.924 190.862L290.4 193.955L292.108 192.919L291.073 194.628L294.165 195.103L291.073 195.579L292.108 197.288L290.4 196.252L289.924 199.345L289.45 196.252L287.742 197.288L288.777 195.579L285.686 195.103L288.777 194.628L287.742 192.919L289.45 193.955L289.924 190.862Z" fill="#B6BBFF"/>
<path d="M271.905 160.165L272.381 163.258L274.087 162.222L273.052 163.929L276.143 164.405L273.052 164.882L274.087 166.591L272.381 165.555L271.905 168.648L271.429 165.555L269.721 166.591L270.756 164.882L267.664 164.405L270.756 163.929L269.721 162.222L271.429 163.258L271.905 160.165Z" fill="#B6BBFF"/>
<path d="M238.314 125.153L238.788 128.246L240.496 127.211L239.462 128.92L242.553 129.396L239.462 129.87L240.496 131.579L238.788 130.544L238.314 133.637L237.838 130.544L236.13 131.579L237.165 129.87L234.074 129.396L237.165 128.92L236.13 127.211L237.838 128.246L238.314 125.153Z" fill="#B6BBFF"/>
<path d="M132.452 145.639L132.927 148.732L134.636 147.696L133.599 149.403L136.692 149.88L133.599 150.356L134.636 152.065L132.927 151.029L132.452 154.122L131.976 151.029L130.269 152.065L131.304 150.356L128.213 149.88L131.304 149.403L130.269 147.696L131.976 148.732L132.452 145.639Z" fill="#B6BBFF"/>
<path d="M193.256 104.656L193.732 107.749L195.44 106.714L194.403 108.421L197.497 108.897L194.403 109.373L195.44 111.082L193.732 110.047L193.256 113.139L192.78 110.047L191.074 111.082L192.109 109.373L189.018 108.897L192.109 108.421L191.074 106.714L192.78 107.749L193.256 104.656Z" fill="#B6BBFF"/>
<path d="M206.639 84.5907L207.115 87.6837L208.821 86.6481L207.786 88.3572L210.878 88.8333L207.786 89.3075L208.821 91.0166L207.115 89.9811L206.639 93.0741L206.163 89.9811L204.455 91.0166L205.492 89.3075L202.399 88.8333L205.492 88.3572L204.455 86.6481L206.163 87.6837L206.639 84.5907Z" fill="#B6BBFF"/>
<path d="M238.086 100.413L238.56 103.506L240.268 102.471L239.233 104.18L242.325 104.656L239.233 105.13L240.268 106.839L238.56 105.804L238.086 108.897L237.61 105.804L235.902 106.839L236.937 105.13L233.846 104.656L236.937 104.18L235.902 102.471L237.61 103.506L238.086 100.413Z" fill="#B6BBFF"/>
<path d="M310.505 160.165L310.981 163.258L312.689 162.222L311.654 163.929L314.746 164.405L311.654 164.882L312.689 166.591L310.981 165.555L310.505 168.648L310.031 165.555L308.323 166.591L309.358 164.882L306.267 164.405L309.358 163.929L308.323 162.222L310.031 163.258L310.505 160.165Z" fill="#B6BBFF"/>
<path d="M79.7814 155.922L80.2573 159.015L81.9635 157.979L80.9286 159.689L84.0199 160.165L80.9286 160.641L81.9635 162.348L80.2573 161.312L79.7814 164.405L79.3055 161.312L77.5974 162.348L78.6323 160.641L75.541 160.165L78.6323 159.689L77.5974 157.979L79.3055 159.015L79.7814 155.922Z" fill="#B6BBFF"/>
<path d="M87.3898 213.509L87.8657 216.602L89.5739 215.567L88.5389 217.276L91.6302 217.75L88.5389 218.226L89.5739 219.935L87.8657 218.9L87.3898 221.993L86.9139 218.9L85.2077 219.935L86.2427 218.226L83.1514 217.75L86.2427 217.276L85.2077 215.567L86.9139 216.602L87.3898 213.509Z" fill="#B6BBFF"/>
<path d="M327.432 190.862L327.908 193.955L329.616 192.919L328.581 194.628L331.672 195.103L328.581 195.579L329.616 197.288L327.908 196.252L327.432 199.345L326.958 196.252L325.25 197.288L326.285 195.579L323.194 195.103L326.285 194.628L325.25 192.919L326.958 193.955L327.432 190.862Z" fill="#B6BBFF"/>
<path d="M331.673 237.963L332.148 241.056L333.855 240.02L332.82 241.729L335.911 242.203L332.82 242.68L333.855 244.389L332.148 243.353L331.673 246.446L331.197 243.353L329.488 244.389L330.523 242.68L327.432 242.203L330.523 241.729L329.488 240.02L331.197 241.056L331.673 237.963Z" fill="#B6BBFF"/>
<path d="M102.61 176.744L103.084 179.837L104.792 178.802L103.757 180.511L106.849 180.987L103.757 181.463L104.792 183.17L103.084 182.135L102.61 185.228L102.134 182.135L100.426 183.17L101.461 181.463L98.3699 180.987L101.461 180.511L100.426 178.802L102.134 179.837L102.61 176.744Z" fill="#B6BBFF"/>
<path d="M164.597 164.405L165.073 167.498L166.779 166.463L165.744 168.172L168.835 168.648L165.744 169.124L166.779 170.831L165.073 169.796L164.597 172.889L164.121 169.796L162.413 170.831L163.448 169.124L160.356 168.648L163.448 168.172L162.413 166.463L164.121 167.498L164.597 164.405Z" fill="#B6BBFF"/>
<path d="M53.3932 230.732L53.8691 233.825L55.5753 232.789L54.5404 234.498L57.6317 234.974L54.5404 235.45L55.5753 237.157L53.8691 236.122L53.3932 239.215L52.9173 236.122L51.2092 237.157L52.2461 235.45L49.1528 234.974L52.2461 234.498L51.2092 232.789L52.9173 233.825L53.3932 230.732Z" fill="#B6BBFF"/>
<path d="M67.9577 383.198L68.4336 386.291L70.1398 385.255L69.1048 386.964L72.1981 387.441L69.1048 387.915L70.1398 389.624L68.4336 388.588L67.9577 391.681L67.4818 388.588L65.7756 389.624L66.8105 387.915L63.7173 387.441L66.8105 386.964L65.7756 385.255L67.4818 386.291L67.9577 383.198Z" fill="#B6BBFF"/>
<path d="M50.1217 357.076L50.5957 360.169L52.3038 359.134L51.2689 360.841L54.3602 361.317L51.2689 361.793L52.3038 363.502L50.5957 362.467L50.1217 365.56L49.6459 362.467L47.9377 363.502L48.9727 361.793L45.8813 361.317L48.9727 360.841L47.9377 359.134L49.6459 360.169L50.1217 357.076Z" fill="#B6BBFF"/>
<path d="M325.724 409.602L326.2 412.695L327.908 411.66L326.873 413.367L329.964 413.843L326.873 414.319L327.908 416.028L326.2 414.991L325.724 418.086L325.25 414.991L323.542 416.028L324.577 414.319L321.485 413.843L324.577 413.367L323.542 411.66L325.25 412.695L325.724 409.602Z" fill="#B6BBFF"/>
<path d="M342.666 381.417L343.142 384.51L344.848 383.475L343.813 385.184L346.907 385.66L343.813 386.136L344.848 387.843L343.142 386.808L342.666 389.901L342.19 386.808L340.484 387.843L341.519 386.136L338.428 385.66L341.519 385.184L340.484 383.475L342.19 384.51L342.666 381.417Z" fill="#B6BBFF"/>
<path d="M351.145 329.126L351.621 332.22L353.327 331.183L352.292 332.892L355.385 333.368L352.292 333.844L353.327 335.552L351.621 334.516L351.145 337.609L350.669 334.516L348.963 335.552L349.998 333.844L346.906 333.368L349.998 332.892L348.963 331.183L350.669 332.22L351.145 329.126Z" fill="#B6BBFF"/>
<path d="M45.8815 294.307L46.3574 297.4L48.0656 296.365L47.0287 298.074L50.1219 298.55L47.0287 299.024L48.0656 300.733L46.3574 299.698L45.8815 302.791L45.4056 299.698L43.6994 300.733L44.7344 299.024L41.6431 298.55L44.7344 298.074L43.6994 296.365L45.4056 297.4L45.8815 294.307Z" fill="#B6BBFF"/>
<path d="M67.9577 199.345L68.4336 202.438L70.1398 201.403L69.1048 203.112L72.1981 203.586L69.1048 204.062L70.1398 205.771L68.4336 204.736L67.9577 207.829L67.4818 204.736L65.7756 205.771L66.8105 204.062L63.7173 203.586L66.8105 203.112L65.7756 201.403L67.4818 202.438L67.9577 199.345Z" fill="#B6BBFF"/>
<path d="M54.3603 174.761L54.8362 177.854L56.5443 176.818L55.5074 178.525L58.6007 179.001L55.5074 179.477L56.5443 181.187L54.8362 180.151L54.3603 183.244L53.8844 180.151L52.1782 181.187L53.2131 179.477L50.1218 179.001L53.2131 178.525L52.1782 176.818L53.8844 177.854L54.3603 174.761Z" fill="#B6BBFF"/>
<path d="M321.486 206.089L321.961 209.182L323.668 208.146L322.633 209.855L325.724 210.329L322.633 210.806L323.668 212.515L321.961 211.479L321.486 214.572L321.01 211.479L319.303 212.515L320.338 210.806L317.245 210.329L320.338 209.855L319.303 208.146L321.01 209.182L321.486 206.089Z" fill="#B6BBFF"/>
<path d="M351.145 264.561L351.621 267.654L353.327 266.618L352.292 268.325L355.385 268.801L352.292 269.278L353.327 270.987L351.621 269.951L351.145 273.044L350.669 269.951L348.963 270.987L349.998 269.278L346.906 268.801L349.998 268.325L348.963 266.618L350.669 267.654L351.145 264.561Z" fill="#B6BBFF"/>
<path d="M351.145 264.561L351.621 267.654L353.327 266.618L352.292 268.325L355.385 268.801L352.292 269.278L353.327 270.987L351.621 269.951L351.145 273.044L350.669 269.951L348.963 270.987L349.998 269.278L346.906 268.801L349.998 268.325L348.963 266.618L350.669 267.654L351.145 264.561Z" fill="#B6BBFF"/>
<path d="M141.675 60.5592L142.149 63.6522L143.857 62.6167L142.822 64.3257L145.914 64.8019L142.822 65.2761L143.857 66.9851L142.149 65.9496L141.675 69.0426L141.199 65.9496L139.491 66.9851L140.526 65.2761L137.435 64.8019L140.526 64.3257L139.491 62.6167L141.199 63.6522L141.675 60.5592Z" fill="#B6BBFF"/>
<path d="M259.309 504.812L258.833 501.719L257.125 502.755L258.16 501.046L255.069 500.571L258.16 500.095L257.125 498.386L258.833 499.422L259.309 496.329L259.783 499.422L261.491 498.386L260.456 500.095L263.548 500.571L260.456 501.046L261.491 502.755L259.783 501.719L259.309 504.812Z" fill="#B6BBFF"/>
<path d="M231.342 513.872L230.867 510.779L229.158 511.815L230.193 510.106L227.102 509.632L230.193 509.156L229.158 507.447L230.867 508.482L231.342 505.389L231.818 508.482L233.525 507.447L232.49 509.156L235.581 509.632L232.49 510.106L233.525 511.815L231.818 510.779L231.342 513.872Z" fill="#B6BBFF"/>
<path d="M325.724 518.115L325.25 515.022L323.542 516.058L324.577 514.349L321.485 513.872L324.577 513.396L323.542 511.689L325.25 512.725L325.724 509.632L326.2 512.725L327.908 511.689L326.873 513.396L329.964 513.872L326.873 514.349L327.908 516.058L326.2 515.022L325.724 518.115Z" fill="#B6BBFF"/>
<path d="M295.809 541.931L295.333 538.839L293.625 539.874L294.66 538.165L291.569 537.689L294.66 537.213L293.625 535.506L295.333 536.541L295.809 533.448L296.283 536.541L297.991 535.506L296.956 537.213L300.047 537.689L296.956 538.165L297.991 539.874L296.283 538.839L295.809 541.931Z" fill="#B6BBFF"/>
<path d="M167.942 476.161L167.466 473.068L165.759 474.101L166.794 472.394L163.703 471.918L166.794 471.442L165.759 469.735L167.466 470.77L167.942 467.677L168.417 470.77L170.124 469.735L169.089 471.442L172.18 471.918L169.089 472.394L170.124 474.101L168.417 473.068L167.942 476.161Z" fill="#B6BBFF"/>
<path d="M130.382 501.82L129.906 498.725L128.2 499.761L129.235 498.053L126.141 497.577L129.235 497.101L128.2 495.394L129.906 496.43L130.382 493.337L130.858 496.43L132.566 495.394L131.529 497.101L134.622 497.577L131.529 498.053L132.566 499.761L130.858 498.725L130.382 501.82Z" fill="#B6BBFF"/>
<path d="M118.554 449.662L118.08 446.569L116.372 447.604L117.407 445.895L114.316 445.421L117.407 444.945L116.372 443.236L118.08 444.271L118.554 441.178L119.03 444.271L120.738 443.236L119.703 444.945L122.795 445.421L119.703 445.895L120.738 447.604L119.03 446.569L118.554 449.662Z" fill="#B6BBFF"/>
<path d="M135.934 479.606L135.458 476.513L133.749 477.549L134.784 475.84L131.693 475.363L134.784 474.889L133.749 473.18L135.458 474.216L135.934 471.123L136.407 474.216L138.116 473.18L137.081 474.889L140.172 475.363L137.081 475.84L138.116 477.549L136.407 476.513L135.934 479.606Z" fill="#B6BBFF"/>
<path d="M159.463 516.814L158.987 513.721L157.281 514.757L158.316 513.048L155.224 512.572L158.316 512.097L157.281 510.388L158.987 511.424L159.463 508.331L159.939 511.424L161.645 510.388L160.61 512.097L163.703 512.572L160.61 513.048L161.645 514.757L159.939 513.721L159.463 516.814Z" fill="#B6BBFF"/>
<path d="M300.048 493.089L299.572 489.996L297.865 491.031L298.9 489.324L295.809 488.848L298.9 488.372L297.865 486.663L299.572 487.7L300.048 484.605L300.523 487.7L302.23 486.663L301.195 488.372L304.288 488.848L301.195 489.324L302.23 491.031L300.523 489.996L300.048 493.089Z" fill="#B6BBFF"/>
<path d="M202.399 529.205L201.925 526.112L200.217 527.148L201.251 525.441L198.16 524.965L201.251 524.489L200.217 522.779L201.925 523.815L202.399 520.722L202.874 523.815L204.583 522.779L203.548 524.489L206.639 524.965L203.548 525.441L204.583 527.148L202.874 526.112L202.399 529.205Z" fill="#B6BBFF"/>
<path d="M194.688 554.381L194.212 551.288L192.506 552.323L193.541 550.616L190.449 550.14L193.541 549.664L192.506 547.955L194.212 548.99L194.688 545.897L195.164 548.99L196.872 547.955L195.837 549.664L198.928 550.14L195.837 550.616L196.872 552.323L195.164 551.288L194.688 554.381Z" fill="#B6BBFF"/>
<path d="M163.703 546.172L163.227 543.079L161.519 544.115L162.554 542.408L159.463 541.931L162.554 541.455L161.519 539.748L163.227 540.784L163.703 537.689L164.177 540.784L165.885 539.748L164.85 541.455L167.942 541.931L164.85 542.408L165.885 544.115L164.177 543.079L163.703 546.172Z" fill="#B6BBFF"/>
<path d="M102.61 475.88L102.134 472.787L100.426 473.823L101.461 472.116L98.3699 471.64L101.461 471.163L100.426 469.454L102.134 470.49L102.61 467.397L103.084 470.49L104.792 469.454L103.757 471.163L106.849 471.64L103.757 472.116L104.792 473.823L103.084 472.787L102.61 475.88Z" fill="#B6BBFF"/>
<path d="M327.432 469.079L326.958 465.984L325.25 467.019L326.285 465.312L323.194 464.836L326.285 464.36L325.25 462.653L326.958 463.688L327.432 460.595L327.908 463.688L329.616 462.653L328.581 464.36L331.672 464.836L328.581 465.312L329.616 467.019L327.908 465.984L327.432 469.079Z" fill="#B6BBFF"/>
<path d="M278.523 516.814L278.047 513.721L276.341 514.757L277.374 513.048L274.282 512.572L277.374 512.097L276.341 510.388L278.047 511.424L278.523 508.331L278.999 511.424L280.705 510.388L279.67 512.097L282.761 512.572L279.67 513.048L280.705 514.757L278.999 513.721L278.523 516.814Z" fill="#B6BBFF"/>
<path d="M79.7814 456.128L79.3055 453.035L77.5974 454.071L78.6323 452.362L75.541 451.886L78.6323 451.411L77.5974 449.702L79.3055 450.738L79.7814 447.645L80.2573 450.738L81.9635 449.702L80.9286 451.411L84.0199 451.886L80.9286 452.362L81.9635 454.071L80.2573 453.035L79.7814 456.128Z" fill="#B6BBFF"/>
<path d="M317.245 451.975L316.771 448.882L315.063 449.915L316.098 448.208L313.007 447.732L316.098 447.256L315.063 445.549L316.771 446.584L317.245 443.491L317.721 446.584L319.429 445.549L318.394 447.256L321.485 447.732L318.394 448.208L319.429 449.915L317.721 448.882L317.245 451.975Z" fill="#B6BBFF"/>
<path d="M258.089 475.88L257.615 472.787L255.906 473.823L256.941 472.116L253.85 471.64L256.941 471.163L255.906 469.454L257.615 470.49L258.089 467.397L258.564 470.49L260.273 469.454L259.238 471.163L262.329 471.64L259.238 472.116L260.273 473.823L258.564 472.787L258.089 475.88Z" fill="#B6BBFF"/>
<path d="M342.308 434.139L341.832 431.046L340.126 432.081L341.161 430.372L338.07 429.898L341.161 429.422L340.126 427.713L341.832 428.748L342.308 425.655L342.784 428.748L344.49 427.713L343.455 429.422L346.549 429.898L343.455 430.372L344.49 432.081L342.784 431.046L342.308 434.139Z" fill="#B6BBFF"/>
<path d="M280.383 451.975L279.908 448.882L278.199 449.915L279.234 448.208L276.143 447.732L279.234 447.256L278.199 445.549L279.908 446.584L280.383 443.491L280.857 446.584L282.566 445.549L281.531 447.256L284.622 447.732L281.531 448.208L282.566 449.915L280.857 448.882L280.383 451.975Z" fill="#B6BBFF"/>
<path d="M88.7807 438.352L88.3048 435.259L86.5986 436.295L87.6335 434.586L84.5422 434.11L87.6335 433.636L86.5986 431.926L88.3048 432.962L88.7807 429.869L89.2566 432.962L90.9647 431.926L89.9298 433.636L93.0211 434.11L89.9298 434.586L90.9647 436.295L89.2566 435.259L88.7807 438.352Z" fill="#B6BBFF"/>
<path d="M241.431 537.689L240.955 534.596L239.247 535.631L240.282 533.924L237.19 533.448L240.282 532.972L239.247 531.263L240.955 532.298L241.431 529.205L241.907 532.298L243.613 531.263L242.578 532.972L245.669 533.448L242.578 533.924L243.613 535.631L241.907 534.596L241.431 537.689Z" fill="#B6BBFF"/>
<path d="M226.939 462.647L227.415 465.74L229.121 464.704L228.087 466.413L231.178 466.89L228.087 467.364L229.121 469.073L227.415 468.037L226.939 471.13L226.463 468.037L224.755 469.073L225.79 467.364L222.699 466.89L225.79 466.413L224.755 464.704L226.463 465.74L226.939 462.647Z" fill="#B6BBFF"/>
<path d="M63.7194 426.253L63.2435 423.161L61.5354 424.196L62.5703 422.487L59.479 422.013L62.5703 421.537L61.5354 419.828L63.2435 420.863L63.7194 417.77L64.1933 420.863L65.9015 419.828L64.8665 421.537L67.9578 422.013L64.8665 422.487L65.9015 424.196L64.1933 423.161L63.7194 426.253Z" fill="#B6BBFF"/>
</g>
<path d="M32.2878 589.137V49.5229C32.2878 37.244 42.2369 27.2897 54.5093 27.2897H342.064C354.337 27.2897 364.288 37.244 364.288 49.5229V589.137C364.288 590.877 362.878 592.288 361.138 592.288H35.4352C33.6961 592.288 32.2878 590.877 32.2878 589.137Z" stroke="#B6BBFF" stroke-width="2" stroke-miterlimit="10"/>
<path d="M157.948 27.2877C157.948 49.4919 175.939 67.4922 198.131 67.4922C220.324 67.4922 238.314 49.4919 238.314 27.2877H157.948Z" fill="#CFE7FF" stroke="#B6BBFF" stroke-width="2" stroke-miterlimit="10"/>
</svg>
